<?xml version="1.0" encoding="utf-8"?>
<!-- Generator: Adobe Illustrator 28.3.0, SVG Export Plug-In . SVG Version: 6.00 Build 0)  -->
<svg version="1.1" id="Capa_1" xmlns="http://www.w3.org/2000/svg" xmlns:xlink="http://www.w3.org/1999/xlink" x="0px" y="0px"
	 viewBox="0 0 400 400" style="enable-background:new 0 0 400 400;" xml:space="preserve">
<style type="text/css">
	.st0{fill:#FFFFFF;}
</style>
<g>
	<path class="st0" d="M352.07,239.6H47.93c-21.83,0-39.6-17.76-39.6-39.6c0-21.83,17.76-39.6,39.6-39.6h304.13
		c21.83,0,39.6,17.76,39.6,39.6C391.66,221.83,373.9,239.6,352.07,239.6z M47.93,165.04c-19.28,0-34.96,15.68-34.96,34.96
		s15.68,34.96,34.96,34.96h304.13c19.28,0,34.96-15.68,34.96-34.96s-15.68-34.96-34.96-34.96H47.93z"/>
	<g>
		<path class="st0" d="M123.39,204.89c0.65-2.65,1.44-5.27,1.91-7.95c0.4-2.31,2.01-1.85,3.5-1.94c1.55-0.09,2.8,0.06,3.16,1.98
			c0.45,2.42,1.11,4.8,1.85,7.91c1.51-2.95,1.7-5.45,2.06-7.84c0.43-2.83,2.46-2.07,4.03-1.98c2.44,0.15,0.86,1.83,0.67,2.66
			c-0.95,3.94-2.26,7.8-3.1,11.77c-0.51,2.4-2.04,2.11-3.69,2.14c-1.61,0.03-2.99,0.11-3.3-2.12c-0.32-2.24-1.1-4.42-1.83-7.15
			c-1.44,2.67-1.73,5.12-2.23,7.45c-0.45,2.1-1.82,1.83-3.22,1.81c-1.46-0.02-3.11,0.49-3.66-1.73c-1-4.04-2.24-8.03-3.21-12.08
			c-0.2-0.85-1.66-2.56,0.66-2.71c1.53-0.1,3.72-1.04,4.27,1.67c0.54,2.68,1.07,5.37,1.61,8.05
			C123.04,204.84,123.21,204.87,123.39,204.89z"/>
		<path class="st0" d="M53.38,201.38c0-2.63,0.14-5.27-0.04-7.89c-0.17-2.39,0.83-3.08,3.06-2.91c1.97,0.15,3.96-0.04,5.94,0.06
			c4.49,0.23,7.09,2.64,7.19,6.54c0.11,3.96-2.32,6.94-6.73,6.92c-3.73-0.01-4.51,1.43-4.1,4.59c0.24,1.81-0.01,3.05-2.51,3.03
			c-2.46-0.02-2.98-0.94-2.85-3.11C53.5,206.21,53.38,203.79,53.38,201.38z M61.05,199.82c1.77,0.09,2.98-0.5,3-2.33
			c0.02-2.07-1.42-2.36-3.15-2.46c-2.17-0.13-2.15,1.14-2.21,2.7C58.62,199.62,59.58,200.01,61.05,199.82z"/>
		<path class="st0" d="M234.15,203.52c0-2.08-0.01-4.17,0.01-6.25c0.01-1.02,0.36-2.58,1.43-1.9c2.03,1.29,3.52,0.1,5.24-0.27
			c2.95-0.64,5.41,2.24,7.38,2.07c2.11-0.19,4.34-2.56,7.17-2.07c2.82,0.48,4.51,2.17,5.02,4.95c0.59,3.26,0.24,6.56,0.3,9.85
			c0.02,1.21-0.45,1.79-1.75,1.74c-1.35-0.04-1.26-0.94-1.27-1.81c-0.02-2.52,0.05-5.04-0.03-7.56c-0.1-3.08-1.67-4.73-4.32-4.7
			c-2.65,0.03-4.21,1.69-4.3,4.74c-0.07,2.52-0.05,5.04-0.02,7.56c0.01,1.21-0.39,1.82-1.72,1.77c-1.24-0.05-1.41-0.78-1.41-1.74
			c0-2.52,0.04-5.04-0.03-7.56c-0.08-3.12-1.57-4.82-4.22-4.76c-2.98,0.07-4.34,1.86-4.46,4.65c-0.11,2.41-0.03,4.82-0.09,7.23
			c-0.02,0.92,0.29,2.07-1.28,2.17c-1.73,0.12-1.63-1.05-1.64-2.16C234.14,207.47,234.15,205.5,234.15,203.52z"/>
		<path class="st0" d="M106.14,211.94c-5.13,0.08-8.79-3.46-8.84-8.56c-0.05-5.03,3.59-8.72,8.68-8.79
			c5.03-0.07,8.81,3.61,8.84,8.61C114.86,208.27,111.29,211.86,106.14,211.94z M109.4,203.02c-0.16-1.93-1.08-3.64-3.28-3.64
			c-2.38,0-3.36,1.7-3.3,4.02c0.05,2.12,0.81,3.77,3.16,3.77C108.47,207.15,109.29,205.39,109.4,203.02z"/>
		<path class="st0" d="M149.66,194.59c1.62,0.2,3.41,0.36,4.8,1.59c1.16,1.03,2.71,2.53,1.73,3.82c-0.89,1.17-3.02,0.8-4.55,0.04
			c-0.47-0.23-0.76-0.8-1.23-1.04c-0.86-0.45-1.86-0.38-2.26,0.52c-0.41,0.91,0.49,1.31,1.24,1.55c1.36,0.44,2.74,0.81,4.08,1.28
			c2.09,0.73,3.26,2.2,3.25,4.43c-0.01,2.23-1.22,3.73-3.27,4.46c-3.05,1.08-6.07,0.99-8.81-0.89c-1.27-0.87-2.86-2.27-2.04-3.69
			c0.87-1.5,3.09-0.96,4.5-0.37c1.39,0.59,3.08,2.82,3.92,0.7c0.78-1.97-2.14-1.74-3.52-2.2c-2.67-0.88-5.04-1.95-4.79-5.3
			C142.95,196.61,145.85,194.59,149.66,194.59z"/>
		<path class="st0" d="M296.03,197.08c0-2.24,0.02-4.07-0.01-5.89c-0.01-1.03,0.29-1.7,1.48-1.66c1.12,0.04,1.55,0.62,1.55,1.67
			c-0.01,6.25,0,12.5-0.01,18.75c0,0.63,0.07,1.45-0.8,1.57c-0.7,0.09-1.79,0.5-2.03-0.42c-0.38-1.42-0.83-0.97-1.74-0.52
			c-4.26,2.11-8.07,1.51-10.38-1.51c-2.56-3.35-2.45-8.57,0.24-11.6c2.58-2.91,6.44-3.27,10.49-1
			C295.01,196.59,295.21,196.68,296.03,197.08z M296.02,203.44c0.02-3.42-2.19-5.86-5.33-5.88c-3.14-0.02-5.31,2.37-5.31,5.85
			c0,3.57,2.04,5.83,5.28,5.83C293.88,209.23,296,206.94,296.02,203.44z"/>
		<path class="st0" d="M323.45,197.03c0-2.19,0.01-3.82,0-5.44c-0.01-1.06,0.12-1.99,1.5-2.05c1.43-0.07,1.54,0.83,1.54,1.92
			c-0.02,6.13-0.01,12.26-0.01,18.38c0,2.4-1.66,2.29-2.71,1.28c-1.05-1-1.52-0.58-2.43-0.16c-3.8,1.75-7.54,1-9.81-1.87
			c-2.4-3.05-2.39-8.43,0.02-11.35c2.45-2.96,6.29-3.58,10.13-1.63C322.06,196.3,322.43,196.5,323.45,197.03z M323.42,203.49
			c0.03-3.46-2.1-5.87-5.27-5.93c-3.1-0.06-5.42,2.42-5.44,5.79c-0.01,3.47,2.13,5.84,5.32,5.88
			C321.27,209.27,323.39,207.01,323.42,203.49z"/>
		<path class="st0" d="M346.67,203.81c0,2.19,0.03,4.39-0.01,6.58c-0.04,1.96-2.22,1.85-2.44,1.28c-0.96-2.5-1.99-0.8-3-0.31
			c-3.37,1.64-7.29,0.82-9.55-2c-2.44-3.05-2.44-8.26-0.02-11.37c2.1-2.69,6.27-3.52,9.6-2c0.86,0.39,1.72,2.25,2.84-0.17
			c0.42-0.9,2.54-0.66,2.57,1.4C346.7,199.43,346.67,201.62,346.67,203.81z M332.87,203.52c-0.07,3.46,2.06,5.9,5.2,5.98
			c3.15,0.07,5.48-2.29,5.56-5.66c0.08-3.38-2.11-5.9-5.24-6C335.26,197.74,332.94,200.13,332.87,203.52z"/>
		<path class="st0" d="M183.96,203.44c0,2.19-0.01,4.37,0,6.56c0.01,1.9-1.94,2.13-2.31,1.38c-1.14-2.31-2.09-0.68-3.11-0.22
			c-3.44,1.58-7.26,0.74-9.49-2.12c-2.41-3.09-2.4-8.28,0.03-11.33c2.13-2.68,6.27-3.51,9.57-1.98c0.95,0.44,1.78,1.98,2.96-0.17
			c0.52-0.95,2.29-0.47,2.32,1.32C183.98,199.07,183.96,201.26,183.96,203.44z M170.3,203.43c0.02,3.44,2.23,5.83,5.37,5.81
			c3.17-0.02,5.35-2.39,5.36-5.83c0.01-3.38-2.27-5.86-5.38-5.85C172.52,197.57,170.28,200.03,170.3,203.43z"/>
		<path class="st0" d="M271.91,195.02c4.31-0.02,7.3,2.42,7.9,6.37c0.32,2.13-0.09,3.33-2.67,3.15c-2.73-0.19-5.5,0.01-8.24-0.05
			c-2.08-0.05-2.23,0.83-1.36,2.4c1.47,2.67,5.27,3.38,7.68,1.4c0.58-0.48,0.97-1.22,1.6-1.61c0.65-0.4,1.59-0.49,2.19,0.01
			c0.82,0.69-0.01,1.41-0.36,1.98c-1.65,2.78-5.79,4.02-9.4,2.89c-3.48-1.09-5.84-4.87-5.49-8.81
			C264.2,197.89,267.2,195.04,271.91,195.02z M271.73,202.26c0.55,0,1.12,0.11,1.63-0.02c1.13-0.3,3.03,0.9,3.27-0.93
			c0.23-1.75-1.25-2.9-2.92-3.49c-1.29-0.45-2.6-0.44-3.85,0.09c-1.49,0.64-2.87,1.83-2.67,3.38c0.23,1.86,2.13,0.62,3.24,0.95
			C270.82,202.36,271.29,202.26,271.73,202.26z"/>
		<path class="st0" d="M86.08,200.57c0,2.96-0.09,5.92,0.03,8.87c0.09,2.1-1.06,2.25-2.68,2.21c-1.53-0.03-2.8,0.06-2.76-2.13
			c0.1-5.91,0.08-11.83,0-17.74c-0.03-2.03,1.01-2.34,2.68-2.32c1.59,0.02,2.83,0.13,2.76,2.23
			C86.01,194.65,86.08,197.62,86.08,200.57z"/>
		<path class="st0" d="M221.87,203.71c0,2.08-0.05,4.16,0.01,6.24c0.05,1.59-1.19,2.23-2.03,1.52c-1.49-1.26-2.45-0.33-3.71,0.08
			c-4.52,1.47-8.62-1.09-9.02-5.77c-0.24-2.83-0.09-5.69-0.09-8.53c0-1.03,0.08-2.03,1.53-1.98c1.5,0.04,1.38,1.13,1.39,2.11
			c0.02,2.41-0.01,4.82,0.03,7.22c0.04,2.83,1.32,4.61,4.35,4.63c3,0.02,4.38-1.72,4.51-4.53c0.11-2.4,0.05-4.81,0.09-7.22
			c0.02-1.11-0.06-2.32,1.64-2.2c1.5,0.11,1.26,1.26,1.28,2.2C221.9,199.55,221.87,201.63,221.87,203.71z"/>
		<path class="st0" d="M89.55,200.41c0-2.96,0.08-5.92-0.03-8.88c-0.07-1.96,1.09-2.08,2.54-2.05c1.46,0.03,2.88-0.16,2.85,2.09
			c-0.09,6.03-0.09,12.06,0,18.08c0.03,2.34-1.5,1.91-2.89,1.98c-1.47,0.08-2.57-0.06-2.5-2.02
			C89.63,206.55,89.55,203.48,89.55,200.41z"/>
		<path class="st0" d="M201.6,211.63c-3.1,0.07-4.6-1.44-4.67-4.37c-0.05-2.3,0.01-4.6-0.03-6.9c-0.02-1.12,0.41-2.46-1.4-2.82
			c-0.75-0.15-0.75-1.55-0.51-1.58c2.96-0.34,0.64-4.52,3.55-4.76c1.04-0.08,1.36,0.64,1.28,1.48c-0.18,2.03,0.74,2.77,2.7,2.57
			c0.81-0.09,1.55,0.12,1.56,1.19c0.01,1.08-0.72,1.31-1.53,1.21c-2.66-0.33-2.78,1.29-2.69,3.23c0.08,1.86,0.01,3.73,0.04,5.59
			c0.02,1.44,0.36,2.62,2.2,2.58c0.99-0.02,2.14-0.07,1.99,1.45C203.89,212.34,202.38,211.32,201.6,211.63z"/>
		<path class="st0" d="M77.24,203.57c0,1.64-0.06,3.28,0.02,4.92c0.1,1.92,0.04,3.26-2.65,3.25c-2.6-0.02-2.79-1.2-2.73-3.2
			c0.1-3.71,0.14-7.43-0.01-11.14c-0.09-2.29,1.14-2.37,2.87-2.41c1.76-0.04,2.66,0.4,2.54,2.36
			C77.13,199.41,77.23,201.49,77.24,203.57z"/>
		<path class="st0" d="M303.41,203.3c0-2.08-0.01-4.16,0-6.23c0-0.93,0.11-1.76,1.36-1.81c1.18-0.04,1.54,0.62,1.55,1.63
			c0.01,4.37,0,8.75,0.01,13.12c0,1.03-0.35,1.63-1.53,1.6c-1.26-0.03-1.38-0.81-1.38-1.75
			C303.41,207.68,303.41,205.49,303.41,203.3z"/>
		<path class="st0" d="M74.64,193.29c-1.8,0-3.01-0.78-3.03-2.66c-0.02-2.04,1.29-2.89,3.21-2.83c1.81,0.06,2.95,1.04,2.89,2.84
			C77.65,192.44,76.47,193.33,74.64,193.29z"/>
		<path class="st0" d="M304.84,189.12c1.15,0.06,1.83,0.66,1.79,1.82c-0.03,0.99-0.66,1.6-1.67,1.63c-1.2,0.04-1.81-0.69-1.79-1.81
			C303.21,189.79,303.79,189.17,304.84,189.12z"/>
	</g>
</g>
</svg>
