<?xml version="1.0" encoding="utf-8"?>
<!-- Generator: Adobe Illustrator 28.3.0, SVG Export Plug-In . SVG Version: 6.00 Build 0)  -->
<svg version="1.1" id="Capa_1" xmlns="http://www.w3.org/2000/svg" xmlns:xlink="http://www.w3.org/1999/xlink" x="0px" y="0px"
	 viewBox="0 0 400 400" style="enable-background:new 0 0 400 400;" xml:space="preserve">
<style type="text/css">
	.st0{fill:#FFFFFF;}
</style>
<g>
	<path class="st0" d="M221.31,31.78c1.11,0.47,1.43,1.18,1.81,1.85c28.77,50.57,57.54,101.14,86.32,151.71
		c9.37,16.46,18.75,32.92,28.12,49.38c1.56,2.75,1.57,2.74-1.46,2.74c-15.76,0-31.52-0.03-47.29,0.04c-1.82,0.01-2.52-0.57-3.06-2.3
		c-8.95-28.45-18-56.87-27.01-85.3c-10.5-33.13-20.97-66.27-31.47-99.4C225.34,44.35,223.36,38.2,221.31,31.78z"/>
	<path class="st0" d="M58.45,234.78c38.99-68.03,77.74-135.64,116.49-203.25c0.18,0.07,0.36,0.13,0.54,0.2
		c-0.81,2.67-1.6,5.34-2.45,8c-5.59,17.6-11.2,35.21-16.79,52.81c-5.74,18.05-11.47,36.1-17.21,54.15
		c-5.9,18.57-11.81,37.15-17.71,55.72c-3.27,10.3-6.53,20.59-9.77,30.9c-0.29,0.93-0.66,1.49-1.75,1.48
		C92.87,234.77,75.94,234.78,58.45,234.78z"/>
	<path class="st0" d="M341.27,284.84c8.15,0,16.31-0.16,24.45,0.04c7.12,0.18,10.35,3.38,10.61,10.45
		c0.44,11.91,0.44,23.83,0.01,35.73c-0.28,7.7-3.62,10.85-11.45,10.91c-15.76,0.13-31.51,0.07-47.27,0
		c-1.85-0.01-3.73-0.46-5.52-0.96c-3.52-0.97-5.1-3.68-5.76-7.04c-0.2-0.99-0.3-2.02-0.3-3.03c-0.02-11.68-0.01-23.36-0.01-35.04
		c0-0.24,0-0.47,0.01-0.71c0.39-6.75,3.54-10.12,10.31-10.31C324.65,284.67,332.96,284.84,341.27,284.84z M341.37,331.14
		c6.51,0,13.02-0.05,19.53,0.04c1.69,0.02,2.31-0.34,2.29-2.19c-0.09-10.59-0.08-21.18-0.01-31.77c0.01-1.7-0.36-2.3-2.19-2.29
		c-13.18,0.08-26.36,0.07-39.53,0.01c-1.69-0.01-2.32,0.35-2.31,2.19c0.08,10.59,0.1,21.18-0.01,31.77c-0.02,2,0.74,2.3,2.46,2.28
		C328.19,331.09,334.78,331.14,341.37,331.14z"/>
	<path class="st0" d="M212.95,313.53c0-8.86,0.05-17.72-0.04-26.58c-0.02-1.84,0.5-2.37,2.35-2.34c13.09,0.18,26.19-0.38,39.27,0.29
		c9.47,0.48,18.07,3.42,23.71,11.75c8.02,11.86,5.83,33.95-9.74,41.77c-3.92,1.97-8.12,2.83-12.44,3.14
		c-13.78,0.99-27.57,0.17-41.36,0.49c-1.86,0.04-1.77-0.93-1.77-2.18C212.95,331.09,212.95,322.31,212.95,313.53z M226.54,312.96
		c0,3.84-0.04,7.68,0.02,11.52c0.03,2.1-0.89,4.81,0.39,6.15c1.4,1.47,4.17,0.49,6.32,0.48c6.65-0.04,13.32,0.46,19.94-0.58
		c4.05-0.64,8.01-1.64,11.08-4.62c3.99-3.87,4.6-8.84,4.56-14.07c-0.08-9.93-6.21-16.44-16.13-16.69
		c-8.07-0.2-16.14-0.09-24.21-0.21c-1.58-0.02-2,0.54-1.98,2.04C226.58,302.3,226.54,307.63,226.54,312.96z"/>
	<path class="st0" d="M127.91,302.23c0.8,6.11,0.52,11.72,0.55,17.32c0.04,6.82-0.03,13.64,0.04,20.46
		c0.01,1.48-0.34,2.11-1.95,2.04c-2.74-0.12-5.49-0.1-8.23,0c-1.4,0.05-1.93-0.34-1.93-1.82c0.04-17.95,0.04-35.91,0.01-53.86
		c0-1.33,0.46-1.79,1.78-1.73c2.03,0.09,4.08,0.06,6.11,0.01c0.93-0.02,1.64,0.31,2.33,0.89c14.26,12.01,28.53,24.01,42.78,36.03
		c0.87,0.73,1.58,1.66,2.66,2.81c0.34-3.08-0.19-5.61-0.2-8.14c-0.04-9.72,0.04-19.45-0.06-29.17c-0.02-2,0.59-2.57,2.51-2.45
		c2.42,0.16,4.87,0.16,7.29,0c1.87-0.12,2.38,0.51,2.36,2.36c-0.08,13.09-0.04,26.19-0.04,39.28c0,4.63-0.04,9.25,0.03,13.88
		c0.02,1.39-0.38,1.8-1.83,1.94c-4.83,0.46-8.69-0.78-12.5-4.14c-12.22-10.77-24.82-21.1-37.26-31.62
		C130.95,305.12,129.64,303.82,127.91,302.23z"/>
	<path class="st0" d="M90.49,342.02c-5.94,1.71-9.1-1.27-10.84-6.51c-1.67-5.06-4.99-6.47-10.28-6.15
		c-8.83,0.53-17.72,0.23-26.58,0.08c-2.15-0.04-3.27,0.67-4.15,2.52c-1.37,2.9-3.02,5.66-4.45,8.53c-0.57,1.14-1.27,1.58-2.55,1.55
		c-3.21-0.09-6.43-0.04-9.65-0.02c-1.19,0.01-2.06,0.09-1.1-1.6c10.29-18.11,20.53-36.25,30.75-54.39c0.57-1,1.23-1.43,2.42-1.4
		c3.21,0.08,6.43,0.07,9.65,0c1.16-0.02,1.84,0.35,2.42,1.38c10.33,18.09,20.69,36.17,31.09,54.22c0.85,1.48,0.54,1.87-1.08,1.8
		C94.26,341.95,92.37,342.02,90.49,342.02z M45.77,319.03c8.14,0,15.81-0.01,23.48,0.01c1.77,0,0.96-0.95,0.6-1.63
		c-2.11-4.02-4.24-8.03-6.38-12.04c-1.62-3.04-3.26-6.07-5.08-9.44C54.11,303.78,50.07,311.18,45.77,319.03z"/>
	<path class="st0" d="M195.51,147.95c1.13,12.76,2.28,25.51,3.36,38.27c0.85,10.04,1.58,20.09,2.41,30.13
		c0.53,6.38,1.11,12.76,1.76,19.13c0.14,1.41-0.08,2.02-1.64,2c-4.39-0.07-8.78-0.06-13.18,0c-1.4,0.02-1.61-0.4-1.47-1.79
		c1.36-13.84,2.52-27.69,3.93-41.52c1.46-14.29,2.99-28.57,4.13-42.89C194.93,150.13,195.77,149.15,195.51,147.95z"/>
	<path class="st0" d="M144.95,368.4c-1.02,0-2.04,0.03-3.05-0.01c-1.06-0.04-1.74-0.59-2-1.65c-0.09-0.39-0.23-0.79,0.2-1.03
		c0.41-0.23,0.86-0.39,1.27,0.06c1.99,2.16,4.48,0.69,6.73,0.83c0.78,0.05,0.55-0.96,0.58-1.55c0.04-0.78-0.39-1.13-1.14-1.13
		c-1.72-0.01-3.45-0.09-5.17-0.03c-1.9,0.06-2.17-1.07-2.16-2.58c0.02-1.49,0.02-2.93,2.09-2.94c1.96,0,3.92-0.02,5.87,0.01
		c1.18,0.02,2.01,0.58,1.83,1.88c-0.09,0.66-0.53,1.1-1.27,0.46c-0.92-0.79-5.64-1.33-6.48-0.77c-0.56,0.37-0.47,0.94-0.46,1.48
		c0.02,0.84,0.59,0.99,1.28,1c1.64,0.01,3.29,0.04,4.93,0.04c1.96,0,2.25,1.25,2.24,2.84c-0.01,1.61-0.15,3.06-2.25,3.1
		c-1.02,0.02-2.04,0-3.05,0C144.95,368.41,144.95,368.4,144.95,368.4z"/>
	<path class="st0" d="M64.34,358.37c6.18-0.01,5.64-0.46,5.64,5.73c0,4.32-0.01,4.32-4.32,4.32c-1.09,0-2.19,0-3.28,0
		c-3.56-0.01-3.92-0.36-3.96-3.83c0-0.08,0-0.16,0-0.23C58.34,357.06,58.65,358.51,64.34,358.37z M64.13,359.8
		c-0.47,0-0.94,0.05-1.4-0.01c-1.88-0.26-2.6,0.38-2.54,2.41c0.12,4.58,0.01,4.59,4.6,4.57c3.91-0.01,3.38,0.24,3.41-3.12
		C68.22,359.8,68.2,359.8,64.13,359.8z"/>
	<path class="st0" d="M243.43,368.42c-5.84,0-5.84,0-5.82-5.95c0.01-3.91,0.2-4.1,4.07-4.1c1.64,0,3.28,0.07,4.91-0.02
		c1.83-0.1,2.57,0.76,2.55,2.49c-0.01,0.62,0.02,1.25,0.02,1.87C249.18,368.42,249.18,368.42,243.43,368.42z M243.36,366.78
		c0.55,0,1.1-0.06,1.64,0.01c1.87,0.25,2.6-0.37,2.55-2.41c-0.12-4.58-0.01-4.59-4.79-4.57c-3.81,0.02-3.33-0.32-3.31,3.19
		C239.47,367.24,238.73,366.72,243.36,366.78z"/>
	<path class="st0" d="M321.91,363.38c0-5.01,0-5.01,5.01-5.01c0.55,0,1.09,0,1.64,0c3.51,0.01,4.16,0.84,3.02,4.24
		c-0.22,0.67,0.02,0.96,0.2,1.44c1.08,2.83,0.06,4.3-3.03,4.37c-0.62,0.01-1.25,0-1.87,0C321.91,368.43,321.91,368.43,321.91,363.38
		z M326.78,366.77c0.9,0,1.6-0.02,2.29,0c1.05,0.03,1.27-0.56,1.28-1.48c0.01-1.98-1.52-1.63-2.47-1.4
		c-1.39,0.33-3.74-1.42-4.05,1.34C323.51,367.99,325.94,366.2,326.78,366.77z M326.88,362.38c0.55,0,1.1,0.01,1.65,0
		c0.88-0.02,1.78,0.04,1.8-1.26c0.02-1.25-0.81-1.36-1.73-1.37c-1.18-0.02-2.35,0.02-3.53-0.01c-1.01-0.03-1.36,0.42-1.35,1.42
		c0.01,0.94,0.41,1.26,1.27,1.23C325.63,362.36,326.26,362.37,326.88,362.38z"/>
	<path class="st0" d="M276.54,363.4c0-5.03,0-5.03,4.99-5.03c0.86,0,1.73-0.07,2.58,0.02c0.69,0.07,1.88-0.48,1.94,0.61
		c0.06,1.19-1.16,0.68-1.83,0.72c-1.4,0.08-2.81,0.06-4.22,0.03c-1.05-0.02-1.57,0.33-1.54,1.49c0.03,1.19,0.79,1.05,1.57,1.2
		c1.03,0.19,2.93-0.71,2.91,0.76c-0.02,1.25-1.95,0.52-3.03,0.63c-0.92,0.1-1.44,0.29-1.45,1.35c-0.01,1.04,0.26,1.63,1.42,1.61
		c1.72-0.03,3.44,0,5.16,0.01c0.58,0,1.11,0.07,1.12,0.85c0.01,0.84-0.59,0.78-1.14,0.78c-1.17,0.01-2.35,0.01-3.52,0.01
		C276.54,368.42,276.54,368.42,276.54,363.4z"/>
	<path class="st0" d="M203.55,368.4c-4.68,0-4.68,0-4.68-4.6c0-5.4,0-5.4,5.34-5.4c1.09,0,2.19,0,3.28,0.02
		c0.39,0.01,0.82,0.06,0.87,0.57c0.07,0.72-0.5,0.68-0.95,0.69c-1.64,0.02-3.28,0.05-4.92,0.01c-1.1-0.03-1.75,0.2-1.72,1.53
		c0.04,1.37,0.93,1.09,1.75,1.24c0.97,0.17,2.73-0.68,2.72,0.69c-0.01,1.26-1.79,0.55-2.77,0.62c-1.09,0.08-1.73,0.2-1.72,1.53
		c0.01,1.34,0.65,1.55,1.75,1.52c1.41-0.04,2.82-0.05,4.22,0.01c0.62,0.02,1.57-0.36,1.63,0.76c0.07,1.23-0.95,0.74-1.53,0.78
		C205.74,368.45,204.64,368.4,203.55,368.4z"/>
	<path class="st0" d="M261.29,363.35c-0.01-5.09-0.01-5.09,5.82-4.98c3.93,0.08,5.76,2.14,5.29,5.99c-0.22,1.8-1.22,3.09-2.91,3.63
		c-2.35,0.76-4.81,0.37-7.23,0.4c-0.88,0.01-0.96-0.64-0.97-1.29C261.28,365.85,261.29,364.6,261.29,363.35z M265.8,366.78
		c0.31,0,0.62,0.01,0.94,0c2.8-0.06,4.03-1.09,4.05-3.41c0.02-2.21-1.1-3.25-3.76-3.5c-4.13-0.39-4.13-0.39-4.12,3.74
		C262.9,366.77,262.9,366.77,265.8,366.78z"/>
	<path class="st0" d="M162.25,363.5c0-5.56,0-5.56,6.54-5.12c3.63,0.24,5.75,3.44,4.49,6.85c-0.54,1.47-1.52,2.58-3.15,2.87
		c-0.92,0.17-1.86,0.29-2.79,0.31C162.25,368.5,162.25,368.49,162.25,363.5z M164.06,363.17c0,3.61,0,3.61,2.94,3.6
		c3.47,0,4.76-0.9,4.81-3.35c0.06-2.69-1.3-3.41-5.3-3.69C163.36,359.52,164.14,361.52,164.06,363.17z"/>
	<path class="st0" d="M126.73,363.28c0-4.91,0-4.91,4.89-4.91c0.94,0,1.88-0.04,2.82,0.01c0.64,0.04,1.7-0.31,1.74,0.63
		c0.05,1-1.02,0.69-1.65,0.71c-1.49,0.05-2.98,0.04-4.47,0.02c-1.03-0.01-1.6,0.31-1.57,1.48c0.03,1.18,0.82,1.04,1.59,1.19
		c0.99,0.19,2.81-0.68,2.81,0.62c0,1.57-1.84,0.61-2.84,0.76c-1.02,0.15-1.56,0.39-1.57,1.54c-0.01,1.22,0.66,1.43,1.63,1.43
		c1.49,0,2.98-0.03,4.47,0.03c0.69,0.03,1.8-0.35,1.76,0.9c-0.03,1.11-1.05,0.68-1.66,0.7c-1.96,0.06-3.93-0.08-5.88,0.05
		c-1.66,0.11-2.27-0.48-2.1-2.12C126.82,365.33,126.73,364.3,126.73,363.28z"/>
	<path class="st0" d="M191.73,364.88c1.27,1.19,2.31,2.17,3.47,3.25c-1.4,0.5-2.31,0.34-3.13-0.64c-0.75-0.89-1.63-1.69-2.51-2.45
		c-0.86-0.75-1.97-0.6-2.9-0.3c-0.82,0.26-0.38,1.22-0.49,1.88c-0.12,0.69,0.33,1.77-0.93,1.75c-1.29-0.02-0.8-1.12-0.82-1.78
		c-0.06-2.11,0.06-4.22-0.05-6.32c-0.07-1.41,0.34-2,1.81-1.91c1.63,0.1,3.28-0.03,4.92,0.04c1.3,0.06,2.97-0.55,3.34,1.57
		C194.98,362.97,194.45,364.02,191.73,364.88z M189.08,363.25c0.58,0,0.97-0.01,1.36,0c1.25,0.04,2.36-0.02,2.37-1.76
		c0.02-1.66-0.93-1.94-2.27-1.88c-0.78,0.04-1.57,0.09-2.34-0.01c-1.71-0.21-2.12,0.59-2.06,2.15
		C186.25,364.41,188.27,362.69,189.08,363.25z"/>
	<path class="st0" d="M108.35,364.87c1.27,1.14,2.35,2.1,3.58,3.19c-1.24,0.63-2.11,0.41-2.95-0.44c-0.82-0.83-1.73-1.57-2.55-2.41
		c-0.85-0.86-1.9-0.75-2.85-0.53c-1.09,0.25-0.47,1.3-0.61,1.99c-0.14,0.68,0.33,1.74-0.96,1.7c-1.26-0.04-0.88-1.07-0.9-1.76
		c-0.05-2.11,0.09-4.22-0.05-6.32c-0.11-1.65,0.62-2,2.05-1.94c1.79,0.08,3.59,0.06,5.38,0.01c1.49-0.05,2.75,0.27,2.83,2.01
		c0.08,1.64,0.57,3.58-1.83,4.2C109.21,364.64,108.93,364.71,108.35,364.87z M105.72,363.25c0.65,0,1.12-0.02,1.58,0
		c1.36,0.09,2.22-0.25,2.19-1.9c-0.03-1.56-0.9-1.77-2.13-1.73c-0.78,0.03-1.57,0.1-2.33-0.01c-1.89-0.28-2.19,0.67-2.1,2.28
		C103.07,364.38,104.96,362.7,105.72,363.25z"/>
	<path class="st0" d="M343.8,364.87c1.29,1.17,2.36,2.14,3.6,3.27c-1.31,0.43-2.17,0.39-2.97-0.48c-0.79-0.87-1.68-1.63-2.52-2.45
		c-0.91-0.89-2.07-0.77-3.09-0.5c-1.02,0.27-0.45,1.32-0.59,2.03c-0.13,0.62,0.3,1.62-0.8,1.6c-1.09-0.02-0.73-1.03-0.74-1.64
		c-0.05-2.19,0.06-4.38-0.05-6.57c-0.08-1.53,0.59-1.86,1.94-1.78c1.56,0.09,3.13-0.01,4.69,0.03c1.41,0.04,3.11-0.44,3.39,1.84
		C347.03,363.29,346.65,364.03,343.8,364.87z M341.61,363.25c1.07-0.33,3,0.84,3.33-1.53c0.14-1-0.13-2.13-1.32-2.01
		c-1.79,0.17-3.82-1.06-5.35,0.78c-0.04,0.05-0.01,0.15-0.03,0.23C337.81,362.92,338.22,363.25,341.61,363.25z"/>
	<path class="st0" d="M212.39,363.4c-0.02-5.36-0.4-5.07,5.11-5.03c1.02,0.01,2.03-0.02,3.05,0.02c1.75,0.06,1.92,1.28,1.89,2.63
		c-0.02,0.6-0.49,0.75-0.96,0.84c-0.51,0.1-0.75-0.23-0.71-0.66c0.1-1.43-0.83-1.42-1.83-1.39c-6.04,0.13-4.79-0.91-5.01,4.84
		c-0.06,1.61,0.43,2.32,2.1,2.16c0.93-0.09,1.88-0.01,2.81-0.02c0.94,0,1.98,0.14,1.91-1.33c-0.03-0.59,0.29-0.85,0.87-0.8
		c0.56,0.05,0.81,0.38,0.84,0.93c0.06,1.48-0.29,2.73-2.05,2.81c-1.95,0.09-3.91,0.06-5.87,0.02c-1.37-0.03-2.2-0.68-2.16-2.18
		C212.41,365.28,212.39,364.34,212.39,363.4z"/>
	<path class="st0" d="M362.76,368.42c-0.7,0-1.41-0.04-2.11,0.01c-2.06,0.12-3.04-0.84-3.05-2.89c-0.03-8.43-0.41-7.08,6.89-7.16
		c1.47-0.02,3.13-0.28,3.42,1.86c0.1,0.72,0.08,1.41-0.89,1.61c-1.05,0.22-0.95-0.47-0.96-1.09c-0.01-0.92-0.67-0.87-1.3-0.95
		c-4.8-0.54-6.28,1.14-5.28,5.94c0.14,0.66,0.4,0.99,1.04,0.99c1.48,0.02,2.97,0.01,4.45,0.02c0.98,0.01,1.13-0.6,1.11-1.39
		c-0.02-0.58,0.26-0.87,0.86-0.78c0.5,0.07,0.89,0.27,0.95,0.84c0.14,1.47-0.12,2.74-1.87,2.93c-1.08,0.12-2.18,0.02-3.28,0.02
		C362.76,368.4,362.76,368.41,362.76,368.42z"/>
	<path class="st0" d="M31.92,362.78c0-1.02,0.01-2.04,0-3.06c-0.01-0.67,0.04-1.27,0.93-1.31c0.92-0.04,0.97,0.57,0.96,1.25
		c0,1.73,0.07,3.45-0.02,5.18c-0.07,1.38,0.35,1.92,1.82,1.97c5.1,0.18,5.01,0.24,5.16-4.83c0.03-1.16-1.05-3.45,0.96-3.38
		c1.78,0.06,0.81,2.33,0.83,3.55c0.11,6.28,0.05,6.28-5.71,6.28C31.92,368.42,31.92,368.42,31.92,362.78z"/>
	<path class="st0" d="M74.77,363.44c0-5.07,0-5.07,5.18-5.07c0.55,0,1.09,0,1.64,0c3.18,0.01,4.43,1.82,3.32,4.85
		c-0.38,1.03-1.21,1.36-2.23,1.36c-1.41,0-2.82,0.1-4.22-0.02c-1.47-0.12-1.93,0.43-1.83,1.86c0.05,0.69,0.57,1.92-0.88,1.96
		c-1.45,0.04-0.92-1.16-0.97-1.9C74.72,365.47,74.77,364.45,74.77,363.44z M80.15,359.62c-0.4,0-0.63-0.01-0.87,0
		c-1.24,0.06-2.66-0.47-2.67,1.79c-0.01,2.28,1.43,1.74,2.66,1.78c0.78,0.03,1.56,0,2.34,0c1.2,0,1.61-0.62,1.61-1.78
		C83.22,358.83,81.25,359.89,80.15,359.62z"/>
	<path class="st0" d="M382.81,368.08c-0.97,0.51-1.56,0.43-2.14-0.38c-1.79-2.48-6.67-2.54-8.36-0.1c-0.42,0.6-0.88,1.06-1.49,0.72
		c-0.88-0.49-0.01-1.1,0.21-1.51c1.28-2.5,2.63-4.97,4.02-7.41c0.84-1.47,1.98-1.58,2.86-0.1
		C379.62,362.18,381.18,365.13,382.81,368.08z M378.72,364.46c-0.34-1.66-1.26-2.89-2.12-4.35c-1.22,1.33-1.92,2.71-2.33,4.35
		C375.79,364.46,377.18,364.46,378.72,364.46z"/>
	<path class="st0" d="M29.59,368.16c-0.97,0.34-1.58,0.38-2.1-0.37c-0.46-0.66-0.52-1.77-1.65-1.79c-1.88-0.02-3.77-0.09-5.64,0.07
		c-0.87,0.07-0.9,1.18-1.29,1.82c-0.37,0.6-0.94,0.67-1.42,0.43c-0.61-0.31-0.16-0.78,0.05-1.17c1.43-2.61,2.81-5.25,4.31-7.82
		c0.83-1.41,2.04-1.37,2.86,0.06C26.35,362.23,27.9,365.11,29.59,368.16z M23.21,359.81c-0.51,0.94-0.85,1.54-1.18,2.15
		c-1.43,2.67-1.43,2.58,1.64,2.62c1.92,0.02,1.96-0.62,1.07-1.99C24.24,361.82,23.85,360.97,23.21,359.81z"/>
	<path class="st0" d="M85.44,368.1c1.64-3.01,3.2-6.05,4.94-8.99c0.73-1.23,1.88-1.12,2.59,0.08c1.59,2.68,3.06,5.44,4.58,8.16
		c0.19,0.34,0.45,0.77-0.07,0.96c-0.61,0.22-1.36,0.2-1.58-0.54c-0.76-2.5-2.79-1.73-4.47-1.8c-1.69-0.07-3.51-0.4-4.21,1.9
		C87,368.6,86.26,368.52,85.44,368.1z M94,364.49c-0.77-1.69-1.14-3.86-2.42-3.98c-1.08-0.1-1.54,2.17-2.13,3.48
		c-0.05,0.11,0.05,0.29,0.1,0.49C90.92,364.49,92.3,364.49,94,364.49z"/>
	<path class="st0" d="M312.42,358.39c0.75-0.06,1.1,0.27,1.39,0.81c1.46,2.66,2.96,5.31,4.43,7.97c0.21,0.37,0.63,0.87-0.01,1.16
		c-0.49,0.22-1.17,0.22-1.44-0.38c-1.62-3.61-4.76-1.48-7.19-1.87c-1.01-0.16-1.02,1.21-1.52,1.86c-0.39,0.52-0.91,0.63-1.44,0.34
		c-0.49-0.27-0.15-0.69,0.02-1c1.46-2.66,2.94-5.31,4.41-7.97C311.38,358.73,311.77,358.25,312.42,358.39z M314.87,364.45
		c-0.74-1.46-1.29-2.57-1.87-3.65c-0.29-0.53-0.72-1.01-1.1-0.1c-0.52,1.25-1.58,2.28-1.63,3.75
		C311.75,364.45,313.13,364.45,314.87,364.45z"/>
	<path class="st0" d="M297.34,363.45c0-5.08,0-5.08,5.19-5.08c1.02,0,2.04-0.01,3.06,0.01c0.48,0.01,1.02,0.1,0.99,0.73
		c-0.03,0.59-0.56,0.67-1.04,0.68c-1.73,0.01-3.45,0.06-5.18,0.01c-1.34-0.04-1.47,0.71-1.52,1.79c-0.05,1.18,0.62,1.15,1.46,1.25
		c1.01,0.13,2.83-0.63,2.86,0.62c0.05,1.74-1.84,0.82-2.83,0.89c-1.78,0.12-1.36,1.31-1.48,2.34c-0.07,0.61,0.37,1.62-0.74,1.65
		c-1.16,0.03-0.71-0.99-0.75-1.59C297.29,365.65,297.34,364.55,297.34,363.45z"/>
	<path class="st0" d="M229.9,358.37c1.33,0,2.66-0.01,3.99,0.01c0.52,0.01,1.22-0.05,1.19,0.75c-0.02,0.6-0.6,0.59-1.06,0.66
		c-3.33,0.53-3.33,0.54-3.33,3.96c0,1.17,0,2.35-0.01,3.52c-0.01,0.57-0.07,1.09-0.85,1.13c-0.85,0.04-1.08-0.42-1.08-1.15
		c0.01-1.57-0.11-3.14,0.02-4.7c0.17-2.01-0.32-3.13-2.63-2.79c-0.57,0.09-1.65,0.41-1.66-0.67c-0.01-1.08,1.03-0.68,1.66-0.71
		C227.4,358.33,228.65,358.37,229.9,358.37z"/>
	<path class="st0" d="M118.69,358.38c1.41,0,2.82-0.02,4.23,0.01c0.51,0.01,1.21-0.11,1.19,0.73c-0.01,0.63-0.57,0.61-1.03,0.67
		c-1.06,0.15-2.45-0.48-3.14,0.39c-0.84,1.05-0.26,2.56-0.33,3.87c-0.06,1.09-0.01,2.19-0.02,3.29c-0.01,0.59-0.12,1.09-0.89,1.06
		c-0.8-0.02-0.82-0.58-0.82-1.14c-0.01-1.64-0.12-3.3,0.02-4.93c0.15-1.87-0.38-2.86-2.42-2.54c-0.3,0.05-0.63,0.02-0.94-0.01
		c-0.52-0.05-1.21,0.05-1.13-0.79c0.06-0.64,0.63-0.6,1.08-0.61C115.87,358.37,117.28,358.38,118.69,358.38z"/>
	<path class="st0" d="M50.69,358.37c1.4,0,2.81-0.01,4.21,0.01c0.44,0.01,1.02-0.09,1.03,0.61c0.01,0.57-0.37,0.76-0.92,0.81
		c-1.07,0.1-2.48-0.5-3.13,0.33c-0.87,1.12-0.25,2.71-0.35,4.09c-0.05,0.78,0.04,1.56-0.02,2.34c-0.06,0.7,0.35,1.74-0.87,1.8
		c-1.34,0.07-0.87-1.04-0.9-1.7c-0.07-1.64-0.12-3.28,0-4.91c0.12-1.57-0.5-2.15-2-1.95c-0.15,0.02-0.32,0.03-0.47,0
		c-0.74-0.18-2.09,0.46-2.03-0.78c0.06-1.14,1.39-0.56,2.15-0.63C48.5,358.3,49.6,358.37,50.69,358.37z"/>
	<path class="st0" d="M179.49,363.42c0,1.32,0.01,2.65,0,3.97c0,0.63-0.25,1.03-0.96,1.02c-0.75-0.01-0.88-0.49-0.89-1.08
		c0-2.57,0-5.14,0-7.71c0-0.61,0.22-1.12,0.88-1.17c0.86-0.07,0.99,0.55,0.99,1.24C179.5,360.92,179.5,362.17,179.49,363.42
		C179.49,363.42,179.49,363.42,179.49,363.42z"/>
	<path class="st0" d="M352.94,363.35c0,1.25,0,2.5,0,3.76c0,0.65-0.02,1.26-0.94,1.29c-0.9,0.03-1.02-0.51-1.02-1.21
		c0-2.5,0-5.01,0-7.51c0-0.66,0.02-1.27,0.94-1.29c1.07-0.02,1.03,0.71,1.03,1.44C352.94,361.01,352.94,362.18,352.94,363.35z"/>
</g>
</svg>
