<?xml version="1.0" encoding="utf-8"?>
<!-- Generator: Adobe Illustrator 28.3.0, SVG Export Plug-In . SVG Version: 6.00 Build 0)  -->
<svg version="1.1" id="Capa_1" xmlns="http://www.w3.org/2000/svg" xmlns:xlink="http://www.w3.org/1999/xlink" x="0px" y="0px"
	 viewBox="0 0 400 400" style="enable-background:new 0 0 400 400;" xml:space="preserve">
<style type="text/css">
	.st0{fill:#FFFFFF;}
</style>
<g>
	<path class="st0" d="M199.44,374.44c-96.25-0.13-174.11-78.45-173.96-174.48c0.15-96.07,78.22-173.94,174.58-173.81
		c95.76,0.13,174.01,78.07,173.69,174.72C373.42,296.99,295.35,374.47,199.44,374.44z M103.88,153.43c0-0.62-0.04-1.07,0.01-1.51
		c0.88-8.07,3.55-15.51,8.32-22.06c6.41-8.79,14.57-15.42,24.23-20.59c18.02-9.65,37.13-14.29,57.46-14.06
		c5.85,0.07,11.71,0.58,17.55,1.08c8.17,0.7,16.03,2.69,23.52,6.07c13.34,6.02,23.94,15.53,33.25,26.53
		c16.56,19.55,24.24,42.29,23.58,67.88c-0.41,15.86-0.8,31.73-1.22,47.59c-0.13,4.83-0.21,9.66-0.45,14.48
		c-0.35,7.17-0.63,14.33,0.51,21.47c0.81,5.07,2.26,9.76,6.7,13.01c5.89,4.31,12.28,7.65,19.2,9.95c0.58,0.19,1.71-0.34,2.18-0.89
		c9.78-11.35,17.74-23.85,23.95-37.5c7.8-17.16,12.1-35.2,13.51-53.93c0.67-8.91,0.35-17.83-0.65-26.74
		c-1.05-9.35-2.76-18.56-5.47-27.56c-10.06-33.42-29.13-60.59-57.16-81.36c-24.43-18.1-52.02-27.88-82.26-30.01
		c-14.7-1.03-29.31,0.2-43.72,3.42c-25.8,5.76-48.7,17.33-68.61,34.67c-17.39,15.14-30.74,33.32-40.13,54.41
		c-7.86,17.65-12.13,36.18-13.09,55.41c-0.38,7.52,0.22,15.11,0.68,22.65c0.57,9.33,2.45,18.47,5.03,27.44
		c8.58,29.84,24.54,55.03,48.04,75.33c27.01,23.34,58.54,35.68,94.07,37.8c12,0.72,23.99-0.17,35.83-2.37
		c25.7-4.77,48.79-15.31,69.23-31.61c3.09-2.46,6.02-5.12,9.29-7.91c-1-0.21-1.55-0.38-2.12-0.45c-6.59-0.8-13.2-1.43-19.76-2.41
		c-9.75-1.46-19.25-3.91-28.44-7.58c-17.89-7.14-25.98-24.31-26.35-39.56c-0.46-18.93,0.14-37.88,0.23-56.82
		c0.06-12.41-0.05-24.82,0.06-37.23c0.04-4.56-0.59-9-2.08-13.24c-5.49-15.58-13.36-29.87-23.68-42.78
		c-2.7-3.37-5.69-6.48-9.54-8.61c-1.92-1.07-3.78-1.24-5.97-0.48c-5.56,1.93-8.96,6.03-11.37,11.01
		c-5.5,11.39-10.85,22.85-16.09,34.36c-0.95,2.09-2.02,2.89-4.34,2.88c-17.05-0.09-34.09-0.05-51.14-0.06
		C105.78,153.59,104.88,153.49,103.88,153.43z"/>
	<path class="st0" d="M212.93,247.34c-0.07,36.02-29.72,64.8-65.14,64.47c-33.96-0.32-63.88-27.92-63.82-64.56
		c0.06-36.3,29.66-64.51,64.81-64.37C184.01,183.01,212.93,211.97,212.93,247.34z M170.37,246.99c0,10.84-0.01,21.67,0,32.51
		c0,4.52,3.31,8.13,7.62,7.95c4.25-0.18,7.77-2.97,7.78-7.9c0.05-21.67,0.04-43.34,0.01-65.01c-0.01-4.67-3.4-7.96-7.92-7.89
		c-4.69,0.07-7.62,4.15-7.56,8.04C170.49,225.44,170.37,236.22,170.37,246.99z M126.27,246.99c0-10.77,0.01-21.54-0.01-32.31
		c0-0.96-0.05-1.98-0.34-2.88c-1.15-3.57-4.77-5.7-8.47-5.08c-3.96,0.66-6.6,3.79-6.6,8.01c-0.02,21.54-0.06,43.08,0.02,64.62
		c0.02,5.36,3.7,8.1,7.8,8.05c4.92-0.06,7.72-3.7,7.66-8.1C126.17,268.53,126.27,257.76,126.27,246.99z M148.49,252.27
		c2.87,0,5.74,0.04,8.61-0.01c4.51-0.08,7.86-3.28,7.92-7.49c0.07-4.64-3.14-8.18-7.77-8.27c-5.8-0.11-11.61-0.12-17.41,0
		c-4.63,0.09-7.94,3.67-7.87,8.22c0.07,4.26,3.51,7.48,8.11,7.54C142.89,252.3,145.69,252.27,148.49,252.27z"/>
</g>
</svg>
