<?xml version="1.0" encoding="utf-8"?>
<!-- Generator: Adobe Illustrator 28.3.0, SVG Export Plug-In . SVG Version: 6.00 Build 0)  -->
<svg version="1.1" id="Capa_1" xmlns="http://www.w3.org/2000/svg" xmlns:xlink="http://www.w3.org/1999/xlink" x="0px" y="0px"
	 viewBox="0 0 400 400" style="enable-background:new 0 0 400 400;" xml:space="preserve">
<style type="text/css">
	.st0{fill:#FFFFFF;}
</style>
<g>
	<path class="st0" d="M105.71,211.92c3.44-5.8,7.06-11.49,10.21-17.42c1.73-3.27,4.34-2.24,6.79-2.25c1.33-0.01,0.93,1.27,0.93,2.05
		c0.07,9.41,0.03,18.83,0.18,28.24c0.06,3.5-2.4,2.02-3.92,2.19c-1.64,0.18-3.47,0.62-3.34-2.37c0.24-5.26,0.07-10.54,0.07-17.03
		c-3.08,5.1-5.59,9.28-8.11,13.45c-2.22,3.67-4.18,3.66-6.47-0.05c-2.45-3.99-4.9-7.98-8.01-11.78c0,4.95-0.22,9.92,0.08,14.85
		c0.19,3.09-1.3,3.1-3.53,3.01c-2.03-0.08-3.77,0.37-3.67-2.9c0.25-8.78,0.04-17.57,0.14-26.35c0.01-1.13-1.05-3.23,1.12-3.29
		c2.02-0.05,4.48-1.29,6.05,1.46c2.93,5.11,6.02,10.12,9.1,15.13C103.97,209.9,104.32,211.2,105.71,211.92z"/>
	<path class="st0" d="M277.85,191.59c10.16,0.05,17.82,7.36,17.75,16.93c-0.07,9.55-7.83,16.86-17.9,16.86
		c-10.29,0-18.07-7.47-17.91-17.2C259.94,198.56,267.59,191.54,277.85,191.59z M287.84,208.28c-0.07-5.99-4.27-10.25-10.12-10.26
		c-5.94-0.01-10.38,4.56-10.27,10.58c0.11,6.08,4.52,10.34,10.59,10.21C283.84,218.68,287.91,214.31,287.84,208.28z"/>
	<path class="st0" d="M339.76,224.33c-5.19,1.44-8.89,0.36-11.3-4.49c-0.8-1.61-1.46-3.79-3.89-4.14c-5.34-0.77-5.78-0.36-5.88,5.12
		c-0.02,1.27,0.83,3.3-0.63,3.7c-1.97,0.55-4.23,0.31-6.32,0.03c-0.99-0.13-0.58-1.49-0.59-2.31c-0.02-9.16,0.03-18.31-0.05-27.47
		c-0.02-1.85,0.34-2.73,2.44-2.65c4.64,0.17,9.29-0.03,13.92,0.2c5.92,0.29,10.1,3.24,11.48,8.05c1.56,5.4,0.23,9.94-4.63,13.07
		c-1.42,0.91-1.05,1.52-0.28,2.58C335.99,218.7,337.82,221.49,339.76,224.33z M324.48,198.33c-1.85,0-2.86,0.07-3.85-0.01
		c-2.28-0.19-2.17,1.49-1.84,2.72c0.76,2.84-2.19,6.77,1.64,8.44c2.04,0.89,4.91,0.49,7.37-0.23c2.8-0.81,4.14-2.71,4.07-5.53
		c-0.08-2.88-1.77-4.6-4.51-5.19C326.15,198.27,324.87,198.36,324.48,198.33z"/>
	<path class="st0" d="M184.62,152.47c0-4.51,0.16-9.03-0.05-13.54c-0.17-3.67,2.39-2.35,4.07-2.46c1.7-0.1,3.95-0.81,3.62,2.48
		c-0.24,2.36,0.06,4.77-0.08,7.14c-0.14,2.28,0.39,3.48,3.05,3.27c2.99-0.23,6.03-0.23,9.02,0c2.46,0.19,2.97-0.77,2.82-2.97
		c-0.18-2.5,0.11-5.02-0.08-7.52c-0.28-3.72,2.43-2.26,4.06-2.39c1.71-0.15,3.69-0.77,3.62,2.49c-0.21,9.27-0.17,18.56-0.02,27.83
		c0.06,3.51-2.36,2.16-3.84,2.17c-1.5,0.01-4.04,1.29-3.82-2.2c0.18-3-0.03-6.02,0.06-9.02c0.05-1.58-0.42-2.23-2.11-2.18
		c-3.51,0.11-7.02,0.09-10.53,0.01c-1.59-0.04-2.29,0.48-2.22,2.13c0.09,2.13,0.02,4.26,0.02,6.39c0,5.09,0,4.97-4.89,5
		c-2.11,0.01-2.83-0.54-2.75-2.72C184.73,161.75,184.62,157.11,184.62,152.47z"/>
	<path class="st0" d="M355.57,208.39c0-4.52,0.05-9.03-0.03-13.55c-0.03-1.73,0.12-2.78,2.36-2.74c6.77,0.14,13.55,0.15,20.32,0
		c2.55-0.05,2.08,1.51,2.05,2.94c-0.03,1.5,0.65,3.36-2.17,3.24c-4.13-0.17-8.29,0.16-12.41-0.11c-3.23-0.21-2.55,1.83-2.59,3.61
		c-0.04,1.85-0.53,3.79,2.65,3.49c3.23-0.31,6.53,0.11,9.77-0.12c2.5-0.18,2.88,0.86,2.87,3.02c-0.01,2.12-0.3,3.23-2.84,3.05
		c-3.37-0.24-6.78,0.09-10.15-0.1c-3.46-0.19-2.24,2.28-2.23,3.81c0,1.53-1.22,3.97,2.23,3.81c4.26-0.19,8.55,0.19,12.79-0.12
		c3.01-0.22,2.64,1.41,2.82,3.36c0.22,2.48-0.76,2.87-2.96,2.82c-6.52-0.14-13.05-0.14-19.57,0c-2.26,0.05-3.08-0.48-2.97-2.89
		C355.71,217.43,355.57,212.91,355.57,208.39z"/>
	<path class="st0" d="M232.53,152.56c0-4.51,0.06-9.02-0.03-13.53c-0.03-1.76,0.15-2.71,2.37-2.66c6.64,0.16,13.28,0.16,19.92,0
		c2.43-0.06,2.53,1.11,2.52,2.96c-0.02,1.92,0.08,3.4-2.66,3.25c-4.12-0.23-8.27,0.08-12.4-0.1c-3.2-0.14-2.12,2.09-2.12,3.54
		c-0.01,1.46-1.07,3.71,2.13,3.52c3.25-0.2,6.52,0.07,9.77-0.08c2.23-0.1,3.36,0.23,3.26,2.94c-0.08,2.37-0.54,3.32-3.09,3.12
		c-2.99-0.24-6.02,0.07-9.02-0.1c-2.28-0.13-3.14,0.35-3.24,2.96c-0.14,3.58,0.55,5.18,4.57,4.71c3.58-0.42,7.27,0.07,10.89-0.14
		c2.59-0.16,2.47,1.3,2.39,3.02c-0.07,1.56,0.5,3.22-2.26,3.15c-6.89-0.18-13.78-0.16-20.67,0c-2.2,0.05-2.4-0.87-2.37-2.63
		C232.59,161.84,232.53,157.2,232.53,152.56z"/>
	<path class="st0" d="M141.51,208.52c0-4.64,0.11-9.28-0.05-13.91c-0.07-2.06,0.67-2.52,2.56-2.49c6.64,0.09,13.29,0.16,19.92-0.03
		c2.6-0.07,2.43,1.33,2.36,3.03c-0.06,1.57,0.49,3.3-2.26,3.17c-4.25-0.19-8.52,0.08-12.78-0.09c-3.15-0.13-2.17,2.04-2.17,3.54
		c0,1.48-1.01,3.69,2.16,3.52c3.5-0.19,7.03,0.12,10.52-0.1c2.54-0.16,2.53,1.2,2.42,2.97c-0.09,1.55,0.52,3.31-2.29,3.1
		c-3.49-0.25-7.02,0.12-10.52-0.11c-3.04-0.2-2.52,1.82-2.28,3.38c0.24,1.55-1.62,4.33,2.18,4.23c4.38-0.12,8.78,0.16,13.15-0.09
		c2.94-0.17,2.38,1.6,2.51,3.31c0.15,1.95-0.22,2.92-2.56,2.87c-6.76-0.15-13.53-0.15-20.3,0c-2.22,0.05-2.7-0.73-2.64-2.78
		C141.61,217.54,141.51,213.03,141.51,208.52z"/>
	<path class="st0" d="M195.06,191.41c2.56,0.08,4.98,0.71,7.41,1.35c3.02,0.8,4.04,2.1,2.37,5.2c-0.94,1.74-1.53,2.07-3.29,1.19
		c-2.98-1.5-6.24-1.95-9.52-1.26c-1.61,0.34-3.13,1.11-3.3,3.11c-0.18,2.11,1.33,2.85,2.94,3.32c3,0.89,6.07,1.54,9.04,2.49
		c4.48,1.43,6.72,4.12,6.9,7.93c0.19,3.98-2.19,7.61-6.45,9.22c-6.47,2.44-12.78,1.57-18.94-1.31c-3.07-1.44-0.58-3.03-0.23-4.56
		c0.5-2.22,1.61-1.79,3.23-0.98c3.65,1.83,7.52,2.73,11.65,1.74c1.6-0.38,2.91-1.14,3.11-2.82c0.22-1.81-1.2-2.73-2.65-3.21
		c-2.61-0.86-5.3-1.48-7.94-2.25c-6.08-1.79-8.35-4.32-8.24-9.11c0.11-4.76,3.05-7.98,8.71-9.34
		C191.56,191.73,193.33,191.65,195.06,191.41z"/>
	<path class="st0" d="M29.46,211.24c0-3.01-0.29-6.05,0.08-9.02c0.44-3.55-1.04-4.38-4.14-3.91c-0.98,0.15-2.02-0.09-3,0.05
		c-2.56,0.36-3.42-0.52-3.44-3.23c-0.02-2.67,0.99-3.05,3.28-3.01c7.39,0.12,14.79,0.14,22.18-0.01c2.37-0.05,3.32,0.46,3.16,3.04
		c-0.13,2.13-0.16,3.33-2.96,3.28c-7.55-0.12-7.56,0.04-7.56,7.48c0,5.52-0.16,11.04,0.06,16.54c0.13,3.09-1.88,2.49-3.41,2.26
		c-1.56-0.23-4.37,1.62-4.27-2.18C29.54,218.76,29.46,215,29.46,211.24z"/>
	<path class="st0" d="M233.34,192.16c3.88,0,7.78,0.19,11.65-0.07c2.6-0.17,2.86,0.99,2.73,3.06c-0.11,1.76,0.32,3.44-2.56,3.26
		c-2.55-0.15-6.08-1.28-7.48,0.55c-1.29,1.69-0.46,5.02-0.48,7.63c-0.04,5.26-0.17,10.53,0.04,15.79c0.15,3.78-2.49,2.18-4.08,2.33
		c-1.69,0.16-3.72,0.81-3.61-2.47c0.24-7.13,0.01-14.28,0.11-21.43c0.03-1.91-0.43-2.75-2.47-2.53c-1.49,0.16-3.03-0.16-4.5,0.07
		c-3.16,0.49-3.71-0.99-3.63-3.77c0.06-2.08,0.77-2.52,2.62-2.47C225.56,192.23,229.45,192.16,233.34,192.16z"/>
	<path class="st0" d="M156.36,136.43c4.01,0,8.03,0.15,12.03-0.05c2.61-0.13,2.44,1.37,2.37,3.07c-0.06,1.56,0.49,3.51-2.24,3.15
		c-0.25-0.03-0.5-0.01-0.75,0c-7.5,0.15-7.5,0.15-7.5,7.57c0,5.39-0.22,10.79,0.08,16.16c0.2,3.49-1.95,2.76-3.8,2.68
		c-1.72-0.07-4.04,1.04-3.91-2.54c0.25-7.01-0.04-14.04,0.13-21.05c0.06-2.4-0.7-3.12-2.96-2.84c-1.23,0.15-2.54-0.17-3.75,0.06
		c-3.64,0.71-4.12-1.16-3.91-4.16c0.12-1.66,0.59-2.12,2.19-2.08C148.34,136.49,152.35,136.43,156.36,136.43z"/>
	<path class="st0" d="M290.16,254.7c19.18,0,38.37,0,57.55,0c0.88,0,1.76,0,2.63,0.01c0.49,0.01,1.06,0,1.15,0.63
		c0.14,0.91-0.54,0.96-1.18,0.97c-0.75,0.02-1.5,0.01-2.26,0.01c-38.62,0-77.24,0-115.86,0c-0.75,0-1.51,0.02-2.26-0.01
		c-0.48-0.02-1.06,0.04-1.16-0.64c-0.13-0.93,0.56-0.96,1.19-0.97c0.88-0.02,1.76-0.01,2.63-0.01
		C251.79,254.7,270.97,254.7,290.16,254.7z"/>
	<path class="st0" d="M172.04,255.47c-0.86,1.51-2.27,0.83-3.39,0.83c-38.38,0.04-76.77,0.03-115.15,0.03
		c-0.63,0-1.25,0.01-1.88-0.01c-0.63-0.02-1.33-0.04-1.2-0.96c0.09-0.63,0.65-0.64,1.14-0.65c0.88-0.01,1.76-0.01,2.63-0.01
		c38.01,0,76.01-0.01,114.02,0.03C169.46,254.73,170.96,254.07,172.04,255.47z"/>
	<path class="st0" d="M61.58,208.2c0-4.52,0.19-9.05-0.06-13.55c-0.19-3.3,1.96-2.55,3.64-2.44c1.66,0.1,4.12-1.25,4.05,2.44
		c-0.19,9.28-0.16,18.58-0.01,27.86c0.06,3.5-2.35,2.19-3.84,2.19c-1.49,0-3.97,1.32-3.82-2.19
		C61.73,217.74,61.58,212.97,61.58,208.2z"/>
	<path class="st0" d="M201.18,247.44c0.16,0.07,0.28,0.09,0.36,0.16c8.53,8.24,8.53,8.24-1.03,16.1c-1.08-1.2-2.17-2.41-3.26-3.62
		c-4.53-5.02-4.53-5.03,0.59-9.66C198.95,249.41,200.08,248.42,201.18,247.44z M204.98,255.52c-1.49-1.33-2.27-3.76-4.07-3.54
		c-1.39,0.16-3.56,2.11-3.58,3.29c-0.02,1.56,1.87,3.72,3.48,3.79C202.41,259.13,203.68,257.05,204.98,255.52z"/>
</g>
</svg>
