<?xml version="1.0" encoding="utf-8"?>
<!-- Generator: Adobe Illustrator 28.3.0, SVG Export Plug-In . SVG Version: 6.00 Build 0)  -->
<svg version="1.1" id="Capa_1" xmlns="http://www.w3.org/2000/svg" xmlns:xlink="http://www.w3.org/1999/xlink" x="0px" y="0px"
	 viewBox="0 0 400 400" style="enable-background:new 0 0 400 400;" xml:space="preserve">
<style type="text/css">
	.st0{fill:#FFFFFF;}
</style>
<g>
	<g>
		<path class="st0" d="M181.72,224c-0.47,0.02-0.93,0.03-1.4,0.05c-2.11-0.01-4.22-0.02-6.33-0.03c-0.72-0.01-1.45-0.01-2.17-0.02
			c-4.21,0.01-8.42,0.01-12.63,0.02c-1.91-0.19-3.81-0.35-5.72,0.02c-0.29-0.69-2.8,0.82-1.46-1.48c5.8-6.58,11.6-13.16,17.4-19.75
			c2.05-2.31,4.81-1.56,7.24-1.38c2.96,0.22,3.22-0.96,2.84-3.4c-1.94-12.31-3.77-24.64-5.64-36.97c-0.04-1.36-1.86-6.1-0.54-6.96
			c5.54-4.94,10.24-10.65,14.97-16.32c0.17-0.18,0.33-0.36,0.5-0.53c0.7-0.32,1.15-0.86,1.4-1.58c1.01-1.89,2.84-3.08,3.92-5.03
			c0.68-1.22,1.53,0.49,1.84,1.48c1.34,9.6,2.65,19.21,4.02,28.81c3.72,26.09,7.44,52.18,11.23,78.26c0.31,2.11-0.35,2.62-2.38,2.58
			c-3.86-0.08-7.72,0.12-11.58,0.2c-0.88-0.16-2.84-0.24-3.39-0.18c-0.5,0.06-4.67,0.26-6.76,0.02c-0.93-0.11-1.64,0.16-1.83-1.26
			c-0.74-5.44-1.67-10.86-2.53-16.29C182.47,223.89,182.13,223.8,181.72,224z"/>
		<path class="st0" d="M274,187.65c-1.62,3.7-3.18,7.41-4.2,11.33c-1.46,2.98-2.63,6.07-3.47,9.28
			c-3.77,9.93-7.52,19.87-11.34,29.79c-0.53,1.38-0.68,3.02-2.1,3.95c-6.44-0.07-12.88-0.18-19.32-0.21
			c-8.77-0.05-8.67,0.01-5.68-8.27c3.2-8.89,7.06-17.54,9.6-26.67c4.37-9.78,7.84-19.9,11.37-30c0.35-0.83,0.69-1.66,1.04-2.49
			c0.7-3.48,2.82-4.75,6.24-4.08c0.32,0.06,0.68-0.09,1.03-0.14c0.7,0.01,1.4,0.02,2.11,0.02c6.08,0.06,12.16,0.19,18.24,0.12
			c2.17-0.02,2.66,0.46,1.84,2.57C277.46,177.75,275.77,182.72,274,187.65z"/>
		<path class="st0" d="M308.5,172.3c0.54-1.24,1.19-2.04,2.84-2.03c8.69,0.1,17.37,0.05,26.66,0.05
			c-2.62,7.37-5.14,14.44-7.65,21.52c0,0,0.01,0.01,0.01,0.01c-0.15,0.3-0.3,0.59-0.44,0.89c-2.11,5.64-4.21,11.29-6.32,16.93
			c-0.47,0.88-1.01,1.74-0.91,2.81c-0.75,1.06-1.17,2.25-1.32,3.54c-1.59,3.13-2.82,6.4-3.7,9.8c-1.79,4.56-3.64,9.1-5.33,13.7
			c-0.57,1.55-1.29,2.25-3.01,2.24c-7.99-0.07-15.97-0.03-23.96,0c-1.26,0-2.43,0.02-2.19-1.77
			C283.61,239.34,300.48,194.22,308.5,172.3z"/>
		<path class="st0" d="M368.51,172.16c0.61-1.83,1.5-2.68,3.49-2.65c5.74,0.08,11.48,0.08,17.22-0.03c2.71-0.05,2.88,1.11,2.12,3.27
			c-2.4,6.83-4.71,13.69-7.05,20.55c-0.49,1.44-6.09,18.47-7.96,23.77c-2.58,7.29-5.16,14.59-7.46,21.97
			c-0.73,2.35-1.77,3.16-4.18,3.1c-6.45-0.14-14.39-0.05-20.85-0.05C343.81,241.38,364.09,185.48,368.51,172.16z"/>
		<path class="st0" d="M106.97,241.49c-2.78,0-5.56,0-9.09,0c3.08-3.73,10.44-12.2,10.99-12.81c5.99-6.75,12.02-13.46,17.99-20.24
			c7.28-8.27,14.49-16.58,21.74-24.87l5.77-6.92l6.4-7.06c1.73,0.49,1.77,1.97,1.81,3.33l0.83,5.08l1.33,8.46
			c0,0,0.04,0.94,0.07,1.4c0.02,0.46,0.04,0.93,0.06,1.39c0.79,4.18-1.41,7.25-3.82,10.23c-1.04,0.47-4.02,4.14-4.75,5.26
			c-0.78,0.86-5.43,6-7,7.7c-5.09,4.84-9.35,10.42-14.09,15.58c-3.64,3.96-7.27,7.94-10.78,12.03c-0.99,1.15-2.05,1.35-3.37,1.36
			c-3.05,0-6.09,0.07-9.14,0.1C110.28,241.5,108.63,241.49,106.97,241.49z"/>
		<path class="st0" d="M303.65,137.07c0.67-1.54,2.02-1.28,3.3-1.29c6.9-0.05,13.81-0.1,20.71-0.16c0.48,0,0.95,0.01,1.43,0.01
			c12.61,0,25.21,0,38.38,0c-4.13,7.74-4.26,15.02-0.15,22.72c-21.27,0-42.09,0-62.9,0c-0.71,0-1.41,0-2.12,0
			c-1.89-0.02-3.77-0.05-5.66-0.07c-0.15-0.13-0.32-0.18-0.52-0.15C298.63,151.12,301.14,144.09,303.65,137.07z"/>
		<path class="st0" d="M269.15,158.21c-0.72-2.37,1.43-4.11,1.37-6.33c1.88-4.95,3.81-9.89,5.61-14.87
			c0.59-1.63,1.84-1.14,2.91-1.21c1.28-0.08,2.57-0.02,4.22-0.02c-0.77,2.24-1.52,4.18-2.1,6.17c-0.26,0.9-1.42,2.24-0.08,2.76
			c1.72,0.67,1.51-1.37,1.95-2.24c0.74-1.45,1.19-3.05,1.66-4.61c0.47-1.55,1.3-2.14,3.03-2.14c5.16-0.01,5.17-0.11,3.4,4.88
			c-1.64,4.63-3.52,9.19-4.88,13.9c-0.82,2.83-2.19,4.12-5.09,3.76c-0.71,0-1.42,0-2.12,0c-0.23,0-0.46,0-0.69,0
			c-1.24-0.78-0.35-1.65-0.07-2.44c1.08-3.09,2.25-6.14,3.3-9.23c0.23-0.68,1.18-1.59-0.2-2.19c-1.18-0.57-1.06,0.54-1.39,1.07
			c-2.04,4.14-2.64,8.85-5.18,12.79C272.91,158.24,271.03,158.23,269.15,158.21z"/>
		<path class="st0" d="M124,269.35c0.08-0.35,0.16-0.7,0.24-1.04c2.7-6.34,5.53-12.62,8.02-19.04c0.88-2.27,2.01-3.08,4.37-2.87
			c3.03,0.26,6.11,0.01,9.12,0.38c3.76,0.47,4.92,2.78,3.44,6.27c-1.04,2.45-2.68,4.47-5.1,5.59c-1.62,0.75-2.14,1.52-1.27,3.18
			c0.48,0.92,0.64,2,0.97,3c1.65,4.96,1.65,4.89-3.69,4.69c-1.41-0.05-2.12-0.43-2.44-1.8c-0.38-1.59-0.86-3.16-1.41-4.7
			c-0.28-0.78-0.15-1.87-1.58-1.94c-1.45-0.07-1.74,0.89-2.17,1.83c-0.24,0.53-0.45,1.08-0.68,1.62
			C129.68,269.67,129.68,269.67,124,269.35z M135.55,256.75c3.21,0.36,5.7,0.12,7.43-2.26c1.52-2.09,0.87-3.46-1.62-3.84
			C136.56,249.9,137,253.93,135.55,256.75z"/>
		<path class="st0" d="M319.17,259c1.64-2.96,3.18-5.96,5.77-8.29c4.07-3.68,8.83-4.69,13.99-3.56c3.55,0.78,3.96,3.87,4.1,6.91
			c-1.04,3.94-2.77,7.53-5.53,10.57c-1.49,1.14-2.98,2.28-4.47,3.42c-0.43,0.34-2.69,1.13-3.48,1.07c0,0-0.22,0.05-0.22,0.05
			c-2.47,0.51-4.91,0.2-7.35-0.24c-2.78-1.57-3.52-4.15-3.53-7.09C318.45,260.92,318.76,259.71,319.17,259z M334.74,259.73
			c1.03-1.03,1.39-2.41,1.81-3.73c0.48-1.5,0.68-3.14-0.6-4.29c-1.39-1.24-3.17-0.89-4.66-0.18c-2.54,1.2-4.24,3.25-5.11,5.95
			c-0.42,0.95-1,1.86-1.22,2.85c-0.32,1.46-0.69,3.09,0.77,4.22c1.5,1.16,3.17,0.77,4.64-0.02
			C332.35,263.45,334,261.97,334.74,259.73z"/>
		<path class="st0" d="M167.88,268.7c-0.74,1.39-2.06,0.85-3.14,0.86c-4.33,0.05-8.66,0.02-13.53,0.02
			c3.11-7.43,6.11-14.57,9.07-21.73c0.53-1.29,1.57-1.19,2.63-1.19c3.63,0,7.27-0.06,10.9,0.04c0.94,0.02,2.8-0.69,2.58,0.96
			c-0.19,1.39-0.27,3.72-2.89,3.62c-1.87-0.08-3.77,0.15-5.62-0.06c-2.6-0.3-3.96,0.69-4.25,3.54c2.87,0,5.73,0,8.63,0
			c0.25,2.02-1.04,3.29-1.4,4.84c-2.45,0-4.91,0.17-7.34-0.04c-3.33-0.29-3.7,2.54-3.85,4.31c-0.18,2.18,2.2,0.78,3.39,1.12
			c0.64,0.18,1.39,0.02,2.09,0.02C169.17,264.98,169.17,264.98,167.88,268.7z"/>
		<path class="st0" d="M243.85,246.49c2.79,0.29,5.58,0.43,8.36-0.07c1.86,0.09,3.72,0.27,5.58,0.24c1.44-0.02,1.57,0.59,1.13,1.7
			c-0.41,0.94-0.81,1.87-1.22,2.81c-2.78,0.02-5.57,0.06-8.35,0.06c-1.18,0-2.41-0.13-2.58,1.54c-0.17,0.1-0.21,0.24-0.12,0.41
			c-0.3,0.43-0.98,0.91-0.48,1.4c0.7,0.69,1.66,0.31,2.53,0.15c1.88,0,3.76,0,5.64,0c1.46,1.27-0.47,2.3-0.24,3.48
			c-1.89,2.75-4.71,0.83-7.03,1.39c-1.17,0.28-2.7-0.68-3.49,0.78c-0.65,1.2-1.59,2.7-1.34,3.83c0.33,1.49,2.17,0.54,3.33,0.73
			c0.91,0.14,1.9-0.12,2.79,0.08c1.03,0.23,3.07-0.99,2.88,1.02c-0.14,1.49-0.42,3.9-3.26,3.59c-1.61-0.18-3.26,0.03-4.89,0.07
			c-2.98,0-5.95,0-9.25,0c0.68-1.94,1.2-3.44,1.73-4.95c0.33-0.74,0.65-1.48,0.98-2.23c1.79-4.2,3.9-8.27,5.16-12.68
			C242.41,248.73,243.13,247.61,243.85,246.49z"/>
		<path class="st0" d="M193.71,246.42c1.98,0.11,3.97,0.15,5.94,0.33c5.14,0.47,6.71,3.32,4.39,7.96c-0.52,1.04-1.22,1.99-1.84,2.98
			c-3.26,3.1-7.03,4.97-11.64,4.47c-2-0.22-2.85,0.91-3.14,2.47c-0.84,4.51-3.65,5.69-7.77,4.93c0.01-0.46,0.03-0.92,0.04-1.38
			c1.93-3.36,3.21-7.01,4.61-10.6c1.3-3.17,2.59-6.33,3.89-9.5c0.16-0.35,0.33-0.7,0.49-1.05c0.19,0,0.27-0.1,0.25-0.28
			c0.65-0.11,1.3-0.21,1.95-0.32C191.82,246.73,192.77,246.73,193.71,246.42z M190.28,257.38c3.24,0.63,5.63,0.33,7.3-2.13
			c1.66-2.44,0.94-3.93-1.97-4.11C190.91,250.84,192.23,255.15,190.28,257.38z"/>
		<path class="st0" d="M270.56,269.58c-1.39-0.13-2.77-0.26-4.16-0.39c-1.39-0.43-2.78-0.86-4.17-1.28
			c-0.04-0.38-0.07-0.75-0.11-1.13c0.32-0.61,0.76-1.19,0.95-1.84c0.74-2.53,1.74-3.02,4.02-1.19c1.98,1.59,4.58,1.55,7.06,0.98
			c1.21-0.28,2.34-0.87,2.49-2.13c0.19-1.64-1.43-1.7-2.43-1.93c-2.4-0.57-4.8-1.04-6.5-3.05c-0.47-2.82,0.64-5.16,2.22-7.37
			c2.46-2.03,5.26-3.37,8.39-4.01c0.23-0.02,0.46-0.03,0.7-0.05c0.94-0.03,1.88-0.05,2.82-0.08c0.92,0.14,1.89,0.12,2.73,0.45
			c1.12,0.44,3.09,0.13,3.11,1.62c0.03,1.38-0.89,2.87-1.66,4.14c-0.68,1.13-1.38,0.01-1.97-0.37c-2.39-1.56-4.96-2.01-7.61-0.97
			c-1.26,0.49-3.01,1.17-1.13,3.01c0.43,0.49,0.93,0.82,1.62,0.62c0.46,0.07,0.92,0.14,1.37,0.21c2.05,1.1,4.72,1.42,5.43,4.24
			c-0.77,5.02-3.98,7.87-8.53,9.43C273.71,269,272.11,269.22,270.56,269.58z"/>
		<path class="st0" d="M371.3,249.71c-0.27,0.5-0.61,0.97-0.79,1.5c-0.58,1.75-1.16,2.45-3.05,1c-2.26-1.73-4.99-1.74-7.63-0.63
			c-0.77,0.32-1.45,0.88-1.48,1.79c-0.04,1.06,0.88,1.2,1.65,1.43c0.67,0.2,1.33,0.41,2.01,0.59c5.83,1.51,6.79,4.01,3.44,8.94
			c-0.39,0.57-0.81,1.12-1.21,1.68c-4.57,3.05-9.51,4.19-14.9,2.82c-1.39-0.35-3.19-0.49-2.62-2.77c1.08-3.01,2.48-4.33,5.51-1.7
			c1.01,0.88,2.8,1.21,4.38,0.82c1.57-0.4,3.72-0.51,3.85-2.47c0.14-2.11-2.19-1.74-3.47-2.1c-5.78-1.62-6.65-3.58-3.68-8.81
			c0.21-0.37,0.27-0.84,0.4-1.26c4.54-3.15,9.46-4.7,14.99-3.42C369.98,247.41,371.96,247.34,371.3,249.71z"/>
		<path class="st0" d="M293.12,158.24c-2.1,0-4.2,0-6.5,0c2.53-6.98,4.94-13.73,7.43-20.46c0.93-2.51,5.73-2.94,7.79-0.77
			c-2.55,7.01-5.1,14.03-7.66,21.04l-0.21-0.05l-0.15,0.16C293.59,158.19,293.35,158.21,293.12,158.24z"/>
		<path class="st0" d="M114.58,250.47c-1.28,0.89-2.41,1.91-2.95,3.44c-4.77,3.64-8.38,8.41-12.27,12.86
			c-2.38,2.71-4.8,3.21-8.5,2.46c6.25-8,13.82-14.32,19.74-22.09c1.15-0.08,2.3-0.16,3.44-0.23
			C119.23,247.34,114.11,249.33,114.58,250.47z"/>
		<path class="st0" d="M267.71,153.29c-0.94,4.11-3.57,5.62-7.62,4.89c0.48-4.82,3.05-8.97,4.37-13.52c0.58-2.01,1.65-3.89,2.1-5.92
			c0.58-2.64,2.12-3.14,4.52-3.04c2.04,0.08,2.67,0.34,1.82,2.57C270.99,143.22,269.42,148.28,267.71,153.29z"/>
		<path class="st0" d="M253.64,158.25c-3.03,0.33-2.48-1.52-2.03-3.31c2.1-5.57,4.19-11.13,6.29-16.7c0.81-2.13,3.58-3.31,5.57-2.44
			c0.98,0.43,0.62,1.05,0.39,1.7c-2.25,6.4-4.54,12.79-6.72,19.21C256.49,158.65,254.85,157.85,253.64,158.25z"/>
		<path class="st0" d="M249.23,149.72c-0.79,2-1.73,3.96-2.33,6.02c-0.5,1.7-1.42,2.51-3.13,2.53c-0.92-0.06-1.85-0.12-2.77-0.18
			c1.21-5.58,3.97-10.63,5.45-16.12c0.51-1.3,1.22-2.57,1.5-3.92c0.65-3.15,3.05-2.44,4.96-2.17c1.56,0.22,0.47,1.45,0.22,2.21
			C251.85,141.98,250.53,145.85,249.23,149.72z"/>
		<path class="st0" d="M241.87,136.35c-1.55,4.44-3.1,8.88-4.66,13.32c-0.81,2.05-1.68,4.07-2.42,6.15
			c-0.45,1.26-0.81,2.81-2.48,2.19c-1.66-0.62-0.36-1.91-0.06-2.84c1.03-3.21,2.15-6.39,3.24-9.58c0.97-2.49,2.04-4.94,2.86-7.47
			c0.55-1.7,1.42-2.6,3.25-2.37C241.7,135.95,241.79,136.15,241.87,136.35z"/>
		<path class="st0" d="M113.86,155.03c-0.43,0.32-0.85,0.64-1.28,0.96c-4.33,2.96-8.72,5.84-12.97,8.9
			c-1.69,1.22-2.6,1.48-4.15-0.44c-3.81-4.74-8.84-7.51-15.07-7.72c-5.15-0.93-10.11-0.12-14.97,1.62c-5,1.22-9.49,3.45-13.48,6.7
			c-6.7,4.17-12.17,9.55-16.07,16.45c-0.27,0.46-0.53,0.93-0.8,1.39c-3.59,5.38-5.41,11.38-5.64,17.77
			c-0.34,9.66,5.68,18.09,14.81,20.61c6.67,1.84,13.39,1.64,19.94-0.87c5.23-1.31,9.88-3.77,14.05-7.15
			c2.76-0.04,5.53-0.08,8.29-0.12c3.52,0.01,7.05,0.01,10.57,0.02c1.18,0,2.35,0,3.53-0.01c1.76,0.1,3.51,0.2,5.67,0.33
			c-1.39,1.75-2.5,3.15-3.6,4.54c-1.47,1.41-2.94,2.82-4.41,4.24c-1.42,0.98-2.86,1.95-3.85,3.42c-1.84,1.43-3.69,2.86-5.53,4.3
			c-1.98,1.27-3.96,2.54-5.94,3.81c-10.86,5.88-22.11,10.59-34.61,11.51c-13.23,0.97-25.09-2.11-34.6-11.91
			c-5.82-6-7.95-13.58-8.96-21.6c-0.2-6.48,1.05-12.75,2.56-19c1.5-3.75,3-7.51,4.51-11.26c0.24-0.47,0.49-0.95,0.73-1.42
			c3.11-5.05,6.28-10.06,9.94-14.74c0.64-0.74,1.28-1.47,1.93-2.21c1.31-1.38,2.62-2.75,3.93-4.13c1.45-1.02,2.78-2.16,3.84-3.6
			c4.01-3.03,8.02-6.05,12.03-9.08c3.76-2.08,7.52-4.17,11.28-6.25c1.27-0.29,2.49-0.67,3.53-1.49c1.09,0,1.99-0.53,2.89-1.05
			c1.57-0.56,3.14-1.12,4.71-1.68c1.12-1.72,3.01-0.17,4.34-1.02c0.39-0.12,0.79-0.23,1.18-0.35c1.57-0.24,3.2-0.16,4.67-0.91
			l0.26,0.12l0.24-0.16c0.71-0.05,1.42-0.1,2.13-0.15c0.23-0.02,0.45-0.04,0.68-0.06c0.47-0.07,0.94-0.14,1.41-0.2
			c1.43-0.06,2.86-0.12,4.29-0.17c5.22,0.18,10.32,1.21,15.47,1.95c0.99,0.51,1.78,1.26,2.89,1.72c5.95,2.44,10.58,6.56,14.34,11.78
			c1.31,1.82,1.06,2.7-0.8,3.72C116.35,152.9,115.15,154.05,113.86,155.03z"/>
		<path class="st0" d="M90.76,255.54c-4.02,4.25-8.11,8.43-12.03,12.77c-1.78,1.97-4.02,1.56-5.86,1.05
			c-1.93-0.54-0.11-1.67,0.43-2.25c5.48-5.93,11.03-11.81,16.54-17.71c0.39-0.42,0.66-0.96,0.99-1.45c1.43-1.19,3.19-0.82,4.82-1.02
			c0.72,0.04,1.44,0.07,2.16,0.11C96.12,250.42,92.84,252.48,90.76,255.54z"/>
		<path class="st0" d="M90.01,266.69c-2.27,2.51-4.93,3.74-8.73,2.42c3.24-3.67,6.37-7.2,9.5-10.74c3.52-2.6,5.72-6.47,8.95-9.34
			c0.78-0.69,1.33-1.79,2.45-1.88c1.46-0.12,3.44-0.81,4.26,0.44c0.77,1.18-1.13,2.03-1.92,2.93
			C99.71,255.94,94.85,261.3,90.01,266.69z"/>
		<path class="st0" d="M207.33,267.35c-1.01-2.71-0.06-5.24,0.71-7.79c1.19-2.65,2.58-5.24,3.51-7.98c0.94-2.79,2.26-4.88,5.43-5.2
			c1.54,0.26,2.57,0.55,1.58,2.62c-1.85,3.87-3.45,7.87-5,11.88c-1.29,3.35-0.43,4.23,3.4,3.79c2.11,0.02,3.17-1.52,3.85-3.06
			c1.91-4.33,3.58-8.77,5.35-13.17c1.04-2.37,3.14-1.71,5-1.78c1.33-0.05,1.48,0.75,1.32,1.78c-2.15,4.94-4.3,9.88-6.45,14.81
			c-2.05,2.75-4.65,4.74-7.93,5.81c-1.08,0.19-2.17,0.37-3.25,0.56C212.16,269.45,209.43,269.47,207.33,267.35z"/>
		<path class="st0" d="M296.66,255.49c0.9-1.21,1.73-2.44,1.8-4.24c-2.03,0-3.98,0-6.03,0c0.18-3.45,1.57-4.89,5.08-4.64
			c4.3,0.32,8.65,0.05,12.97,0.11c0.9,0.01,2.59-0.61,2.47,0.84c-0.12,1.37-0.22,3.43-2.46,3.66c-0.46,0.05-0.95,0.1-1.4,0.01
			c-4.12-0.89-5.58,1.44-6.1,4.95c-1.1,1.47-1.7,3.17-2.15,4.92c-0.61,0.54-0.78,1.27-0.83,2.04c-3.44,6.79-3.44,6.79-8.61,6.13
			c1.15-2.95,2.28-5.87,3.42-8.79C295.62,258.9,296.59,257.36,296.66,255.49z"/>
		<path class="st0" d="M96.44,201.09c-2.13-0.37-4.25-0.31-6.37,0.02c-2.11-0.35-4.22-0.37-6.32,0c-5.19-0.38-10.38-0.41-15.57-0.03
			c-1.74-0.08-3.49-0.23-5.23-0.22c-1.28,0.01-2.05-0.3-1.82-1.76c2.2-5.89,4.39-11.78,6.59-17.68c1.05-4.62,4.79-2.71,7.58-3.11
			c3.76-0.08,7.52-0.16,11.27-0.24c11.36,0.08,22.71,0.24,34.07,0.17c2.56-0.02,3.71,0.62,3.36,3.23c-0.01,0.47-0.02,0.94-0.03,1.42
			c-1.13,5.64-2.84,11.01-6.45,15.65c-1.33,1.71-2.76,2.46-5,2.41C107.15,200.84,101.79,201.02,96.44,201.09z"/>
		<circle class="st0" cx="384.18" cy="145.68" r="11.02"/>
	</g>
</g>
</svg>
