<?xml version="1.0" encoding="utf-8"?>
<!-- Generator: Adobe Illustrator 28.3.0, SVG Export Plug-In . SVG Version: 6.00 Build 0)  -->
<svg version="1.1" id="Capa_1" xmlns="http://www.w3.org/2000/svg" xmlns:xlink="http://www.w3.org/1999/xlink" x="0px" y="0px"
	 viewBox="0 0 400 400" style="enable-background:new 0 0 400 400;" xml:space="preserve">
<style type="text/css">
	.st0{fill:#FFFFFF;}
</style>
<g>
	<path class="st0" d="M366.98,207.12c-5.02-0.88-7.43-4.64-10.34-7.66c-2.24-2.33-3.17-5.41-4.01-8.38
		c-3.62-12.86-1.87-25.13,3.93-37.11c4.14-8.54,8.84-16.85,11.75-25.95c1.49-4.66-0.61-8.12-5.39-9.14
		c-5.33-1.13-10.32,0.69-15.33,1.88c-7.29,1.73-7,1.92-8.12,9.37c-1.78,11.83-7.37,21.38-17.89,27.61
		c-6.34,3.75-13.57,3.22-19.69-1.63c-1.83-1.45-2.57-1.12-3.66,0.67c-3.01,4.89-6.37,9.5-11.03,13.03
		c-5.61,4.25-11.7,4.43-17.3,0.16c-1.66-1.27-2.78-1.06-4.24,0.19c-2.71,2.32-5.14,4.93-8.06,7.04c-7.52,5.41-14.46,5.54-21.78-0.44
		c-2.58-2.11-3.94-2.55-6.38,0.26c-3.38,3.9-7.22,7.41-11.49,10.46c-5.05,3.6-11.76,2.57-14.72-2.88c-0.94-1.74-1.52-1.84-2.96-0.56
		c-4.27,3.8-8.43,7.72-13.03,11.17c-3.54,2.66-7.22,4.68-11.55,5.59c-3.6,0.76-6.93,0.63-9.53-2.38c-1.25-1.44-2.08-0.81-3.13,0.31
		c-4.3,4.58-8.86,8.86-14.13,12.37c-1.49,0.99-3.04,1.65-4.74,2.02c-4.89,1.05-8.03-1.23-8.53-6.2c-0.13-1.29-0.2-2.61-0.14-3.9
		c0.16-3.53-0.09-6.61-4.85-6.56c-1.16,0.01-2.02-0.99-2.21-2.11c-0.22-1.33,1.04-1.5,1.93-1.75c5.26-1.5,6.94-6.32,9.26-10.34
		c3.07-5.31,5.73-10.87,8.29-16.46c0.92-2,2.17-2.88,4.15-2.99c3.14-0.17,6.29-0.25,9.43-0.33c2.91-0.08,1.78,1.88,1.39,3.13
		c-2.01,6.51-4.13,12.98-6.21,19.46c-0.33,1.03-0.62,2.08-0.93,3.11c-0.49,1.64-0.74,3.36,0.92,4.41c1.91,1.21,3.28-0.22,4.5-1.46
		c2.85-2.92,4.37-6.67,6.26-10.19c4.06-7.56,6.7-15.72,9.75-23.69c0.77-2.01,1.74-2.54,3.77-2.62c4.11-0.15,8.21-0.65,12.31-1.04
		c2.02-0.19,2.41,0.11,1.48,2.26c-3.24,7.43-7.88,14.25-9.69,22.3c-0.44,1.94-0.61,3.88-0.35,5.81c0.39,2.92,1.9,3.65,4.58,2.3
		c1.87-0.94,3.37-2.39,4.54-4.09c4.99-7.23,8.92-15.03,12.54-23.02c2.06-4.54,3.8-9.18,5.39-13.9c0.39-1.16,0.94-2.31,2.28-2.51
		c3.53-0.53,7.08-0.98,10.63-1.42c1.68-0.21,2.36,0.16,1.67,2.16c-2.44,7.06-4.68,14.18-6.96,21.29c-0.97,3.01-1.48,6.12-1.21,9.28
		c0.28,3.31,2.16,4.35,4.82,2.42c4.54-3.31,8.7-6.57,8.32-13.51c-0.33-5.97,0.95-12.11,3.9-17.58c4.69-8.68,12.68-12.65,21.8-14.86
		c5.19-1.26,10.1-0.58,14.58,2.5c1.29,0.89,1.81,0.42,2.22-0.99c2.19-7.46,4.49-14.89,6.74-22.33c1.81-5.99,3.62-11.98,5.37-17.99
		c0.49-1.68,1.69-2.49,3.22-2.88c3.88-0.99,7.77-1.91,11.66-2.85c2.29-0.55,3.15-0.1,2.36,2.55c-5.36,17.89-10.61,35.81-15.89,53.72
		c-1.13,3.82-2.27,7.63-3.31,11.48c-0.37,1.36-0.49,2.8,0.91,3.84c1.29,0.96,2.3,0.12,3.23-0.54c5.07-3.59,8.57-8.07,8.92-14.65
		c0.44-8.36,3.48-15.8,8.9-22.17c4.62-5.44,10.59-8.49,17.72-8.99c1.78-0.13,3.05-0.59,4.17-1.99c2.52-3.16,7.16-2.9,9.28,0.43
		c3.09,4.84,3.26,4.69,8.92,3.1c4.77-1.35,9.63-2.45,14.63-2.8c10.9-0.77,14.66,6.54,15.35,14.55c1.08,12.6-1.75,24.6-5.92,36.48
		c-3.76,10.73-6.7,21.76-6.03,33.37C364.24,198.66,365.71,202.7,366.98,207.12z M252.24,164.74c1.17,0.13,2.38-0.38,3.52-1
		c7.01-3.8,9.25-10.57,10.52-17.68c0.41-2.33-0.55-5-3.32-6.13c-2.62-1.07-4.85,0.34-6.43,1.9c-2.99,2.95-5.49,6.38-7.29,10.25
		c-0.96,2.07-1.67,4.24-1.93,6.48C246.89,162.35,248.86,164.8,252.24,164.74z M313.98,138.06c-0.23,2.58,0.35,4.95,2.48,6.39
		c1.35,0.92,3.13,0.67,4.63-0.3c7.08-4.6,10.17-13.61,8.56-20.96c-0.8-3.66-3.42-4.69-6.23-2.26
		C318.19,125.42,314.73,131.05,313.98,138.06z"/>
	<path class="st0" d="M91.71,130.87c-0.39,0.24-0.78,0.48-1.17,0.71c-1.25,0.14-2.04,0.97-2.77,1.87c-0.24-0.05-0.38,0.04-0.44,0.27
		c-2.09,1.31-4.02,2.81-5.36,4.94l0.02-0.02c-2.69,2.31-5.32,4.69-6.9,7.97c-0.22,0.07-0.31,0.22-0.26,0.45
		c-1.1,0.67-2.14,1.4-2.36,2.8c-0.23,0.07-0.31,0.22-0.24,0.46c-1.04,0.74-1.93,1.61-2.42,2.82l-0.05,0.05
		c-2,1.79-3.71,3.77-4.39,6.45c-0.23,0.08-0.33,0.24-0.3,0.49c-3.06,2.44-4.76,5.81-6.33,9.27c-0.21,0.03-0.3,0.15-0.26,0.36
		c-0.88,1.32-1.88,2.57-2.62,3.97c-3.3,6.24-6.35,12.58-7.05,19.75c-0.3,0.97-0.38,1.95-0.14,2.94c-1.23,2.6-0.58,5.29-0.12,7.87
		c0.58,3.21,1.36,6.47,4.26,8.61l0.05,0.06c0.11,0.87,0.78,1.2,1.42,1.63c8.3,5.5,20.51,0.84,25.39-4.71
		c0.22,0.05,0.36-0.04,0.4-0.26c0.8,0,1.11-0.46,1.16-1.19c0.26-0.26,0.53-0.51,0.79-0.77c2.62-1.85,5.45-3.46,7.04-6.43l0.08-0.09
		c1.77-0.48,2.86-1.97,4-3.14c3.74-3.81,8.45-6.61,11.52-11.09c0.27-0.23,0.53-0.46,0.8-0.7c2-0.7,3.24-2.74,5.68-2.82
		c3.89-0.14,7.77-0.6,11.63-1.06c2.45-0.29,3.16,0.38,2.29,2.84c-2.76,7.84-5.34,15.75-8.08,23.6c-2.22,6.39-4.9,12.62-6.34,19.27
		c-0.05,0.32-0.09,0.64-0.14,0.96c-1.84,2.06-0.09,2.01,1.26,2.1c3.67,0.26,7.35,0.4,11.02,0.75c1.3,0.12,2.74,0.84,2.8,2.28
		c0.06,1.51-1.51,1.53-2.65,1.83c-0.6,0.15-1.15,0.53-1.73,0.8c-0.43,0.08-0.87,0.16-1.3,0.24c-4.81,0.91-9.56,2.02-13.79,4.67
		l0.01-0.01c-3.71,5.83-6.95,11.92-9.62,18.3c-0.2,0.11-0.27,0.27-0.2,0.49c-2.57,4.04-5.4,7.94-6.98,12.53
		c-0.21,0.1-0.27,0.26-0.2,0.47c-3.47,4.87-6.66,9.91-9.5,15.18c-0.24,0.03-0.34,0.16-0.3,0.4c-1.31,0.49-2.13,1.44-2.6,2.73
		l0.02-0.02c-1.29,0.5-1.97,1.51-2.3,2.81l-0.12,0.13c-0.93,0.15-1.41,0.75-1.6,1.63c-0.19,0.18-0.37,0.37-0.56,0.55
		c-1.8,1.02-3.42,2.21-4.32,4.16c-0.23,0.27-0.47,0.55-0.7,0.82c-1.62,0.93-3.15,1.96-4.17,3.59c-0.24-0.04-0.38,0.06-0.43,0.3
		c-1.81,0.89-3.52,1.92-4.67,3.66l0.02-0.02c-5.92,3.09-11.85,6.17-18.9,4.32c-0.34-0.16-0.68-0.31-1.03-0.47
		c-0.35-0.64-0.87-1-1.61-1l-0.11-0.1c-3.96-5.07-5.26-10.82-4.88-17.19c0.42-7.13,3.26-13.51,5.57-20.07
		c0.21-0.11,0.28-0.28,0.21-0.51c1.29-1.38,2.23-2.99,2.96-4.72c0.24-0.02,0.36-0.16,0.35-0.4c1.4-0.81,2.4-1.97,2.95-3.51
		c0.32-0.35,0.64-0.71,0.96-1.06c1.78-1.32,3.26-2.95,4.68-4.65c0.24,0.03,0.37-0.08,0.39-0.32c0.76-0.02,1.12-0.45,1.19-1.17
		l0.08-0.08c3.19-2.13,6.21-4.49,9.04-7.09l0.08-0.08c3.4-1.12,6-3.53,8.85-5.53c0.17,0.09,0.29,0.04,0.35-0.15
		c3.57-0.97,6.71-2.95,9.88-4.69c3.92-2.15,8.42-3.05,12.02-5.81c0.25-0.08,0.35-0.25,0.29-0.51c2.17-3.72,3.8-7.64,4.65-11.88
		c0.1-0.43,0.2-0.85,0.3-1.28c1.38-1.47,1.75-3.3,1.9-5.21c0.18-0.49,0.36-0.99,0.55-1.48c0.82-1.74,1.64-3.48,2.45-5.22
		c0.27-0.59,0.59-1.26-0.07-1.74c-0.48-0.35-1.04-0.11-1.48,0.25c-2.79,2.3-5.58,4.61-8.37,6.92c0,0,0.01-0.01,0.01-0.01
		c-1.19,0.23-2.18,0.73-2.63,1.95l0.01-0.01c-2.73,1.3-5.16,3.01-7.25,5.2c-0.59,0.33-1.18,0.67-1.78,1
		c-2.49,0.61-4.19,2.54-6.28,3.81c-6.38,3.89-13.19,6.67-20.53,8.1c-0.41,0.01-0.82,0.01-1.22,0.02c-1.02-0.55-2.14-0.3-3.17-0.21
		c-6.68,0.58-12.46-1.57-17.62-5.67c-0.34-0.36-0.68-0.72-1.02-1.08c-2.99-5.52-4.9-11.39-5.76-17.6c-0.03-1.08-0.06-2.17-0.09-3.25
		c0.38-1.55,0.37-3.1,0-4.65c0.03-1.95,0.07-3.9,0.1-5.85c1-4.14,2-8.27,3-12.41c0.09-0.42,0.18-0.84,0.27-1.27
		c2.27-4.95,4.54-9.89,6.81-14.84c0,0-0.01,0.03-0.01,0.03c1.93-1.58,2.34-4.06,3.58-6.04c0.24-0.07,0.33-0.22,0.27-0.46
		c1.3-1.4,2.63-2.78,3.28-4.64c0,0-0.02,0.02-0.02,0.02c1.4-1.07,2.36-2.47,3.1-4.05l0.04-0.04c1.25-0.4,1.66-1.39,1.79-2.57
		c0.24-0.03,0.35-0.17,0.32-0.41c1.5-0.74,2.48-1.99,3.32-3.37c0.19-0.2,0.37-0.4,0.56-0.59c2.85-2.85,5.69-5.69,8.54-8.54
		c0.68-0.16,1.05-0.62,1.21-1.27c1.82-1.01,3.39-2.31,4.73-3.9c0.35-0.31,0.7-0.61,1.04-0.92c0.71-0.06,1.24-0.37,1.48-1.08
		c0.25,0.02,0.4-0.09,0.46-0.33c2.26-0.82,3.73-2.76,5.67-4.04c0.5-0.4,1-0.8,1.5-1.19c4.93-1.93,9.26-4.98,13.91-7.44
		c0.36-0.13,0.72-0.26,1.08-0.39c1.43-0.43,2.87-0.81,4.29-1.28c11.29-3.77,22.52-5.08,33.58,0.81c0.06,0.21,0.2,0.29,0.41,0.24
		c1.78,1.75,3.56,3.5,5.34,5.26c-0.04,0.23,0.05,0.38,0.27,0.46c1,3.16,2.51,6.14,2.9,9.51c0.95,8.26-0.21,16.05-4.79,23.15
		c-0.24,0.08-0.35,0.24-0.32,0.49c-1.94,1.1-3.44,2.61-4.25,4.72c-0.25,0.02-0.37,0.16-0.35,0.41c-1.72,1.14-3.44,2.26-4.62,4.01
		c-0.25-0.04-0.4,0.07-0.44,0.33c-5.03,3.45-9.82,7.32-16.04,9.94c1.25-4.12,4.41-6.51,4.75-10.22c0.15-0.28,0.29-0.57,0.44-0.85
		c1.67-1.67,2.05-4,2.96-6.04c2.47-5.56,4.19-11.31,4.4-17.48c0.32-9.4-8.18-16-17.11-13.95C97.73,127.27,94.66,128.89,91.71,130.87
		z M84.02,252.12c-4.41,1.5-7.43,3.93-10.51,6.26c-8.12,6.14-15.81,12.74-21.68,21.16c-3.66,5.25-6.76,10.87-8.11,17.22
		c-0.48,2.26-1.2,5.08,1.24,6.58c2.49,1.53,4.88,0.37,7.11-1.4c4.71-3.73,8.73-8.2,12.41-12.82
		C73.14,278.23,79.06,265.76,84.02,252.12z"/>
	<path class="st0" d="M232.11,128.02c-0.02,5.98-4.36,10.52-10,10.48c-4.85-0.04-8.67-4.16-8.69-9.39
		c-0.03-5.45,5.06-10.82,10.11-10.67C228.23,118.58,232.13,122.93,232.11,128.02z"/>
</g>
</svg>
