<?xml version="1.0" encoding="utf-8"?>
<!-- Generator: Adobe Illustrator 28.3.0, SVG Export Plug-In . SVG Version: 6.00 Build 0)  -->
<svg version="1.1" id="Capa_1" xmlns="http://www.w3.org/2000/svg" xmlns:xlink="http://www.w3.org/1999/xlink" x="0px" y="0px"
	 viewBox="0 0 400 400" style="enable-background:new 0 0 400 400;" xml:space="preserve">
<style type="text/css">
	.st0{fill:#FFFFFF;}
</style>
<g>
	<path class="st0" d="M170.58,187.09c-0.55-1.34-0.82-2.73-0.78-4.18c0-1.15,0-2.29,0.01-3.44c0,0,0,0,0,0
		c0.01-0.25,0.01-0.49,0.02-0.74c0.52-1.16,0.61-2.32-0.02-3.47c0,0,0,0,0,0c-0.89-0.99-1.83-0.59-2.74-0.07
		c-0.78,0.45-1.56,0.8-2.5,0.68c-4.2-0.49-8.38-1.2-12.63-1.03c-0.44,0.02-0.89-0.01-1.25-0.32c-3.22-0.75-6.38,0.02-9.55,0.37
		c-0.12,0.01-0.25,0.01-0.37,0.01c-2.19,0.02-4.42-0.25-6.5,0.76l0,0c-0.77,0-1.54,0.01-2.31,0.01c0,0,0,0,0,0c0,0,0,0,0,0
		c-0.25-0.13-0.5-0.25-0.75-0.38c-0.8-0.82-1.75-1.11-2.72-0.44c-0.76,0.52-1.36,1.43-0.97,2.29c1.03,2.27,0.47,4.62,0.65,6.92
		c-1.08,0.97-0.71,2.25-0.76,3.45c0,0,0,0,0,0c0,0,0,0,0,0c-0.02,1.35-0.34,2.93,1.9,2.66c2.16-0.14,3.76-1.67,5.73-2.29
		c1.69-0.24,3.2-1.24,4.97-1.15v0c0.52,2.74,0.39,5.52,0.37,8.29c-0.06,7.16,0.19,14.32-0.34,21.48c-0.14,1.84-0.21,3.38-2.24,4.07
		c-0.38,0.13-0.75,0.49-0.79,1c0,0,0,0,0,0c0,0,0,0,0,0c-0.07,1.58,0.84,2.34,2.25,2.67c0.68,0.53,1.5,0.6,2.31,0.76
		c5.63,1.08,11.22,0.94,16.78-0.45c0.51-0.12,1.03-0.25,1.54-0.37c0,0,0,0,0,0c0,0,0,0,0,0c1.69-1.01,1.87-2.57,0.31-3.69
		c-0.93-0.67-1.66-1.37-1.79-2.53c-0.17-1.57-0.42-3.15-0.43-4.72c-0.04-8.83-0.01-17.66,0-26.48c0,0,0,0,0,0c0,0,0,0,0,0
		c1.76-0.07,3.31,0.84,5,1.08c0,0,0,0,0,0c0,0,0,0,0,0c1,0.41,1.99,0.82,2.99,1.23c1.25,0.88,2.53,1.57,4.06,0.86
		c0.08-0.01,0.16-0.05,0.24-0.12c0.1-0.01,0.2-0.03,0.3-0.04C171.17,188.87,171.11,187.98,170.58,187.09
		C170.58,187.09,170.58,187.09,170.58,187.09z M130.43,175.28C130.43,175.28,130.43,175.28,130.43,175.28
		C130.43,175.27,130.43,175.27,130.43,175.28C130.44,175.28,130.43,175.28,130.43,175.28z M138.81,186.32
		c0.02-0.01,0.04-0.02,0.07-0.03c0.01,0.01,0.01,0.02,0.02,0.04C138.86,186.32,138.84,186.32,138.81,186.32z M137.27,221.38
		c0.26-0.15,0.53-0.28,0.82-0.4C137.84,221.12,137.57,221.26,137.27,221.38z M157.56,186.71
		C157.56,186.71,157.56,186.7,157.56,186.71C157.56,186.7,157.56,186.7,157.56,186.71C157.56,186.7,157.56,186.7,157.56,186.71
		C157.56,186.7,157.55,186.7,157.56,186.71C157.55,186.7,157.55,186.7,157.56,186.71c0-0.01,0,0,0.01,0
		C157.56,186.7,157.56,186.7,157.56,186.71z M158.69,185.98C158.69,185.98,158.69,185.98,158.69,185.98
		C158.69,185.98,158.69,185.98,158.69,185.98c0.01,0,0.01,0,0.02,0c0,0,0,0.01,0,0.01C158.71,185.99,158.7,185.99,158.69,185.98z"/>
	<path class="st0" d="M127.95,220.49c-2.07-0.78-2.15-2.35-2.13-4.17c0.09-8.25,0-16.5-1.5-24.65c-0.47-2.54-0.96-5.12-2.69-7.22
		c-0.24-0.28-0.47-0.56-0.71-0.84c-0.27-0.49-0.54-0.98-0.82-1.46c0,0,0,0,0,0c-0.49-1.21-0.17-2.13,0.84-2.98
		c0.85-0.72,1.92-1.63,1.26-2.89c-0.62-1.18-1.94-0.55-2.97-0.62c-0.25-0.02-0.5,0.05-0.75,0.1c-2.02,0.4-4.03,0.39-6.05-0.04
		c-3.42-0.73-6.89-1.25-10.37-1.13c-5.35,0.19-10.58,2.24-16.04,1.04c-0.76-0.17-1.73-0.2-2.1,0.84c-0.33,0.92,0.19,1.55,0.79,2.18
		c0.76,0.8,1.92,1.36,1.83,2.74c-0.52,0.76-1.03,1.53-1.55,2.29c-0.5,0.37-0.68,0.91-0.82,1.47c0,0,0,0,0,0
		c-1.16,1.87-1.52,3.99-1.9,6.1c0,0,0,0,0,0c-1.19,3.09-1.18,6.37-1.5,9.6c-0.01,0.75-0.01,1.49-0.02,2.24
		c-0.49,0.61-0.35,1.33-0.35,2.01c-0.02,4.06-0.02,8.12-0.03,12.17c0.07,1.69-0.92,2.68-2.29,3.41c0,0,0,0,0,0
		c-0.6,0.05-0.6,1.29-1.49,0.74c0,0,0,0,0,0c-0.52-1.35-2.63-1.26-2.71-3c-0.18-2.29,0.4-4.62-0.36-6.88c0,0,0,0,0,0
		c0-0.25-0.01-0.5-0.01-0.76c0-7.39,0-14.77,0-22.16c0,0,0,0,0,0c0-0.13,0.01-0.25,0.01-0.38c0.77-2.26,0.19-4.59,0.36-6.88
		c0,0,0,0,0,0c0,0,0,0,0,0c0.38-1.08,1.32-1.75,1.94-2.65c0.81-0.64,1.31-1.37,0.85-2.46c-0.49-1.16-1.49-1.05-2.44-0.98
		c-1.07,0.08-2.14,0.26-3.21,0.37c-3.1,0.33-6.02-0.77-9.03-1.18c-2.87-0.39-5.15,0.77-6.48,3.46c-2.24,3.29-3.48,7.05-4.94,10.71
		c-0.38,0.76-0.76,1.53-1.14,2.29c-0.66,0.27-0.73,0.93-0.96,1.49c-0.41,1.01-0.89,0.44-1.36,0.06l0.01-0.01
		c0.04-0.76-0.15-1.42-0.77-1.92c0,0,0,0,0,0c0,0,0,0,0,0c-0.26-0.51-0.51-1.01-0.77-1.52c-0.34-1.17-0.68-2.35-1.4-3.36
		c-0.02-0.04-0.05-0.08-0.09-0.13c-0.36-2.21-1.3-4.22-2.36-6.15c-2.15-3.9-3.74-5.58-8.37-4.55c-0.36,0.08-0.76,0.03-1.13,0.04v0
		c-0.32,0-0.65-0.06-0.95,0.01c-3.68,0.9-7.38,1.02-11.11,0.37c-1.03-0.18-2.02,0.03-2.84,0.75v0c-0.11,0-0.21,0-0.32,0
		c0,0.64,0,1.28,0,1.92c0.1,0,0.2,0,0.31,0.01c0,0,0,0,0,0v0c0.44,0.73,1.09,1.21,1.78,1.69c0.98,0.68,1.72,1.58,1.65,2.85
		c-0.2,3.57,0.4,7.1,0.38,10.66c-0.02,7.44,0.09,14.87-0.34,22.31c-0.09,1.61-0.26,3.16-0.81,4.66c0,0,0,0,0,0c0,0,0,0,0,0
		l-0.17,0.01c-2.34,0.68-2.82,2.02-1.28,3.63c0,0,0,0,0,0c0,0,0,0,0,0c0.23,0.14,0.47,0.28,0.7,0.42c0.12,0.08,0.25,0.13,0.38,0.16
		c4.88,2.13,9.89,1.59,14.92,0.61c0,0,0,0,0,0c0.61-0.18,1.27-0.27,1.78-0.69c0.03-0.02,0.07-0.05,0.1-0.09c0,0,0,0,0,0c0,0,0,0,0,0
		v0c1.24-0.77,1.98-1.68,0.83-3.09c0,0,0,0,0,0c-1-1.01-2.37-1.45-2.49-3.44c-0.37-6.04-0.15-12.07-0.19-18.1
		c0-0.07,0.17-0.15,0.5-0.42c1.24,2.4,2.45,4.74,3.66,7.09c0,0,0,0,0,0c0,0,0,0,0,0c0.19,1.46,1.11,2.59,1.73,3.86
		c0.01,0.12,0.06,0.24,0.17,0.36c1.46,2.66,2.58,5.57,5.36,7.25c1.28,1.16,2.41,0.94,3.41-0.38c0,0,0,0,0,0
		c-0.59-2.77-0.18-5.4,1.11-7.91c0.26-0.51,0.48-1.04,0.44-1.64c0.14-0.37,0.28-0.73,0.42-1.1c0,0,0,0,0,0
		c1.48-2.29,2.33-4.96,4.34-7.32c0.08,0.68,0.16,1.04,0.15,1.4c-0.11,5.76-0.25,11.52-0.32,17.28c-0.02,1.24-0.73,1.8-1.71,2.24
		c-0.97,0.43-1.47,1.15-1.37,2.25c0.1,1.14,0.88,1.72,1.84,1.91c1.8,0.34,3.54,1.04,5.41,0.93c0.57,0.52,1.27,0.33,1.93,0.36
		c2.8-0.02,5.62,0.25,8.4-0.41c0,0,0,0,0,0c0,0,0,0,0,0c1.66,0.16,3.18-0.36,4.68-0.96c0.12-0.01,0.23-0.05,0.34-0.14
		c0.53-0.33,1.2-0.49,1.5-1.14c1.28-0.02,1.81,1.28,2.98,1.61c1.86,0.53,3.75,0.69,5.62,0.87c4.04,0.39,8.08,0.4,12.07-0.57
		c0.75-0.14,1.49-0.28,2.24-0.42c0.65,0.02,1.22-0.1,1.51-0.78c0,0,0,0,0,0c0,0,0,0,0,0c0.13-0.25,0.26-0.51,0.39-0.76
		c0.55-0.63,0.56-1.26-0.01-1.89c0,0,0,0,0,0c0,0,0,0,0,0c-0.35-0.17-0.69-0.33-1.04-0.5c-2.37-1.84-2.74-3.72-1.18-5.97
		c0,0,0,0,0,0c2.08,0.04,4.12-0.69,6.23-0.09c0.96,0.27,2.22,0.12,2.38,1.41c0.18,1.47,0.41,3.14-1.25,4.06
		c-1.08,0.59-1.97,1.24-1.68,2.63c0.28,1.35,1.37,1.68,2.53,1.95c4.98,1.16,9.98,1.56,15.05,0.67c0,0,0,0,0,0
		c2.12-0.34,4.43-0.11,6.05-1.99c0,0,0,0,0,0c0,0,0,0,0,0c0-0.11-0.04-0.21-0.1-0.31v0c0.06-0.12,0.12-0.23,0.18-0.35v0l0,0
		C129.37,221.64,128.79,220.81,127.95,220.49z M40.68,209.63c0-0.01,0-0.02,0-0.04c0.01,0.01,0.02,0.03,0.04,0.04
		C40.7,209.63,40.69,209.63,40.68,209.63z M44.04,186.02c0,0.02,0,0.03-0.01,0.05c-0.01-0.02-0.02-0.04-0.03-0.06
		C44.02,186.01,44.03,186.01,44.04,186.02z M44.11,206.23c-0.01,0.01-0.02,0.02-0.03,0.02c0-0.01,0-0.03-0.01-0.04c0,0,0,0,0,0
		c0,0,0,0,0,0c0,0,0,0,0,0c0,0,0,0,0,0l0,0c-0.02-0.02-0.05-0.04-0.07-0.05c0.05-0.01,0.09-0.02,0.13-0.03
		c-0.02,0.03-0.04,0.05-0.06,0.08C44.09,206.22,44.1,206.23,44.11,206.23z M50.97,199.73C50.97,199.73,50.97,199.73,50.97,199.73
		C50.97,199.72,50.97,199.72,50.97,199.73C50.97,199.72,50.97,199.72,50.97,199.73C50.97,199.72,50.97,199.72,50.97,199.73
		C50.97,199.73,50.97,199.72,50.97,199.73C50.97,199.72,50.98,199.72,50.97,199.73C50.98,199.72,50.97,199.72,50.97,199.73z
		 M51.44,188.7C51.44,188.7,51.43,188.7,51.44,188.7C51.43,188.69,51.43,188.69,51.44,188.7C51.44,188.69,51.44,188.7,51.44,188.7
		C51.44,188.7,51.44,188.7,51.44,188.7z M55.92,188.63C55.92,188.63,55.92,188.63,55.92,188.63
		C55.92,188.63,55.92,188.63,55.92,188.63C55.92,188.62,55.93,188.62,55.92,188.63C55.93,188.63,55.92,188.63,55.92,188.63z
		 M68.74,200.15c0-0.05,0-0.09,0-0.14c0,0,0.01,0,0.01,0C68.74,200.06,68.74,200.1,68.74,200.15z M70.07,206.21
		c-0.01,0.07-0.03,0.15-0.04,0.22c-0.02-0.02-0.04-0.05-0.06-0.07C70,206.31,70.04,206.26,70.07,206.21
		C70.07,206.21,70.07,206.2,70.07,206.21C70.07,206.2,70.07,206.2,70.07,206.21C70.07,206.2,70.07,206.21,70.07,206.21z
		 M73.14,220.34C73.14,220.33,73.14,220.33,73.14,220.34C73.14,220.33,73.14,220.34,73.14,220.34
		C73.14,220.34,73.14,220.34,73.14,220.34C73.13,220.33,73.13,220.33,73.14,220.34C73.13,220.33,73.14,220.33,73.14,220.34
		C73.14,220.33,73.14,220.33,73.14,220.34C73.14,220.33,73.14,220.33,73.14,220.34z M74.2,224.13c0,0,0.01-0.01,0.02-0.01
		c0,0,0,0.01,0.01,0.01C74.21,224.13,74.21,224.13,74.2,224.13z M80.79,217.3c0,0-0.04-0.04-0.04-0.04c0,0,0,0,0,0c0,0,0,0,0,0
		c0,0,0,0,0,0C80.76,217.27,80.77,217.28,80.79,217.3C80.79,217.3,80.79,217.3,80.79,217.3z M84.97,184.8L84.97,184.8
		C84.97,184.8,84.97,184.8,84.97,184.8c0-0.01,0-0.03,0-0.04c0.02-0.01,0.03-0.01,0.05-0.02C85,184.76,84.98,184.78,84.97,184.8z
		 M86.51,218.44c0-0.01,0-0.01,0-0.02c0,0,0,0,0,0C86.51,218.43,86.51,218.43,86.51,218.44z M100.21,220.79
		C100.2,220.79,100.2,220.79,100.21,220.79c-0.01,0.01-0.01,0.01-0.01,0.01C100.2,220.79,100.2,220.79,100.21,220.79z M98.17,208.3
		c-0.07-0.06-0.14-0.12-0.21-0.18c0.07,0,0.15,0,0.22,0C98.19,208.19,98.18,208.24,98.17,208.3z M105.75,203.92
		c-2.19-0.04-4.38-0.01-6.58-0.01c-0.1-0.08-0.18-0.17-0.25-0.28c-0.34-0.69-0.36-1.44-0.4-2.2c-0.19-3.25,0.5-6.39,1.22-9.52
		c0.41-1.09,0.83-2.17,1.23-3.26c0.36-1.01,0.64-1.69,0.95-2.1c0.05-0.06,0.1-0.12,0.15-0.18c0.45-0.44,0.99-0.34,1.95,0.16
		c0.12,0.16,0.25,0.35,0.37,0.58c0.14,0.32,0.32,0.62,0.53,0.9c0.28,0.25,0.5,0.56,0.73,0.86c0.11,0.33,0.22,0.66,0.34,0.99
		c-0.13,0.29-0.14,0.64-0.14,0.98c0.02,0.33,0.14,0.63,0.37,0.87c0.07,0.05,0.14,0.09,0.21,0.12c-0.03,0.62,0.08,1.23,0.14,1.85
		c0.16,1.64,0.45,3.27,0.67,4.9c0.09,1.22,0.18,2.44,0.3,3.66C107.5,203.41,107,203.94,105.75,203.92z M110.96,207.74
		C110.96,207.74,110.96,207.74,110.96,207.74C110.96,207.74,110.96,207.74,110.96,207.74C110.96,207.74,110.96,207.74,110.96,207.74
		z"/>
	<path class="st0" d="M329.27,220.65c-2.35-1.2-2.4-3.19-2.4-5.31c-0.01-8.52-0.01-17.04-0.02-25.57c0-0.51-0.01-1.02,0.02-1.52
		c0.21-3.32-0.7-7.01,3.02-9.17c0.08-2.76-0.68-3.53-3.76-3.84c0,0,0,0,0,0c-1.4-0.82-2.98-0.37-4.46-0.55
		c-3.72-0.47-7.46-0.22-11.16,0.41c-0.3-0.05-0.6-0.06-0.88,0.15c-0.38,0.03-0.8-0.03-1.13,0.11c-1.09,0.46-2.43,0.71-2.64,2.16
		c-0.21,1.42,0.35,2.43,1.79,2.95c0.64,0.23,0.79,0.91,0.93,1.56c0.67,3.31-0.03,6.71,0.67,10.02c0.16,0.76-0.36,1.02-1.09,1.22
		c-2.88,0.77-5.71,0.81-8.62,0.03c-1.03-0.28-1.39-0.63-1.34-1.61c0.14-2.46,0.34-4.92,0.35-7.38c0-1.56,0.12-3.01,1.17-4.25
		l0.17,0.02c1.1-0.16,1.6-0.86,1.76-1.9c0.17-1.17-0.58-1.72-1.44-2.2c-2.45-1.37-5.12-1.16-7.77-1.08c-0.25,0-0.5,0-0.75,0
		c-0.99-0.69-2.07-0.37-3.13-0.3c0,0,0,0,0,0c0,0,0,0,0,0c-0.07,0.03-0.14,0.03-0.21,0.01c0,0,0,0,0,0c-3-0.28-5.94-0.02-8.8,0.96
		c-1.12,0.38-2.14,0.91-2.35,2.22c-0.21,1.3,0.7,1.94,1.64,2.52c1.01,0.62,1.42,1.49,1.39,2.71c-0.15,7.35,0.63,14.69,0.37,22.04
		c0,0.25,0,0.5-0.01,0.75c-0.53,0.59-0.35,1.32-0.36,1.99c-0.02,3.03-0.01,6.06-0.01,9.1c-0.01,0.92,0.05,1.84-0.37,2.71
		c0,0,0,0,0,0c0,0,0,0,0,0c-0.01,0.11-0.03,0.22-0.07,0.32c0,0,0,0,0,0c0,0,0,0,0,0c-1.33,0.17-2.5,0.51-2.52,2.2
		c-0.02,1.53,0.86,2.05,2.21,2.57c1.84,0.72,3.74,0.63,5.59,0.81c3.88,0.37,7.79,0.49,11.64-0.39c0.25-0.01,0.5-0.06,0.74-0.18
		c0.61-0.15,1.24-0.25,1.83-0.46c1.01-0.37,2.08-0.73,2.34-1.97c0.28-1.28-0.66-1.82-1.55-2.32c-0.89-0.5-1.47-1.1-1.5-2.22
		c-0.09-3.87-0.21-7.73-0.4-11.59c-0.07-1.31,0.52-1.92,1.71-2c2.54-0.16,5.07-0.2,7.61,0.03c1.4,0.13,1.87,0.82,1.84,2.25
		c-0.07,4.18-0.72,8.35-0.43,12.54c0,0,0,0,0,0c-0.27,0.69-0.81,1.03-1.5,1.17c0,0,0,0,0,0c-1.09,0.08-1.57,0.76-1.55,1.76
		c0.03,1.1,0.56,1.96,1.66,2.26c1.81,0.49,3.62,1.07,5.54,0.94c0.71,0.56,1.54,0.29,2.33,0.36c3.36,0.06,6.72,0.18,10.01-0.71
		c1.39-0.33,2.87-0.39,4.11-1.22c0,0,0,0,0,0C330.42,222.64,330.54,221.3,329.27,220.65z M285.21,175.68c0,0,0-0.01-0.01-0.01
		c0,0,0.01,0,0.01-0.01c0,0,0.01,0.01,0.01,0.01C285.22,175.67,285.22,175.67,285.21,175.68z M285.27,175.4
		c0-0.02-0.01-0.05-0.01-0.07c0.01,0.01,0.02,0.02,0.03,0.04C285.28,175.37,285.28,175.39,285.27,175.4z M295.45,224.88
		L295.45,224.88L295.45,224.88c0.02-0.01,0.05-0.01,0.07-0.02c0,0.01,0.01,0.02,0.01,0.02C295.5,224.88,295.47,224.88,295.45,224.88
		z M297.44,218.43C297.44,218.43,297.44,218.43,297.44,218.43C297.44,218.43,297.44,218.43,297.44,218.43
		c-0.02-0.02-0.03-0.05-0.05-0.07c0.02,0,0.03,0.01,0.05,0.01C297.44,218.39,297.44,218.41,297.44,218.43z M310.79,175.35
		c0-0.02-0.01-0.03-0.01-0.05c0.04,0,0.09,0,0.13,0.01C310.87,175.32,310.83,175.34,310.79,175.35z M313.1,221.11
		c0-0.01,0.01-0.01,0.01-0.02c0.01,0.01,0.02,0.01,0.03,0.02C313.13,221.11,313.12,221.11,313.1,221.11z M315.01,197.43
		C315.01,197.43,315.01,197.43,315.01,197.43c0-0.01,0-0.01,0-0.01C315.01,197.42,315.01,197.43,315.01,197.43z M319.59,194.78
		c0-0.01,0-0.01-0.01-0.02c0,0,0.01,0,0.01-0.01c0,0,0,0,0,0C319.6,194.77,319.6,194.77,319.59,194.78z"/>
	<path class="st0" d="M223.65,176.02c-0.77-0.29-1.55-0.59-2.35-0.74c-4.4-0.82-8.85-0.33-13.28-0.39c-1.59,0.06-3.1,0.46-4.6,0.94
		c-1.13,0.37-2.2,0.85-2.27,2.2c-0.07,1.49,0.88,2.27,2.23,2.63c0,0,0,0,0,0c1.32,1.74,0.61,3.77,0.81,5.68
		c0,2.72-0.05,5.44,0.01,8.15c0.03,1.23-0.37,2.53,0.35,3.7c0,0,0,0,0,0c0,3.02,0.09,6.05-0.03,9.06c-0.1,2.45-0.39,4.93-2.63,6.57
		c-2.04,0.54-4.07,0.51-6.11,0.01c0,0,0,0,0,0c0,0,0,0,0,0c-0.14-0.12-0.27-0.24-0.41-0.36c-0.37-0.65-0.74-1.29-1.11-1.94
		c0,0,0,0,0,0c-0.43-1.81-0.36-3.65-0.41-5.49c-0.2-7.43,0.46-14.85,0.37-22.28c-0.02-1.64,0.22-2.83,1.81-3.78
		c1.81-1.09,1.57-2.87-0.35-3.82c-1.42-0.7-2.91-1.2-4.54-1.33c-4.18-0.33-8.36-0.4-12.52,0.04c-1.91,0.2-3.96,0.22-5.36,1.94
		c0,0,0,0,0,0c-0.38,0.57-0.51,1.19-0.4,1.86c0,0,0,0,0,0c0.07,0.99,0.83,1.36,1.57,1.75c0.59,0.31,1.05,0.67,1.1,1.42
		c0.1,1.52,0.39,3.03,0.35,4.54c-0.15,6.1,0.48,12.18,0.42,18.28c0,0,0,0,0,0c0,0,0,0,0,0c0.03,0.79-0.2,1.62,0.34,2.34c0,0,0,0,0,0
		c0,0.42-0.01,0.84,0.4,1.1v0l0,0c-0.51,0.75-0.56,1.42,0.35,1.92c0,0,0,0,0,0c-0.1,0.23-0.2,0.46-0.29,0.7c0,0,0,0,0,0c0,0,0,0,0,0
		c0.34,1.43,0.56,2.9,1.36,4.17c0.02,0.05,0.04,0.1,0.09,0.15c0.71,1.6,0.18,2.91-0.95,4.09c-0.31,0.32-0.63,0.65-0.82,1.04
		c-0.38,0.81-1.26,1.59-0.47,2.59c0.71,0.89,1.72,0.71,2.64,0.53c0.54-0.11,1.03-0.44,1.54-0.68c3.06-1.49,5.74-0.18,8.42,1.13
		c0,0,0,0,0,0c0.27,0.39,0.67,0.57,1.1,0.69c2.57,0.72,5.22,0.99,7.86,1.19c2.39,0.18,4.78-0.14,7.12-0.7
		c2.42-0.36,4.7-1.1,6.82-2.33c0.26-0.12,0.52-0.25,0.78-0.37c0,0,0,0,0,0c0,0,0,0,0,0c2.37-0.33,4.51,0.51,6.67,1.28
		c0.76,0.27,1.33,0.12,1.89-0.44c0.58-0.58,0.61-1.18,0.33-1.91c-0.55-1.48-1.53-2.61-2.75-3.57c0.02-0.46,0.04-0.92,0.07-1.39
		c0,0,0,0,0,0c1.91-2.66,2.39-5.72,2.56-8.88c0,0,0,0,0,0c0-0.89,0-1.78,0-2.67c0,0,0,0,0,0c0,0,0,0,0,0
		c0.01-0.24,0.03-0.48,0.04-0.72c0,0,0,0,0,0c0.71-3.04,0.27-6.13,0.36-9.2c0.02-0.48,0.03-0.97,0.05-1.45c0,0,0,0,0,0
		c0.4-0.63,0.28-1.35,0.28-2.03c0.03-2.78,0.05-5.56,0.08-8.35c0.38-1.06,0.83-2.08,1.86-2.7c0.3-0.34,0.79-0.53,0.89-1.04
		c0,0,0,0,0,0C225.66,177.65,225.2,176.6,223.65,176.02z M203.45,180.2c0-0.01,0-0.01,0-0.02c0,0,0.01,0,0.01,0
		C203.46,180.19,203.46,180.2,203.45,180.2z M185.47,215.01C185.46,215.01,185.46,215.01,185.47,215.01
		C185.46,215,185.46,215,185.47,215.01C185.46,215,185.46,215,185.47,215.01C185.47,215,185.47,215,185.47,215.01
		C185.46,215.01,185.47,215.01,185.47,215.01z M192.71,223.8c0.03,0,0.07,0,0.1,0c0,0.01,0,0.02,0.01,0.03
		C192.78,223.82,192.75,223.81,192.71,223.8z M193.13,210.79C193.13,210.79,193.13,210.79,193.13,210.79
		c-0.06-0.07-0.11-0.14-0.16-0.21c0.05,0.01,0.1,0.02,0.15,0.02C193.12,210.66,193.12,210.72,193.13,210.79
		C193.13,210.79,193.13,210.79,193.13,210.79z M194.62,213.51c-0.01-0.01-0.01-0.01-0.02-0.02c0.01,0,0.02,0,0.03,0
		C194.63,213.49,194.63,213.5,194.62,213.51z M204.99,223.8c-0.05,0.02-0.11,0.03-0.16,0.04c0-0.02,0-0.04,0.01-0.05
		C204.88,223.8,204.94,223.8,204.99,223.8C204.99,223.8,204.99,223.8,204.99,223.8C204.99,223.8,204.99,223.8,204.99,223.8z
		 M221.82,182.17c0-0.02,0-0.03,0-0.05c0.01,0.01,0.01,0.03,0.02,0.04C221.83,182.17,221.82,182.17,221.82,182.17z"/>
	<path class="st0" d="M381.65,220.31c-0.42-0.27-0.86-0.49-1.29-0.74c0,0,0,0,0,0c-0.13-0.87-0.35-1.74-0.38-2.62
		c-0.16-5.49-0.27-10.99-0.4-16.48c-0.09-0.9,0.26-1.87-0.36-2.7c0,0,0,0,0,0c0-0.25-0.01-0.49-0.01-0.74
		c-0.07-0.78,0.21-1.62-0.36-2.33c0,0,0,0,0,0c0-0.42-0.01-0.83-0.35-1.15c-0.2-0.9-0.23-1.86-0.8-2.64c0,0,0,0,0,0l0,0
		c-0.16-1.53,0.08-3.2-1.49-4.23c0,0,0,0,0,0c-0.03-0.23-0.06-0.47-0.09-0.7c0,0,0,0,0,0c0,0,0,0,0,0c-0.21-1.68-1-3.06-2.17-4.25
		c0,0,0,0,0,0c-0.47-0.91-0.31-1.65,0.55-2.26c0.55-0.39,1.19-0.72,1.36-1.47c0,0,0,0,0,0c0.67-1.35,0.53-2.28-1.23-2.38
		c0,0,0,0,0,0c-2.45-0.07-4.88,0.83-7.34,0.27c-4.76-1.08-9.55-1.6-14.43-1c0,0,0,0,0,0c-1.01-0.05-2-0.01-3,0.25
		c-3.08,0.8-6.2,1.1-9.33,0.27c-1.06-0.28-2.15-0.22-2.7,0.77c-0.65,1.15,0.11,2.21,1.02,2.74c1.75,1.03,1.87,2.12,0.61,3.56
		c0,0,0,0,0,0c-1.37,1.85-2.35,3.85-2.62,6.16c-0.14,0.37-0.28,0.74-0.42,1.12c0,0,0,0,0,0c-0.52,0.56-0.33,1.25-0.38,1.9
		c0,0,0,0,0,0c-0.12,0.39-0.24,0.77-0.37,1.16v0c-0.67,0.79-0.26,1.76-0.43,2.63c0,0,0,0,0,0c-0.67,1.22-0.2,2.56-0.38,3.83
		l0.08,0.06c0,0,0,0,0,0c0,0,0,0,0,0c-0.03-0.02-0.05-0.04-0.08-0.06c-0.34,0.43-0.31,0.94-0.34,1.45
		c-0.31,5.31-0.49,10.63-0.37,15.95c0.03,1.18-0.17,2.26-0.76,3.28c0,0,0,0,0,0c0,0-0.01-0.01-0.01-0.01
		c-0.66-0.04-1.23,0.1-1.53,0.76c0,0,0,0,0,0c0,0,0,0,0,0c-0.13,0.13-0.25,0.25-0.38,0.38c-0.79,1.45-0.56,2.53,1.13,3.06
		c0,0,0,0,0,0c5.58,1.52,11.21,2.17,16.93,0.83c0,0,0,0,0,0c1.32-0.01,2.62-0.09,3.82-0.69c0.1-0.02,0.19-0.06,0.28-0.14
		c2.18-1.31,2.22-2.56,0.07-3.84c-0.5-0.3-0.96-0.6-1.22-1.13c0.16-4.72,0.36-4.93,4.64-4.92c4.52,0.02,5.47,1.32,4.1,5.62
		c-0.33,0.33-0.91,0.32-1.1,0.84c0,0,0,0,0,0s0,0,0,0c-0.14,0.11-0.29,0.22-0.43,0.33c-1.38,1.16-1.19,2.45,0.77,3.05
		c4.62,1.39,9.36,2.04,14.19,1.22c0,0,0,0,0,0c0.92-0.03,1.86,0.12,2.72-0.36c0,0,0,0,0,0c0.8,0.15,1.51-0.19,2.23-0.42
		c0.85,0.02,1.66-0.09,2.31-0.71c0,0,0,0,0,0C383.41,222.41,383.34,221.39,381.65,220.31z M331.52,222.71
		c-0.02-0.03-0.04-0.05-0.06-0.08c0,0,0,0,0,0c0,0,0,0,0,0c0.03,0,0.06,0,0.09,0C331.53,222.65,331.53,222.68,331.52,222.71z
		 M335.69,194.78c0-0.02,0-0.04,0-0.05c0.01,0,0.02,0,0.02,0C335.7,194.74,335.7,194.76,335.69,194.78z M345.58,218.81
		c-0.02-0.02-0.04-0.05-0.06-0.07c0.02,0,0.04-0.01,0.06-0.01C345.58,218.75,345.58,218.78,345.58,218.81z M358.7,203.16
		c-1.64,0.09-3.35-0.39-4.9,0.49c-0.03-0.01-0.06-0.02-0.08-0.03c-0.04-0.01-0.07-0.02-0.11-0.03c0.02-4-0.3-8.03,1.01-11.94
		c0.28-0.83,0.63-1.69,0.25-2.59c-0.01-0.01-0.03-0.02-0.04-0.03c0.06-0.24,0.13-0.49,0.21-0.72c0.19-0.44,0.36-0.81,0.51-1.11
		c0.1-0.17,0.21-0.34,0.34-0.5c0.26-0.33,0.52-0.56,0.78-0.69c0.27-0.06,0.58,0.01,0.97,0.18c0.15,0.14,0.3,0.34,0.44,0.62
		c0.17,0.31,0.36,0.61,0.58,0.88c0.03,0.03,0.05,0.05,0.08,0.08c-0.2,0.4-0.13,0.84,0.03,1.24c1.49,3.78,1.6,7.77,1.96,11.73
		C360.92,202.81,360.73,203.05,358.7,203.16z M370.01,178.32c0-0.01,0.01-0.02,0.01-0.02c0.01,0.01,0.01,0.01,0.02,0.02
		C370.03,178.32,370.02,178.32,370.01,178.32z M375.42,185.55C375.42,185.54,375.42,185.54,375.42,185.55
		C375.41,185.54,375.41,185.54,375.42,185.55C375.41,185.54,375.41,185.54,375.42,185.55C375.42,185.54,375.42,185.54,375.42,185.55
		C375.42,185.54,375.42,185.55,375.42,185.55z M378.07,200.6c0-0.05,0-0.09,0-0.14c0,0,0,0,0,0c0,0,0,0,0,0
		c0.03,0.03,0.05,0.07,0.08,0.1C378.12,200.57,378.1,200.58,378.07,200.6z"/>
	<path class="st0" d="M275.27,175.97c-0.6-0.98-1.68-0.99-2.66-0.31c-0.52,0.25-1.03,0.49-1.55,0.74c0,0,0,0,0,0
		c-1.56,0.26-3.17,0.71-4.71,0.23c-6.33-2-12.81-2.19-19.35-1.73c0,0,0,0,0,0c-2.59-0.19-5,0.75-7.48,1.25
		c-2.13,0.43-4.28,0.48-6.41-0.03c-1.39-0.33-2.93-1.82-4.13-0.09c-1.16,1.69,0.42,3.01,1.4,4.13c0.88,1,0.91,1.76,0.32,2.86
		c-1.15,2.12-1.95,4.39-2.44,6.76c-1.59,5.24-1.39,10.62-1.05,15.96c0.17,2.66,0.75,5.38,2.09,7.81c0,0,0,0,0,0
		c-0.01,0.24-0.12,0.54-0.02,0.71c1.66,2.85,2.48,5.64-0.33,8.3c0,0,0,0,0,0c-0.45,1.77,0.32,2.66,2.03,2.26
		c1.27-0.29,2.51-0.7,3.76-1.05c1.02,0,2.04,0,3.06-0.01l0,0c0.55,0.55,1.26,0.35,1.91,0.38c0,0,0,0,0,0c0,0,0,0,0,0c0,0,0,0,0,0
		c0,0,0,0,0,0c2.87,0.68,5.75,1.31,8.73,1.18c0.59,0.49,1.3,0.31,1.97,0.36c0,0,0,0,0,0c2.93-0.01,5.88,0.24,8.78-0.41c0,0,0,0,0,0
		c0,0,0,0,0,0c0.66-0.02,1.36,0.16,1.94-0.35c0,0,0,0,0,0c2.21-0.3,4.32-0.84,6.07-2.34c0,0,0,0,0,0c0,0,0,0,0,0
		c0.97-0.93,2.36-1.34,3.11-2.53c1.67-1.03,2.41-2.77,3.34-4.37c0,0,0,0,0,0c1.78-2.18,1.19-4.78,1.17-7.24c-0.02-2.29-2-3.29-4-2.1
		c-1.13,0.67-2.27,1.05-3.57,0.96c-0.25-0.1-0.49-0.16-0.74-0.18c-1.71-0.39-3.45-0.61-5.21-0.56c-1.93,0.05-3.05,1.09-3.25,2.99
		c-0.14,1.32-0.29,2.62-0.8,3.86c-2.88,2-7.18,1.18-9.28-1.68c-0.54-0.73-0.65-1.85-1.75-2.13v0l0,0c-0.32-1.04,0.06-2.34-1.14-3.05
		c0,0,0,0,0,0c-0.03-0.11-0.05-0.23-0.07-0.35c-0.09-4.35-0.43-8.7,0.41-13.02l0,0c0,0,0,0,0,0c0,0,0,0,0,0
		c0.26-0.51,0.52-1.01,0.78-1.52v0c0,0,0,0,0,0c0.33-0.53,0.69-1.05,0.99-1.6c1.49-2.75,3.77-4.11,6.91-4.16
		c1.22-0.02,2.38,0.29,3.56,0.4c1.47,0.24,0.88,1.25,0.74,2.05c-0.62,3.68,0.39,5.72,3.79,7.58c0.66,0.6,1.44,0.78,2.31,0.72
		c1.68,0.57,3.36,0.59,5.03-0.01c0,0,0,0,0,0c1.32-0.33,2.63-0.66,3.5-1.84c0,0,0,0,0,0c0.49-0.54,0.97-1.07,1.46-1.61
		c0.57-1.02,0.55-2.05,0-3.07c0,0,0,0,0,0c-0.47-1.23-0.81-2.48-0.79-3.81c0-0.89,0-1.79,0-2.68c0,0,0,0,0,0c0,0,0,0,0,0
		c-0.17-1.49,0.67-2.77,0.88-4.18c0,0,0,0,0,0C275.84,178.5,276.02,177.19,275.27,175.97z M265.32,207.38c0,0,0,0.01,0,0.01
		c-0.01,0-0.02-0.01-0.03-0.01C265.29,207.38,265.3,207.38,265.32,207.38z M262.29,224.12c0,0.01,0,0.01,0,0.02
		c-0.01,0-0.02,0-0.03,0C262.27,224.13,262.28,224.12,262.29,224.12z M248.16,213.05c0,0,0,0.01,0.01,0.01c0,0,0,0,0,0c0,0,0,0,0,0
		C248.16,213.06,248.16,213.06,248.16,213.05C248.16,213.06,248.16,213.06,248.16,213.05z M259.22,188.25
		C259.22,188.25,259.22,188.25,259.22,188.25C259.22,188.25,259.22,188.25,259.22,188.25C259.22,188.25,259.22,188.25,259.22,188.25
		C259.22,188.25,259.22,188.25,259.22,188.25C259.22,188.25,259.22,188.25,259.22,188.25c0-0.02,0-0.05,0-0.07
		c0.02,0.03,0.04,0.05,0.06,0.07C259.26,188.25,259.24,188.25,259.22,188.25z M264.23,195.36c0.01-0.04,0.02-0.08,0.03-0.11
		c0.01,0.04,0.02,0.09,0.03,0.13C264.28,195.37,264.26,195.36,264.23,195.36z M268.7,195.51c0-0.02,0-0.04,0-0.06
		c0.03,0.02,0.05,0.04,0.08,0.06C268.75,195.51,268.72,195.51,268.7,195.51z"/>
</g>
</svg>
