<?xml version="1.0" encoding="utf-8"?>
<!-- Generator: Adobe Illustrator 28.3.0, SVG Export Plug-In . SVG Version: 6.00 Build 0)  -->
<svg version="1.1" id="Capa_1" xmlns="http://www.w3.org/2000/svg" xmlns:xlink="http://www.w3.org/1999/xlink" x="0px" y="0px"
	 viewBox="0 0 400 400" style="enable-background:new 0 0 400 400;" xml:space="preserve">
<style type="text/css">
	.st0{fill:#FFFFFF;}
</style>
<g>
	<path class="st0" d="M115.78,186.39c-11.15-9.89-28.74-6.96-40.08,6.34c-2.02,2.03-3.8,4.12-6.12,6.83
		c-1.59-1.55-3.21-3.08-4.87-4.55c-6.78-5.96-14.66-8.68-23.45-4.86c-3.59,1.56-6.93,3.96-9.93,6.51
		c-6.04,5.15-11.77,10.66-17.79,16.18c3.18-1.36,6.55-2.37,9.45-4.15c4.45-2.74,8.52-6.1,12.85-9.05c7.46-5.08,15.18-4.88,22,0.98
		c2.06,1.77,3.92,3.78,5.72,5.86c-0.7,0.78-1.44,1.61-2.24,2.48c-5.36,5.03-7.84,8.11-12.69,8.33c-4.98,0.08-10.14,0.16-13.32-1.2
		c3.85,3.83,9.62,4.64,14.19,4.7c4.83-0.09,11.02-2.55,17.8-8.51c0.22-0.19,0.43-0.38,0.65-0.57c3.18,3.92,6,8.18,9.53,11.73
		c11.07,11.12,27.7,11.76,38.85,1.87c5.06-4.49,7.84-10.73,8.33-17.08C125.73,200.58,122.55,192.4,115.78,186.39z M84.94,214.76
		c-1.94-1.59-3.64-3.47-5.43-5.24c-1.53-1.51-3.04-3.05-4.55-4.58c1.6-1.63,3.25-3.33,5.24-5.3c1.79-1.77,3.49-3.65,5.43-5.24
		c6.17-5.05,15-4.09,20.13,1.17c0.47,0.98,1.15,1.88,1.68,2.85c1.75,3.25,2.1,6.67,0.82,10.13
		C104.8,217.92,92.74,221.15,84.94,214.76z"/>
	<path class="st0" d="M277.93,184.52c1.13-5.2,2.3-10.22,3.27-15.28c0.28-1.45,0.89-2.08,2.27-2.17c1.32-0.08,2.65-0.27,3.97-0.27
		c4.79,0.02,6.04,1.6,5.04,6.24c-0.92,4.29-1.84,8.59-2.76,12.88c-2.4,11.18-4.85,22.36-7.16,33.56c-0.61,2.94-1.97,5.21-4.56,6.67
		c-8.73,4.92-17.95,6.07-27.47,2.89c-6.68-2.23-10.14-7.17-10.16-14.3c-0.03-8.03,2.2-15.4,7.2-21.86
		C254.08,184.46,267.05,180.42,277.93,184.52z M262.89,221.37c2.08-0.52,4.2-0.93,6.22-1.63c0.69-0.24,1.47-1.13,1.63-1.85
		c1.63-7.21,3.09-14.46,4.73-21.67c0.36-1.6-0.16-2.25-1.53-2.81c-6.22-2.56-14.25-0.1-17.52,5.93c-1.66,3.06-2.67,6.59-3.38,10.03
		C251.56,216.59,255.43,221.03,262.89,221.37z"/>
	<path class="st0" d="M155.94,209.89c-1.35,6.23-2.65,12.01-3.83,17.81c-0.24,1.17-0.68,1.73-1.85,1.79
		c-2.01,0.1-4.03,0.41-6.04,0.31c-3-0.15-4.26-1.85-3.64-4.78c3.01-14.26,6.07-28.51,9.11-42.76c0.93-4.36,1.89-8.72,2.78-13.09
		c0.25-1.24,0.75-2.03,2.12-2.08c1.81-0.06,3.63-0.33,5.43-0.21c3.46,0.22,4.71,1.96,3.99,5.34c-0.98,4.64-2.01,9.27-3,13.91
		c-1.04,4.84-2.06,9.68-3.09,14.52c-0.03,0.13,0.04,0.27,0.11,0.73c3.13-2.54,6.14-4.98,9.14-7.42c3.84-3.14,7.68-6.29,11.52-9.43
		c1.57-1.29,4.17-1.25,6.18,0.08c1.84,1.22,2.66,3.23,1.66,5.28c-0.76,1.57-1.9,3.14-3.26,4.21c-4.56,3.59-9.29,6.95-13.95,10.4
		c-0.61,0.45-1.21,0.93-2,1.54c2.27,2.69,4.46,5.29,6.65,7.88c2.22,2.61,4.38,5.27,6.7,7.78c1.01,1.09,0.92,1.95,0.35,3.15
		c-2.01,4.14-5.45,6.26-9.24,4.88c-1.87-0.68-3.6-2.37-4.83-4.02c-3.34-4.47-6.39-9.17-9.55-13.77
		C157.01,211.37,156.6,210.82,155.94,209.89z"/>
	<path class="st0" d="M206.63,230.96c-2.83-0.38-5.7-0.54-8.47-1.19c-8.4-1.98-11.4-7.8-8.47-16c2.56-7.15,8.32-10.05,15.21-11.17
		c4.75-0.77,9.57-1.15,14.38-1.54c1.45-0.12,2.03-0.65,2.3-2.02c0.58-2.98-0.46-5.06-3.36-6.11c-3.55-1.27-7.19-0.95-10.76-0.21
		c-2.45,0.5-4.87,1.24-7.23,2.1c-1.33,0.48-1.92,0.11-2.46-1.02c-1.14-2.41-0.32-5.92,2.36-7.3c2.62-1.35,5.55-2.28,8.44-2.89
		c4.96-1.05,10-1.12,14.98,0.06c8.31,1.97,11.57,7.19,9.77,15.54c-1.51,7.02-3.11,14.02-4.48,21.07c-0.67,3.46-2.76,5.55-5.7,7.01
		C217.95,229.85,212.41,230.78,206.63,230.96z M219.41,208.97c-5.04,0.77-9.62,1.45-14.19,2.21c-0.65,0.11-1.27,0.55-1.84,0.94
		c-1.81,1.22-2.94,3.93-2.47,5.83c0.56,2.25,2.36,3.32,4.34,3.3c3.51-0.03,7.02-0.51,10.52-0.91c0.5-0.06,1.22-0.64,1.34-1.1
		C217.91,216.03,218.57,212.79,219.41,208.97z"/>
	<path class="st0" d="M313.99,231.15c-3.47-0.68-7.05-1.01-10.37-2.12c-6.13-2.06-9.03-7.47-7.82-14.45
		c1.17-6.73,2.74-13.38,4.15-20.07c0.62-2.93,1.19-5.88,1.97-8.77c0.18-0.66,1.04-1.5,1.69-1.61c1.91-0.32,3.89-0.5,5.82-0.38
		c3.33,0.21,4.51,1.77,3.85,5.02c-1.44,7.11-3.01,14.19-4.5,21.29c-0.27,1.29-0.54,2.6-0.63,3.92c-0.29,4.31,1.39,6.42,5.68,6.93
		c1.79,0.21,3.65,0.2,5.43-0.05c4.98-0.71,5.11-0.96,6.16-5.91c2.06-9.68,4.19-19.35,6.23-29.03c0.26-1.24,0.78-1.86,2.03-1.9
		c2.02-0.06,4.05-0.38,6.04-0.19c2.92,0.29,3.92,1.68,3.38,4.6c-0.95,5.07-2.06,10.11-3.14,15.15c-1.18,5.52-2.48,11.01-3.57,16.55
		c-0.62,3.15-2.3,5.27-5.1,6.71C326.46,229.34,320.73,230.65,313.99,231.15z"/>
	<path class="st0" d="M347.22,225.23c0.75-3.49,1.64-7.57,2.52-11.66c1.37-6.34,2.77-12.66,4.07-19.01c0.62-3.01,2.22-5.28,4.8-6.79
		c6.86-4.01,14.29-5.47,22.16-4.6c1.93,0.21,3.86,0.82,4.47,2.91c0.7,2.41-0.31,4.54-1.84,6.37c-0.29,0.35-1.14,0.43-1.69,0.35
		c-4.74-0.7-9.31-0.02-13.82,1.5c-1.5,0.51-2.22,1.37-2.54,2.89c-2.09,9.96-4.28,19.89-6.33,29.86c-0.33,1.58-0.91,2.54-2.56,2.6
		c-1.95,0.07-3.91,0.29-5.84,0.12C348.15,229.53,347.14,228.21,347.22,225.23z"/>
</g>
</svg>
