<?xml version="1.0" encoding="utf-8"?>
<!-- Generator: Adobe Illustrator 28.3.0, SVG Export Plug-In . SVG Version: 6.00 Build 0)  -->
<svg version="1.1" id="Capa_1" xmlns="http://www.w3.org/2000/svg" xmlns:xlink="http://www.w3.org/1999/xlink" x="0px" y="0px"
	 viewBox="0 0 400 400" style="enable-background:new 0 0 400 400;" xml:space="preserve">
<style type="text/css">
	.st0{fill:#FFFFFF;}
</style>
<g>
	<path class="st0" d="M137.82,166.78c-2.55,3.89-4.3,6.55-6.74,10.26c-9.35-16.86-18.21-33.24-27.56-49.35
		c-2.07-3.57-0.05-5.43,1.28-7.7c9.34-15.94,18.96-31.71,28.13-47.74c3.63-6.34,5.56-5.99,9.07,0.23
		c33.6,59.61,67.38,119.12,101.27,178.57c3.21,5.62,2.47,7.55-4.13,7.46c-13.43-0.2-26.88-0.35-40.3,0.07
		c-5.93,0.18-8.16-3.24-10.66-7.45C171.74,223.42,155.16,195.78,137.82,166.78z"/>
	<path class="st0" d="M152.92,66.95c77.9,0,153.81,0,231.13,0c-8.66,12.73-16.8,24.53-24.74,36.46c-2.21,3.32-5.21,3.24-8.52,3.24
		c-56.01-0.13-112.02-0.24-168.02-0.28c-3.41,0-6.09-0.23-8.13-3.71C167.91,91.18,160.84,79.9,152.92,66.95z"/>
	<path class="st0" d="M25.76,258.45c23.4-40.97,45.79-80.16,68.89-120.61c9.4,16.55,18.17,32.26,27.22,47.82
		c3.36,5.77-2.28,8.32-3.75,12.33c-2.2,6-10.6,11.41-7.6,16.94c3.45,6.35,12.6,2.55,18.96,2.17c7.39-0.45,10.98,2.17,14.25,8.21
		c4.65,8.58,9.97,16.83,15.45,24.91c4.7,6.93,2.26,8.33-4.93,8.3C112.16,258.36,70.07,258.45,25.76,258.45z"/>
	<path class="st0" d="M345.52,126.6c-7.91,13.36-15.02,25.36-22.13,37.36c-1.2,2.02-2.87,3.19-5.35,2.9
		c-0.72-0.08-1.46-0.06-2.18,0.03c-14.18,1.74-30.95-5.68-42.09,3.87c-10.17,8.72-15.16,23.47-22.42,35.58
		c-2.4,3.99-4.76,8-7.99,13.42c-8.4-13.95-15.83-26.89-23.94-39.41c-2.54-3.93-0.43-6.01,1.16-8.64c7.9-13,15.93-25.92,23.81-38.93
		c2.17-3.58,4.48-6.27,9.27-6.25C283.68,126.66,313.7,126.6,345.52,126.6z"/>
	<g>
		<path class="st0" d="M345.99,294.9c0,13.27,0,25.37,0,37.76c-5.15,0-9.91,0-15.01,0c0-20.09,0-40.09,0-60.62
			c5.32,0,10.54-0.2,15.73,0.14c1.22,0.08,2.62,1.78,3.44,3.05c5.61,8.73,11.09,17.55,16.63,26.33c0.47,0.74,1.05,1.42,2.27,3.04
			c0-11.4,0-21.7,0-32.28c5.21,0,9.99,0,15.1,0c0,20.02,0,40.02,0,60.59c-4.16,0-8.41,0.19-12.62-0.13
			c-1.16-0.09-2.5-1.52-3.24-2.67c-6.56-10.27-12.99-20.61-19.47-30.93C348.11,298.07,347.37,296.98,345.99,294.9z"/>
		<path class="st0" d="M224.04,312.95c0,6.58,0,13.03,0,19.75c-5.32,0-10.23,0-15.48,0c0-20.02,0-40,0-59.98
			c0.21-0.17,0.41-0.49,0.62-0.49c11.75,0.07,23.51-0.23,35.23,0.39c9.19,0.49,15.09,6.01,16.73,14.05
			c2.1,10.27-1.19,18.69-9.14,23.35c-0.58,0.34-1.17,0.64-2.13,1.17c4.99,7.16,9.83,14.12,15.13,21.73
			c-6.31,0-11.93,0.13-17.53-0.11c-1.06-0.05-2.29-1.38-3.03-2.42c-3.06-4.27-6.35-8.44-8.83-13.04
			C233.03,312.54,229.45,311.6,224.04,312.95z M224.34,298.39c5.22,0,10.06,0.12,14.89-0.04c3.49-0.12,5.8-2.07,5.99-5.65
			c0.19-3.63-1.94-5.81-5.48-5.97c-5.04-0.23-10.11-0.06-15.39-0.06C224.34,290.54,224.34,294.21,224.34,298.39z"/>
		<path class="st0" d="M320.95,317.94c0,5.39,0,9.91,0,14.73c-16.28,0-32.38,0-48.71,0c0-20.1,0-40,0-60.27c16.08,0,32.17,0,48.58,0
			c0,4.61,0,9.24,0,14.42c-10.76,0-21.6,0-32.7,0c0,3.23,0,5.93,0,9.08c9.43,0,18.92,0,28.82,0c0,4.45,0,8.47,0,12.94
			c-9.54,0-19.03,0-28.8,0c0,3.14,0,5.85,0,9.1C298.9,317.94,309.75,317.94,320.95,317.94z"/>
		<path class="st0" d="M123.25,272.28c5.57,0,10.36,0,15.61,0c0,1.72,0,3.21,0,4.69c0,10.67,0.06,21.33-0.02,32
			c-0.11,14.55-7.12,22.9-21.55,24.55c-5.36,0.61-11.13,0.09-16.37-1.23c-9.04-2.28-14.9-9.97-15.17-19.62
			c-0.37-13.01-0.09-26.04-0.07-39.06c0-0.38,0.22-0.76,0.4-1.34c4.93,0,9.85,0,15.38,0c0,1.57,0,3.03,0,4.5
			c0,10.11-0.1,20.23,0.04,30.34c0.1,7.82,3.76,11.49,11.03,11.52c6.8,0.02,10.64-3.61,10.7-10.43c0.09-10.39,0.02-20.78,0.02-31.17
			C123.25,275.53,123.25,274.04,123.25,272.28z"/>
		<path class="st0" d="M79.1,332.97c-5.55,0-10.38,0.13-15.2-0.11c-0.94-0.05-2.2-1.36-2.65-2.38c-1.24-2.77-2.12-5.69-3.25-8.84
			c-6.8,0-13.58-0.11-20.34,0.12c-1.04,0.04-2.48,1.45-2.96,2.57c-3.68,8.64-3.62,8.66-13.03,8.64c-1.91-0.01-3.83,0-6.56,0
			c1.76-4.77,3.28-8.97,4.86-13.15c5.52-14.62,11.12-29.22,16.52-43.88c1.05-2.85,2.35-4.25,5.61-3.97
			c4.52,0.39,10.17-1.29,13.32,0.86c3.14,2.15,3.89,7.9,5.5,12.13C66.93,300.7,72.86,316.47,79.1,332.97z M53.36,308.36
			c-2.17-6.93-4.16-13.29-6.16-19.64c-0.27-0.02-0.53-0.04-0.8-0.07c-1.98,6.47-3.97,12.93-6.04,19.71
			C44.91,308.36,48.87,308.36,53.36,308.36z"/>
		<path class="st0" d="M193.54,296.45c0,5.08,0,9.47,0,14.41c-9.44,0-18.9,0-28.86,0c0,7.51,0,14.5,0,21.79c-5.42,0-10.34,0-15.6,0
			c0-19.96,0-39.98,0-60.3c16.08,0,32.19,0,48.56,0c0,4.79,0,9.43,0,14.47c-10.85,0-21.59,0-32.69,0c0,3.34,0,6.28,0,9.64
			C174.3,296.45,183.68,296.45,193.54,296.45z"/>
	</g>
</g>
</svg>
