<?xml version="1.0" encoding="utf-8"?>
<!-- Generator: Adobe Illustrator 28.3.0, SVG Export Plug-In . SVG Version: 6.00 Build 0)  -->
<svg version="1.1" id="Capa_1" xmlns="http://www.w3.org/2000/svg" xmlns:xlink="http://www.w3.org/1999/xlink" x="0px" y="0px"
	 viewBox="0 0 400 400" style="enable-background:new 0 0 400 400;" xml:space="preserve">
<style type="text/css">
	.st0{fill:#FFFFFF;}
</style>
<g>
	<path class="st0" d="M9.36,173.4 M13.81,163.11c2.36-3.86,4.81-7.67,7.33-11.43c4.35-6.5,6.12-13.65,5.69-21.42
		c-0.24-4.31-0.33-8.62,0.35-12.93c0.39-2.47,1.46-4.43,3.17-6.18c2.68-2.75,5.62-5.2,8.61-7.6c1.63-1.31,3.21-2.68,4.88-3.93
		c6.79-5.09,11.1-11.77,13.2-19.99c1.07-4.18,2.29-8.32,4.4-12.15c0.94-1.71,2.16-2.98,3.85-3.97c4.54-2.66,9.52-4.24,14.35-6.2
		c1.29-0.52,2.59-1.02,3.9-1.5c7.33-2.66,13.08-7.26,17.23-13.88c1.15-1.83,2.54-3.5,3.67-5.34c3.69-6.04,9.03-8.93,16.09-9.05
		c4.8-0.08,9.59-0.54,14.38-0.78c6.89-0.35,13.02-2.67,18.46-6.92c2.8-2.18,5.71-4.22,8.55-6.35c4.19-3.16,8.76-3.84,13.8-2.47
		c5.84,1.59,11.72,3,17.59,4.46c5.55,1.39,11,1.02,16.45-0.73c4.76-1.53,9.39-3.47,14.32-4.5c3.08-0.64,5.84-0.26,8.65,1.21
		c4.64,2.43,9.01,5.28,13.29,8.27c7.33,5.12,15.25,7.87,24.3,7.16c3.94-0.31,7.92-0.31,11.88,0.26c2.42,0.35,4.5,1.18,6.3,2.92
		c2.36,2.28,4.53,4.72,6.6,7.26c2.86,3.51,5.59,7.12,8.67,10.45c3.64,3.93,8.01,6.64,13.09,8.25c3.91,1.24,7.81,2.52,11.73,3.75
		c4.6,1.44,7.77,4.32,9.6,8.85c1.64,4.07,3.42,8.09,4.8,12.25c2.99,9,8.17,16.2,16.43,21.11c3.29,1.95,6.32,4.31,9.05,7.03
		c1.7,1.69,2.66,3.64,3.07,6c0.9,5.1,1.17,10.27,1.19,15.41c0.03,9.89,2.93,18.6,9.45,26.11c2.88,3.32,5.34,6.97,7.04,11.06
		c0.05,0.12,0.17,0.21,0.28,0.29c0.29,0.21,0.3-0.1,0.4-0.23c0,1.67,0,3.35,0,5.02c-0.69-0.14-0.78,0.28-0.85,0.83
		c-0.17,1.38-0.26,2.78-0.6,4.11c-1.21,4.85-2.58,9.66-3.76,14.51c-1.08,4.41-1.56,8.87-0.71,13.42c1.14,6.11,3.94,11.7,5.44,17.69
		c0.06,0.26,0.31,0.16,0.48,0.04c0,2.65,0,5.3,0,7.95c-0.52-0.72-0.67,0.03-0.77,0.26c-2.6,5.83-6.34,10.98-9.82,16.27
		c-4.56,6.94-6.81,14.4-6.25,22.74c0.26,3.89,0.25,7.79-0.2,11.69c-0.34,2.97-1.44,5.42-3.59,7.53c-2.69,2.65-5.56,5.06-8.48,7.43
		c-2,1.63-3.98,3.28-6,4.87c-5.9,4.65-9.68,10.66-11.63,17.9c-1.13,4.17-2.34,8.31-4.21,12.23c-1.13,2.36-2.73,4.08-5.05,5.33
		c-4.74,2.56-9.78,4.42-14.83,6.16c-8.82,3.04-16.01,8-20.81,16.16c-0.88,1.5-2.05,2.82-2.96,4.3c-3.67,5.95-8.99,8.79-15.96,8.91
		c-4.73,0.08-9.45,0.56-14.18,0.77c-7.28,0.32-13.66,2.9-19.35,7.42c-3.32,2.64-6.68,5.23-10.38,7.36
		c-2.83,1.63-5.68,1.98-8.82,1.43c-6.8-1.19-13.34-3.43-20.06-4.93c-5.66-1.27-11.15-0.99-16.66,0.81
		c-4.69,1.53-9.26,3.43-14.13,4.44c-3.07,0.64-5.84,0.28-8.65-1.2c-4.27-2.24-8.36-4.77-12.24-7.59
		c-8.04-5.85-16.82-8.73-26.83-7.81c-3.87,0.36-7.79,0.23-11.65-0.53c-1.69-0.33-3.12-1.02-4.43-2.15
		c-3.87-3.36-6.9-7.45-10.13-11.38c-1.59-1.94-3.19-3.87-4.81-5.78c-4.14-4.88-9.34-8.03-15.47-9.8c-4.34-1.25-8.69-2.5-12.84-4.34
		c-2.81-1.24-4.76-3.19-6.15-5.94c-2.71-5.37-4.65-11.04-6.74-16.65c-2.86-7.68-7.66-13.65-14.57-18.01
		c-3.18-2.01-6.2-4.24-9.02-6.75c-2.41-2.15-3.7-4.73-4.14-7.93c-0.72-5.19-0.85-10.42-1.14-15.63c-0.16-3-0.49-5.97-1.02-8.92
		c-0.88-4.93-3.27-9.14-6.23-13.09c-2.13-2.84-4.23-5.71-6.33-8.57c-2.85-3.87-3.67-8.05-2.61-12.82c1.2-5.38,2.71-10.67,4.13-15.98
		c2.01-7.54,1.67-14.87-1.25-22.13C11.5,179.39,11.07,171.35,13.81,163.11z M149.16,26.11c-5.74-0.11-6.76,0.21-11.12,4.04
		c-1.83,1.61-3.64,3.27-5.2,5.13c-6.09,7.28-14,10.97-23.2,12.42c-5.01,0.79-9.99,1.8-14.77,3.62c-1.62,0.61-2.89,1.56-3.97,2.91
		c-2.27,2.87-4.06,6.05-5.41,9.39c-3.55,8.77-9.7,14.91-18.05,19.17c-4.7,2.4-9.34,4.97-13.48,8.33c-1.29,1.05-2.19,2.28-2.75,3.84
		c-1.18,3.31-1.89,6.73-2.16,10.2c-0.75,9.42-4.3,17.45-11.09,24.11c-2.93,2.87-5.45,6.15-8.24,9.16c-3.21,3.48-4.3,7.53-3.6,12.14
		c0.21,1.38,0.39,2.76,0.61,4.13c0.79,4.74,1.94,9.43,1.56,14.29c-0.46,5.76-2.96,10.84-5.3,15.97c-1.85,4.06-3.7,8.1-5.02,12.38
		c-0.6,1.95-0.55,3.79,0.06,5.71c1.34,4.21,3.42,8.08,5.57,11.9c3.67,6.49,4.8,13.39,3.9,20.77c-0.73,6.01-1.75,12-1.52,18.1
		c0.07,1.98,0.66,3.63,1.76,5.23c2.27,3.3,5.1,6.1,8.06,8.73c5.95,5.29,9.75,11.72,11.12,19.6c0.49,2.81,1.08,5.61,1.72,8.39
		c2.88,12.43,2.11,12.78,14.52,18.58c8.51,3.98,15.09,9.55,19.26,17.98c0.89,1.81,1.93,3.55,2.94,5.3c1.7,2.96,3.45,5.88,5.61,8.55
		c1.05,1.29,2.29,2.17,3.85,2.72c3.57,1.27,7.25,2.04,10.99,2.35c8.59,0.71,16.02,3.85,22.16,9.99c1.87,1.87,3.85,3.63,5.84,5.37
		c9.43,8.25,9.37,8.96,22.3,6.4c9.68-1.91,18.58-0.98,27.29,3.57c4.06,2.12,8.28,3.97,12.67,5.39c2.56,0.83,5,0.82,7.55-0.07
		c3.64-1.27,7.06-3.02,10.33-4.98c6.98-4.17,14.43-5.09,22.34-4.1c5.17,0.65,10.35,1.3,15.59,1.43c3.26,0.08,5.95-0.92,8.42-2.98
		c2.53-2.1,4.92-4.35,7.04-6.83c5.72-6.67,13.04-10.2,21.58-11.64c5.28-0.89,10.54-1.91,15.61-3.74c1.84-0.66,3.24-1.75,4.44-3.29
		c2.46-3.17,4.27-6.72,5.8-10.37c3.42-8.13,9.34-13.65,17.01-17.67c4.25-2.22,8.42-4.61,12.37-7.37c2.53-1.77,4.12-4.01,4.93-6.98
		c0.81-2.97,1.41-5.98,1.63-9.04c0.67-9.2,4.52-16.78,10.97-23.28c3.62-3.65,7.14-7.43,10.06-11.72c1.31-1.92,1.9-3.96,1.89-6.27
		c-0.02-4.64-1.05-9.13-1.82-13.66c-1.08-6.45-0.39-12.63,2.36-18.57c1.38-2.97,2.69-5.97,4.05-8.95c1.37-2.98,2.54-6.03,3.46-9.18
		c0.53-1.81,0.46-3.53-0.06-5.32c-1.16-3.99-3.05-7.64-5.14-11.17c-4.16-7.02-5.34-14.51-4.28-22.54c0.74-5.59,1.6-11.17,1.45-16.85
		c-0.06-2.19-0.66-4.06-1.91-5.84c-2.46-3.51-5.57-6.41-8.69-9.29c-5.18-4.78-8.61-10.49-10.01-17.45
		c-1.07-5.33-2.34-10.61-3.48-15.92c-0.9-4.21-3.23-7.24-7-9.36c-2.86-1.6-5.77-3.1-8.73-4.46c-6.41-2.95-11.4-7.38-14.85-13.57
		c-2.27-4.08-4.77-8.03-6.94-12.16c-2.82-5.36-7.13-8.37-13.11-9.06c-1.1-0.13-2.2-0.42-3.3-0.48
		c-10.55-0.53-19.24-4.88-26.48-12.52c-2.87-3.02-6.09-5.71-9.45-8.22c-2.21-1.65-4.56-2.49-7.35-2.4
		c-3.5,0.11-6.96,0.51-10.34,1.29c-8.59,1.99-16.66,0.78-24.51-3.15c-4.47-2.24-9.03-4.34-13.8-5.92c-2.79-0.93-5.42-0.81-8.14,0.19
		c-3.94,1.44-7.57,3.53-11.23,5.52c-5.62,3.05-11.55,4.22-17.92,3.67C160.66,27.22,154.95,26.22,149.16,26.11z"/>
	<path class="st0" d="M199,207.29c-17.24-0.47-31.65-6.72-41.17-21.65c-5.56-8.71-5.24-7.8,0.22-15.91
		c7.77-11.52,18.23-19.6,32.13-22.13c15.83-2.88,29.72,1.69,41.64,12.34c4.78,4.27,8.35,9.49,11.03,15.32
		c0.71,1.55,0.94,2.97,0.04,4.56c-7.98,14.26-19.6,23.65-35.81,26.92c-1.22,0.25-2.47,0.46-3.71,0.54
		C201.92,207.36,200.46,207.29,199,207.29z M199.08,200.76c16-0.48,28.08-8.35,36.7-22.12c0.64-1.03,0.32-1.81-0.15-2.7
		c-3.52-6.68-8.41-12.16-14.9-16c-11.74-6.93-24.09-8.81-36.95-3.44c-9.31,3.88-16.1,10.74-21.54,19.1
		c-0.96,1.48-1.02,2.61-0.12,4.15C170.24,193.8,182.88,199.87,199.08,200.76z"/>
	<path class="st0" d="M211.87,249.18c2.39-2.76,4.85-5.22,6.84-8.01c1.97-2.76,4.29-3.97,7.68-3.82c2.76,0.12,5.55-0.39,8.32-0.55
		c0.62-0.04,1.52-0.51,1.85,0.32c0.25,0.62-0.49,1.08-0.9,1.54c-4.09,4.57-8.18,9.13-12.29,13.68c-2.06,2.28-2.08,2.26-0.18,4.58
		c3.89,4.74,8.05,9.24,12.42,13.54c0.7,0.69,0.6,1-0.07,1.38c-3.08,1.76-6.17,3.51-9.6,4.53c-1.45,0.43-2.37-0.32-3.19-1.39
		c-3.4-4.41-6.81-8.82-10.24-13.21c-0.39-0.5-0.61-1.46-1.5-1.15c-0.77,0.27-0.66,1.14-0.73,1.82c-0.26,2.49-0.55,4.99-0.72,7.49
		c-0.07,0.98-0.4,1.51-1.34,1.81c-3.45,1.08-6.87,2.26-10.33,3.32c-2.04,0.62-2.69,0.01-2.5-2.1c1.44-16.31,2.9-32.62,4.27-48.93
		c0.12-1.39,0.61-1.97,1.88-2.26c3.59-0.83,7.16-1.76,10.75-2.6c1.79-0.42,2.31,0.08,2.1,2.13c-0.86,8.38-1.76,16.76-2.64,25.15
		C211.68,247.2,211.39,248.01,211.87,249.18z"/>
	<path class="st0" d="M318.36,270.75c-0.26,0.1-0.34,0.1-0.38,0.15c-8.12,8.44-19.13,3.44-22.96-4.91
		c-4.56-9.94-1.02-23.68,7.68-29.12c5.29-3.31,10.71-3.66,16.07-0.06c1.08,0.73,2.07,1.53,2.18-0.72c0.06-1.11,0.99-1.22,1.83-1.32
		c2.76-0.32,5.54-0.58,8.3-0.94c1.5-0.2,1.92,0.22,1.73,1.8c-1.16,9.82-2.19,19.66-3.3,29.49c-0.19,1.64-0.29,3.2,1.04,4.47
		c0.79,0.75,0.31,1.25-0.42,1.57c-3,1.31-6,2.59-9.01,3.87c-0.87,0.37-1.3-0.15-1.57-0.88
		C319.16,273.06,318.78,271.94,318.36,270.75z M319.45,248.99c-0.21-1.01,0.34-1.94-0.14-2.79c-1.76-3.09-7.36-3.36-9.61-0.49
		c-2.98,3.8-3.62,13.45-1.15,17.62c0.28,0.47,0.63,0.93,1.03,1.3c2.3,2.11,7.45,0.78,7.92-2.12
		C318.26,257.98,318.82,253.42,319.45,248.99z"/>
	<path class="st0" d="M168.83,275.26c-10.86-0.03-18.3-6.45-19.74-17.03c-1.33-9.71,4.92-19.15,14.49-21.93
		c1.14-0.33,2.73-0.06,2.64-2.11c-0.03-0.63,0.87-0.52,1.41-0.51c3.92,0.03,7.78,0.48,11.47,1.87c9.06,3.4,13.3,11.03,11.83,21.2
		C189.29,268.09,180.69,275.3,168.83,275.26z M162.55,255.56c-0.02,2.54,0.37,5,1.77,7.18c2.43,3.81,7.42,4.38,10.58,1.24
		c3.63-3.6,4.38-12.68,1.4-16.8c-3.53-4.87-9.64-4.33-12.18,1.1C163.04,250.59,162.54,253.02,162.55,255.56z"/>
	<path class="st0" d="M145.21,253.41c-0.09,19.44-18.76,25.05-30.63,20.32c-7.22-2.88-11.53-9.63-11.52-17.79
		c0.01-8.32,4.87-15.8,12.27-18.79c1.22-0.49,2.51-0.82,3.77-1.21c0.44-0.14,1.2-0.06,1.14-0.66c-0.2-2.06,1.22-1.61,2.32-1.59
		c3.21,0.07,6.38,0.45,9.45,1.44C140.87,237.99,145.28,244.11,145.21,253.41z M132.26,253.65c0.09-2.17-0.46-4.57-2.03-6.66
		c-3.28-4.34-9.03-4.19-11.54,0.42c-2.4,4.42-2.8,9.15-1,13.9c1.07,2.82,3.16,4.55,6.29,4.66c3.15,0.11,5.24-1.54,6.58-4.24
		C131.74,259.32,132.19,256.73,132.26,253.65z"/>
	<path class="st0" d="M80.62,275.26c-4.04,0-8.07-0.02-12.11,0.01c-1.37,0.01-2.18-0.53-1.42-1.85c3.69-6.44,2.82-13.65,3.5-20.56
		c0.81-8.39,1.27-16.81,1.71-25.23c0.11-2.07,0.84-2.9,2.83-3.27c3.28-0.61,6.49-1.55,9.74-2.31c2.43-0.57,2.66-0.38,2.42,2.2
		c-0.83,9.16-1.7,18.31-2.53,27.46c-0.32,3.54-0.55,7.09-0.92,10.62c-0.14,1.37,0.3,1.7,1.6,1.56c4.43-0.48,8.86-0.92,13.3-1.29
		c2.26-0.19,2.48,0.16,1.77,2.35c-0.71,2.18-1.47,4.35-2.25,6.51c-0.65,1.81-1.92,2.87-3.88,2.97c-4.59,0.23-9.17,0.45-13.76,0.68
		C80.63,275.15,80.63,275.2,80.62,275.26z"/>
	<path class="st0" d="M265.23,262.41c0.4-4.65,0.73-9.3,1.22-13.94c0.16-1.52-0.3-1.98-1.76-1.89c-1.31,0.08-2.64,0-3.96-0.1
		c-1.08-0.08-1.54-0.61-0.86-1.67c1.39-2.16,2.77-4.34,4.18-6.49c0.18-0.28,0.52-0.68,0.75-0.66c2.82,0.32,2.34-1.85,2.57-3.42
		c0.26-1.72,0.42-3.45,0.56-5.19c0.12-1.49,0.67-2.35,2.34-2.61c3.43-0.53,6.87-1.09,10.2-2.11c1.34-0.41,1.58,0.08,1.43,1.3
		c-0.38,3.04-0.7,6.08-1.01,9.13c-0.28,2.77-0.26,2.77,2.44,2.78c1.88,0,3.76,0.05,5.63-0.01c1.75-0.06,2.09,0.69,1.42,2.17
		c-0.8,1.78-1.6,3.55-2.34,5.35c-0.44,1.06-1.2,1.46-2.28,1.44c-0.63-0.01-1.25,0-1.88,0c-4.11,0-4.11,0-4.59,4.16
		c-0.39,3.46-0.91,6.91-0.87,10.4c0.05,3.65,1.47,4.68,5.06,3.97c1.52-0.3,3.14-1.83,4.46-0.83c1.12,0.85,0.75,2.85,1.13,4.32
		c0.86,3.32,0.83,3.37-2.54,4.39c-3.51,1.07-6.97,2.44-10.74,2.34c-6.8-0.18-10.22-3.54-10.51-10.33c-0.04-0.83,0-1.67,0-2.51
		C265.28,262.42,265.25,262.41,265.23,262.41z"/>
	<path class="st0" d="M256.37,235.8c-1.02,11.07-2.05,22.16-3.05,33.26c-0.1,1.09-0.52,1.75-1.63,2.11
		c-3.63,1.19-7.24,2.45-10.84,3.75c-1.3,0.47-1.78,0.22-1.65-1.23c1.01-11.45,2-22.89,2.96-34.34c0.12-1.4,0.71-2.05,2.13-2.3
		c3.56-0.63,7.11-1.32,10.56-2.42C255.93,234.28,256.7,234.3,256.37,235.8z"/>
	<path class="st0" d="M257.69,221.79c-0.55,6.49-0.55,6.49-6.94,7.79c-2.04,0.41-4.08,0.81-6.11,1.25
		c-1.07,0.23-1.54-0.04-1.43-1.24c0.26-2.83,0.44-5.67,0.63-8.51c0.08-1.21,0.6-1.81,1.86-2.06c3.6-0.72,7.24-1.31,10.75-2.43
		c1.21-0.39,1.69-0.03,1.55,1.26C257.85,219.15,257.79,220.47,257.69,221.79z"/>
	<path class="st0" d="M193.2,135.97c0.12,2.37-0.93,3.82-2.65,4.16c-1.84,0.36-3.62-0.6-4.01-2.47c-0.69-3.27-1.26-6.57-1.72-9.88
		c-0.27-1.93,1.01-3.43,2.86-3.73c1.76-0.28,3.34,0.66,3.75,2.53C192.14,129.85,192.68,133.15,193.2,135.97z"/>
	<path class="st0" d="M214.85,128.19c-0.47,2.75-0.94,6.05-1.64,9.31c-0.43,1.99-2.25,3.01-4.11,2.64
		c-1.71-0.34-2.89-1.94-2.61-3.93c0.45-3.16,0.99-6.31,1.66-9.44c0.41-1.93,2.09-2.96,3.87-2.69
		C213.72,124.34,214.85,125.76,214.85,128.19z"/>
	<path class="st0" d="M251.95,148.72c1.82,0.02,2.85,0.71,3.47,2.04c0.64,1.36,0.46,2.73-0.62,3.65c-2.65,2.24-5.37,4.42-8.2,6.43
		c-1.56,1.1-3.6,0.51-4.62-0.97c-0.99-1.43-0.82-3.31,0.64-4.51c2.46-2.04,5.02-3.96,7.55-5.92
		C250.79,148.94,251.5,148.69,251.95,148.72z"/>
	<path class="st0" d="M147.4,148.59c1.08,0.04,1.87,0.43,2.6,1c2.24,1.76,4.51,3.47,6.72,5.27c1.9,1.54,2.19,3.44,0.89,5.09
		c-1.33,1.69-3.2,1.86-5.12,0.38c-2.42-1.86-4.83-3.74-7.2-5.66c-1.25-1.02-1.66-2.37-1.02-3.92
		C144.87,149.29,146.01,148.63,147.4,148.59z"/>
	<path class="st0" d="M237.17,135.66c0,0.8-0.31,1.5-0.7,2.17c-1.44,2.47-2.85,4.95-4.33,7.39c-1.23,2.03-3.19,2.58-4.97,1.5
		c-1.71-1.03-2.1-2.89-0.96-4.91c1.51-2.67,3.05-5.31,4.64-7.93c0.9-1.48,2.26-2.07,3.94-1.52
		C236.35,132.86,237.15,134,237.17,135.66z"/>
	<path class="st0" d="M166.02,132.19c1.22,0.03,2.27,0.62,2.96,1.78c1.56,2.62,3.13,5.24,4.61,7.91c1.07,1.93,0.55,3.94-1.12,4.88
		c-1.73,0.98-3.61,0.45-4.78-1.48c-1.58-2.61-3.15-5.23-4.59-7.92C161.83,134.97,163.37,132.25,166.02,132.19z"/>
	<path class="st0" d="M198.79,192.35c-8.35,0.03-15.17-6.72-15.23-15.06c-0.06-8.47,6.71-15.34,15.14-15.37
		c8.36-0.03,15.3,6.91,15.28,15.28C213.95,185.48,207.09,192.33,198.79,192.35z M198.81,189.88c7.09-0.02,12.82-5.85,12.76-13
		c-0.05-7.04-5.78-12.73-12.82-12.73c-7.15-0.01-12.9,5.75-12.87,12.88C185.91,184.15,191.7,189.9,198.81,189.88z"/>
</g>
</svg>
