<?xml version="1.0" encoding="utf-8"?>
<!-- Generator: Adobe Illustrator 28.2.0, SVG Export Plug-In . SVG Version: 6.00 Build 0)  -->
<svg version="1.1" id="Capa_1" xmlns="http://www.w3.org/2000/svg" xmlns:xlink="http://www.w3.org/1999/xlink" x="0px" y="0px"
	 viewBox="0 0 400 400" style="enable-background:new 0 0 400 400;" xml:space="preserve">
<style type="text/css">
	.st0{fill:#FFFFFF;}
	.st1{fill:#4CCB5A;}
</style>
<g>
	<g>
		<path class="st0" d="M194.78,8.16c55.72,0.03,98.56,16.18,133.98,48.81c96.43,88.83,80.03,241.71-32.22,306.12
			c-59.08,33.9-120.16,35.73-181.86,6.37c-4.08-1.94-7.73-2.42-12.15-1.25c-28.64,7.64-57.35,15.03-86.03,22.51
			c-9,2.35-9.71,1.71-7.22-7.41c7.61-27.88,15.27-55.75,23.04-83.58c1.14-4.1,0.84-7.55-1.21-11.38
			C-23.78,185.66,24.45,59.97,133.9,20.27C155.88,12.29,178.44,7.6,194.78,8.16z M55.17,344.94c16.94-4.41,32.63-8.2,48.12-12.67
			c6.95-2,12.7-1.37,19.07,2.26c33.3,18.99,68.96,25.21,106.71,18c81.53-15.58,143.37-91.59,126.12-183.34
			c-16.1-85.63-95.67-139.65-181.94-125.63C68.01,60.67,9.73,180.5,62.27,273.17c6.63,11.69,7.59,21.43,3.51,33.42
			C61.65,318.74,58.87,331.35,55.17,344.94z"/>
		<path class="st1" d="M55.17,344.94c16.94-4.41,32.63-8.2,48.12-12.67c6.95-2,12.7-1.37,19.07,2.26
			c33.3,18.99,68.96,25.21,106.71,18c81.53-15.58,143.37-91.59,126.12-183.34c-16.1-85.63-95.67-139.65-181.94-125.63
			C68.01,60.67,9.73,180.5,62.27,273.17c6.63,11.69,7.59,21.43,3.51,33.42C61.65,318.74,58.87,331.35,55.17,344.94z"/>
		<path class="st0" d="M251.12,290.32c-12.16-0.39-22.46-3.99-32.88-7.55c-49.08-16.79-81.81-52.24-106.89-95.4
			c-15.05-25.91-11.42-50.29,6.77-70.48c6.33-7.02,20.58-9.98,29.03-5.99c3.16,1.49,4.72,4.38,5.99,7.38
			c5.05,11.93,9.94,23.93,15.03,35.84c1.77,4.14,0.95,7.82-1.35,11.32c-2.05,3.12-4.18,6.21-6.54,9.09
			c-8.54,10.44-8.54,10.37-0.84,21.66c14.25,20.9,32.62,36.76,55.99,46.81c6.62,2.85,11.72,2.87,16.15-3.63
			c3.36-4.92,7.58-9.25,11.2-14c2.99-3.93,6.61-5.18,11.13-3.25c13.03,5.58,26.07,11.15,39.02,16.91c4.18,1.86,5.32,5.68,5.02,9.99
			c-1.44,21.31-12.08,33.53-36.77,40.04C257.61,290.01,253.79,290,251.12,290.32z"/>
	</g>
</g>
</svg>
