<?xml version="1.0" encoding="utf-8"?>
<!-- Generator: Adobe Illustrator 28.2.0, SVG Export Plug-In . SVG Version: 6.00 Build 0)  -->
<svg version="1.1" id="Capa_1" xmlns="http://www.w3.org/2000/svg" xmlns:xlink="http://www.w3.org/1999/xlink" x="0px" y="0px"
	 viewBox="0 0 400 400" style="enable-background:new 0 0 400 400;" xml:space="preserve">
<style type="text/css">
	.st0{fill:#393A65;}
	.st1{fill:#FDD002;}
	.st2{fill:#FEFEFE;}
</style>
<g>
	<g>
		<path class="st0" d="M201.13,334.09c-38.34,0.29-74.77-5.35-109.32-20.56c-31.07-13.68-57.64-33.1-73.16-64.12
			c-22.4-44.76-16.67-97.01,27.82-133.82c22.52-18.64,48.23-30.91,76.11-38.96c35.2-10.17,71.16-12.91,107.45-9.07
			c47.25,5,91.18,19.1,127.48,51.37c17.91,15.92,31.26,35.01,34.99,59.3c4.74,30.91-0.64,59.71-19.39,85.45
			c-18.48,25.38-43.42,41.9-72.2,53.18C268.59,329.52,234.89,334.39,201.13,334.09z M200.28,312c36.13-0.48,71.27-6.11,104.59-20.7
			c24.21-10.6,45.94-24.73,62.44-45.87c12.2-15.64,19.12-33.23,19.21-53.27c0.01-3.03-0.22-5.36-4.36-4.36
			c-23.7,5.72-46.97,12.78-69.65,21.76c-1.72,0.68-2.92,1.39-2.12,3.72c4.83,14.15-4.47,23.61-19.16,25.51
			c-1.81,0.23-3.2,0.3-3.72,2.56c-2.59,11.47-10.93,15.81-21.63,16.81c-2.42,0.23-3.54,1.11-4.76,3.14
			c-4.44,7.39-10.87,11.52-19.83,11.03c-1.81-0.1-3.69-0.73-5.39,0.88c-9,8.51-19.11,6.86-29.26,2.77
			c-3.06-1.23-5.17-1.59-8.27,0.51c-10.45,7.06-23.55,4.48-30.66-5.79c-1.73-2.5-3.33-3.51-6.43-3.2c-7.9,0.8-14.09-2.75-18.73-8.83
			c-1.67-2.19-3.16-3.39-5.99-3.3c-9.25,0.29-15.51-4.56-19.52-12.4c-1.41-2.76-2.59-4.14-6.07-4.52
			c-11.37-1.23-18.92-9.8-17.56-20.53c0.68-5.34-1.2-7.54-5.34-9.66c-21.58-11.02-44.84-16.64-68.24-22.02
			c-5.13-1.18-5.83,0.72-5.84,4.9c-0.04,13.59,2.79,26.49,9.1,38.53c13.17,25.14,34.17,42.07,58.71,55
			C118.84,304.2,158.81,311.44,200.28,312z M151.17,132.02c-2.93-1.21-5.09-0.14-7.13,0.54c-10.49,3.52-21.18,4.59-32.08,2.68
			c-18.03-3.17-35.37-8.79-52.43-15.32c-2.57-0.98-4.81-1.91-7.37,0.29c-16.65,14.3-29.64,31.03-35.76,52.52
			c-0.92,3.22,0,4.35,3.11,5.07c8.12,1.87,16.19,3.94,24.22,6.15c18.32,5.06,36.54,10.44,52.81,20.68c2,1.26,2.82,0.63,4.34-0.39
			c8.09-5.43,16.12-5.12,23.56,1.15c2.08,1.75,3.41,1.34,5.51,0.42c9.62-4.24,18.74-2.34,25.81,5.43c1.71,1.87,3.05,2.46,5.75,2.1
			c13-1.7,22.25,5.63,23.72,18.65c0.3,2.64,0.68,3.61,3.67,4.14c13.96,2.46,21.29,13.75,18.42,27.54c-0.32,1.55-1.3,3.21,0.48,4.73
			c3.63,3.11,15.53,4.35,19.82,1.99c2.63-1.45,3.08-2.92,0.82-5.26c-4.22-4.39-8.29-8.92-12.3-13.51c-1.27-1.45-3.73-3.19-1.56-5.25
			c1.98-1.87,3.79,0.17,5.31,1.6c5.27,4.96,10.49,9.97,15.8,14.88c3.99,3.69,11.27,3.22,15.55-0.88c4.1-3.94,3.96-6.71-0.84-12.19
			c-4.9-5.58-9.95-11.03-14.81-16.65c-1.35-1.56-4.14-3.37-1.6-5.66c2.09-1.88,3.81,0.56,5.23,1.89c6.4,5.97,12.65,12.1,19.07,18.05
			c5.13,4.76,13.69,3.94,18.95-1.61c4.56-4.81,4.13-9.62-1.49-15.35c-6.94-7.06-13.95-14.06-20.94-21.08
			c-0.67-0.67-1.39-1.31-2.01-2.02c-1.17-1.33-2.31-2.95-0.86-4.48c1.19-1.26,2.86-0.49,4.13,0.43c0.92,0.66,1.74,1.47,2.59,2.23
			c8.22,7.37,16.38,14.8,24.66,22.11c5.55,4.9,13.52,4.41,18.39-0.96c4.26-4.7,3.26-10.44-2.81-15.79
			c-3.57-3.15-7.18-6.24-10.78-9.36c-20.27-17.58-40.3-35.46-61.39-52.06c-12.6-9.92-20.14-10.01-33.83-1.83
			c-8.85,5.28-16,12.9-25.02,17.91c-10.36,5.76-20.91,5.1-31.12,0.04c-7.05-3.5-7.62-9.5-2.26-15.34
			C140.02,144.25,145.49,138.24,151.17,132.02z M209.58,113.08c-16.61,0.41-30.8,4.64-42.95,15.05
			c-9.14,7.83-16.92,16.96-25.19,25.61c-3.72,3.9-3.14,5.6,2.2,7.21c8.56,2.59,16.56,1.37,23.76-4c6.25-4.65,12.31-9.57,18.59-14.18
			c16.74-12.3,28.61-12.34,44.92,0.38c23.25,18.14,45.19,37.83,67.37,57.24c3.52,3.08,6.26,4.66,11.4,2.4
			c22.42-9.87,45.7-17.37,69.65-22.57c5.42-1.18,6-3.22,4.56-8.12c-5.48-18.63-16.23-33.69-30.03-47.01
			c-3.8-3.67-6.78-3.99-11.41-1.84c-13.75,6.38-28.4,9.73-43.5,10.38c-18.15,0.77-35.44-3.15-51.9-10.9
			C234.9,117.01,222.11,113.64,209.58,113.08z M63.26,112.33c1.05,1.84,2.62,2.21,4.03,2.67c11.92,3.94,24.02,7.28,36.09,10.74
			c13.28,3.8,26.17,3.94,39.26-0.53c4.46-1.53,9.06-3.02,13.89-3.02c4.2,0.01,7.52-1.61,10.87-4.15c5.94-4.5,12.71-7.58,19.98-9.51
			c22.51-6,43.66-1.61,64.3,7.93c28.25,13.06,56.78,12.25,85.39,0.99c4.21-1.66,3.86-3.08,0.41-5.41
			c-11.09-7.48-22.71-13.99-35.09-19.01c-43.25-17.53-88.17-22.74-134.41-17.66c-27.45,3.02-53.84,9.9-78.87,21.71
			C80.01,101.37,71.21,106.18,63.26,112.33z M124.09,221c-0.51-2.37-0.69-3.89-1.18-5.3c-2.18-6.35-9.08-9.49-15.24-7.01
			c-5.85,2.36-8.95,9.4-6.62,15.07c2.51,6.12,9.85,9.52,15.53,6.24c5.17-2.98,5.68-2.02,5.67,3.48
			c-0.02,11.55,9.96,17.8,20.27,13.02c3.26-1.51,3.68-0.57,4.02,2.57c0.98,9.07,11.35,14.58,18.51,9.64c4.35-3,5.62-3.17,6.26,2.65
			c0.84,7.56,9.5,13.19,16.91,11.85c7.81-1.41,13.43-8.81,12.52-16.45c-1.17-9.8-9.88-15.88-19.23-12.82
			c-5.27,1.73-5.76,0.21-4.2-4.19c0.25-0.7,0.21-1.5,0.38-2.24c1.31-5.61,0.62-10.84-4.29-14.34c-5.17-3.68-10.91-4.63-16.3-0.25
			c-3.56,2.9-3.86,0.02-4.64-2.25c-2.52-7.33-7-10.13-14.69-9.32C131.83,211.97,127.82,215.47,124.09,221z"/>
		<path class="st1" d="M200.27,312.01c-41.46-0.57-81.43-7.81-118.48-27.34c-24.54-12.94-45.54-29.87-58.71-55
			c-6.31-12.04-9.14-24.94-9.1-38.53c0.01-4.18,0.71-6.08,5.84-4.9c23.4,5.38,46.66,11,68.24,22.02c4.14,2.12,6.02,4.32,5.34,9.66
			c-1.36,10.73,6.19,19.3,17.56,20.53c3.47,0.38,4.65,1.76,6.07,4.52c4.02,7.84,10.28,12.69,19.52,12.4
			c2.84-0.09,4.32,1.12,5.99,3.3c4.64,6.08,10.83,9.63,18.73,8.83c3.1-0.31,4.7,0.7,6.43,3.2c7.11,10.27,20.21,12.86,30.66,5.79
			c3.1-2.1,5.21-1.74,8.27-0.51c10.15,4.09,20.27,5.74,29.26-2.77c1.7-1.61,3.58-0.98,5.39-0.88c8.96,0.5,15.38-3.64,19.83-11.03
			c1.22-2.03,2.34-2.91,4.76-3.14c10.7-1,19.04-5.34,21.63-16.81c0.51-2.26,1.9-2.33,3.72-2.56c14.69-1.9,23.99-11.35,19.16-25.51
			c-0.8-2.33,0.4-3.04,2.12-3.72c22.68-8.98,45.95-16.04,69.65-21.76c4.15-1,4.38,1.33,4.36,4.36c-0.1,20.04-7.01,37.63-19.21,53.27
			c-16.49,21.14-38.22,35.27-62.44,45.87C271.55,305.89,236.41,311.53,200.27,312.01z"/>
		<path class="st2" d="M151.17,132.02c-5.68,6.22-11.15,12.23-16.64,18.22c-5.36,5.85-4.79,11.85,2.26,15.34
			c10.21,5.06,20.76,5.71,31.12-0.04c9.02-5.01,16.17-12.63,25.02-17.91c13.69-8.18,21.23-8.09,33.83,1.83
			c21.09,16.6,41.12,34.48,61.39,52.06c3.59,3.12,7.21,6.21,10.78,9.36c6.07,5.35,7.07,11.09,2.81,15.79
			c-4.87,5.37-12.85,5.86-18.39,0.96c-8.27-7.31-16.44-14.74-24.66-22.11c-0.85-0.76-1.66-1.57-2.59-2.23
			c-1.28-0.92-2.95-1.69-4.13-0.43c-1.45,1.54-0.31,3.16,0.86,4.48c0.63,0.71,1.34,1.34,2.01,2.02c6.98,7.02,14,14.02,20.94,21.08
			c5.63,5.73,6.05,10.53,1.49,15.35c-5.26,5.56-13.82,6.37-18.95,1.61c-6.42-5.95-12.66-12.09-19.07-18.05
			c-1.42-1.32-3.14-3.77-5.23-1.89c-2.54,2.29,0.24,4.09,1.6,5.66c4.86,5.62,9.91,11.07,14.81,16.65c4.8,5.48,4.95,8.25,0.84,12.19
			c-4.28,4.1-11.56,4.57-15.55,0.88c-5.31-4.91-10.53-9.92-15.8-14.88c-1.52-1.43-3.33-3.47-5.31-1.6c-2.17,2.05,0.3,3.8,1.56,5.25
			c4.01,4.58,8.08,9.12,12.3,13.51c2.26,2.35,1.81,3.82-0.82,5.26c-4.28,2.36-16.18,1.13-19.82-1.99c-1.78-1.52-0.8-3.18-0.48-4.73
			c2.87-13.79-4.46-25.08-18.42-27.54c-2.99-0.53-3.37-1.5-3.67-4.14c-1.47-13.01-10.72-20.35-23.72-18.65
			c-2.7,0.35-4.04-0.23-5.75-2.1c-7.07-7.77-16.19-9.67-25.81-5.43c-2.1,0.93-3.43,1.34-5.51-0.42c-7.44-6.27-15.47-6.58-23.56-1.15
			c-1.52,1.02-2.34,1.65-4.34,0.39C80.29,194.38,62.06,189,43.74,183.95c-8.03-2.22-16.11-4.28-24.22-6.15
			c-3.11-0.72-4.02-1.85-3.11-5.07c6.12-21.48,19.11-38.21,35.76-52.52c2.56-2.2,4.81-1.27,7.37-0.29
			c17.06,6.53,34.39,12.16,52.43,15.32c10.9,1.91,21.59,0.84,32.08-2.68C146.08,131.88,148.24,130.81,151.17,132.02z"/>
		<path class="st2" d="M209.58,113.08c12.53,0.56,25.32,3.93,37.46,9.65c16.46,7.75,33.75,11.68,51.9,10.9
			c15.11-0.64,29.75-4,43.5-10.38c4.63-2.15,7.61-1.83,11.41,1.84c13.8,13.32,24.55,28.38,30.03,47.01c1.44,4.9,0.86,6.94-4.56,8.12
			c-23.95,5.2-47.23,12.7-69.65,22.57c-5.14,2.26-7.88,0.69-11.4-2.4c-22.18-19.41-44.12-39.1-67.37-57.24
			c-16.3-12.72-28.17-12.68-44.92-0.38c-6.28,4.61-12.34,9.53-18.59,14.18c-7.21,5.37-15.2,6.59-23.76,4
			c-5.34-1.62-5.92-3.32-2.2-7.21c8.27-8.66,16.05-17.78,25.19-25.61C178.78,117.72,192.97,113.49,209.58,113.08z"/>
		<path class="st1" d="M63.26,112.33c7.95-6.15,16.75-10.96,25.84-15.24c25.03-11.8,51.43-18.69,78.87-21.71
			c46.24-5.09,91.16,0.13,134.41,17.66c12.37,5.02,24,11.53,35.09,19.01c3.45,2.33,3.8,3.75-0.41,5.41
			c-28.61,11.26-57.13,12.07-85.39-0.99c-20.64-9.54-41.79-13.93-64.3-7.93c-7.26,1.93-14.03,5.01-19.98,9.51
			c-3.36,2.54-6.67,4.16-10.87,4.15c-4.83-0.01-9.43,1.49-13.89,3.02c-13.08,4.48-25.98,4.33-39.26,0.53
			c-12.07-3.45-24.17-6.79-36.09-10.74C65.88,114.54,64.31,114.17,63.26,112.33z"/>
		<path class="st2" d="M124.09,221c3.73-5.52,7.74-9.02,13.7-9.65c7.69-0.81,12.18,2,14.69,9.32c0.78,2.27,1.08,5.15,4.64,2.25
			c5.39-4.38,11.12-3.43,16.3,0.25c4.91,3.49,5.6,8.73,4.29,14.34c-0.17,0.74-0.13,1.53-0.38,2.24c-1.56,4.4-1.07,5.91,4.2,4.19
			c9.35-3.07,18.06,3.02,19.23,12.82c0.91,7.65-4.72,15.04-12.52,16.45c-7.4,1.34-16.07-4.29-16.91-11.85
			c-0.64-5.81-1.91-5.65-6.26-2.65c-7.17,4.94-17.53-0.57-18.51-9.64c-0.34-3.14-0.76-4.08-4.02-2.57
			c-10.31,4.78-20.29-1.46-20.27-13.02c0.01-5.5-0.5-6.46-5.67-3.48c-5.68,3.28-13.02-0.12-15.53-6.24
			c-2.32-5.67,0.77-12.71,6.62-15.07c6.16-2.48,13.06,0.66,15.24,7.01C123.4,217.1,123.58,218.62,124.09,221z"/>
	</g>
</g>
</svg>
