<?xml version="1.0" encoding="utf-8"?>
<!-- Generator: Adobe Illustrator 28.3.0, SVG Export Plug-In . SVG Version: 6.00 Build 0)  -->
<svg version="1.1" id="Capa_1" xmlns="http://www.w3.org/2000/svg" xmlns:xlink="http://www.w3.org/1999/xlink" x="0px" y="0px"
	 viewBox="0 0 400 400" style="enable-background:new 0 0 400 400;" xml:space="preserve">
<style type="text/css">
	.st0{fill:#B3B3B3;}
</style>
<g>
	<path class="st0" d="M368.06,207.17c-5.05-0.89-7.47-4.67-10.41-7.71c-2.26-2.34-3.19-5.45-4.03-8.44
		c-3.64-12.94-1.88-25.3,3.96-37.36c4.16-8.6,8.9-16.96,11.83-26.11c1.5-4.69-0.62-8.18-5.43-9.2c-5.36-1.14-10.38,0.7-15.43,1.89
		c-7.33,1.74-7.05,1.94-8.17,9.43c-1.79,11.9-7.42,21.52-18.01,27.79c-6.38,3.78-13.65,3.24-19.82-1.64
		c-1.85-1.46-2.58-1.12-3.69,0.67c-3.03,4.93-6.41,9.56-11.1,13.12c-5.65,4.28-11.77,4.46-17.41,0.16
		c-1.67-1.28-2.79-1.07-4.26,0.19c-2.73,2.33-5.17,4.96-8.12,7.08c-7.57,5.45-14.55,5.58-21.92-0.44c-2.59-2.12-3.97-2.57-6.42,0.26
		c-3.4,3.92-7.27,7.46-11.57,10.52c-5.09,3.63-11.84,2.59-14.81-2.9c-0.95-1.75-1.53-1.86-2.98-0.56
		c-4.3,3.83-8.48,7.77-13.11,11.24c-3.56,2.68-7.27,4.71-11.62,5.63c-3.62,0.76-6.97,0.63-9.6-2.39c-1.26-1.45-2.1-0.82-3.15,0.31
		c-4.33,4.61-8.92,8.92-14.22,12.45c-1.5,1-3.06,1.66-4.78,2.03c-4.92,1.06-8.08-1.24-8.59-6.24c-0.13-1.3-0.2-2.62-0.14-3.93
		c0.16-3.55-0.1-6.66-4.88-6.6c-1.16,0.01-2.03-1-2.22-2.12c-0.22-1.33,1.05-1.51,1.94-1.77c5.3-1.51,6.98-6.36,9.32-10.4
		c3.09-5.34,5.77-10.94,8.34-16.57c0.92-2.02,2.18-2.9,4.17-3.01c3.16-0.17,6.33-0.25,9.5-0.34c2.93-0.08,1.79,1.89,1.4,3.15
		c-2.02,6.55-4.16,13.06-6.25,19.59c-0.33,1.04-0.63,2.09-0.94,3.13c-0.5,1.65-0.74,3.38,0.92,4.44c1.92,1.21,3.31-0.22,4.53-1.47
		c2.87-2.93,4.4-6.72,6.3-10.26c4.09-7.61,6.74-15.82,9.81-23.85c0.77-2.02,1.75-2.56,3.79-2.63c4.14-0.15,8.26-0.66,12.39-1.05
		c2.03-0.19,2.43,0.11,1.49,2.27c-3.26,7.48-7.93,14.34-9.75,22.45c-0.44,1.95-0.61,3.91-0.36,5.85c0.39,2.94,1.91,3.68,4.61,2.32
		c1.88-0.95,3.39-2.41,4.57-4.12c5.02-7.28,8.98-15.13,12.62-23.17c2.07-4.57,3.82-9.24,5.42-13.99c0.39-1.17,0.95-2.32,2.3-2.53
		c3.56-0.54,7.13-0.99,10.7-1.43c1.69-0.21,2.38,0.16,1.68,2.18c-2.45,7.1-4.71,14.27-7.01,21.43c-0.97,3.03-1.49,6.16-1.22,9.34
		c0.28,3.33,2.18,4.38,4.85,2.43c4.57-3.33,8.76-6.61,8.37-13.59c-0.33-6,0.96-12.19,3.93-17.7c4.72-8.74,12.76-12.73,21.94-14.96
		c5.22-1.27,10.17-0.58,14.67,2.52c1.3,0.89,1.82,0.43,2.24-1c2.21-7.51,4.52-14.99,6.78-22.48c1.82-6.03,3.64-12.06,5.41-18.11
		c0.49-1.69,1.7-2.5,3.24-2.9c3.9-1,7.82-1.92,11.73-2.87c2.31-0.56,3.17-0.1,2.37,2.56c-5.4,18-10.68,36.04-15.99,54.07
		c-1.13,3.84-2.29,7.68-3.33,11.55c-0.37,1.37-0.49,2.82,0.92,3.86c1.3,0.96,2.31,0.12,3.25-0.54c5.11-3.61,8.63-8.12,8.98-14.74
		c0.45-8.41,3.5-15.9,8.96-22.32c4.65-5.47,10.66-8.54,17.83-9.05c1.79-0.13,3.07-0.59,4.2-2c2.53-3.18,7.2-2.92,9.34,0.43
		c3.11,4.87,3.28,4.72,8.98,3.12c4.8-1.36,9.69-2.46,14.73-2.82c10.97-0.77,14.76,6.58,15.45,14.65
		c1.09,12.68-1.76,24.76-5.96,36.72c-3.79,10.8-6.75,21.9-6.07,33.59C365.31,198.65,366.79,202.72,368.06,207.17z M252.58,164.51
		c1.18,0.13,2.39-0.38,3.55-1.01c7.05-3.82,9.31-10.64,10.59-17.8c0.42-2.35-0.56-5.03-3.34-6.17c-2.64-1.08-4.88,0.34-6.47,1.91
		c-3.01,2.97-5.52,6.42-7.33,10.32c-0.97,2.09-1.68,4.27-1.94,6.52C247.19,162.11,249.17,164.57,252.58,164.51z M314.72,137.66
		c-0.23,2.6,0.35,4.98,2.49,6.43c1.36,0.93,3.15,0.67,4.66-0.3c7.13-4.63,10.24-13.7,8.61-21.1c-0.81-3.68-3.44-4.72-6.27-2.28
		C318.96,124.94,315.47,130.6,314.72,137.66z"/>
	<path class="st0" d="M91.01,130.42c-0.39,0.24-0.79,0.48-1.18,0.72c-1.26,0.14-2.05,0.98-2.79,1.88c-0.24-0.05-0.38,0.04-0.44,0.27
		c-2.11,1.32-4.05,2.83-5.4,4.97c0,0,0.02-0.02,0.02-0.02c-2.71,2.33-5.36,4.72-6.95,8.02c-0.22,0.07-0.31,0.22-0.26,0.46
		c-1.11,0.67-2.15,1.4-2.38,2.82c-0.23,0.07-0.31,0.23-0.25,0.46c-1.05,0.74-1.94,1.62-2.43,2.84l-0.05,0.05
		c-2.01,1.8-3.73,3.8-4.41,6.5c-0.23,0.08-0.33,0.24-0.3,0.49c-3.08,2.46-4.8,5.84-6.37,9.33c-0.21,0.03-0.3,0.15-0.26,0.37
		c-0.88,1.33-1.89,2.59-2.63,4c-3.32,6.28-6.39,12.66-7.09,19.88c-0.3,0.98-0.38,1.96-0.14,2.96c-1.23,2.62-0.59,5.33-0.12,7.92
		c0.58,3.23,1.37,6.52,4.29,8.66l0.05,0.06c0.11,0.87,0.78,1.21,1.43,1.64c8.35,5.53,20.64,0.84,25.56-4.74
		c0.22,0.05,0.36-0.04,0.41-0.26c0.8,0,1.12-0.47,1.17-1.2c0.26-0.26,0.53-0.52,0.79-0.78c2.64-1.86,5.48-3.48,7.08-6.48l0.08-0.09
		c1.78-0.49,2.87-1.99,4.03-3.16c3.76-3.83,8.5-6.65,11.59-11.17c0.27-0.23,0.53-0.47,0.8-0.7c2.02-0.7,3.26-2.75,5.72-2.84
		c3.91-0.14,7.82-0.6,11.71-1.06c2.47-0.29,3.18,0.38,2.31,2.86c-2.78,7.9-5.38,15.85-8.13,23.76c-2.24,6.43-4.94,12.7-6.39,19.39
		c-0.05,0.32-0.09,0.65-0.14,0.97c-1.85,2.07-0.09,2.02,1.27,2.11c3.7,0.26,7.4,0.4,11.09,0.75c1.3,0.13,2.76,0.84,2.81,2.3
		c0.06,1.52-1.52,1.54-2.67,1.84c-0.61,0.16-1.16,0.53-1.74,0.81c-0.44,0.08-0.87,0.16-1.31,0.24c-4.84,0.92-9.62,2.03-13.88,4.7
		l0.01-0.01c-3.74,5.87-7,11.99-9.68,18.42c-0.2,0.11-0.27,0.28-0.2,0.5c-2.58,4.07-5.44,7.99-7.02,12.61
		c-0.21,0.1-0.27,0.26-0.2,0.47c-3.49,4.9-6.7,9.98-9.56,15.28c-0.24,0.03-0.34,0.16-0.31,0.4c-1.32,0.49-2.15,1.45-2.62,2.75
		c0,0,0.02-0.02,0.02-0.02c-1.3,0.51-1.99,1.52-2.32,2.83l-0.12,0.13c-0.94,0.16-1.42,0.75-1.61,1.64
		c-0.19,0.19-0.38,0.37-0.56,0.56c-1.81,1.03-3.44,2.23-4.35,4.19c-0.24,0.28-0.47,0.55-0.71,0.83c-1.64,0.93-3.17,1.98-4.2,3.62
		c-0.24-0.04-0.38,0.06-0.43,0.3c-1.82,0.9-3.54,1.93-4.7,3.68l0.02-0.02c-5.96,3.11-11.93,6.21-19.03,4.35
		c-0.34-0.16-0.69-0.31-1.03-0.47c-0.35-0.64-0.87-1-1.62-1l-0.11-0.1c-3.98-5.1-5.29-10.89-4.91-17.3
		c0.42-7.17,3.28-13.6,5.61-20.2c0.21-0.11,0.28-0.28,0.21-0.52c1.3-1.39,2.24-3,2.98-4.75c0.24-0.02,0.36-0.16,0.35-0.4
		c1.41-0.82,2.42-1.98,2.97-3.53c0.32-0.36,0.64-0.71,0.96-1.07c1.8-1.33,3.28-2.97,4.71-4.68c0.24,0.03,0.37-0.08,0.39-0.32
		c0.77-0.02,1.13-0.45,1.2-1.18l0.08-0.08c3.21-2.15,6.25-4.52,9.09-7.14l0.08-0.08c3.43-1.13,6.04-3.55,8.91-5.57
		c0.17,0.09,0.29,0.04,0.36-0.15c3.59-0.98,6.75-2.97,9.94-4.72c3.95-2.16,8.48-3.07,12.1-5.84c0.25-0.08,0.35-0.26,0.29-0.51
		c2.18-3.74,3.83-7.69,4.68-11.96c0.1-0.43,0.2-0.86,0.3-1.29c1.39-1.47,1.77-3.32,1.91-5.25c0.18-0.5,0.37-0.99,0.55-1.49
		c0.82-1.75,1.65-3.5,2.46-5.26c0.27-0.59,0.59-1.27-0.07-1.75c-0.48-0.35-1.05-0.12-1.49,0.25c-2.81,2.32-5.62,4.64-8.42,6.96
		c0,0,0.01-0.01,0.01-0.01c-1.2,0.23-2.19,0.73-2.65,1.97l0.01-0.01c-2.75,1.31-5.2,3.03-7.3,5.23c-0.6,0.34-1.19,0.67-1.79,1.01
		c-2.51,0.62-4.22,2.56-6.32,3.84c-6.42,3.91-13.27,6.71-20.66,8.16c-0.41,0.01-0.82,0.01-1.23,0.02c-1.03-0.55-2.15-0.3-3.19-0.21
		c-6.73,0.59-12.54-1.58-17.73-5.71c-0.34-0.36-0.69-0.72-1.03-1.08c-3.01-5.56-4.93-11.46-5.8-17.72
		c-0.03-1.09-0.06-2.18-0.09-3.27c0.38-1.56,0.37-3.12,0-4.68c0.03-1.96,0.07-3.93,0.1-5.89c1.01-4.16,2.02-8.33,3.02-12.49
		c0.09-0.43,0.18-0.85,0.27-1.28c2.28-4.98,4.57-9.96,6.85-14.94c0,0-0.01,0.03-0.01,0.03c1.94-1.59,2.35-4.08,3.61-6.08
		c0.24-0.07,0.33-0.22,0.27-0.46c1.31-1.4,2.65-2.79,3.3-4.67c0,0-0.02,0.02-0.02,0.02c1.41-1.07,2.38-2.49,3.12-4.07l0.04-0.04
		c1.26-0.41,1.67-1.4,1.8-2.59c0.24-0.03,0.35-0.17,0.32-0.41c1.51-0.74,2.49-2,3.34-3.39c0.19-0.2,0.37-0.4,0.56-0.6
		c2.86-2.86,5.73-5.73,8.59-8.59c0.69-0.16,1.06-0.62,1.22-1.28c1.83-1.01,3.41-2.32,4.76-3.92c0.35-0.31,0.7-0.62,1.05-0.93
		c0.72-0.06,1.25-0.37,1.49-1.08c0.25,0.02,0.4-0.09,0.46-0.34c2.28-0.83,3.76-2.78,5.71-4.07c0.5-0.4,1-0.8,1.51-1.2
		c4.96-1.94,9.32-5.02,14-7.49c0.36-0.13,0.72-0.26,1.09-0.4c1.44-0.43,2.89-0.82,4.32-1.29c11.37-3.8,22.67-5.11,33.8,0.82
		c0.06,0.21,0.2,0.29,0.41,0.24c1.79,1.76,3.59,3.53,5.38,5.29c-0.04,0.23,0.05,0.39,0.28,0.46c1.01,3.18,2.53,6.18,2.92,9.57
		c0.96,8.32-0.21,16.16-4.82,23.3c-0.24,0.08-0.35,0.24-0.32,0.49c-1.95,1.11-3.46,2.62-4.28,4.75c-0.25,0.02-0.37,0.16-0.35,0.41
		c-1.73,1.14-3.46,2.27-4.65,4.04c-0.26-0.04-0.4,0.07-0.44,0.33c-5.07,3.47-9.89,7.37-16.14,10.01c1.26-4.14,4.43-6.55,4.78-10.28
		c0.15-0.29,0.29-0.57,0.44-0.86c1.69-1.68,2.06-4.03,2.98-6.08c2.48-5.59,4.22-11.39,4.43-17.59c0.32-9.46-8.23-16.11-17.22-14.04
		C97.07,126.79,93.98,128.42,91.01,130.42z M83.27,252.46c-4.44,1.51-7.48,3.95-10.58,6.3c-8.17,6.18-15.92,12.83-21.82,21.29
		c-3.68,5.29-6.81,10.94-8.16,17.33c-0.48,2.27-1.21,5.11,1.25,6.62c2.5,1.54,4.91,0.38,7.16-1.41c4.74-3.76,8.79-8.26,12.49-12.9
		C72.32,278.73,78.28,266.19,83.27,252.46z"/>
	<path class="st0" d="M232.32,127.55c-0.02,6.02-4.38,10.59-10.06,10.54c-4.88-0.04-8.72-4.19-8.75-9.45
		c-0.03-5.49,5.09-10.89,10.18-10.73C228.42,118.05,232.34,122.43,232.32,127.55z"/>
</g>
</svg>
