<?xml version="1.0" encoding="utf-8"?>
<!-- Generator: Adobe Illustrator 28.3.0, SVG Export Plug-In . SVG Version: 6.00 Build 0)  -->
<svg version="1.1" id="Capa_1" xmlns="http://www.w3.org/2000/svg" xmlns:xlink="http://www.w3.org/1999/xlink" x="0px" y="0px"
	 viewBox="0 0 400 400" style="enable-background:new 0 0 400 400;" xml:space="preserve">
<style type="text/css">
	.st0{fill:#B3B3B3;}
</style>
<g>
	<path class="st0" d="M199.84,360.53c-88.73-0.12-160.5-72.32-160.36-160.84c0.14-88.56,72.11-160.34,160.93-160.22
		c88.28,0.12,160.41,71.97,160.11,161.06C360.22,289.14,288.26,360.56,199.84,360.53z M111.76,156.79c0-0.57-0.04-0.98,0.01-1.39
		c0.81-7.44,3.27-14.3,7.67-20.34c5.91-8.1,13.43-14.21,22.34-18.98c16.61-8.89,34.22-13.17,52.97-12.96
		c5.4,0.06,10.79,0.53,16.18,1c7.53,0.65,14.77,2.48,21.69,5.6c12.3,5.55,22.07,14.32,30.65,24.45
		c15.26,18.02,22.35,38.99,21.74,62.58c-0.38,14.62-0.74,29.25-1.12,43.87c-0.12,4.45-0.2,8.9-0.42,13.35
		c-0.33,6.61-0.58,13.21,0.47,19.79c0.75,4.67,2.08,9,6.17,12c5.43,3.98,11.32,7.05,17.69,9.18c0.53,0.18,1.58-0.32,2.01-0.82
		c9.01-10.46,16.35-21.98,22.07-34.56c7.19-15.82,11.15-32.45,12.45-49.72c0.62-8.21,0.33-16.44-0.6-24.65
		c-0.97-8.62-2.54-17.11-5.04-25.41c-9.28-30.81-26.85-55.85-52.69-75c-22.52-16.69-47.95-25.7-75.83-27.66
		c-13.55-0.95-27.01,0.18-40.3,3.15c-23.79,5.31-44.89,15.97-63.25,31.96c-16.03,13.96-28.34,30.72-36.99,50.16
		c-7.24,16.27-11.18,33.35-12.07,51.08c-0.35,6.93,0.2,13.93,0.63,20.88c0.53,8.6,2.26,17.02,4.64,25.29
		c7.91,27.51,22.63,50.73,44.28,69.44c24.9,21.52,53.97,32.89,86.71,34.84c11.06,0.66,22.11-0.16,33.03-2.18
		c23.69-4.4,44.97-14.12,63.82-29.13c2.85-2.27,5.55-4.72,8.57-7.3c-0.92-0.2-1.43-0.35-1.95-0.41c-6.07-0.74-12.17-1.32-18.22-2.22
		c-8.99-1.34-17.74-3.6-26.22-6.99c-16.49-6.58-23.95-22.41-24.29-36.47c-0.42-17.45,0.13-34.92,0.21-52.38
		c0.05-11.44-0.04-22.88,0.06-34.32c0.04-4.2-0.54-8.29-1.92-12.2c-5.06-14.36-12.31-27.54-21.83-39.44
		c-2.49-3.11-5.25-5.97-8.8-7.94c-1.77-0.98-3.48-1.14-5.5-0.45c-5.12,1.78-8.26,5.56-10.48,10.15c-5.07,10.5-10,21.07-14.83,31.68
		c-0.88,1.93-1.86,2.67-4,2.66c-15.71-0.09-31.43-0.04-47.14-0.05C113.5,156.94,112.68,156.85,111.76,156.79z"/>
	<path class="st0" d="M212.28,243.36c-0.06,33.2-27.4,59.73-60.05,59.43c-31.31-0.29-58.89-25.74-58.83-59.51
		c0.05-33.46,27.34-59.47,59.74-59.34C185.62,184.07,212.28,210.77,212.28,243.36z M173.05,243.04c0,9.99-0.01,19.98,0,29.96
		c0,4.17,3.05,7.49,7.03,7.33c3.92-0.16,7.16-2.74,7.17-7.28c0.05-19.98,0.04-39.95,0.01-59.93c-0.01-4.3-3.13-7.34-7.3-7.28
		c-4.32,0.07-7.03,3.83-6.97,7.41C173.15,223.18,173.05,233.11,173.05,243.04z M132.39,243.04c0-9.93,0.01-19.86-0.01-29.79
		c0-0.89-0.05-1.82-0.32-2.66c-1.06-3.29-4.4-5.25-7.81-4.68c-3.65,0.61-6.08,3.5-6.09,7.38c-0.02,19.86-0.05,39.71,0.02,59.57
		c0.02,4.94,3.42,7.46,7.19,7.42c4.54-0.05,7.11-3.41,7.06-7.46C132.3,262.9,132.39,252.97,132.39,243.04z M152.88,247.91
		c2.64,0,5.29,0.04,7.93-0.01c4.16-0.08,7.24-3.02,7.3-6.9c0.06-4.28-2.9-7.54-7.16-7.62c-5.35-0.11-10.7-0.11-16.05,0
		c-4.27,0.09-7.32,3.39-7.25,7.57c0.07,3.93,3.24,6.9,7.47,6.95C147.71,247.94,150.3,247.92,152.88,247.91z"/>
</g>
</svg>
