<?xml version="1.0" encoding="utf-8"?>
<!-- Generator: Adobe Illustrator 28.3.0, SVG Export Plug-In . SVG Version: 6.00 Build 0)  -->
<svg version="1.1" id="Capa_1" xmlns="http://www.w3.org/2000/svg" xmlns:xlink="http://www.w3.org/1999/xlink" x="0px" y="0px"
	 viewBox="0 0 400 400" style="enable-background:new 0 0 400 400;" xml:space="preserve">
<style type="text/css">
	.st0{fill:#B3B3B3;}
</style>
<g>
	<path class="st0" d="M116.93,186.96c-11.06-9.82-28.51-6.9-39.77,6.29c-2.01,2.02-3.77,4.09-6.07,6.77
		c-1.58-1.54-3.18-3.06-4.84-4.51c-6.73-5.91-14.55-8.62-23.26-4.83c-3.56,1.55-6.88,3.92-9.85,6.46
		c-5.99,5.11-11.68,10.58-17.65,16.06c3.15-1.35,6.5-2.35,9.37-4.12c4.42-2.72,8.45-6.05,12.75-8.98c7.4-5.04,15.06-4.85,21.83,0.97
		c2.04,1.76,3.89,3.75,5.68,5.81c-0.7,0.78-1.43,1.59-2.22,2.46c-5.32,4.99-7.78,8.05-12.59,8.26c-4.94,0.08-10.07,0.16-13.22-1.2
		c3.82,3.8,9.54,4.6,14.08,4.66c4.79-0.09,10.94-2.53,17.66-8.45c0.22-0.19,0.43-0.38,0.64-0.57c3.15,3.89,5.95,8.11,9.46,11.64
		c10.99,11.04,27.49,11.67,38.55,1.85c5.02-4.45,7.78-10.64,8.27-16.95C126.8,201.04,123.64,192.92,116.93,186.96z M86.32,215.11
		c-1.92-1.57-3.61-3.44-5.39-5.2c-1.52-1.5-3.02-3.02-4.51-4.55c1.59-1.62,3.22-3.3,5.2-5.25c1.78-1.75,3.46-3.62,5.39-5.2
		c6.12-5.01,14.88-4.06,19.98,1.16c0.47,0.98,1.15,1.86,1.66,2.83c1.73,3.22,2.08,6.62,0.82,10.05
		C106.03,218.25,94.06,221.45,86.32,215.11z"/>
	<path class="st0" d="M277.82,185.1c1.12-5.16,2.28-10.14,3.25-15.16c0.28-1.44,0.89-2.07,2.25-2.16c1.31-0.08,2.63-0.27,3.94-0.26
		c4.75,0.02,5.99,1.59,5,6.19c-0.91,4.26-1.82,8.52-2.74,12.78c-2.38,11.1-4.81,22.18-7.11,33.3c-0.6,2.92-1.96,5.17-4.53,6.62
		c-8.66,4.88-17.81,6.02-27.26,2.87c-6.63-2.21-10.06-7.12-10.08-14.19c-0.03-7.97,2.19-15.28,7.14-21.69
		C254.15,185.05,267.02,181.04,277.82,185.1z M262.89,221.67c2.06-0.52,4.17-0.92,6.17-1.61c0.69-0.24,1.46-1.12,1.62-1.84
		c1.62-7.15,3.07-14.35,4.69-21.5c0.36-1.58-0.16-2.23-1.51-2.78c-6.17-2.54-14.14-0.1-17.39,5.89c-1.65,3.04-2.65,6.54-3.35,9.95
		C251.65,216.93,255.49,221.33,262.89,221.67z"/>
	<path class="st0" d="M156.77,210.27c-1.34,6.18-2.63,11.92-3.8,17.68c-0.24,1.16-0.67,1.72-1.83,1.77c-2,0.1-4,0.4-5.99,0.3
		c-2.98-0.15-4.22-1.83-3.61-4.75c2.99-14.15,6.02-28.28,9.04-42.43c0.92-4.33,1.88-8.65,2.76-12.99c0.25-1.23,0.74-2.02,2.11-2.06
		c1.8-0.06,3.6-0.32,5.39-0.21c3.44,0.21,4.67,1.94,3.96,5.29c-0.98,4.6-1.99,9.2-2.98,13.8c-1.03,4.8-2.05,9.61-3.06,14.41
		c-0.03,0.12,0.04,0.27,0.11,0.73c3.11-2.52,6.09-4.94,9.06-7.37c3.81-3.11,7.62-6.24,11.43-9.36c1.56-1.28,4.13-1.24,6.14,0.08
		c1.82,1.21,2.64,3.2,1.65,5.24c-0.76,1.56-1.89,3.11-3.24,4.18c-4.52,3.56-9.22,6.89-13.84,10.32c-0.61,0.45-1.2,0.92-1.99,1.53
		c2.25,2.67,4.42,5.25,6.6,7.82c2.2,2.59,4.34,5.23,6.65,7.72c1,1.08,0.92,1.94,0.34,3.12c-1.99,4.11-5.41,6.21-9.17,4.84
		c-1.85-0.67-3.57-2.35-4.79-3.99c-3.32-4.44-6.34-9.1-9.48-13.67C157.84,211.74,157.43,211.2,156.77,210.27z"/>
	<path class="st0" d="M207.07,231.18c-2.8-0.38-5.66-0.54-8.4-1.19c-8.34-1.96-11.32-7.74-8.4-15.87
		c2.54-7.09,8.25-9.97,15.09-11.08c4.72-0.76,9.5-1.14,14.27-1.53c1.44-0.12,2.02-0.65,2.29-2.01c0.58-2.96-0.45-5.02-3.34-6.06
		c-3.52-1.26-7.13-0.94-10.68-0.21c-2.43,0.5-4.84,1.23-7.17,2.08c-1.32,0.48-1.91,0.11-2.44-1.01c-1.13-2.39-0.31-5.87,2.34-7.24
		c2.6-1.34,5.5-2.26,8.38-2.87c4.92-1.05,9.92-1.11,14.87,0.06c8.25,1.96,11.48,7.13,9.69,15.42c-1.5,6.97-3.08,13.92-4.45,20.91
		c-0.67,3.43-2.74,5.5-5.66,6.95C218.3,230.08,212.81,231,207.07,231.18z M219.75,209.37c-5,0.77-9.55,1.44-14.08,2.19
		c-0.65,0.11-1.26,0.55-1.83,0.93c-1.79,1.21-2.92,3.9-2.45,5.79c0.56,2.24,2.34,3.29,4.3,3.27c3.48-0.03,6.97-0.51,10.44-0.91
		c0.49-0.06,1.21-0.63,1.33-1.09C218.26,216.37,218.92,213.15,219.75,209.37z"/>
	<path class="st0" d="M313.6,231.37c-3.44-0.68-7-1-10.29-2.11c-6.08-2.05-8.96-7.41-7.76-14.33c1.16-6.67,2.72-13.28,4.12-19.91
		c0.61-2.91,1.18-5.83,1.95-8.7c0.18-0.66,1.03-1.49,1.68-1.6c1.9-0.31,3.86-0.49,5.78-0.37c3.3,0.21,4.47,1.76,3.82,4.98
		c-1.43,7.05-2.98,14.08-4.46,21.12c-0.27,1.28-0.54,2.58-0.63,3.89c-0.29,4.27,1.38,6.37,5.64,6.88c1.77,0.21,3.62,0.2,5.39-0.05
		c4.94-0.7,5.07-0.95,6.12-5.87c2.05-9.61,4.16-19.2,6.18-28.81c0.26-1.23,0.77-1.84,2.01-1.88c2-0.06,4.02-0.38,5.99-0.19
		c2.9,0.29,3.89,1.67,3.35,4.56c-0.94,5.03-2.05,10.03-3.12,15.04c-1.17,5.48-2.46,10.93-3.54,16.42c-0.61,3.12-2.28,5.23-5.06,6.66
		C325.97,229.57,320.29,230.87,313.6,231.37z"/>
	<path class="st0" d="M346.57,225.5c0.75-3.46,1.63-7.51,2.5-11.57c1.36-6.29,2.75-12.56,4.04-18.86c0.61-2.99,2.2-5.24,4.76-6.74
		c6.8-3.98,14.18-5.42,21.99-4.57c1.92,0.21,3.83,0.81,4.43,2.89c0.69,2.39-0.31,4.51-1.82,6.32c-0.29,0.35-1.13,0.43-1.67,0.35
		c-4.71-0.69-9.24-0.02-13.71,1.49c-1.49,0.5-2.21,1.36-2.52,2.87c-2.07,9.88-4.25,19.74-6.29,29.63c-0.32,1.57-0.9,2.52-2.54,2.58
		c-1.93,0.07-3.88,0.28-5.8,0.11C347.49,229.77,346.49,228.45,346.57,225.5z"/>
</g>
</svg>
