<?xml version="1.0" encoding="utf-8"?>
<!-- Generator: Adobe Illustrator 28.3.0, SVG Export Plug-In . SVG Version: 6.00 Build 0)  -->
<svg version="1.1" id="Capa_1" xmlns="http://www.w3.org/2000/svg" xmlns:xlink="http://www.w3.org/1999/xlink" x="0px" y="0px"
	 viewBox="0 0 400 400" style="enable-background:new 0 0 400 400;" xml:space="preserve">
<style type="text/css">
	.st0{fill:#B3B3B3;}
</style>
<g>
	<path class="st0" d="M218.99,50.08c0.99,0.41,1.28,1.05,1.62,1.65c25.64,45.07,51.28,90.13,76.93,135.2
		c8.35,14.67,16.71,29.34,25.06,44c1.39,2.45,1.4,2.45-1.3,2.45c-14.05,0-28.09-0.03-42.14,0.04c-1.62,0.01-2.24-0.51-2.73-2.05
		c-7.98-25.35-16.04-50.68-24.07-76.01c-9.36-29.53-18.69-59.06-28.04-88.59C222.58,61.29,220.82,55.81,218.99,50.08z"/>
	<path class="st0" d="M73.86,231c34.74-60.62,69.28-120.88,103.81-181.13c0.16,0.06,0.32,0.12,0.48,0.18
		c-0.73,2.38-1.43,4.76-2.18,7.13c-4.98,15.69-9.98,31.37-14.97,47.06c-5.11,16.09-10.22,32.17-15.34,48.26
		c-5.26,16.55-10.53,33.11-15.78,49.66c-2.91,9.18-5.82,18.35-8.71,27.54c-0.26,0.83-0.58,1.32-1.56,1.32
		C104.53,230.99,89.44,231,73.86,231z"/>
	<path class="st0" d="M325.9,275.6c7.26,0,14.53-0.14,21.79,0.04c6.34,0.16,9.22,3.01,9.45,9.32c0.39,10.61,0.39,21.23,0.01,31.84
		c-0.25,6.86-3.23,9.67-10.2,9.73c-14.04,0.12-28.08,0.06-42.13,0c-1.64-0.01-3.32-0.41-4.92-0.86c-3.14-0.87-4.54-3.28-5.13-6.27
		c-0.17-0.89-0.27-1.8-0.27-2.7c-0.02-10.41-0.01-20.82-0.01-31.23c0-0.21,0-0.42,0.01-0.63c0.35-6.01,3.16-9.02,9.19-9.18
		C311.09,275.46,318.5,275.61,325.9,275.6z M325.99,316.87c5.8,0,11.6-0.05,17.41,0.03c1.5,0.02,2.06-0.31,2.04-1.95
		c-0.08-9.44-0.07-18.87-0.01-28.31c0.01-1.51-0.32-2.05-1.95-2.04c-11.74,0.07-23.49,0.06-35.23,0.01
		c-1.5-0.01-2.07,0.31-2.06,1.95c0.08,9.44,0.09,18.87-0.01,28.31c-0.02,1.78,0.66,2.05,2.19,2.03
		C314.24,316.82,320.12,316.87,325.99,316.87z"/>
	<path class="st0" d="M211.54,301.18c0-7.9,0.04-15.79-0.04-23.69c-0.02-1.64,0.44-2.11,2.1-2.09c11.67,0.16,23.34-0.34,35,0.26
		c8.44,0.43,16.11,3.05,21.13,10.48c7.15,10.57,5.2,30.25-8.68,37.23c-3.49,1.75-7.23,2.52-11.08,2.8
		c-12.28,0.88-24.57,0.15-36.86,0.43c-1.65,0.04-1.58-0.83-1.58-1.94C211.54,316.83,211.54,309,211.54,301.18z M223.65,300.67
		c0,3.42-0.04,6.84,0.01,10.27c0.03,1.87-0.8,4.28,0.34,5.48c1.25,1.31,3.71,0.43,5.63,0.42c5.93-0.03,11.87,0.41,17.77-0.52
		c3.61-0.57,7.14-1.46,9.87-4.11c3.56-3.45,4.1-7.88,4.06-12.54c-0.08-8.85-5.53-14.65-14.37-14.88
		c-7.19-0.18-14.38-0.08-21.57-0.18c-1.41-0.02-1.79,0.48-1.77,1.82C223.69,291.17,223.65,295.92,223.65,300.67z"/>
	<path class="st0" d="M135.75,291.1c0.71,5.44,0.47,10.44,0.49,15.44c0.03,6.08-0.03,12.16,0.03,18.24c0.01,1.32-0.3,1.88-1.74,1.81
		c-2.44-0.11-4.89-0.09-7.33,0c-1.25,0.04-1.72-0.3-1.72-1.62c0.04-16,0.03-32,0.01-48c0-1.19,0.41-1.59,1.59-1.54
		c1.81,0.08,3.63,0.05,5.45,0.01c0.83-0.02,1.46,0.27,2.08,0.79c12.71,10.71,25.42,21.4,38.12,32.11c0.78,0.65,1.41,1.48,2.37,2.5
		c0.3-2.75-0.17-5-0.18-7.25c-0.04-8.66,0.03-17.33-0.06-25.99c-0.02-1.78,0.53-2.29,2.24-2.18c2.16,0.14,4.34,0.14,6.49,0
		c1.67-0.11,2.12,0.45,2.11,2.1c-0.07,11.67-0.04,23.34-0.04,35.01c0,4.12-0.04,8.25,0.02,12.37c0.02,1.24-0.34,1.6-1.63,1.73
		c-4.3,0.41-7.74-0.69-11.14-3.69c-10.89-9.6-22.12-18.81-33.21-28.18C138.46,293.68,137.29,292.52,135.75,291.1z"/>
	<path class="st0" d="M102.41,326.56c-5.29,1.52-8.11-1.13-9.66-5.8c-1.49-4.51-4.45-5.77-9.16-5.48
		c-7.87,0.48-15.79,0.21-23.69,0.07c-1.91-0.03-2.91,0.59-3.69,2.25c-1.22,2.58-2.69,5.05-3.97,7.6c-0.5,1.01-1.13,1.41-2.27,1.38
		c-2.86-0.08-5.73-0.04-8.6-0.02c-1.06,0.01-1.84,0.08-0.98-1.43c9.17-16.14,18.29-32.3,27.41-48.47c0.5-0.9,1.1-1.28,2.15-1.25
		c2.86,0.07,5.73,0.06,8.6,0c1.03-0.02,1.64,0.31,2.16,1.23c9.21,16.12,18.44,32.23,27.7,48.32c0.76,1.32,0.48,1.67-0.96,1.6
		C105.76,326.51,104.08,326.56,102.41,326.56z M62.56,306.08c7.25,0,14.09-0.01,20.93,0.01c1.57,0,0.85-0.85,0.54-1.45
		c-1.88-3.58-3.78-7.16-5.69-10.73c-1.45-2.71-2.91-5.41-4.53-8.41C69.98,292.49,66.38,299.08,62.56,306.08z"/>
	<path class="st0" d="M196,153.61c1,11.37,2.04,22.73,3,34.11c0.76,8.95,1.41,17.9,2.15,26.85c0.47,5.69,0.99,11.37,1.57,17.05
		c0.13,1.26-0.07,1.8-1.46,1.78c-3.91-0.06-7.83-0.05-11.74,0c-1.25,0.02-1.43-0.35-1.31-1.6c1.21-12.33,2.25-24.68,3.51-37
		c1.3-12.74,2.66-25.46,3.68-38.23C195.48,155.56,196.23,154.69,196,153.61z"/>
	<path class="st0" d="M150.94,350.08c-0.91,0-1.82,0.03-2.72-0.01c-0.94-0.04-1.55-0.52-1.78-1.47c-0.08-0.35-0.21-0.7,0.18-0.92
		c0.36-0.2,0.76-0.35,1.13,0.05c1.78,1.92,3.99,0.62,6,0.74c0.69,0.04,0.49-0.85,0.52-1.38c0.03-0.7-0.35-1.01-1.02-1.01
		c-1.54-0.01-3.07-0.08-4.61-0.02c-1.69,0.06-1.94-0.96-1.92-2.3c0.02-1.32,0.02-2.61,1.86-2.62c1.74,0,3.49-0.02,5.23,0.01
		c1.06,0.02,1.79,0.51,1.63,1.67c-0.08,0.59-0.47,0.98-1.13,0.41c-0.82-0.71-5.03-1.18-5.78-0.69c-0.5,0.33-0.42,0.84-0.41,1.32
		c0.02,0.75,0.53,0.89,1.14,0.89c1.47,0.01,2.93,0.03,4.4,0.03c1.75,0,2,1.11,2,2.53c-0.01,1.44-0.13,2.73-2,2.77
		C152.75,350.1,151.85,350.08,150.94,350.08C150.94,350.08,150.94,350.08,150.94,350.08z"/>
	<path class="st0" d="M79.1,341.14c5.51-0.01,5.03-0.41,5.03,5.11c0,3.85-0.01,3.85-3.85,3.85c-0.98,0-1.95,0-2.93,0
		c-3.17-0.01-3.5-0.32-3.53-3.41c0-0.07,0-0.14,0-0.21C73.75,339.97,74.03,341.26,79.1,341.14z M78.92,342.41
		c-0.42,0-0.84,0.05-1.25-0.01c-1.67-0.23-2.31,0.34-2.27,2.15c0.11,4.08,0.01,4.09,4.1,4.08c3.48-0.01,3.01,0.21,3.04-2.78
		C82.56,342.41,82.55,342.41,78.92,342.41z"/>
	<path class="st0" d="M238.7,350.1c-5.21,0-5.21,0-5.19-5.3c0.01-3.49,0.18-3.66,3.63-3.66c1.46,0,2.92,0.06,4.38-0.02
		c1.63-0.09,2.29,0.67,2.28,2.22c-0.01,0.56,0.02,1.11,0.02,1.67C243.83,350.1,243.83,350.1,238.7,350.1z M238.64,348.63
		c0.49,0,0.98-0.05,1.46,0.01c1.67,0.23,2.32-0.33,2.27-2.15c-0.11-4.08-0.01-4.09-4.27-4.08c-3.4,0.01-2.97-0.28-2.95,2.84
		C235.18,349.04,234.51,348.58,238.64,348.63z"/>
	<path class="st0" d="M308.64,345.6c0-4.47,0-4.47,4.47-4.47c0.49,0,0.97,0,1.46,0c3.13,0.01,3.71,0.75,2.69,3.78
		c-0.2,0.6,0.02,0.86,0.18,1.28c0.96,2.52,0.05,3.83-2.7,3.9c-0.56,0.01-1.11,0-1.67,0C308.64,350.1,308.64,350.1,308.64,345.6z
		 M312.98,348.62c0.8,0,1.42-0.01,2.04,0c0.93,0.03,1.13-0.5,1.14-1.32c0.01-1.76-1.35-1.45-2.2-1.25
		c-1.23,0.29-3.34-1.27-3.61,1.19C310.07,349.71,312.23,348.12,312.98,348.62z M313.08,344.71c0.49,0,0.98,0.01,1.47,0
		c0.78-0.01,1.59,0.04,1.61-1.12c0.02-1.12-0.72-1.21-1.54-1.22c-1.05-0.02-2.1,0.02-3.14-0.01c-0.9-0.03-1.21,0.37-1.2,1.26
		c0.01,0.83,0.37,1.12,1.13,1.09C311.96,344.69,312.52,344.7,313.08,344.71z"/>
	<path class="st0" d="M268.22,345.62c0-4.48,0-4.48,4.44-4.48c0.77,0,1.54-0.06,2.3,0.02c0.62,0.06,1.68-0.43,1.73,0.54
		c0.06,1.06-1.04,0.61-1.63,0.64c-1.25,0.07-2.51,0.05-3.76,0.02c-0.94-0.02-1.4,0.29-1.37,1.32c0.03,1.06,0.7,0.94,1.4,1.07
		c0.92,0.17,2.61-0.63,2.59,0.68c-0.02,1.11-1.74,0.46-2.7,0.56c-0.82,0.09-1.28,0.26-1.29,1.2c-0.01,0.92,0.23,1.45,1.27,1.43
		c1.53-0.03,3.07,0,4.6,0.01c0.52,0,0.99,0.06,1,0.76c0.01,0.75-0.53,0.69-1.01,0.7c-1.05,0.01-2.09,0-3.14,0
		C268.22,350.1,268.22,350.1,268.22,345.62z"/>
	<path class="st0" d="M203.16,350.08c-4.17,0-4.17,0-4.17-4.1c0-4.81,0-4.81,4.75-4.81c0.98,0,1.95,0,2.93,0.02
		c0.35,0.01,0.73,0.05,0.78,0.51c0.06,0.64-0.45,0.61-0.84,0.61c-1.46,0.02-2.93,0.04-4.39,0.01c-0.98-0.02-1.56,0.18-1.53,1.37
		c0.03,1.22,0.83,0.97,1.56,1.1c0.86,0.15,2.44-0.61,2.43,0.62c-0.01,1.12-1.6,0.49-2.47,0.55c-0.97,0.07-1.54,0.18-1.53,1.37
		c0.01,1.19,0.58,1.39,1.56,1.36c1.25-0.04,2.51-0.04,3.76,0.01c0.55,0.02,1.4-0.32,1.46,0.68c0.06,1.1-0.85,0.66-1.36,0.7
		C205.12,350.12,204.14,350.08,203.16,350.08z"/>
	<path class="st0" d="M254.62,345.57c-0.01-4.54-0.01-4.54,5.19-4.44c3.51,0.07,5.14,1.91,4.71,5.34c-0.2,1.61-1.09,2.75-2.59,3.24
		c-2.1,0.68-4.29,0.33-6.44,0.36c-0.79,0.01-0.86-0.57-0.86-1.15C254.61,347.81,254.62,346.69,254.62,345.57z M258.64,348.63
		c0.28,0,0.56,0.01,0.83,0c2.5-0.06,3.59-0.98,3.61-3.04c0.02-1.97-0.98-2.9-3.35-3.12c-3.68-0.34-3.68-0.34-3.67,3.33
		C256.06,348.62,256.06,348.62,258.64,348.63z"/>
	<path class="st0" d="M166.36,345.71c0-4.95,0-4.95,5.83-4.57c3.23,0.21,5.12,3.07,4.01,6.11c-0.48,1.31-1.35,2.3-2.8,2.56
		c-0.82,0.15-1.66,0.26-2.49,0.27C166.36,350.17,166.36,350.15,166.36,345.71z M167.97,345.42c0,3.21,0,3.21,2.62,3.21
		c3.09,0,4.24-0.8,4.29-2.99c0.05-2.4-1.16-3.04-4.73-3.29C167.35,342.16,168.04,343.95,167.97,345.42z"/>
	<path class="st0" d="M134.7,345.51c0-4.38,0-4.38,4.36-4.38c0.84,0,1.68-0.04,2.51,0.01c0.57,0.03,1.51-0.28,1.55,0.56
		c0.04,0.89-0.91,0.61-1.47,0.63c-1.33,0.05-2.65,0.04-3.98,0.02c-0.91-0.01-1.43,0.28-1.4,1.32c0.03,1.06,0.73,0.93,1.42,1.06
		c0.88,0.17,2.5-0.6,2.51,0.55c0,1.4-1.64,0.55-2.53,0.68c-0.91,0.14-1.39,0.34-1.4,1.37c-0.01,1.09,0.59,1.27,1.45,1.27
		c1.33,0,2.66-0.03,3.98,0.03c0.62,0.03,1.6-0.31,1.57,0.8c-0.03,0.99-0.94,0.61-1.48,0.63c-1.75,0.05-3.5-0.07-5.24,0.05
		c-1.48,0.1-2.02-0.43-1.87-1.89C134.78,347.34,134.7,346.42,134.7,345.51z"/>
	<path class="st0" d="M192.63,346.94c1.13,1.06,2.06,1.93,3.09,2.9c-1.24,0.45-2.06,0.3-2.79-0.57c-0.67-0.8-1.45-1.5-2.24-2.19
		c-0.77-0.67-1.76-0.53-2.59-0.27c-0.73,0.23-0.33,1.09-0.43,1.67c-0.11,0.62,0.29,1.58-0.83,1.56c-1.15-0.02-0.71-1-0.73-1.59
		c-0.05-1.88,0.05-3.76-0.05-5.64c-0.07-1.26,0.3-1.78,1.62-1.7c1.46,0.09,2.92-0.03,4.38,0.04c1.16,0.05,2.65-0.49,2.98,1.4
		C195.52,345.23,195.06,346.17,192.63,346.94z M190.27,345.48c0.52,0,0.86-0.01,1.21,0c1.12,0.03,2.1-0.01,2.12-1.57
		c0.01-1.48-0.83-1.73-2.02-1.67c-0.69,0.03-1.4,0.08-2.08-0.01c-1.52-0.19-1.89,0.52-1.83,1.92
		C187.75,346.51,189.55,344.98,190.27,345.48z"/>
	<path class="st0" d="M118.32,346.93c1.13,1.01,2.1,1.87,3.19,2.84c-1.1,0.57-1.88,0.36-2.63-0.39c-0.73-0.74-1.55-1.4-2.28-2.15
		c-0.75-0.77-1.69-0.67-2.54-0.47c-0.97,0.22-0.42,1.16-0.55,1.77c-0.13,0.61,0.3,1.55-0.86,1.51c-1.13-0.03-0.78-0.96-0.8-1.57
		c-0.04-1.88,0.08-3.76-0.05-5.63c-0.1-1.47,0.55-1.78,1.82-1.73c1.6,0.07,3.2,0.05,4.8,0c1.33-0.04,2.45,0.24,2.52,1.79
		c0.07,1.47,0.5,3.19-1.63,3.75C119.09,346.72,118.84,346.79,118.32,346.93z M115.98,345.48c0.58,0,1-0.02,1.41,0
		c1.22,0.08,1.98-0.22,1.95-1.7c-0.03-1.39-0.8-1.58-1.89-1.54c-0.69,0.03-1.4,0.09-2.07-0.01c-1.69-0.25-1.96,0.6-1.88,2.03
		C113.62,346.49,115.3,345,115.98,345.48z"/>
	<path class="st0" d="M328.15,346.93c1.15,1.05,2.1,1.91,3.21,2.91c-1.17,0.38-1.94,0.35-2.64-0.43c-0.7-0.77-1.5-1.45-2.25-2.18
		c-0.82-0.79-1.85-0.68-2.76-0.44c-0.91,0.24-0.4,1.18-0.53,1.81c-0.11,0.55,0.27,1.45-0.72,1.42c-0.97-0.02-0.65-0.91-0.66-1.46
		c-0.04-1.95,0.06-3.91-0.04-5.85c-0.07-1.36,0.53-1.66,1.73-1.58c1.39,0.08,2.79-0.01,4.18,0.03c1.26,0.04,2.77-0.39,3.02,1.64
		C331.03,345.52,330.69,346.18,328.15,346.93z M326.2,345.48c0.95-0.29,2.68,0.75,2.96-1.36c0.12-0.89-0.11-1.9-1.18-1.79
		c-1.59,0.15-3.4-0.94-4.77,0.7c-0.04,0.04-0.01,0.14-0.02,0.2C322.81,345.19,323.17,345.48,326.2,345.48z"/>
	<path class="st0" d="M211.04,345.62c-0.02-4.78-0.36-4.51,4.56-4.49c0.91,0.01,1.81-0.01,2.72,0.01c1.56,0.05,1.72,1.14,1.68,2.34
		c-0.02,0.53-0.43,0.67-0.85,0.75c-0.45,0.09-0.66-0.2-0.64-0.59c0.09-1.28-0.74-1.26-1.63-1.24c-5.38,0.12-4.27-0.81-4.46,4.31
		c-0.05,1.44,0.39,2.07,1.87,1.92c0.83-0.08,1.67-0.01,2.51-0.02c0.84,0,1.77,0.13,1.7-1.19c-0.03-0.52,0.26-0.76,0.78-0.71
		c0.5,0.04,0.73,0.34,0.74,0.83c0.05,1.32-0.26,2.44-1.83,2.51c-1.74,0.08-3.49,0.06-5.23,0.02c-1.22-0.03-1.96-0.61-1.93-1.94
		C211.06,347.3,211.04,346.46,211.04,345.62z"/>
	<path class="st0" d="M345.05,350.1c-0.63,0-1.26-0.03-1.88,0.01c-1.84,0.11-2.71-0.75-2.71-2.58c-0.03-7.52-0.36-6.31,6.14-6.38
		c1.31-0.01,2.79-0.25,3.05,1.66c0.09,0.64,0.07,1.25-0.79,1.44c-0.93,0.2-0.85-0.42-0.86-0.97c-0.01-0.82-0.6-0.78-1.16-0.84
		c-4.28-0.48-5.59,1.01-4.7,5.3c0.12,0.59,0.36,0.88,0.93,0.88c1.32,0.01,2.65,0.01,3.97,0.02c0.87,0.01,1.01-0.54,0.99-1.24
		c-0.02-0.52,0.24-0.77,0.77-0.69c0.44,0.07,0.8,0.24,0.85,0.75c0.13,1.31-0.1,2.44-1.67,2.61c-0.96,0.11-1.95,0.02-2.92,0.02
		C345.05,350.07,345.05,350.08,345.05,350.1z"/>
	<path class="st0" d="M50.21,345.07c0-0.91,0.01-1.82,0-2.73c-0.01-0.6,0.03-1.14,0.83-1.17c0.82-0.03,0.86,0.51,0.86,1.11
		c0,1.54,0.06,3.08-0.02,4.61c-0.06,1.23,0.31,1.71,1.62,1.76c4.54,0.16,4.47,0.21,4.6-4.31c0.03-1.04-0.94-3.07,0.85-3.01
		c1.58,0.05,0.72,2.07,0.74,3.17c0.1,5.59,0.05,5.59-5.09,5.59C50.21,350.1,50.21,350.1,50.21,345.07z"/>
	<path class="st0" d="M88.4,345.65c0-4.52,0-4.52,4.62-4.52c0.49,0,0.97,0,1.46,0c2.84,0.01,3.95,1.62,2.96,4.32
		c-0.34,0.92-1.08,1.21-1.98,1.21c-1.25,0-2.51,0.09-3.76-0.02c-1.31-0.11-1.72,0.38-1.63,1.66c0.04,0.62,0.51,1.71-0.78,1.75
		c-1.29,0.03-0.82-1.03-0.87-1.69C88.35,347.47,88.4,346.56,88.4,345.65z M93.2,342.25c-0.35,0-0.56-0.01-0.77,0
		c-1.1,0.05-2.37-0.42-2.38,1.6c-0.01,2.03,1.27,1.55,2.37,1.59c0.69,0.02,1.39,0,2.09,0c1.07,0,1.44-0.56,1.43-1.59
		C95.92,341.54,94.17,342.49,93.2,342.25z"/>
	<path class="st0" d="M362.92,349.79c-0.86,0.45-1.39,0.38-1.91-0.34c-1.6-2.21-5.94-2.26-7.45-0.09c-0.37,0.54-0.79,0.94-1.33,0.65
		c-0.79-0.44-0.01-0.98,0.18-1.34c1.14-2.23,2.34-4.43,3.59-6.61c0.75-1.31,1.77-1.41,2.55-0.09
		C360.07,344.53,361.46,347.16,362.92,349.79z M359.27,346.57c-0.31-1.48-1.12-2.57-1.89-3.88c-1.09,1.18-1.71,2.42-2.08,3.88
		C356.66,346.57,357.9,346.57,359.27,346.57z"/>
	<path class="st0" d="M48.13,349.86c-0.87,0.31-1.41,0.34-1.87-0.33c-0.41-0.59-0.47-1.58-1.47-1.59c-1.68-0.02-3.36-0.08-5.02,0.06
		c-0.77,0.06-0.8,1.05-1.15,1.63c-0.33,0.54-0.84,0.6-1.26,0.38c-0.55-0.28-0.14-0.7,0.05-1.05c1.27-2.33,2.5-4.68,3.84-6.97
		c0.74-1.26,1.82-1.22,2.55,0.05C45.25,344.57,46.63,347.15,48.13,349.86z M42.45,342.42c-0.46,0.83-0.76,1.37-1.05,1.92
		c-1.28,2.38-1.28,2.3,1.46,2.34c1.71,0.02,1.75-0.55,0.95-1.77C43.36,344.21,43.02,343.46,42.45,342.42z"/>
	<path class="st0" d="M97.91,349.81c1.46-2.68,2.86-5.39,4.4-8.01c0.65-1.09,1.68-0.99,2.31,0.07c1.42,2.39,2.73,4.85,4.08,7.27
		c0.17,0.3,0.4,0.68-0.06,0.85c-0.54,0.2-1.21,0.18-1.41-0.48c-0.67-2.23-2.48-1.55-3.98-1.61c-1.51-0.06-3.12-0.36-3.75,1.69
		C99.3,350.25,98.64,350.18,97.91,349.81z M105.53,346.59c-0.69-1.5-1.01-3.44-2.15-3.54c-0.96-0.08-1.37,1.94-1.9,3.1
		c-0.04,0.1,0.05,0.26,0.09,0.44C102.79,346.59,104.02,346.59,105.53,346.59z"/>
	<path class="st0" d="M300.18,341.15c0.67-0.05,0.98,0.24,1.24,0.72c1.3,2.37,2.64,4.73,3.95,7.1c0.18,0.33,0.56,0.78-0.01,1.03
		c-0.43,0.19-1.04,0.2-1.28-0.34c-1.44-3.22-4.24-1.32-6.41-1.66c-0.9-0.14-0.91,1.08-1.35,1.65c-0.35,0.46-0.81,0.56-1.28,0.3
		c-0.44-0.24-0.14-0.61,0.01-0.89c1.3-2.37,2.62-4.73,3.93-7.1C299.26,341.46,299.6,341.03,300.18,341.15z M302.37,346.56
		c-0.66-1.3-1.15-2.29-1.67-3.25c-0.26-0.48-0.65-0.9-0.98-0.09c-0.46,1.11-1.41,2.03-1.45,3.34
		C299.59,346.56,300.82,346.56,302.37,346.56z"/>
	<path class="st0" d="M286.75,345.66c0-4.53,0-4.53,4.63-4.53c0.91,0,1.82-0.01,2.73,0.01c0.43,0.01,0.91,0.09,0.88,0.65
		c-0.03,0.53-0.5,0.6-0.93,0.6c-1.54,0.01-3.08,0.06-4.61,0.01c-1.2-0.04-1.31,0.63-1.35,1.59c-0.04,1.05,0.55,1.02,1.3,1.12
		c0.9,0.11,2.52-0.56,2.55,0.55c0.04,1.55-1.64,0.73-2.53,0.79c-1.59,0.11-1.21,1.17-1.32,2.09c-0.06,0.54,0.33,1.44-0.66,1.47
		c-1.04,0.03-0.63-0.88-0.67-1.42C286.71,347.62,286.75,346.64,286.75,345.66z"/>
	<path class="st0" d="M226.65,341.14c1.19,0,2.37-0.01,3.56,0.01c0.47,0.01,1.09-0.05,1.06,0.67c-0.02,0.54-0.53,0.52-0.95,0.59
		c-2.97,0.47-2.97,0.48-2.97,3.53c0,1.05,0,2.09-0.01,3.14c-0.01,0.51-0.06,0.97-0.76,1.01c-0.76,0.04-0.97-0.37-0.96-1.03
		c0-1.4-0.1-2.8,0.02-4.19c0.16-1.79-0.28-2.79-2.34-2.48c-0.51,0.08-1.47,0.36-1.48-0.6c-0.01-0.96,0.92-0.61,1.48-0.64
		C224.41,341.1,225.53,341.13,226.65,341.14z"/>
	<path class="st0" d="M127.54,341.14c1.26,0,2.51-0.02,3.77,0.01c0.45,0.01,1.08-0.1,1.06,0.65c-0.01,0.56-0.51,0.54-0.92,0.6
		c-0.95,0.13-2.18-0.43-2.8,0.35c-0.74,0.94-0.23,2.28-0.3,3.45c-0.06,0.97-0.01,1.95-0.02,2.93c0,0.53-0.11,0.97-0.8,0.95
		c-0.71-0.02-0.73-0.52-0.73-1.02c-0.01-1.46-0.1-2.94,0.01-4.39c0.14-1.66-0.33-2.55-2.16-2.26c-0.27,0.04-0.56,0.02-0.84-0.01
		c-0.47-0.04-1.07,0.04-1.01-0.71c0.05-0.57,0.56-0.53,0.96-0.54C125.03,341.13,126.28,341.14,127.54,341.14z"/>
	<path class="st0" d="M66.94,341.14c1.25,0,2.5-0.01,3.76,0.01c0.39,0,0.91-0.08,0.92,0.54c0.01,0.51-0.33,0.68-0.82,0.73
		c-0.95,0.09-2.21-0.44-2.79,0.3c-0.78,0.99-0.22,2.41-0.31,3.65c-0.05,0.69,0.03,1.39-0.02,2.08c-0.05,0.62,0.32,1.55-0.78,1.6
		c-1.19,0.06-0.78-0.93-0.8-1.51c-0.06-1.46-0.1-2.93,0-4.38c0.1-1.4-0.44-1.92-1.78-1.74c-0.14,0.02-0.28,0.03-0.42,0
		c-0.66-0.16-1.87,0.41-1.81-0.69c0.05-1.02,1.24-0.5,1.92-0.56C64.99,341.07,65.96,341.14,66.94,341.14z"/>
	<path class="st0" d="M181.72,345.63c0,1.18,0.01,2.36,0,3.54c0,0.56-0.22,0.91-0.86,0.91c-0.67-0.01-0.79-0.44-0.79-0.96
		c0-2.29,0-4.58,0-6.87c0-0.54,0.2-1,0.78-1.04c0.77-0.06,0.88,0.49,0.88,1.1C181.73,343.41,181.73,344.52,181.72,345.63
		C181.73,345.63,181.72,345.63,181.72,345.63z"/>
	<path class="st0" d="M336.3,345.58c0,1.12,0,2.23,0,3.35c0,0.58-0.02,1.13-0.83,1.15c-0.8,0.03-0.91-0.46-0.91-1.08
		c0-2.23,0-4.46,0-6.69c0-0.59,0.02-1.13,0.84-1.15c0.95-0.02,0.92,0.63,0.92,1.28C336.3,343.48,336.3,344.53,336.3,345.58z"/>
</g>
</svg>
