<?xml version="1.0" encoding="utf-8"?>
<!-- Generator: Adobe Illustrator 28.3.0, SVG Export Plug-In . SVG Version: 6.00 Build 0)  -->
<svg version="1.1" id="Capa_1" xmlns="http://www.w3.org/2000/svg" xmlns:xlink="http://www.w3.org/1999/xlink" x="0px" y="0px"
	 viewBox="0 0 400 400" style="enable-background:new 0 0 400 400;" xml:space="preserve">
<style type="text/css">
	.st0{fill:#B3B3B3;}
</style>
<g>
	<g>
		<path class="st0" d="M181.59,224.17c-0.47,0.02-0.94,0.03-1.41,0.05c-2.13-0.01-4.25-0.02-6.38-0.03
			c-0.73-0.01-1.46-0.01-2.19-0.02c-4.24,0.01-8.48,0.01-12.72,0.02c-1.92-0.19-3.84-0.36-5.76,0.02c-0.3-0.69-2.82,0.82-1.47-1.49
			c5.84-6.63,11.68-13.26,17.53-19.89c2.06-2.32,4.84-1.57,7.29-1.39c2.98,0.23,3.25-0.96,2.86-3.43
			c-1.95-12.4-3.8-24.82-5.68-37.23c-0.04-1.37-1.88-6.15-0.54-7.01c5.57-4.98,10.31-10.72,15.08-16.44
			c0.17-0.18,0.34-0.36,0.5-0.54c0.71-0.32,1.16-0.86,1.41-1.59c1.01-1.9,2.86-3.1,3.95-5.07c0.68-1.23,1.54,0.5,1.86,1.49
			c1.35,9.67,2.67,19.35,4.05,29.02c3.75,26.27,7.5,52.55,11.3,78.81c0.31,2.12-0.35,2.64-2.39,2.6c-3.88-0.08-7.77,0.12-11.66,0.2
			c-0.89-0.16-2.86-0.25-3.41-0.18c-0.51,0.06-4.7,0.27-6.8,0.02c-0.93-0.11-1.65,0.16-1.84-1.27c-0.74-5.48-1.68-10.94-2.55-16.4
			C182.35,224.06,182.01,223.97,181.59,224.17z"/>
		<path class="st0" d="M274.53,187.56c-1.63,3.72-3.2,7.47-4.23,11.41c-1.47,3-2.65,6.11-3.49,9.35c-3.8,10-7.58,20.01-11.42,30
			c-0.54,1.39-0.69,3.04-2.12,3.98c-6.49-0.07-12.97-0.18-19.46-0.21c-8.83-0.05-8.73,0.01-5.72-8.33
			c3.22-8.95,7.11-17.66,9.67-26.85c4.4-9.85,7.9-20.04,11.45-30.21c0.35-0.84,0.7-1.67,1.04-2.51c0.7-3.5,2.84-4.78,6.29-4.11
			c0.32,0.06,0.69-0.09,1.04-0.14c0.71,0.01,1.41,0.02,2.12,0.02c6.12,0.06,12.25,0.19,18.37,0.12c2.19-0.02,2.67,0.47,1.85,2.59
			C278,177.6,276.31,182.6,274.53,187.56z"/>
		<path class="st0" d="M309.27,172.1c0.54-1.25,1.2-2.06,2.86-2.04c8.75,0.1,17.5,0.05,26.85,0.05c-2.64,7.43-5.17,14.55-7.7,21.67
			c0,0,0.01,0.01,0.01,0.01c-0.15,0.3-0.3,0.6-0.45,0.9c-2.12,5.68-4.24,11.37-6.36,17.05c-0.48,0.89-1.02,1.75-0.92,2.83
			c-0.76,1.07-1.18,2.27-1.33,3.57c-1.61,3.15-2.84,6.44-3.72,9.87c-1.8,4.6-3.67,9.17-5.36,13.8c-0.57,1.56-1.3,2.27-3.04,2.26
			c-8.04-0.07-16.08-0.03-24.13,0c-1.27,0-2.44,0.02-2.2-1.78C284.2,239.62,301.19,194.18,309.27,172.1z"/>
		<path class="st0" d="M369.7,171.96c0.61-1.84,1.51-2.7,3.51-2.67c5.78,0.08,11.56,0.08,17.34-0.03c2.73-0.05,2.9,1.11,2.13,3.29
			c-2.42,6.88-4.74,13.79-7.1,20.69c-0.49,1.45-6.13,18.61-8.02,23.94c-2.6,7.34-5.19,14.7-7.51,22.13
			c-0.74,2.37-1.79,3.18-4.21,3.13c-6.5-0.14-14.5-0.05-21-0.05C344.82,241.67,365.25,185.37,369.7,171.96z"/>
		<path class="st0" d="M106.32,241.78c-2.8,0-5.6,0-9.15,0c3.1-3.75,10.52-12.29,11.07-12.9c6.03-6.8,12.11-13.56,18.11-20.38
			c7.33-8.32,14.6-16.7,21.89-25.05l5.81-6.97l6.45-7.11c1.75,0.5,1.78,1.99,1.83,3.36l0.84,5.12l1.34,8.52c0,0,0.04,0.95,0.07,1.41
			c0.02,0.47,0.04,0.93,0.06,1.4c0.8,4.21-1.42,7.3-3.85,10.3c-1.05,0.47-4.05,4.17-4.78,5.3c-0.78,0.87-5.47,6.04-7.04,7.75
			c-5.12,4.87-9.42,10.5-14.19,15.69c-3.67,3.99-7.32,8-10.85,12.11c-1,1.16-2.06,1.36-3.4,1.37c-3.07,0-6.13,0.07-9.2,0.1
			C109.65,241.79,107.98,241.79,106.32,241.78z"/>
		<path class="st0" d="M304.38,136.63c0.67-1.55,2.04-1.29,3.32-1.3c6.95-0.05,13.9-0.11,20.85-0.16c0.48,0,0.96,0.01,1.44,0.01
			c12.7,0,25.39,0,38.65,0c-4.16,7.79-4.29,15.13-0.15,22.88c-21.42,0-42.38,0-63.34,0c-0.71,0-1.42,0-2.14,0
			c-1.9-0.02-3.8-0.05-5.7-0.07c-0.15-0.14-0.33-0.19-0.53-0.15C299.32,150.77,301.85,143.7,304.38,136.63z"/>
		<path class="st0" d="M269.63,157.92c-0.73-2.38,1.44-4.14,1.38-6.38c1.89-4.99,3.84-9.96,5.65-14.97
			c0.59-1.64,1.85-1.15,2.93-1.21c1.29-0.08,2.59-0.02,4.24-0.02c-0.78,2.25-1.53,4.21-2.12,6.21c-0.27,0.91-1.43,2.26-0.08,2.78
			c1.73,0.67,1.52-1.38,1.97-2.26c0.74-1.46,1.2-3.07,1.67-4.64c0.47-1.56,1.31-2.16,3.05-2.16c5.2-0.01,5.21-0.11,3.42,4.92
			c-1.65,4.66-3.54,9.25-4.92,14c-0.83,2.85-2.21,4.15-5.13,3.79c-0.71,0-1.43,0-2.14,0c-0.23,0-0.47,0-0.7,0
			c-1.25-0.78-0.35-1.66-0.07-2.46c1.09-3.11,2.26-6.18,3.32-9.3c0.23-0.69,1.19-1.6-0.2-2.2c-1.18-0.57-1.07,0.54-1.4,1.08
			c-2.05,4.17-2.66,8.92-5.21,12.88C273.42,157.95,271.53,157.93,269.63,157.92z"/>
		<path class="st0" d="M123.46,269.84c0.08-0.35,0.16-0.7,0.24-1.05c2.72-6.38,5.57-12.71,8.07-19.18c0.89-2.29,2.03-3.1,4.4-2.89
			c3.05,0.27,6.15,0.01,9.18,0.39c3.78,0.47,4.95,2.8,3.46,6.32c-1.05,2.46-2.7,4.5-5.14,5.63c-1.64,0.76-2.16,1.53-1.28,3.2
			c0.48,0.92,0.64,2.02,0.97,3.02c1.66,5,1.67,4.93-3.72,4.73c-1.42-0.05-2.13-0.44-2.46-1.81c-0.38-1.6-0.86-3.18-1.42-4.73
			c-0.28-0.78-0.15-1.88-1.59-1.95c-1.46-0.07-1.75,0.9-2.18,1.84c-0.25,0.53-0.46,1.08-0.68,1.63
			C129.18,270.16,129.18,270.16,123.46,269.84z M135.1,257.15c3.23,0.36,5.74,0.12,7.48-2.28c1.53-2.11,0.87-3.48-1.63-3.87
			C136.12,250.26,136.56,254.31,135.1,257.15z"/>
		<path class="st0" d="M320.01,259.41c1.66-2.98,3.21-6,5.81-8.35c4.1-3.7,8.89-4.73,14.09-3.58c3.58,0.79,3.99,3.9,4.13,6.96
			c-1.05,3.97-2.79,7.58-5.57,10.65c-1.5,1.15-3,2.3-4.5,3.45c-0.44,0.34-2.71,1.13-3.51,1.08c0,0-0.22,0.05-0.22,0.05
			c-2.49,0.52-4.95,0.2-7.4-0.24c-2.8-1.58-3.55-4.17-3.55-7.14C319.29,261.35,319.6,260.13,320.01,259.41z M335.69,260.15
			c1.04-1.04,1.4-2.43,1.82-3.76c0.48-1.51,0.68-3.17-0.61-4.32c-1.39-1.24-3.19-0.9-4.69-0.19c-2.55,1.21-4.27,3.27-5.14,5.99
			c-0.42,0.95-1.01,1.87-1.23,2.87c-0.32,1.47-0.7,3.11,0.78,4.25c1.51,1.16,3.19,0.78,4.67-0.02
			C333.28,263.89,334.94,262.41,335.69,260.15z"/>
		<path class="st0" d="M167.65,269.18c-0.75,1.4-2.07,0.85-3.17,0.87c-4.36,0.05-8.72,0.02-13.62,0.02
			c3.13-7.48,6.15-14.68,9.13-21.89c0.54-1.3,1.59-1.2,2.64-1.2c3.66,0,7.32-0.06,10.97,0.04c0.94,0.02,2.82-0.7,2.6,0.96
			c-0.19,1.4-0.27,3.75-2.91,3.64c-1.88-0.08-3.8,0.16-5.66-0.06c-2.62-0.3-3.99,0.7-4.28,3.56c2.89,0,5.77,0,8.69,0
			c0.25,2.03-1.05,3.31-1.41,4.87c-2.46,0-4.94,0.17-7.39-0.04c-3.36-0.29-3.73,2.56-3.88,4.34c-0.18,2.19,2.21,0.78,3.42,1.13
			c0.65,0.19,1.4,0.02,2.1,0.02C168.95,265.43,168.95,265.43,167.65,269.18z"/>
		<path class="st0" d="M244.16,246.82c2.81,0.29,5.62,0.43,8.42-0.07c1.87,0.09,3.74,0.27,5.61,0.24c1.45-0.02,1.58,0.6,1.14,1.71
			c-0.41,0.94-0.82,1.88-1.23,2.83c-2.8,0.02-5.61,0.06-8.41,0.06c-1.19,0-2.42-0.13-2.59,1.55c-0.17,0.1-0.21,0.24-0.12,0.41
			c-0.3,0.43-0.99,0.92-0.49,1.41c0.7,0.69,1.68,0.31,2.54,0.16c1.89,0,3.79,0,5.68,0c1.47,1.28-0.47,2.32-0.24,3.51
			c-1.9,2.77-4.74,0.84-7.08,1.4c-1.18,0.28-2.72-0.69-3.52,0.79c-0.65,1.21-1.6,2.72-1.35,3.86c0.34,1.5,2.18,0.55,3.36,0.73
			c0.92,0.14,1.91-0.12,2.81,0.08c1.03,0.23,3.09-1,2.9,1.02c-0.14,1.5-0.42,3.93-3.28,3.61c-1.62-0.18-3.28,0.03-4.93,0.07
			c-3,0-5.99,0-9.32,0c0.68-1.95,1.21-3.47,1.74-4.98c0.33-0.75,0.66-1.49,0.99-2.24c1.8-4.23,3.92-8.32,5.19-12.77
			C242.71,249.07,243.44,247.94,244.16,246.82z"/>
		<path class="st0" d="M193.67,246.75c1.99,0.11,3.99,0.15,5.98,0.33c5.18,0.48,6.75,3.34,4.42,8.01c-0.52,1.05-1.23,2-1.86,3
			c-3.29,3.12-7.08,5-11.73,4.5c-2.01-0.22-2.87,0.92-3.16,2.49c-0.84,4.54-3.68,5.73-7.82,4.97c0.01-0.46,0.03-0.93,0.04-1.39
			c1.94-3.39,3.23-7.06,4.64-10.67c1.3-3.19,2.61-6.38,3.91-9.56c0.17-0.35,0.33-0.71,0.5-1.06c0.19,0,0.27-0.1,0.25-0.29
			c0.65-0.11,1.31-0.22,1.96-0.32C191.76,247.06,192.72,247.06,193.67,246.75z M190.21,257.79c3.26,0.64,5.67,0.33,7.35-2.15
			c1.67-2.46,0.95-3.95-1.99-4.14C190.85,251.2,192.18,255.54,190.21,257.79z"/>
		<path class="st0" d="M271.06,270.07c-1.4-0.13-2.79-0.26-4.19-0.4c-1.4-0.43-2.8-0.86-4.2-1.29c-0.04-0.38-0.07-0.76-0.11-1.14
			c0.33-0.61,0.76-1.2,0.96-1.85c0.75-2.55,1.76-3.04,4.05-1.19c1.99,1.6,4.61,1.56,7.11,0.99c1.22-0.28,2.36-0.87,2.51-2.15
			c0.19-1.66-1.44-1.71-2.45-1.95c-2.42-0.57-4.83-1.05-6.54-3.07c-0.47-2.84,0.65-5.2,2.23-7.42c2.48-2.05,5.29-3.4,8.45-4.03
			c0.23-0.02,0.47-0.03,0.7-0.05c0.95-0.03,1.89-0.05,2.84-0.08c0.92,0.14,1.91,0.12,2.75,0.45c1.12,0.44,3.11,0.13,3.14,1.63
			c0.03,1.39-0.9,2.89-1.67,4.17c-0.69,1.14-1.38,0.01-1.98-0.38c-2.41-1.57-4.99-2.02-7.67-0.98c-1.27,0.5-3.03,1.18-1.14,3.04
			c0.44,0.49,0.93,0.82,1.63,0.63c0.46,0.07,0.92,0.14,1.38,0.22c2.07,1.11,4.76,1.43,5.47,4.27c-0.78,5.05-4.01,7.92-8.59,9.49
			C274.23,269.49,272.62,269.71,271.06,270.07z"/>
		<path class="st0" d="M372.51,250.06c-0.27,0.5-0.62,0.98-0.79,1.51c-0.58,1.76-1.17,2.46-3.07,1.01
			c-2.28-1.74-5.02-1.75-7.69-0.64c-0.77,0.33-1.46,0.89-1.49,1.8c-0.04,1.07,0.89,1.21,1.66,1.44c0.67,0.2,1.34,0.42,2.02,0.59
			c5.87,1.52,6.84,4.04,3.47,9c-0.39,0.57-0.81,1.13-1.22,1.69c-4.6,3.07-9.58,4.22-15.01,2.84c-1.4-0.36-3.21-0.5-2.64-2.79
			c1.08-3.03,2.5-4.36,5.55-1.71c1.02,0.89,2.82,1.22,4.41,0.82c1.58-0.4,3.74-0.51,3.88-2.48c0.14-2.12-2.2-1.76-3.5-2.12
			c-5.82-1.63-6.7-3.6-3.71-8.87c0.21-0.38,0.27-0.84,0.4-1.27c4.57-3.17,9.53-4.73,15.09-3.45
			C371.18,247.75,373.17,247.67,372.51,250.06z"/>
		<path class="st0" d="M293.78,157.94c-2.12,0-4.23,0-6.54,0c2.55-7.03,4.97-13.83,7.48-20.61c0.94-2.53,5.77-2.96,7.84-0.78
			c-2.57,7.06-5.14,14.13-7.71,21.19c0,0-0.21-0.05-0.21-0.05s-0.15,0.16-0.15,0.16C294.25,157.89,294.01,157.92,293.78,157.94z"/>
		<path class="st0" d="M113.98,250.83c-1.29,0.9-2.43,1.93-2.98,3.47c-4.8,3.66-8.44,8.47-12.36,12.95
			c-2.39,2.73-4.83,3.24-8.56,2.47c6.29-8.05,13.92-14.42,19.88-22.24c1.16-0.08,2.31-0.16,3.47-0.23
			C118.66,247.67,113.5,249.68,113.98,250.83z"/>
		<path class="st0" d="M268.18,152.96c-0.95,4.14-3.59,5.66-7.67,4.93c0.48-4.85,3.07-9.03,4.4-13.61c0.58-2.02,1.66-3.92,2.11-5.96
			c0.59-2.66,2.14-3.16,4.56-3.06c2.05,0.08,2.69,0.34,1.83,2.59C271.49,142.82,269.9,147.91,268.18,152.96z"/>
		<path class="st0" d="M254.02,157.95c-3.05,0.34-2.5-1.53-2.04-3.33c2.11-5.61,4.22-11.21,6.34-16.82c0.81-2.15,3.6-3.33,5.61-2.46
			c0.99,0.43,0.62,1.06,0.39,1.71c-2.26,6.45-4.57,12.88-6.77,19.34C256.88,158.36,255.24,157.55,254.02,157.95z"/>
		<path class="st0" d="M249.58,149.37c-0.8,2.02-1.74,3.99-2.35,6.07c-0.5,1.71-1.43,2.52-3.15,2.55c-0.93-0.06-1.86-0.12-2.79-0.18
			c1.22-5.62,4-10.71,5.48-16.24c0.52-1.31,1.23-2.58,1.51-3.94c0.66-3.17,3.07-2.46,4.99-2.18c1.57,0.23,0.47,1.47,0.22,2.22
			C252.22,141.58,250.89,145.47,249.58,149.37z"/>
		<path class="st0" d="M242.16,135.91c-1.56,4.47-3.13,8.94-4.69,13.41c-0.82,2.06-1.7,4.1-2.43,6.19c-0.45,1.27-0.81,2.83-2.49,2.2
			c-1.67-0.62-0.36-1.92-0.06-2.86c1.04-3.23,2.17-6.43,3.27-9.64c0.97-2.51,2.06-4.97,2.88-7.53c0.55-1.71,1.43-2.62,3.27-2.38
			C242,135.5,242.08,135.7,242.16,135.91z"/>
		<path class="st0" d="M113.25,154.71c-0.43,0.32-0.86,0.64-1.29,0.97c-4.36,2.98-8.78,5.88-13.06,8.97
			c-1.7,1.23-2.62,1.49-4.18-0.44c-3.84-4.77-8.9-7.56-15.18-7.77c-5.18-0.93-10.18-0.12-15.07,1.63
			c-5.03,1.23-9.56,3.47-13.57,6.75c-6.75,4.2-12.25,9.61-16.18,16.57c-0.27,0.47-0.53,0.93-0.8,1.4
			c-3.61,5.42-5.45,11.46-5.68,17.89c-0.34,9.73,5.72,18.21,14.91,20.76c6.71,1.86,13.48,1.65,20.08-0.87
			c5.27-1.32,9.95-3.8,14.15-7.2c2.78-0.04,5.57-0.08,8.35-0.12c3.55,0.01,7.1,0.01,10.64,0.02c1.19,0,2.37,0,3.56-0.01
			c1.77,0.1,3.54,0.2,5.71,0.33c-1.4,1.76-2.51,3.17-3.63,4.58c-1.48,1.42-2.96,2.84-4.44,4.27c-1.43,0.99-2.88,1.96-3.87,3.44
			c-1.86,1.44-3.71,2.88-5.57,4.33c-1.99,1.28-3.98,2.56-5.98,3.84c-10.93,5.93-22.27,10.66-34.86,11.59
			c-13.32,0.98-25.27-2.12-34.84-11.99c-5.87-6.05-8.01-13.68-9.02-21.75c-0.21-6.52,1.06-12.84,2.57-19.13
			c1.51-3.78,3.03-7.56,4.54-11.34c0.24-0.48,0.49-0.95,0.73-1.43c3.13-5.08,6.33-10.13,10.01-14.84c0.65-0.74,1.29-1.48,1.94-2.22
			c1.32-1.39,2.64-2.77,3.96-4.16c1.46-1.03,2.8-2.18,3.87-3.62c4.04-3.05,8.07-6.1,12.11-9.14c3.78-2.1,7.57-4.2,11.35-6.3
			c1.27-0.29,2.51-0.68,3.56-1.5c1.1,0,2-0.54,2.91-1.06c1.58-0.56,3.16-1.12,4.74-1.69c1.13-1.74,3.03-0.18,4.37-1.03
			c0.4-0.12,0.79-0.23,1.19-0.35c1.58-0.24,3.22-0.16,4.7-0.92l0.26,0.13l0.24-0.16c0.72-0.05,1.43-0.1,2.15-0.15
			c0.23-0.02,0.45-0.04,0.68-0.06c0.47-0.07,0.94-0.14,1.42-0.21c1.44-0.06,2.88-0.12,4.32-0.18c5.25,0.18,10.4,1.22,15.58,1.96
			c1,0.52,1.79,1.27,2.91,1.73c6,2.46,10.66,6.6,14.44,11.86c1.32,1.83,1.07,2.72-0.81,3.75
			C115.76,152.57,114.55,153.73,113.25,154.71z"/>
		<path class="st0" d="M89.99,255.93c-4.05,4.28-8.17,8.49-12.12,12.86c-1.79,1.99-4.05,1.57-5.9,1.06
			c-1.94-0.54-0.11-1.68,0.43-2.26c5.52-5.98,11.1-11.89,16.66-17.84c0.4-0.43,0.67-0.97,1-1.46c1.44-1.2,3.21-0.83,4.86-1.02
			c0.73,0.04,1.45,0.07,2.18,0.11C95.39,250.78,92.08,252.85,89.99,255.93z"/>
		<path class="st0" d="M89.24,267.16c-2.29,2.53-4.97,3.76-8.8,2.44c3.26-3.69,6.41-7.26,9.56-10.82c3.55-2.61,5.76-6.51,9.02-9.41
			c0.78-0.69,1.34-1.8,2.47-1.89c1.47-0.12,3.46-0.82,4.29,0.44c0.78,1.18-1.14,2.05-1.94,2.95
			C99.01,256.33,94.11,261.74,89.24,267.16z"/>
		<path class="st0" d="M207.38,267.83c-1.01-2.73-0.06-5.28,0.72-7.84c1.2-2.67,2.6-5.28,3.53-8.04c0.95-2.81,2.28-4.91,5.47-5.24
			c1.55,0.26,2.59,0.55,1.59,2.64c-1.86,3.9-3.47,7.93-5.03,11.96c-1.3,3.37-0.44,4.26,3.43,3.82c2.12,0.02,3.2-1.53,3.88-3.08
			c1.92-4.37,3.61-8.84,5.38-13.27c1.04-2.39,3.16-1.72,5.03-1.79c1.34-0.05,1.49,0.75,1.33,1.79c-2.16,4.97-4.33,9.95-6.49,14.92
			c-2.06,2.77-4.68,4.78-7.99,5.85c-1.09,0.19-2.18,0.37-3.28,0.56C212.25,269.94,209.49,269.96,207.38,267.83z"/>
		<path class="st0" d="M297.34,255.88c0.91-1.21,1.74-2.46,1.81-4.27c-2.04,0-4.01,0-6.08,0c0.19-3.47,1.58-4.93,5.11-4.67
			c4.33,0.32,8.71,0.05,13.06,0.11c0.9,0.01,2.61-0.62,2.48,0.84c-0.12,1.38-0.22,3.45-2.47,3.69c-0.47,0.05-0.96,0.1-1.41,0.01
			c-4.14-0.9-5.62,1.45-6.14,4.99c-1.11,1.49-1.71,3.19-2.17,4.96c-0.61,0.55-0.78,1.27-0.84,2.05c-3.47,6.83-3.47,6.83-8.68,6.18
			c1.16-2.97,2.3-5.91,3.44-8.85C296.29,259.32,297.27,257.77,297.34,255.88z"/>
		<path class="st0" d="M95.71,201.1c-2.14-0.37-4.28-0.31-6.42,0.02c-2.12-0.36-4.25-0.38-6.37,0c-5.23-0.39-10.45-0.41-15.68-0.03
			c-1.76-0.08-3.51-0.23-5.27-0.22c-1.29,0.01-2.07-0.3-1.83-1.77c2.21-5.93,4.42-11.87,6.64-17.8c1.06-4.65,4.82-2.73,7.63-3.14
			c3.78-0.08,7.57-0.16,11.35-0.24c11.44,0.08,22.87,0.25,34.31,0.17c2.58-0.02,3.73,0.63,3.39,3.26c-0.01,0.48-0.02,0.95-0.03,1.43
			c-1.13,5.68-2.86,11.09-6.5,15.76c-1.34,1.72-2.78,2.48-5.03,2.43C106.5,200.84,101.1,201.03,95.71,201.1z"/>
		<circle class="st0" cx="385.48" cy="145.3" r="11.1"/>
	</g>
</g>
</svg>
