<?xml version="1.0" encoding="utf-8"?>
<!-- Generator: Adobe Illustrator 28.3.0, SVG Export Plug-In . SVG Version: 6.00 Build 0)  -->
<svg version="1.1" id="Capa_1" xmlns="http://www.w3.org/2000/svg" xmlns:xlink="http://www.w3.org/1999/xlink" x="0px" y="0px"
	 viewBox="0 0 400 400" style="enable-background:new 0 0 400 400;" xml:space="preserve">
<style type="text/css">
	.st0{fill:#B3B3B3;}
</style>
<g>
	<path class="st0" d="M35.16,198.56c0.44-9.31,3.8-17.32,10.75-24.01c8.57-8.26,16.71-16.96,25.11-25.38
		c7.31-7.33,14.77-14.5,22.1-21.81c7.25-7.25,14.39-14.62,21.62-21.88c6.14-6.16,12.36-12.24,18.52-18.38
		c5.04-5.03,10.03-10.11,15.07-15.14c6.24-6.24,12.49-12.47,18.77-18.67c3.81-3.76,7.26-7.88,11.49-11.21
		c9.21-7.24,19.3-9.25,30.64-5.9c8.68,2.56,14.26,9.01,20.27,14.97c13.15,13.07,26.2,26.25,39.3,39.36
		c13.71,13.72,27.52,27.34,41.13,41.15c9.52,9.65,18.71,19.63,28.18,29.33c6.05,6.19,12.6,11.91,18.44,18.29
		c4.16,4.55,7.2,9.97,7.94,16.38c0.84,7.3,0.23,14.29-3.26,20.93c-2.61,4.96-6.61,8.74-10.41,12.65
		c-6.23,6.4-12.75,12.51-19.06,18.83c-8.87,8.88-17.75,17.75-26.56,26.69c-13.65,13.86-27.48,27.55-41.16,41.39
		c-12.74,12.88-25.62,25.61-38.38,38.47c-6.5,6.55-14.16,10.53-23.47,10.8c-9.13,0.26-17.22-2.52-23.82-9.03
		c-8.67-8.55-17.34-17.1-25.94-25.72c-9.55-9.58-18.98-19.28-28.54-28.85c-8.44-8.45-17.2-16.58-25.42-25.23
		c-7.11-7.49-14.67-14.54-21.51-22.32c-5.52-6.28-11.8-11.9-17.72-17.83c-5.83-5.85-11.91-11.49-17.37-17.68
		C36.96,213.15,35.45,206.06,35.16,198.56z M200.4,219.5c44.83,0,89.66,0,134.49,0c1.46,0,2.94,0.04,4.39-0.12
		c5.34-0.59,8.75-4.29,8.83-9.67c0.08-5.41,0-10.81,0.02-16.22c0.01-2.6-0.77-4.76-2.77-6.59c-3.07-2.81-6.73-3.3-10.62-3.3
		c-89.32,0.01-178.64,0.01-267.97,0.01c-1.24,0-2.48-0.03-3.71,0.08c-6.86,0.6-10.1,4.12-10.13,11c-0.02,5.07-0.04,10.14,0.01,15.21
		c0.03,2.93,0.99,5.29,3.42,7.3c2.62,2.16,5.51,2.3,8.55,2.3C110.06,219.51,155.23,219.5,200.4,219.5z M206.29,330.34
		c0.97-0.06,1.56,0.05,2.03-0.14c5.05-2.13,10.26-3.93,14.97-6.83c4.92-3.03,9.33-6.65,12.43-11.52
		c8.42-13.27,1.83-29.55-5.88-38.16c-0.37-0.41-0.78-0.98-1.39-0.66c-0.93,0.48-0.23,1.11-0.03,1.69c1.54,4.53,1.9,9.2,1.39,13.92
		c-0.55,5.11-2.69,9.5-6.28,13.42c-0.61-1.16-0.29-1.92-0.12-2.67c2.26-10.16,0.13-19.38-5.98-27.72
		c-3.11-4.24-6.42-8.32-9.38-12.66c-4.21-6.19-8.21-12.54-2.64-20.35c-3.19,0.55-5.34,2.06-7.54,3.66
		c-8.23,5.97-12.51,13.79-12.02,24.11c0.15,3.1,1.28,5.93,1.82,8.91c1,5.45,2,10.93-1.76,15.87c-1.88,2.47-4.83,2.9-7.38,1.08
		c-5.54-3.97-7.35-11.49-4.55-18.83c0.51-1.34,1.49-2.57,1.06-4.16c-8.17,5.33-12.37,22.56-8.84,36.66
		c3.87,15.44,15.51,23.16,26.24,23.31c-4.19-1.93-7.15-5.31-9.29-9.04c-2.14-3.72-4.35-7.76-3.64-12.89c0.65,0.56,1,0.81,1.28,1.11
		c3.83,4.02,8.4,5.64,13.74,3.75c5.5-1.94,8.01-6.17,8.19-11.89c0.14-4.57-0.75-8.91-2.55-13.13c-2.29-5.36-2.19-13.07,0.12-17.18
		c0.09,2.82,0.6,5.29,1.38,7.78c2.3,7.3,6.18,13.92,8.91,21.05c3.15,8.25,3.2,16.16-0.31,24.2
		C209.2,325.43,208.02,327.8,206.29,330.34z M200.13,70.53c-1.29,0.04-2.11,0.71-2.66,1.98c-0.88,2.03-2.13,3.89-2.98,5.93
		c-3.77,9.07-6.69,18.25-2.27,27.97c1.06,2.33,2.28,4.6,3.57,6.82c3.14,5.43,4.47,11.57,6.58,17.3c0-4.3,0.01-8.56,0-12.83
		c-0.03-7.82-2.87-15.23-3.34-23C198.55,86.58,198.31,78.5,200.13,70.53z M178.39,164.12c0,3.37-0.01,6.74,0,10.1
		c0.01,1.43,0.17,2.71,2.11,2.74c5.62,0.09,11.27,0.26,16.63-1.78c4.25-1.61,6.57-4.89,7-9.39c0.42-4.52-0.72-8.32-4.85-11.01
		c-6.06-3.94-12.76-2.72-19.31-2.87c-1.64-0.04-1.56,1.32-1.57,2.43C178.36,157.6,178.38,160.86,178.39,164.12z M226.98,164.66
		c2.63-1.84,5.91-3.02,5.31-6.83c-0.58-3.67-3.64-5.17-6.76-5.62c-3.75-0.54-7.62-0.26-11.44-0.33c-1.12-0.02-1.63,0.61-1.63,1.68
		c-0.01,7.31-0.01,14.61-0.01,21.92c0,1.13,0.59,1.58,1.69,1.57c1.11-0.02,1.66-0.53,1.66-1.63c0.01-1.69,0.02-3.37,0.02-5.06
		c0-5.06,1.5-6.17,6.43-4.66c2,0.61,3.55,1.87,4.57,3.75c1.12,2.05,2.57,3.91,3.46,6.11c0.6,1.46,2.09,1.98,3.38,1.27
		c1.41-0.78-0.07-1.74-0.41-2.52C231.78,170.81,229.82,167.6,226.98,164.66z M252.12,151.82c-0.4,0.06-1.37-0.16-1.99,1.07
		c-3.79,7.48-7.67,14.91-11.52,22.36c-0.25,0.48-0.73,1.04-0.14,1.46c0.4,0.28,1.05,0.31,1.59,0.29c1.32-0.05,2.2-1.1,2.39-2.09
		c0.95-5.01,4.33-5.64,8.53-5.14c1.11,0.13,2.28,0.2,3.37-0.01c4.53-0.87,7.15,1.26,8.65,5.27c0.59,1.59,1.68,2.66,3.3,1.88
		c1.76-0.84,0.29-2.25-0.14-3.1c-3.44-6.79-7.04-13.49-10.54-20.25C254.95,152.3,254.09,151.64,252.12,151.82z M281.5,151.44
		c-1.27,0.15-2.86,0.18-4.38,0.54c-2.81,0.67-5.01,2.35-5.46,5.27c-0.44,2.84,1.65,4.36,3.86,5.75c2.64,1.66,5.75,1.91,8.49,3.16
		c2.06,0.94,4.36,1.97,3.75,4.85c-0.61,2.85-2.9,3.82-5.56,4.01c-3.18,0.23-6.27-0.06-9.16-1.62c-0.69-0.37-1.66-1.25-2.28,0.04
		c-0.59,1.23,0.2,1.76,1.31,2.18c5.38,2.04,10.66,2.3,16.07-0.09c2.46-1.09,3.4-3.05,3.47-5.27c0.07-2.3-1.06-4.24-3.53-5.18
		c-3.04-1.16-5.95-2.65-9.11-3.49c-2.15-0.57-3.67-1.99-3.68-4.22c-0.01-2.25,2-2.65,3.78-3.17c2.89-0.86,5.55,0.16,8.26,0.82
		c0.85,0.21,1.95,0.77,2.38-0.31c0.5-1.25-0.71-1.66-1.62-2.11C286.09,151.6,283.93,151.69,281.5,151.44z M150.94,164.19
		c0,3.26,0,6.52,0,9.79c0,1.41,0.11,2.91,1.96,2.94c5.06,0.08,10.12,0.03,15.18,0.02c0.74,0,1.45-0.26,1.45-1.05
		c0-0.87-0.81-0.94-1.5-0.94c-2.25-0.01-4.5-0.01-6.75-0.01c-7.45,0-7.39,0-6.87-7.6c0.12-1.76,0.78-2.37,2.46-2.33
		c2.92,0.06,5.85,0.03,8.77-0.01c0.85-0.01,2.04,0.15,1.93-1.21c-0.08-1.01-1.07-0.99-1.86-1c-2.81-0.02-5.63-0.11-8.43,0.02
		c-2.24,0.11-3.08-0.8-2.84-2.96c0.09-0.78,0.09-1.58,0-2.36c-0.29-2.3,0.56-3.24,2.97-3.1c3.14,0.17,6.3,0.05,9.45,0.03
		c1.08-0.01,2.51,0.28,2.5-1.41c-0.01-1.61-1.43-1.11-2.32-1.12c-4.5-0.05-9,0.04-13.5-0.05c-1.9-0.04-2.65,0.72-2.62,2.57
		C150.98,157.67,150.94,160.93,150.94,164.19z M108.42,164.48c0.01,0,0.01,0,0.02,0c0,3.6,0.01,7.19,0,10.79
		c0,1.28,0.62,1.81,1.88,1.78c1.15-0.03,1.6-0.64,1.62-1.7c0.02-1.8,0.12-3.6,0.01-5.39c-0.13-2.16,0.68-3.04,2.91-2.94
		c2.92,0.14,5.85,0.01,8.61-1.17c4.65-1.98,6.7-5.66,4.81-9.41c-1.52-3.02-4.55-4.23-7.8-4.46c-3.13-0.22-6.29-0.01-9.43-0.14
		c-2.16-0.09-2.69,0.94-2.64,2.86C108.49,157.96,108.42,161.22,108.42,164.48z M161.49,132.25c0.52-5.98-0.08-11.34-1.23-16.63
		c-1.98-9.12-2.66-18.13,1.64-26.71c-2.8,2.28-4.32,5.56-5.71,8.81c-2.8,6.56-4.65,13.37-0.66,20.09
		C158.16,122.23,159.49,127.08,161.49,132.25z M234.74,131.03c0.75-13.33-4.82-26.34-0.9-39.68c-3.63,4.28-5.42,9.3-6.74,14.48
		c-0.88,3.46-0.56,6.92,1.15,10.17C230.81,120.83,233.54,125.58,234.74,131.03z M140.67,164.29c0-3.48-0.03-6.96,0.02-10.44
		c0.02-1.34-0.34-2.14-1.87-2.09c-1.48,0.05-1.5,0.99-1.5,2.07c0.01,6.96,0,13.92,0,20.88c0,1.15-0.05,2.34,1.63,2.33
		c1.61-0.01,1.72-1.11,1.72-2.3C140.68,171.25,140.68,167.77,140.67,164.29z"/>
	<path class="st0" d="M269.76,202.29c2.48,2.05,3.75,4.44,5.3,6.61c1.12,1.57,0.46,1.76-1.01,2.02c-3.34,0.57-5.29-1.08-6.68-3.82
		c-1.01-2-2.35-3.56-4.75-3.85c-1.62-0.2-2.64,0.24-2.46,2.14c0.07,0.78-0.07,1.58,0.02,2.36c0.25,2.22-0.41,3.29-2.92,3.22
		c-2.27-0.06-3.24-0.68-3.14-3.11c0.16-4.27,0.08-8.56,0.03-12.83c-0.02-1.61,0.45-2.62,2.25-2.59c3.94,0.07,7.89-0.07,11.81,0.24
		c2.46,0.2,5.06,0.98,5.75,3.87C274.68,199.56,272.7,201.08,269.76,202.29z M264.19,195.32c-2.32-0.07-4.22-0.52-4.08,2.46
		c0.09,1.9,0.39,2.97,2.6,2.77c2.23-0.21,5.07,0.09,5.28-2.8C268.19,195.15,265.51,195.46,264.19,195.32z"/>
	<path class="st0" d="M237.86,192.38c2.86-0.63,4.27,0.69,5.45,3.22c1.84,3.95,4.29,7.61,6.21,11.52c0.49,1,2.11,2.47,0.71,3.47
		c-1.19,0.85-3.04,0.44-4.59,0.08c-0.29-0.07-0.67-0.34-0.77-0.61c-2.18-5.7-7.09-3.08-10.95-3.62c-1.53-0.21-2.07,1-2.79,2.02
		c-0.73,1.04-1.12,2.58-2.89,2.43c-1.11-0.09-2.49,0.43-3.25-0.42c-0.88-0.98,0.51-1.79,0.92-2.61c2.42-4.79,4.96-9.52,7.46-14.27
		C234.44,191.57,236.37,192.68,237.86,192.38z M241.33,203.59c-1.52-2.66-1.9-5.38-4.09-7.51c-0.35,0.87-0.67,1.44-0.82,2.06
		c-0.46,1.88-3.2,3.78-1.93,5.15C235.78,204.7,238.65,203.79,241.33,203.59z"/>
	<path class="st0" d="M315.77,210.45c-3.48,0.88-6.26,0.94-7.72-2.56c-0.53-1.27-1.48-1.51-2.7-1.48c-1.8,0.05-3.61,0.13-5.39-0.02
		c-2.02-0.17-3.48,0.36-4.33,2.31c-0.26,0.6-0.68,1.23-1.2,1.61c-1.39,1-3.18,0.99-4.48,0.3c-1.53-0.81,0.08-2.01,0.48-2.8
		c2.4-4.8,4.91-9.55,7.53-14.22c1.14-2.04,7.88-1.79,8.99,0.26C309.87,199.23,312.71,204.66,315.77,210.45z M302.01,196.26
		c-1.06,0.77-1.23,1.96-1.57,2.97c-0.48,1.44-2.44,2.99-1.55,4.06c1.07,1.3,3.35,0.3,5.1,0.48c0.22,0.02,0.45,0,0.67-0.05
		c0.84-0.18,1.2-0.7,0.66-1.41C303.9,200.47,303.94,197.82,302.01,196.26z"/>
	<path class="st0" d="M327.51,192.06c1.7,0.25,3.59,0.49,5.47,0.81c1.08,0.19,1.44,1.03,1.35,2.02c-0.13,1.39-1.16,1.07-2.04,0.96
		c-1.67-0.21-3.33-0.56-5.01-0.6c-1.36-0.03-3.24-0.43-3.42,1.72c-0.15,1.87,1.55,1.96,2.83,2.22c2.34,0.48,4.5,1.42,6.63,2.44
		c1.54,0.73,2.68,1.93,2.6,3.63c-0.09,1.85-0.99,3.35-2.87,4.21c-4.41,2.02-8.9,2.13-13.49,0.87c-1.36-0.37-2.82-0.96-2.22-2.71
		c0.66-1.94,2.06-0.62,3.04-0.25c2.4,0.9,4.81,1.14,7.27,0.53c0.98-0.24,1.99-0.78,2.13-1.92c0.13-1.07-0.89-1.44-1.63-1.92
		c-1.74-1.14-3.82-1.27-5.73-1.89c-2.41-0.78-4.92-1.79-4.79-4.84c0.13-3.12,2.72-4.14,5.29-4.77
		C324.35,192.22,325.85,192.24,327.51,192.06z"/>
	<path class="st0" d="M89.57,201.49c0-9.07,0-9.07,8.91-9.07c1.01,0,2.08-0.22,3.02,0.05c1.71,0.48,4.89-1.5,4.89,1.51
		c0,2.59-3.06,1.04-4.73,1.33c-1.42,0.25-2.92,0.12-4.37,0.04c-1.78-0.09-1.97,0.94-1.97,2.35c0,1.34,0.36,2.15,1.88,2.11
		c1.8-0.05,3.59-0.01,5.39,0.01c1.01,0.01,2.16-0.09,2.24,1.36c0.09,1.58-1.12,1.37-2.11,1.41c-0.56,0.02-1.21-0.18-1.67,0.04
		c-1.9,0.87-5.65-2.29-5.71,2.57c-0.06,5.17,3.87,2.01,5.91,2.72c1.11,0.38,2.45,0.07,3.68,0.08c1,0.01,1.82,0.32,1.75,1.52
		c-0.06,1-0.78,1.26-1.65,1.26c-4.49,0-8.99,0.02-13.48-0.01c-1.66-0.01-1.99-1.17-1.98-2.54
		C89.57,205.98,89.57,203.74,89.57,201.49z"/>
	<path class="st0" d="M196.24,192.07c2.38,0.32,4.56,0.11,6.55,1.06c1.14,0.54,1.84,1.46,1.29,2.71c-0.57,1.28-1.5,0.31-2.3,0.14
		c-2.2-0.45-4.39-0.93-6.67-0.59c-3.38,0.5-5.65,2.8-5.77,5.93c-0.13,3.44,1.87,5.94,5.43,6.58c2.6,0.47,5.15,0.23,7.54-1.04
		c0.72-0.38,1.46-0.8,2.01,0.18c0.52,0.92,0.28,1.73-0.53,2.38c-1.79,1.41-4,1.46-6.09,1.66c-4.35,0.41-8.82-0.05-12.03-3.09
		c-5.42-5.14-2.53-13.27,5.16-15.2C192.67,192.33,194.6,192.28,196.24,192.07z"/>
	<path class="st0" d="M111.5,201.38c0-8.96,0-8.96,8.89-8.96c1.46,0,2.92-0.08,4.38,0.02c1.2,0.08,3.1-0.62,3,1.57
		c-0.1,2.1-1.97,1.32-3.16,1.41c-1.56,0.12-3.15,0.13-4.71,0c-2.15-0.18-2.31,1.03-2.32,2.7c-0.01,1.62,0.32,2.56,2.22,2.43
		c1.79-0.13,3.59-0.04,5.38-0.01c0.92,0.01,1.87,0.05,1.91,1.33c0.04,1.27-0.87,1.41-1.81,1.43c-1.35,0.03-2.72,0.18-4.03-0.02
		c-3.04-0.45-3.99,0.81-3.68,3.73c0.19,1.77,0.69,3.87-2.49,3.96c-2.74,0.08-3.93-0.65-3.62-3.54
		C111.67,205.44,111.5,203.4,111.5,201.38z"/>
	<path class="st0" d="M216.6,192.42c2.92,0,5.84,0,8.76,0c1.18,0,2.39,0.01,2.36,1.63c-0.03,1.4-1.16,1.4-2.19,1.5
		c-5.88,0.59-5.88,0.6-5.87,6.54c0,1.8-0.1,3.6,0.03,5.39c0.17,2.26-0.23,3.54-3.01,3.5c-2.68-0.03-3.2-1.14-3.08-3.48
		c0.16-3.14-0.04-6.29,0.06-9.43c0.06-1.9-0.63-2.67-2.53-2.53c-1.23,0.09-2.47-0.07-3.7-0.08c-1.05-0.01-1.71-0.37-1.71-1.56
		c0.01-1.24,0.78-1.47,1.78-1.47C210.54,192.42,213.57,192.42,216.6,192.42z"/>
	<path class="st0" d="M285.59,201.67c0,2.02-0.11,4.05,0.03,6.07c0.16,2.23-0.48,3.2-2.94,3.24c-2.68,0.04-2.82-1.32-2.78-3.35
		c0.09-4.27,0.13-8.54-0.02-12.81c-0.08-2.31,1.08-2.51,2.9-2.51c1.88,0,2.99,0.41,2.84,2.62
		C285.47,197.16,285.59,199.42,285.59,201.67z"/>
	<path class="st0" d="M181.86,164.52c0-2.58-0.03-5.16,0.01-7.74c0.01-0.83-0.32-2.14,0.93-2.18c4.55-0.16,9.23-0.88,13.46,1.58
		c3.82,2.22,4.49,5.85,4.15,9.9c-0.33,3.9-2.52,6.28-6.01,7.69c-3.55,1.43-7.27,1.16-10.96,1.17c-1.45,0-1.59-0.89-1.58-2
		C181.87,170.13,181.86,167.33,181.86,164.52z"/>
	<path class="st0" d="M221.39,154.42c0.7,0.07,2.29,0.1,3.83,0.39c1.81,0.35,3,1.51,3.27,3.41c0.29,2-0.81,3.14-2.5,3.92
		c-2.76,1.28-5.69,1.19-8.62,1.09c-1.13-0.04-1.56-0.7-1.53-1.77c0.02-0.79-0.02-1.58-0.01-2.36
		C215.91,153.95,215.09,154.49,221.39,154.42z"/>
	<path class="st0" d="M252.5,154.77c2.21,4.22,4.07,7.77,5.93,11.32c0.61,1.16,0.54,1.93-1.04,1.93c-3.15-0.02-6.3-0.01-9.45-0.01
		c-1.03,0-2-0.27-1.39-1.53C248.37,162.7,250.33,159,252.5,154.77z"/>
	<path class="st0" d="M111.85,159.58c0-1.01,0.06-2.03-0.01-3.04c-0.12-1.65,0.68-2.19,2.22-2.12c2.14,0.1,4.29,0,6.41,0.2
		c2.73,0.26,4.82,1.45,4.74,4.6c-0.08,2.92-1.77,4.87-4.54,5.39c-2.3,0.43-4.71,0.2-7.07,0.28c-1.35,0.04-1.74-0.75-1.72-1.93
		c0.01-1.13,0-2.25,0-3.38C111.86,159.58,111.86,159.58,111.85,159.58z"/>
	<path class="st0" d="M152.65,208.71c-1.03-1.45-1.72-3.13-3.11-4.35c-1.49-1.31-1.6-2.19,0.4-3.43c3.11-1.94,2.86-4.99-0.19-6.97
		c-2.63-1.71-5.58-1.52-8.5-1.53c-9.29-0.04-9.29-0.04-9.29,9.3c0,2.03,0.13,4.06-0.03,6.07c-0.19,2.31,0.62,3.04,2.99,3.19
		c3.74,0.23,3.11-2.12,3.2-4.34c0.05-1.12-0.73-2.69,0.84-3.27c1.43-0.53,2.86-0.08,4.06,0.99c1.01,0.9,1.93,1.79,2.46,3.13
		c1.1,2.76,3.22,3.78,6.17,3.44C153.43,210.72,153.82,210.35,152.65,208.71z M140.87,200.54c-2.19,0.23-2.84-0.58-2.87-2.79
		c-0.03-2.59,1.36-2.64,3.21-2.48c1.83,0.28,4.66-0.47,4.56,2.47C145.68,200.53,142.98,200.32,140.87,200.54z"/>
	<path class="st0" d="M83.55,206.67c-0.36-0.88-1.31-1.51-1.99-2.26c-1.19-1.31-1.61-2.2,0.38-3.5c3.38-2.21,3.06-4.85-0.39-7.08
		c-1.6-1.03-3.36-1.29-5.15-1.34c-3.15-0.09-6.31,0.06-9.46-0.1c-2.33-0.12-2.93,0.93-2.8,3.03c0.12,2.02,0.03,4.05,0.03,6.08
		c0,2.03,0.18,4.07-0.04,6.08c-0.3,2.79,0.9,3.4,3.47,3.38c3.17-0.02,2.47-2.09,2.63-3.91c0.11-1.25-0.72-2.96,0.85-3.62
		c1.71-0.73,3.13,0.27,4.56,1.38c1.72,1.33,1.99,3.48,3.4,4.96c1.72,1.8,4.13,1.67,5.56,0.79
		C86.17,209.57,84.08,207.95,83.55,206.67z M72.83,200.52c-2.05,0.33-2.78-0.47-2.83-2.56c-0.05-2.37,1.02-2.98,3.04-2.67
		c1.9,0.3,4.93-0.72,4.74,2.59C77.63,200.75,74.83,200.29,72.83,200.52z"/>
	<path class="st0" d="M180.95,208.75c-2.19-3.77-3.95-7.8-6.24-11.5c-1.45-2.34-2.1-6.21-5.74-5c-2.21,0.24-3.98-0.42-4.96,1.35
		c-2.83,5.07-5.63,10.16-8.42,15.27c-0.44,0.8-0.88,1.85,0.63,1.96c2.09,0.16,4.53,0.63,5.4-2.08c0.66-2.06,1.91-2.46,3.8-2.35
		c1.9,0.12,3.82,0.09,5.73,0.01c1.51-0.06,2.61,0.34,3.15,1.88c0.94,2.65,3.09,2.78,5.44,2.63
		C181.41,210.81,181.99,210.55,180.95,208.75z M170.29,203.74c-1.85-0.12-4.37,0.95-5.33-0.63c-0.7-1.15,0.73-3.29,1.75-4.78
		c0.37-0.54,0.7-1.11,1.32-2.12c1.22,2.18,2.16,3.95,3.2,5.66C171.96,203.09,171.84,203.85,170.29,203.74z"/>
</g>
</svg>
