<?xml version="1.0" encoding="utf-8"?>
<!-- Generator: Adobe Illustrator 28.3.0, SVG Export Plug-In . SVG Version: 6.00 Build 0)  -->
<svg version="1.1" id="Capa_1" xmlns="http://www.w3.org/2000/svg" xmlns:xlink="http://www.w3.org/1999/xlink" x="0px" y="0px"
	 viewBox="0 0 400 400" style="enable-background:new 0 0 400 400;" xml:space="preserve">
<style type="text/css">
	.st0{fill:#B3B3B3;}
</style>
<g>
	<path class="st0" d="M12.12,173.45 M16.51,163.29c2.33-3.81,4.75-7.57,7.24-11.29c4.29-6.42,6.04-13.48,5.62-21.15
		c-0.23-4.26-0.32-8.51,0.35-12.77c0.38-2.44,1.44-4.37,3.13-6.11c2.65-2.72,5.55-5.13,8.5-7.5c1.61-1.29,3.17-2.64,4.82-3.88
		c6.7-5.02,10.96-11.62,13.03-19.74c1.05-4.13,2.26-8.22,4.35-12c0.93-1.68,2.13-2.94,3.8-3.92c4.48-2.63,9.4-4.19,14.17-6.12
		c1.27-0.52,2.56-1.01,3.85-1.48c7.24-2.63,12.91-7.17,17.02-13.71c1.13-1.8,2.51-3.46,3.62-5.27c3.64-5.96,8.92-8.82,15.89-8.93
		c4.74-0.07,9.47-0.54,14.2-0.77c6.81-0.34,12.86-2.64,18.23-6.83c2.76-2.16,5.64-4.16,8.44-6.27c4.14-3.12,8.65-3.79,13.63-2.44
		c5.77,1.57,11.58,2.96,17.37,4.41c5.48,1.37,10.87,1.01,16.24-0.72c4.7-1.51,9.27-3.43,14.14-4.45c3.04-0.64,5.77-0.26,8.54,1.19
		c4.58,2.4,8.9,5.22,13.12,8.17c7.24,5.05,15.06,7.77,24,7.07c3.89-0.31,7.82-0.3,11.73,0.26c2.39,0.34,4.45,1.17,6.22,2.88
		c2.33,2.25,4.48,4.66,6.52,7.17c2.83,3.46,5.52,7.03,8.56,10.32c3.59,3.88,7.91,6.56,12.93,8.15c3.86,1.22,7.71,2.49,11.58,3.7
		c4.55,1.42,7.67,4.26,9.48,8.74c1.62,4.02,3.37,7.99,4.74,12.1c2.96,8.88,8.07,16,16.22,20.85c3.25,1.93,6.24,4.26,8.94,6.95
		c1.68,1.67,2.62,3.6,3.03,5.93c0.89,5.04,1.16,10.14,1.17,15.22c0.03,9.76,2.89,18.36,9.33,25.78c2.84,3.27,5.27,6.88,6.96,10.93
		c0.05,0.11,0.17,0.21,0.27,0.29c0.28,0.2,0.29-0.1,0.39-0.23c0,1.65,0,3.3,0,4.96c-0.68-0.14-0.77,0.28-0.84,0.82
		c-0.16,1.36-0.26,2.74-0.59,4.06c-1.2,4.79-2.54,9.54-3.72,14.33c-1.07,4.36-1.54,8.76-0.71,13.25c1.12,6.03,3.89,11.55,5.38,17.47
		c0.06,0.25,0.3,0.16,0.47,0.04c0,2.62,0,5.23,0,7.85c-0.51-0.71-0.66,0.03-0.76,0.26c-2.57,5.75-6.26,10.84-9.7,16.06
		c-4.5,6.85-6.72,14.22-6.17,22.45c0.26,3.84,0.24,7.69-0.2,11.55c-0.34,2.94-1.42,5.35-3.54,7.44c-2.65,2.62-5.49,4.99-8.38,7.34
		c-1.97,1.61-3.93,3.24-5.93,4.81c-5.83,4.59-9.55,10.53-11.49,17.67c-1.11,4.12-2.31,8.2-4.16,12.08
		c-1.11,2.33-2.69,4.02-4.98,5.26c-4.68,2.53-9.66,4.36-14.65,6.08c-8.71,3-15.81,7.9-20.54,15.96c-0.87,1.48-2.03,2.78-2.93,4.25
		c-3.63,5.88-8.88,8.68-15.76,8.8c-4.67,0.08-9.33,0.55-14,0.76c-7.19,0.32-13.49,2.86-19.11,7.33c-3.28,2.61-6.6,5.16-10.25,7.27
		c-2.79,1.61-5.61,1.95-8.71,1.41c-6.72-1.17-13.17-3.39-19.81-4.87c-5.59-1.25-11.01-0.97-16.45,0.8
		c-4.63,1.51-9.15,3.39-13.95,4.39c-3.03,0.63-5.77,0.28-8.54-1.18c-4.21-2.21-8.26-4.71-12.09-7.49
		c-7.94-5.78-16.61-8.62-26.49-7.71c-3.82,0.35-7.69,0.23-11.5-0.52c-1.67-0.33-3.08-1-4.37-2.12c-3.82-3.32-6.82-7.36-10-11.24
		c-1.57-1.91-3.15-3.82-4.75-5.71c-4.08-4.82-9.23-7.93-15.28-9.68c-4.29-1.24-8.58-2.47-12.68-4.28c-2.77-1.23-4.7-3.15-6.07-5.86
		c-2.67-5.3-4.59-10.91-6.65-16.44c-2.83-7.58-7.56-13.48-14.39-17.78c-3.14-1.98-6.12-4.19-8.91-6.67
		c-2.38-2.12-3.65-4.67-4.09-7.83c-0.71-5.13-0.84-10.29-1.12-15.44c-0.16-2.96-0.48-5.9-1.01-8.81c-0.87-4.87-3.23-9.03-6.15-12.92
		c-2.1-2.81-4.18-5.64-6.25-8.46c-2.81-3.82-3.63-7.94-2.57-12.66c1.19-5.31,2.67-10.53,4.08-15.78c1.99-7.44,1.65-14.68-1.23-21.85
		C14.23,179.37,13.81,171.43,16.51,163.29z M150.16,28.01c-5.67-0.11-6.68,0.21-10.98,3.99c-1.8,1.59-3.6,3.23-5.14,5.06
		c-6.01,7.19-13.82,10.83-22.91,12.26c-4.95,0.78-9.87,1.78-14.59,3.57c-1.6,0.61-2.85,1.54-3.92,2.88
		c-2.24,2.83-4.01,5.97-5.35,9.27c-3.51,8.66-9.58,14.72-17.82,18.93c-4.64,2.37-9.22,4.91-13.31,8.23
		c-1.27,1.03-2.17,2.25-2.72,3.79c-1.17,3.26-1.86,6.65-2.13,10.07c-0.74,9.3-4.25,17.24-10.95,23.81
		c-2.89,2.83-5.38,6.07-8.13,9.05c-3.17,3.43-4.24,7.43-3.55,11.99c0.21,1.36,0.38,2.72,0.61,4.08c0.78,4.68,1.92,9.31,1.54,14.11
		c-0.45,5.69-2.93,10.71-5.24,15.77c-1.83,4.01-3.65,8-4.96,12.22c-0.6,1.93-0.55,3.74,0.06,5.64c1.33,4.16,3.37,7.98,5.5,11.75
		c3.62,6.41,4.74,13.22,3.85,20.51c-0.72,5.93-1.73,11.85-1.5,17.87c0.07,1.95,0.65,3.58,1.73,5.16c2.24,3.26,5.03,6.02,7.96,8.62
		c5.87,5.22,9.63,11.58,10.98,19.35c0.48,2.78,1.07,5.54,1.7,8.28c2.85,12.27,2.08,12.62,14.34,18.35
		c8.4,3.93,14.9,9.43,19.02,17.75c0.88,1.79,1.9,3.51,2.9,5.24c1.68,2.92,3.41,5.81,5.54,8.44c1.04,1.28,2.26,2.14,3.8,2.69
		c3.52,1.25,7.16,2.02,10.85,2.32c8.49,0.7,15.82,3.8,21.88,9.86c1.85,1.85,3.8,3.59,5.77,5.31c9.31,8.15,9.25,8.84,22.03,6.32
		c9.56-1.89,18.35-0.97,26.95,3.52c4.01,2.09,8.18,3.92,12.51,5.32c2.53,0.82,4.94,0.81,7.45-0.07c3.59-1.25,6.97-2.98,10.2-4.92
		c6.89-4.12,14.25-5.03,22.06-4.05c5.11,0.64,10.22,1.28,15.39,1.41c3.22,0.08,5.87-0.91,8.31-2.94c2.49-2.08,4.85-4.3,6.95-6.74
		c5.65-6.59,12.87-10.08,21.31-11.49c5.21-0.88,10.41-1.89,15.41-3.69c1.82-0.66,3.2-1.72,4.38-3.25c2.43-3.13,4.22-6.64,5.73-10.24
		c3.37-8.03,9.23-13.48,16.8-17.45c4.19-2.2,8.32-4.55,12.22-7.27c2.5-1.75,4.07-3.96,4.87-6.89c0.8-2.94,1.39-5.91,1.61-8.92
		c0.66-9.08,4.47-16.57,10.83-22.99c3.58-3.6,7.05-7.34,9.94-11.57c1.3-1.9,1.88-3.91,1.87-6.19c-0.02-4.58-1.04-9.02-1.79-13.49
		c-1.07-6.37-0.39-12.47,2.34-18.34c1.36-2.93,2.65-5.9,4-8.83c1.35-2.94,2.51-5.95,3.42-9.06c0.52-1.79,0.46-3.48-0.06-5.26
		c-1.15-3.94-3.01-7.54-5.08-11.03c-4.1-6.93-5.27-14.33-4.22-22.26c0.73-5.52,1.58-11.03,1.43-16.64
		c-0.06-2.16-0.65-4.01-1.88-5.76c-2.43-3.47-5.5-6.33-8.58-9.17c-5.12-4.72-8.51-10.36-9.88-17.24
		c-1.05-5.26-2.31-10.47-3.44-15.72c-0.89-4.16-3.19-7.15-6.91-9.24c-2.82-1.58-5.69-3.06-8.62-4.41
		c-6.33-2.91-11.26-7.28-14.66-13.4c-2.24-4.03-4.71-7.93-6.86-12c-2.79-5.3-7.04-8.26-12.95-8.95c-1.09-0.13-2.17-0.42-3.26-0.47
		c-10.42-0.53-19-4.82-26.15-12.36c-2.83-2.98-6.01-5.64-9.33-8.12c-2.19-1.63-4.5-2.45-7.26-2.37c-3.46,0.1-6.87,0.5-10.21,1.28
		c-8.48,1.96-16.45,0.77-24.2-3.11c-4.41-2.21-8.91-4.28-13.63-5.85c-2.76-0.92-5.35-0.8-8.04,0.19c-3.9,1.43-7.47,3.49-11.09,5.45
		c-5.55,3.01-11.4,4.17-17.69,3.62C161.52,29.11,155.88,28.11,150.16,28.01z"/>
	<path class="st0" d="M199.38,206.92c-17.02-0.47-31.25-6.64-40.65-21.38c-5.49-8.6-5.18-7.7,0.22-15.71
		c7.67-11.38,18-19.35,31.73-21.85c15.63-2.85,29.34,1.67,41.12,12.18c4.72,4.22,8.25,9.37,10.9,15.13c0.7,1.53,0.92,2.93,0.04,4.5
		c-7.88,14.08-19.36,23.35-35.37,26.58c-1.21,0.24-2.44,0.45-3.67,0.53C202.27,206.99,200.82,206.92,199.38,206.92z M199.46,200.47
		c15.8-0.48,27.73-8.24,36.24-21.84c0.63-1.01,0.32-1.79-0.14-2.67c-3.48-6.6-8.3-12.01-14.71-15.8c-11.59-6.84-23.79-8.7-36.49-3.4
		c-9.19,3.83-15.9,10.6-21.27,18.86c-0.95,1.46-1,2.58-0.12,4.1C170.98,193.6,183.46,199.59,199.46,200.47z"/>
	<path class="st0" d="M212.09,248.28c2.36-2.72,4.79-5.15,6.76-7.91c1.94-2.73,4.23-3.92,7.59-3.77c2.73,0.12,5.48-0.38,8.22-0.55
		c0.62-0.04,1.5-0.5,1.83,0.31c0.25,0.61-0.49,1.07-0.89,1.52c-4.04,4.51-8.08,9.02-12.14,13.51c-2.04,2.25-2.06,2.24-0.18,4.52
		c3.84,4.68,7.95,9.12,12.26,13.37c0.69,0.68,0.59,0.99-0.07,1.36c-3.04,1.74-6.1,3.46-9.48,4.47c-1.43,0.43-2.34-0.32-3.15-1.37
		c-3.36-4.36-6.72-8.71-10.11-13.05c-0.39-0.49-0.6-1.44-1.48-1.13c-0.76,0.27-0.65,1.13-0.72,1.8c-0.25,2.46-0.55,4.93-0.71,7.4
		c-0.06,0.97-0.4,1.49-1.33,1.79c-3.41,1.07-6.79,2.23-10.2,3.28c-2.01,0.62-2.65,0.01-2.47-2.08c1.42-16.11,2.86-32.21,4.22-48.32
		c0.12-1.37,0.61-1.94,1.85-2.23c3.55-0.82,7.07-1.73,10.61-2.57c1.77-0.42,2.28,0.08,2.08,2.1c-0.85,8.28-1.74,16.55-2.6,24.83
		C211.9,246.33,211.62,247.13,212.09,248.28z"/>
	<path class="st0" d="M317.25,269.59c-0.25,0.1-0.34,0.1-0.38,0.15c-8.02,8.33-18.89,3.4-22.67-4.85
		c-4.5-9.81-1.01-23.38,7.58-28.76c5.23-3.27,10.58-3.61,15.87-0.06c1.07,0.72,2.05,1.51,2.16-0.71c0.06-1.1,0.98-1.2,1.81-1.3
		c2.73-0.32,5.47-0.57,8.19-0.93c1.48-0.19,1.89,0.22,1.71,1.78c-1.14,9.7-2.17,19.41-3.26,29.12c-0.18,1.62-0.29,3.16,1.03,4.42
		c0.78,0.74,0.3,1.24-0.41,1.55c-2.96,1.3-5.93,2.56-8.9,3.82c-0.86,0.37-1.29-0.15-1.55-0.87
		C318.03,271.86,317.66,270.76,317.25,269.59z M318.32,248.09c-0.2-1,0.34-1.92-0.14-2.75c-1.74-3.05-7.27-3.32-9.49-0.48
		c-2.94,3.75-3.58,13.28-1.13,17.4c0.28,0.47,0.62,0.92,1.02,1.29c2.27,2.08,7.35,0.77,7.83-2.09
		C317.14,256.97,317.7,252.47,318.32,248.09z"/>
	<path class="st0" d="M169.59,274.04c-10.72-0.03-18.07-6.37-19.5-16.82c-1.31-9.59,4.86-18.91,14.31-21.66
		c1.12-0.33,2.7-0.06,2.61-2.09c-0.03-0.62,0.86-0.51,1.39-0.51c3.87,0.03,7.68,0.48,11.33,1.85c8.94,3.36,13.14,10.89,11.68,20.94
		C189.79,266.96,181.3,274.07,169.59,274.04z M163.38,254.59c-0.02,2.51,0.37,4.94,1.75,7.09c2.4,3.77,7.32,4.33,10.45,1.22
		c3.58-3.56,4.33-12.52,1.39-16.59c-3.48-4.81-9.52-4.27-12.03,1.09C163.87,249.67,163.38,252.08,163.38,254.59z"/>
	<path class="st0" d="M146.26,252.46c-0.09,19.2-18.52,24.74-30.24,20.06c-7.13-2.84-11.38-9.51-11.37-17.57
		c0.01-8.22,4.81-15.6,12.11-18.56c1.2-0.49,2.48-0.81,3.72-1.19c0.44-0.14,1.19-0.06,1.13-0.65c-0.2-2.03,1.21-1.59,2.29-1.57
		c3.17,0.07,6.3,0.45,9.34,1.43C141.97,237.23,146.33,243.28,146.26,252.46z M133.47,252.69c0.09-2.14-0.45-4.52-2.01-6.57
		c-3.24-4.28-8.92-4.14-11.4,0.42c-2.37,4.36-2.77,9.04-0.99,13.73c1.06,2.78,3.12,4.49,6.22,4.6c3.11,0.11,5.18-1.52,6.5-4.19
		C132.96,258.3,133.41,255.74,133.47,252.69z"/>
	<path class="st0" d="M82.49,274.03c-3.99,0-7.97-0.02-11.96,0.01c-1.35,0.01-2.15-0.52-1.4-1.83c3.65-6.35,2.79-13.48,3.45-20.31
		c0.8-8.28,1.26-16.6,1.69-24.91c0.11-2.05,0.83-2.86,2.8-3.23c3.23-0.61,6.41-1.53,9.62-2.28c2.4-0.57,2.62-0.37,2.39,2.17
		c-0.82,9.04-1.67,18.08-2.5,27.12c-0.32,3.49-0.54,7-0.91,10.49c-0.14,1.35,0.3,1.68,1.58,1.54c4.37-0.47,8.75-0.91,13.13-1.27
		c2.23-0.18,2.45,0.16,1.74,2.32c-0.7,2.16-1.45,4.3-2.22,6.43c-0.64,1.79-1.89,2.83-3.84,2.93c-4.53,0.23-9.06,0.45-13.58,0.67
		C82.49,273.93,82.49,273.98,82.49,274.03z"/>
	<path class="st0" d="M264.77,261.35c0.39-4.59,0.72-9.19,1.21-13.77c0.16-1.5-0.29-1.95-1.73-1.87c-1.3,0.08-2.61,0-3.91-0.1
		c-1.06-0.08-1.52-0.6-0.85-1.64c1.38-2.14,2.74-4.28,4.13-6.41c0.18-0.27,0.52-0.67,0.74-0.65c2.79,0.32,2.31-1.83,2.54-3.37
		c0.25-1.7,0.42-3.41,0.56-5.12c0.12-1.48,0.66-2.32,2.31-2.57c3.39-0.52,6.79-1.08,10.08-2.09c1.33-0.41,1.56,0.08,1.42,1.29
		c-0.37,3-0.69,6.01-1,9.02c-0.28,2.74-0.26,2.74,2.41,2.74c1.85,0,3.71,0.05,5.56-0.01c1.73-0.06,2.06,0.68,1.4,2.14
		c-0.79,1.76-1.58,3.51-2.31,5.29c-0.43,1.05-1.18,1.45-2.25,1.42c-0.62-0.01-1.24,0-1.85,0c-4.06,0-4.06,0-4.53,4.11
		c-0.39,3.41-0.9,6.82-0.85,10.27c0.05,3.61,1.45,4.62,5,3.92c1.5-0.3,3.1-1.81,4.41-0.82c1.11,0.84,0.74,2.82,1.12,4.27
		c0.85,3.28,0.82,3.33-2.5,4.33c-3.47,1.05-6.88,2.41-10.61,2.31c-6.71-0.18-10.1-3.5-10.38-10.2c-0.04-0.82,0-1.65,0-2.47
		C264.83,261.35,264.8,261.35,264.77,261.35z"/>
	<path class="st0" d="M256.03,235.07c-1.01,10.93-2.02,21.88-3.01,32.84c-0.1,1.08-0.51,1.73-1.61,2.09
		c-3.59,1.18-7.15,2.42-10.7,3.7c-1.28,0.46-1.76,0.22-1.63-1.22c1-11.3,1.97-22.61,2.92-33.91c0.12-1.38,0.7-2.03,2.1-2.27
		c3.51-0.62,7.02-1.3,10.43-2.39C255.6,233.57,256.35,233.59,256.03,235.07z"/>
	<path class="st0" d="M257.34,221.24c-0.54,6.41-0.54,6.41-6.85,7.69c-2.01,0.41-4.03,0.8-6.04,1.24c-1.06,0.23-1.52-0.04-1.41-1.22
		c0.25-2.8,0.44-5.6,0.62-8.41c0.08-1.19,0.59-1.79,1.84-2.03c3.56-0.71,7.15-1.29,10.61-2.4c1.2-0.38,1.67-0.03,1.53,1.24
		C257.49,218.63,257.43,219.94,257.34,221.24z"/>
	<path class="st0" d="M193.66,136.49c0.12,2.34-0.92,3.78-2.62,4.11c-1.82,0.36-3.57-0.59-3.96-2.44c-0.68-3.23-1.24-6.49-1.7-9.75
		c-0.27-1.9,0.99-3.39,2.82-3.68c1.74-0.28,3.3,0.65,3.71,2.5C192.61,130.45,193.14,133.71,193.66,136.49z"/>
	<path class="st0" d="M215.03,128.81c-0.47,2.71-0.93,5.98-1.62,9.19c-0.42,1.96-2.23,2.97-4.06,2.61
		c-1.69-0.34-2.86-1.92-2.58-3.88c0.44-3.12,0.98-6.24,1.64-9.32c0.4-1.9,2.06-2.93,3.82-2.66
		C213.92,125.01,215.03,126.41,215.03,128.81z"/>
	<path class="st0" d="M251.67,149.08c1.8,0.02,2.82,0.7,3.43,2.01c0.63,1.35,0.46,2.7-0.61,3.6c-2.62,2.21-5.3,4.37-8.1,6.35
		c-1.54,1.09-3.55,0.5-4.57-0.96c-0.98-1.41-0.81-3.26,0.63-4.45c2.43-2.01,4.96-3.92,7.46-5.85
		C250.52,149.3,251.22,149.05,251.67,149.08z"/>
	<path class="st0" d="M148.42,148.95c1.06,0.04,1.85,0.42,2.57,0.99c2.21,1.73,4.45,3.43,6.63,5.2c1.87,1.52,2.16,3.4,0.88,5.02
		c-1.31,1.67-3.16,1.83-5.05,0.38c-2.39-1.84-4.77-3.69-7.11-5.59c-1.24-1.01-1.64-2.34-1.01-3.87
		C145.92,149.64,147.05,149,148.42,148.95z"/>
	<path class="st0" d="M237.07,136.18c0,0.79-0.31,1.48-0.7,2.14c-1.42,2.43-2.81,4.89-4.28,7.3c-1.22,2-3.15,2.55-4.9,1.48
		c-1.68-1.02-2.08-2.85-0.95-4.85c1.49-2.63,3.02-5.25,4.59-7.83c0.89-1.46,2.24-2.04,3.89-1.5
		C236.26,133.42,237.05,134.55,237.07,136.18z"/>
	<path class="st0" d="M166.81,132.76c1.2,0.03,2.25,0.62,2.93,1.76c1.54,2.59,3.09,5.17,4.55,7.81c1.06,1.91,0.54,3.89-1.11,4.82
		c-1.71,0.97-3.56,0.45-4.72-1.46c-1.56-2.57-3.11-5.16-4.53-7.82C162.68,135.51,164.19,132.82,166.81,132.76z"/>
	<path class="st0" d="M199.18,192.17c-8.24,0.03-14.98-6.64-15.04-14.88c-0.06-8.36,6.63-15.15,14.95-15.18
		c8.26-0.03,15.11,6.82,15.08,15.09C214.15,185.38,207.37,192.14,199.18,192.17z M199.19,189.73c7-0.02,12.66-5.77,12.6-12.84
		c-0.05-6.95-5.71-12.57-12.66-12.57c-7.06-0.01-12.74,5.68-12.71,12.72C186.46,184.07,192.17,189.75,199.19,189.73z"/>
</g>
</svg>
