<?xml version="1.0" encoding="utf-8"?>
<!-- Generator: Adobe Illustrator 28.3.0, SVG Export Plug-In . SVG Version: 6.00 Build 0)  -->
<svg version="1.1" id="Capa_1" xmlns="http://www.w3.org/2000/svg" xmlns:xlink="http://www.w3.org/1999/xlink" x="0px" y="0px"
	 viewBox="0 0 400 400" style="enable-background:new 0 0 400 400;" xml:space="preserve">
<style type="text/css">
	.st0{fill:#B3B3B3;}
</style>
<g>
	<path class="st0" d="M347.16,238.32H52.84c-21.13,0-38.32-17.19-38.32-38.32c0-21.13,17.19-38.32,38.32-38.32h294.32
		c21.13,0,38.32,17.19,38.32,38.32C385.48,221.13,368.29,238.32,347.16,238.32z M52.84,166.16c-18.66,0-33.84,15.18-33.84,33.84
		s15.18,33.84,33.84,33.84h294.32c18.66,0,33.84-15.18,33.84-33.84s-15.18-33.84-33.84-33.84H52.84z"/>
	<g>
		<path class="st0" d="M125.86,204.73c0.63-2.56,1.4-5.1,1.85-7.69c0.39-2.23,1.95-1.79,3.39-1.88c1.5-0.08,2.71,0.06,3.06,1.92
			c0.44,2.34,1.08,4.64,1.79,7.66c1.46-2.85,1.64-5.27,1.99-7.58c0.41-2.74,2.38-2,3.9-1.91c2.36,0.14,0.84,1.77,0.64,2.57
			c-0.91,3.82-2.18,7.55-3,11.39c-0.49,2.32-1.98,2.04-3.57,2.07c-1.56,0.03-2.89,0.11-3.2-2.06c-0.31-2.17-1.07-4.27-1.77-6.92
			c-1.39,2.59-1.68,4.96-2.16,7.21c-0.43,2.03-1.77,1.77-3.12,1.75c-1.41-0.02-3.01,0.48-3.54-1.67c-0.97-3.91-2.17-7.77-3.11-11.69
			c-0.2-0.82-1.6-2.48,0.64-2.62c1.49-0.1,3.6-1.01,4.13,1.62c0.52,2.6,1.04,5.19,1.55,7.79
			C125.52,204.69,125.69,204.71,125.86,204.73z"/>
		<path class="st0" d="M58.11,201.34c0-2.55,0.14-5.1-0.04-7.64c-0.16-2.32,0.8-2.98,2.96-2.81c1.91,0.15,3.84-0.04,5.75,0.05
			c4.34,0.22,6.86,2.55,6.96,6.33c0.11,3.83-2.24,6.71-6.51,6.69c-3.61-0.01-4.37,1.39-3.97,4.45c0.23,1.76-0.01,2.95-2.43,2.93
			c-2.38-0.02-2.89-0.91-2.75-3.01C58.22,206.01,58.11,203.67,58.11,201.34z M65.53,199.82c1.71,0.09,2.89-0.48,2.9-2.25
			c0.02-2.01-1.38-2.28-3.05-2.38c-2.1-0.12-2.08,1.1-2.13,2.62C63.19,199.63,64.11,200.01,65.53,199.82z"/>
		<path class="st0" d="M233.05,203.41c0-2.02-0.01-4.03,0.01-6.05c0.01-0.98,0.35-2.5,1.38-1.84c1.96,1.25,3.4,0.1,5.07-0.27
			c2.85-0.62,5.24,2.17,7.14,2c2.05-0.18,4.2-2.48,6.94-2.01c2.73,0.47,4.37,2.1,4.85,4.79c0.57,3.15,0.24,6.35,0.29,9.53
			c0.02,1.18-0.43,1.73-1.7,1.69c-1.31-0.04-1.22-0.91-1.23-1.75c-0.02-2.44,0.05-4.88-0.03-7.32c-0.09-2.98-1.61-4.57-4.18-4.55
			c-2.56,0.03-4.08,1.64-4.16,4.58c-0.07,2.44-0.05,4.88-0.02,7.32c0.01,1.17-0.38,1.76-1.67,1.71c-1.2-0.05-1.36-0.75-1.36-1.69
			c0-2.44,0.04-4.88-0.03-7.32c-0.08-3.02-1.52-4.66-4.08-4.6c-2.88,0.06-4.2,1.8-4.32,4.5c-0.1,2.33-0.03,4.67-0.08,7
			c-0.02,0.89,0.28,2-1.24,2.1c-1.67,0.11-1.58-1.02-1.59-2.09C233.04,207.23,233.05,205.32,233.05,203.41z"/>
		<path class="st0" d="M109.16,211.56c-4.97,0.08-8.5-3.35-8.55-8.28c-0.05-4.87,3.47-8.43,8.4-8.5c4.87-0.07,8.52,3.49,8.56,8.34
			C117.6,208,114.15,211.48,109.16,211.56z M112.33,202.92c-0.15-1.87-1.04-3.53-3.18-3.53c-2.31,0-3.25,1.65-3.19,3.89
			c0.05,2.05,0.79,3.65,3.06,3.65C111.43,206.92,112.22,205.22,112.33,202.92z"/>
		<path class="st0" d="M151.29,194.77c1.57,0.19,3.3,0.35,4.64,1.54c1.12,0.99,2.62,2.45,1.67,3.7c-0.86,1.13-2.92,0.77-4.41,0.04
			c-0.45-0.22-0.74-0.77-1.19-1c-0.83-0.43-1.8-0.37-2.19,0.5c-0.4,0.88,0.47,1.26,1.2,1.5c1.31,0.42,2.65,0.78,3.95,1.23
			c2.02,0.7,3.15,2.13,3.15,4.29c-0.01,2.16-1.18,3.61-3.16,4.31c-2.95,1.05-5.87,0.96-8.52-0.86c-1.23-0.85-2.77-2.2-1.97-3.57
			c0.85-1.45,2.99-0.93,4.36-0.35c1.35,0.57,2.98,2.73,3.8,0.67c0.76-1.91-2.07-1.69-3.4-2.13c-2.59-0.85-4.88-1.88-4.63-5.13
			C144.79,196.72,147.59,194.77,151.29,194.77z"/>
		<path class="st0" d="M292.93,197.18c0-2.17,0.02-3.94-0.01-5.7c-0.01-1,0.28-1.64,1.43-1.6c1.08,0.04,1.5,0.6,1.5,1.62
			c-0.01,6.05,0,12.1-0.01,18.15c0,0.61,0.07,1.4-0.78,1.52c-0.68,0.09-1.73,0.48-1.97-0.4c-0.36-1.38-0.81-0.94-1.69-0.51
			c-4.12,2.05-7.81,1.47-10.05-1.46c-2.47-3.25-2.37-8.29,0.24-11.23c2.5-2.81,6.23-3.17,10.15-0.96
			C291.94,196.7,292.14,196.79,292.93,197.18z M292.92,203.33c0.02-3.31-2.12-5.67-5.16-5.69c-3.04-0.02-5.14,2.3-5.14,5.66
			c0,3.46,1.98,5.64,5.1,5.64C290.85,208.94,292.9,206.72,292.92,203.33z"/>
		<path class="st0" d="M319.46,197.13c0-2.12,0.01-3.7,0-5.27c-0.01-1.03,0.12-1.93,1.45-1.99c1.38-0.06,1.49,0.81,1.49,1.86
			c-0.02,5.93-0.01,11.86-0.01,17.79c0,2.32-1.6,2.21-2.63,1.23c-1.01-0.97-1.47-0.56-2.35-0.15c-3.68,1.7-7.3,0.97-9.49-1.81
			c-2.32-2.95-2.32-8.16,0.02-10.98c2.37-2.87,6.08-3.47,9.8-1.58C318.12,196.42,318.48,196.61,319.46,197.13z M319.44,203.38
			c0.03-3.35-2.04-5.68-5.1-5.73c-3-0.06-5.25,2.34-5.26,5.61c-0.01,3.36,2.06,5.65,5.14,5.69
			C317.36,208.97,319.41,206.78,319.44,203.38z"/>
		<path class="st0" d="M341.94,203.69c0,2.12,0.03,4.24-0.01,6.37c-0.03,1.89-2.15,1.79-2.36,1.24c-0.93-2.42-1.92-0.78-2.91-0.3
			c-3.26,1.58-7.06,0.8-9.24-1.94c-2.36-2.95-2.36-8-0.02-11c2.04-2.61,6.07-3.41,9.29-1.93c0.83,0.38,1.67,2.18,2.75-0.16
			c0.41-0.87,2.46-0.63,2.49,1.36C341.96,199.44,341.94,201.57,341.94,203.69z M328.59,203.41c-0.06,3.35,1.99,5.71,5.04,5.78
			c3.05,0.07,5.3-2.22,5.38-5.47c0.08-3.27-2.05-5.71-5.07-5.81C330.9,197.81,328.65,200.12,328.59,203.41z"/>
		<path class="st0" d="M184.47,203.33c0,2.11-0.01,4.23,0,6.34c0.01,1.84-1.88,2.06-2.24,1.34c-1.11-2.23-2.02-0.66-3.01-0.21
			c-3.33,1.52-7.02,0.71-9.18-2.05c-2.33-2.99-2.32-8.01,0.03-10.96c2.07-2.59,6.07-3.4,9.27-1.92c0.92,0.43,1.72,1.92,2.87-0.16
			c0.51-0.92,2.22-0.45,2.25,1.28C184.5,199.1,184.47,201.22,184.47,203.33z M171.26,203.32c0.02,3.33,2.16,5.64,5.2,5.62
			c3.07-0.01,5.18-2.31,5.19-5.64c0.01-3.27-2.2-5.67-5.21-5.66C173.4,197.65,171.23,200.03,171.26,203.32z"/>
		<path class="st0" d="M269.59,195.18c4.17-0.02,7.06,2.35,7.64,6.17c0.31,2.06-0.09,3.23-2.58,3.05c-2.65-0.19-5.32,0.01-7.98-0.05
			c-2.01-0.05-2.16,0.81-1.32,2.32c1.43,2.58,5.1,3.27,7.44,1.35c0.56-0.46,0.94-1.18,1.55-1.56c0.63-0.39,1.54-0.48,2.12,0.01
			c0.8,0.67-0.01,1.36-0.35,1.92c-1.6,2.69-5.6,3.89-9.1,2.79c-3.37-1.05-5.65-4.72-5.31-8.52
			C262.13,197.96,265.03,195.2,269.59,195.18z M269.42,202.18c0.53,0,1.09,0.11,1.58-0.02c1.09-0.29,2.93,0.87,3.16-0.9
			c0.22-1.69-1.21-2.81-2.83-3.37c-1.24-0.43-2.52-0.43-3.73,0.09c-1.44,0.62-2.77,1.77-2.59,3.27c0.22,1.8,2.06,0.6,3.13,0.92
			C268.54,202.28,268.99,202.18,269.42,202.18z"/>
		<path class="st0" d="M89.75,200.55c0,2.86-0.09,5.73,0.03,8.59c0.09,2.03-1.03,2.17-2.59,2.14c-1.48-0.03-2.71,0.06-2.67-2.06
			c0.09-5.72,0.08-11.45,0-17.17c-0.03-1.96,0.98-2.26,2.59-2.24c1.54,0.02,2.74,0.12,2.67,2.16
			C89.68,194.83,89.76,197.69,89.75,200.55z"/>
		<path class="st0" d="M221.16,203.59c0,2.01-0.05,4.03,0.01,6.04c0.05,1.54-1.15,2.15-1.96,1.47c-1.44-1.22-2.37-0.32-3.59,0.07
			c-4.37,1.42-8.34-1.06-8.73-5.58c-0.24-2.73-0.08-5.5-0.08-8.26c0-1,0.07-1.96,1.48-1.92c1.45,0.04,1.33,1.1,1.34,2.04
			c0.02,2.33-0.01,4.66,0.03,6.99c0.04,2.74,1.28,4.46,4.21,4.48c2.9,0.02,4.24-1.67,4.36-4.38c0.11-2.33,0.05-4.66,0.09-6.99
			c0.02-1.07-0.06-2.24,1.59-2.13c1.46,0.1,1.22,1.22,1.24,2.13C221.19,199.57,221.17,201.58,221.16,203.59z"/>
		<path class="st0" d="M93.11,200.4c0-2.86,0.07-5.73-0.03-8.59c-0.07-1.9,1.06-2.01,2.46-1.98c1.41,0.03,2.79-0.15,2.75,2.02
			c-0.08,5.83-0.09,11.67,0,17.5c0.03,2.26-1.46,1.85-2.8,1.92c-1.42,0.08-2.49-0.06-2.42-1.95
			C93.19,206.34,93.11,203.37,93.11,200.4z"/>
		<path class="st0" d="M201.55,211.25c-3,0.07-4.45-1.39-4.52-4.23c-0.05-2.23,0.01-4.45-0.03-6.68c-0.02-1.08,0.4-2.38-1.36-2.72
			c-0.73-0.14-0.73-1.5-0.5-1.53c2.87-0.33,0.61-4.38,3.44-4.6c1.01-0.08,1.32,0.62,1.24,1.43c-0.18,1.97,0.71,2.68,2.61,2.48
			c0.79-0.08,1.5,0.11,1.5,1.16c0.01,1.04-0.7,1.27-1.48,1.17c-2.57-0.32-2.69,1.25-2.61,3.13c0.08,1.8,0.01,3.6,0.04,5.41
			c0.02,1.39,0.35,2.54,2.13,2.5c0.96-0.02,2.07-0.07,1.93,1.4C203.76,211.94,202.3,210.95,201.55,211.25z"/>
		<path class="st0" d="M81.2,203.45c0,1.59-0.06,3.18,0.02,4.76c0.09,1.86,0.04,3.16-2.57,3.14c-2.52-0.02-2.7-1.16-2.64-3.1
			c0.1-3.59,0.14-7.19-0.01-10.78c-0.09-2.21,1.1-2.3,2.77-2.33c1.7-0.04,2.58,0.39,2.46,2.29C81.1,199.43,81.2,201.44,81.2,203.45z
			"/>
		<path class="st0" d="M300.07,203.2c0-2.01-0.01-4.02,0-6.03c0-0.9,0.1-1.71,1.31-1.75c1.14-0.04,1.49,0.6,1.5,1.58
			c0.01,4.23,0,8.47,0.01,12.7c0,1-0.34,1.58-1.48,1.55c-1.22-0.03-1.33-0.78-1.33-1.7C300.08,207.43,300.07,205.31,300.07,203.2z"
			/>
		<path class="st0" d="M78.69,193.5c-1.74,0-2.92-0.76-2.93-2.57c-0.02-1.98,1.25-2.8,3.11-2.74c1.75,0.05,2.85,1.01,2.79,2.75
			C81.59,192.69,80.46,193.55,78.69,193.5z"/>
		<path class="st0" d="M301.45,189.47c1.11,0.06,1.77,0.64,1.74,1.76c-0.03,0.96-0.64,1.55-1.61,1.58
			c-1.16,0.04-1.76-0.67-1.73-1.75C299.88,190.12,300.45,189.52,301.45,189.47z"/>
	</g>
</g>
</svg>
