<?xml version="1.0" encoding="utf-8"?>
<!-- Generator: Adobe Illustrator 28.3.0, SVG Export Plug-In . SVG Version: 6.00 Build 0)  -->
<svg version="1.1" id="Capa_1" xmlns="http://www.w3.org/2000/svg" xmlns:xlink="http://www.w3.org/1999/xlink" x="0px" y="0px"
	 viewBox="0 0 400 400" style="enable-background:new 0 0 400 400;" xml:space="preserve">
<style type="text/css">
	.st0{fill:#B3B3B3;}
</style>
<g>
	<path class="st0" d="M169.87,186.77c-0.57-1.37-0.83-2.8-0.8-4.28c0-1.17,0-2.35,0.01-3.52c0,0,0,0,0,0
		c0.01-0.25,0.01-0.5,0.02-0.75c0.54-1.19,0.63-2.38-0.02-3.56c0,0,0,0,0,0c-0.91-1.01-1.87-0.61-2.8-0.07
		c-0.8,0.46-1.59,0.81-2.56,0.7c-4.3-0.51-8.58-1.23-12.93-1.06c-0.46,0.02-0.91-0.01-1.28-0.33c-3.29-0.77-6.53,0.02-9.78,0.38
		c-0.13,0.01-0.25,0.01-0.38,0.01c-2.25,0.03-4.53-0.26-6.66,0.78l0,0c-0.79,0-1.58,0.01-2.36,0.01c0,0,0,0,0,0c0,0,0,0,0,0
		c-0.26-0.13-0.51-0.26-0.77-0.39c-0.82-0.84-1.79-1.13-2.79-0.45c-0.78,0.53-1.4,1.46-1,2.35c1.05,2.32,0.48,4.73,0.67,7.09
		c-1.11,0.99-0.73,2.31-0.78,3.53c0,0,0,0,0,0c0,0,0,0,0,0c-0.02,1.39-0.35,3,1.95,2.73c2.21-0.15,3.86-1.71,5.87-2.34
		c1.73-0.25,3.28-1.27,5.08-1.18v0c0.53,2.81,0.4,5.65,0.38,8.49c-0.06,7.33,0.2,14.66-0.35,21.99c-0.14,1.88-0.22,3.46-2.29,4.17
		c-0.39,0.13-0.77,0.5-0.81,1.02c0,0,0,0,0,0c0,0,0,0,0,0c-0.07,1.62,0.86,2.39,2.31,2.73c0.7,0.54,1.54,0.62,2.37,0.77
		c5.76,1.1,11.49,0.96,17.18-0.46c0.53-0.13,1.05-0.25,1.58-0.38c0,0,0,0,0,0c0,0,0,0,0,0c1.73-1.04,1.92-2.63,0.32-3.78
		c-0.95-0.68-1.7-1.4-1.83-2.59c-0.17-1.61-0.43-3.22-0.44-4.83c-0.04-9.04-0.01-18.08,0-27.12c0,0,0,0,0,0c0,0,0,0,0,0
		c1.8-0.07,3.39,0.86,5.12,1.11c0,0,0,0,0,0c0,0,0,0,0,0c1.02,0.42,2.04,0.84,3.06,1.26c1.28,0.9,2.6,1.61,4.16,0.88
		c0.08-0.01,0.16-0.05,0.24-0.12c0.1-0.01,0.21-0.03,0.31-0.05C170.48,188.6,170.41,187.69,169.87,186.77
		C169.87,186.78,169.87,186.78,169.87,186.77z M128.75,174.68C128.75,174.68,128.75,174.68,128.75,174.68
		C128.75,174.68,128.75,174.68,128.75,174.68C128.76,174.68,128.76,174.68,128.75,174.68z M137.33,185.99
		c0.02-0.01,0.04-0.02,0.07-0.03c0.01,0.01,0.01,0.03,0.02,0.04C137.39,185.99,137.36,185.99,137.33,185.99z M135.75,221.9
		c0.26-0.16,0.55-0.29,0.84-0.41C136.34,221.63,136.06,221.77,135.75,221.9z M156.53,186.39
		C156.53,186.38,156.53,186.38,156.53,186.39C156.53,186.38,156.53,186.38,156.53,186.39C156.53,186.38,156.53,186.38,156.53,186.39
		C156.53,186.38,156.52,186.38,156.53,186.39C156.52,186.38,156.52,186.38,156.53,186.39c0-0.01,0,0,0.01,0
		C156.54,186.38,156.54,186.38,156.53,186.39z M157.7,185.64C157.7,185.64,157.7,185.64,157.7,185.64
		C157.7,185.64,157.7,185.64,157.7,185.64c0.01,0,0.01,0,0.02,0c0,0,0,0.01,0,0.01C157.71,185.65,157.7,185.65,157.7,185.64z"/>
	<path class="st0" d="M126.21,220.99c-2.12-0.8-2.2-2.41-2.18-4.27c0.09-8.45,0-16.9-1.54-25.24c-0.48-2.6-0.99-5.25-2.75-7.4
		c-0.24-0.29-0.48-0.57-0.72-0.86c-0.28-0.5-0.56-1-0.84-1.5c0,0,0,0,0,0c-0.5-1.24-0.17-2.18,0.86-3.05
		c0.87-0.74,1.97-1.66,1.29-2.96c-0.64-1.21-1.99-0.57-3.04-0.64c-0.25-0.02-0.52,0.05-0.77,0.1c-2.07,0.41-4.13,0.4-6.2-0.04
		c-3.5-0.75-7.05-1.28-10.62-1.16c-5.48,0.2-10.83,2.29-16.43,1.06c-0.78-0.17-1.77-0.2-2.15,0.86c-0.33,0.94,0.2,1.59,0.81,2.24
		c0.78,0.82,1.97,1.39,1.87,2.81c-0.53,0.78-1.06,1.56-1.59,2.35c-0.51,0.37-0.7,0.93-0.84,1.51c0,0,0,0,0,0
		c-1.19,1.92-1.56,4.09-1.94,6.25c0,0,0,0,0,0c-1.22,3.17-1.21,6.52-1.53,9.83c-0.01,0.77-0.01,1.53-0.02,2.3
		c-0.5,0.62-0.36,1.36-0.36,2.06c-0.02,4.16-0.02,8.31-0.03,12.47c0.07,1.73-0.95,2.74-2.34,3.49c0,0,0,0,0,0
		c-0.61,0.05-0.61,1.32-1.52,0.76c0,0,0,0,0,0c-0.53-1.38-2.7-1.29-2.78-3.07c-0.18-2.35,0.41-4.74-0.37-7.05c0,0,0,0,0,0
		c0-0.26-0.01-0.52-0.01-0.78c0-7.56,0-15.13,0-22.69c0,0,0,0,0,0c0-0.13,0.01-0.26,0.01-0.39c0.79-2.32,0.2-4.7,0.37-7.05
		c0,0,0,0,0,0c0,0,0,0,0,0c0.39-1.11,1.35-1.79,1.99-2.71c0.83-0.65,1.34-1.4,0.87-2.52c-0.5-1.19-1.52-1.08-2.49-1.01
		c-1.1,0.08-2.19,0.26-3.29,0.38c-3.18,0.33-6.17-0.78-9.25-1.21c-2.93-0.4-5.27,0.79-6.64,3.54c-2.3,3.37-3.57,7.22-5.06,10.97
		c-0.39,0.78-0.78,1.57-1.17,2.35c-0.68,0.28-0.75,0.95-0.98,1.52c-0.42,1.04-0.91,0.45-1.39,0.06l0.01-0.01
		c0.04-0.77-0.15-1.46-0.79-1.96c0,0,0,0,0,0c0,0,0,0,0,0c-0.26-0.52-0.53-1.04-0.79-1.56c-0.35-1.2-0.69-2.4-1.43-3.44
		c-0.02-0.04-0.05-0.09-0.09-0.13c-0.36-2.27-1.33-4.33-2.41-6.3c-2.2-4-3.84-5.71-8.57-4.66c-0.37,0.08-0.77,0.03-1.16,0.04v0
		c-0.32,0-0.67-0.06-0.97,0.01c-3.77,0.92-7.56,1.04-11.38,0.38c-1.06-0.18-2.07,0.03-2.91,0.77v0c-0.11,0-0.22,0-0.32,0
		c0,0.65,0,1.31,0,1.96c0.1,0,0.21,0,0.31,0.01c0,0,0,0,0,0v0c0.45,0.75,1.12,1.24,1.83,1.73c1.01,0.7,1.76,1.62,1.69,2.91
		c-0.2,3.65,0.4,7.27,0.39,10.92c-0.02,7.62,0.09,15.23-0.35,22.85c-0.09,1.64-0.26,3.23-0.83,4.78c0,0,0,0,0,0c0,0,0,0,0,0
		l-0.17,0.01c-2.4,0.7-2.88,2.07-1.31,3.72c0,0,0,0,0,0c0,0,0,0,0,0c0.24,0.14,0.48,0.29,0.72,0.43c0.13,0.09,0.26,0.14,0.39,0.17
		c4.99,2.19,10.12,1.63,15.28,0.62c0,0,0,0,0,0c0.63-0.19,1.3-0.28,1.82-0.71c0.04-0.02,0.07-0.05,0.11-0.09c0,0,0,0,0,0
		c0,0,0,0,0,0v0c1.27-0.79,2.03-1.72,0.85-3.16c0,0,0,0,0,0c-1.02-1.04-2.43-1.48-2.55-3.52c-0.38-6.18-0.16-12.36-0.19-18.54
		c0-0.07,0.17-0.15,0.51-0.43c1.27,2.45,2.51,4.86,3.75,7.26c0,0,0,0,0,0c0,0,0,0,0,0c0.2,1.5,1.14,2.65,1.77,3.95
		c0.01,0.13,0.06,0.25,0.17,0.36c1.49,2.72,2.64,5.7,5.49,7.43c1.31,1.19,2.46,0.96,3.49-0.39c0,0,0,0,0,0
		c-0.6-2.84-0.19-5.53,1.14-8.1c0.27-0.52,0.49-1.07,0.45-1.68c0.14-0.38,0.29-0.75,0.43-1.13c0,0,0,0,0,0
		c1.52-2.34,2.38-5.08,4.44-7.5c0.08,0.7,0.16,1.07,0.15,1.43c-0.11,5.9-0.25,11.8-0.33,17.7c-0.02,1.27-0.75,1.85-1.75,2.3
		c-0.99,0.45-1.51,1.17-1.4,2.31c0.11,1.17,0.9,1.76,1.88,1.95c1.84,0.35,3.62,1.06,5.54,0.95c0.58,0.53,1.3,0.34,1.98,0.37
		c2.87-0.02,5.76,0.25,8.6-0.42c0,0,0,0,0,0c0,0,0,0,0,0c1.7,0.16,3.26-0.36,4.79-0.98c0.12-0.02,0.24-0.06,0.35-0.14
		c0.55-0.34,1.23-0.51,1.53-1.17c1.31-0.02,1.86,1.31,3.06,1.65c1.9,0.54,3.84,0.7,5.76,0.89c4.13,0.4,8.28,0.41,12.36-0.58
		c0.76-0.14,1.53-0.29,2.29-0.43c0.66,0.02,1.25-0.1,1.55-0.8c0,0,0,0,0,0c0,0,0,0,0,0c0.13-0.26,0.27-0.52,0.4-0.78
		c0.56-0.65,0.57-1.29-0.01-1.93c0,0,0,0,0,0c0,0,0,0,0,0c-0.36-0.17-0.71-0.34-1.07-0.51c-2.43-1.89-2.8-3.81-1.21-6.12
		c0,0,0,0,0,0c2.13,0.04,4.22-0.7,6.38-0.09c0.99,0.28,2.28,0.12,2.44,1.45c0.18,1.51,0.42,3.22-1.28,4.16
		c-1.11,0.61-2.02,1.27-1.72,2.69c0.28,1.38,1.4,1.72,2.59,2c5.1,1.19,10.22,1.59,15.41,0.68c0,0,0,0,0,0
		c2.18-0.34,4.54-0.11,6.2-2.03c0,0,0,0,0,0c0,0,0,0,0,0c0-0.12-0.04-0.22-0.11-0.31v0c0.06-0.12,0.12-0.24,0.18-0.35v0l0,0
		C127.66,222.16,127.07,221.32,126.21,220.99z M36.83,209.86c0-0.01,0-0.02,0-0.04c0.01,0.01,0.02,0.03,0.04,0.04
		C36.86,209.86,36.84,209.86,36.83,209.86z M40.27,185.68c0,0.02,0,0.03-0.01,0.05c-0.01-0.02-0.02-0.04-0.03-0.06
		C40.25,185.67,40.26,185.68,40.27,185.68z M40.35,206.38c-0.01,0.01-0.02,0.02-0.03,0.02c0-0.01,0-0.03-0.01-0.04c0,0,0,0,0,0
		c0,0,0,0,0,0c0,0,0,0,0,0c0,0,0,0,0,0l0,0c-0.03-0.02-0.05-0.04-0.07-0.05c0.05-0.01,0.09-0.02,0.14-0.03
		c-0.02,0.03-0.04,0.05-0.06,0.08C40.33,206.37,40.34,206.38,40.35,206.38z M47.38,199.72C47.38,199.72,47.38,199.72,47.38,199.72
		C47.38,199.72,47.38,199.72,47.38,199.72C47.38,199.72,47.38,199.72,47.38,199.72C47.38,199.72,47.38,199.72,47.38,199.72
		C47.38,199.72,47.38,199.72,47.38,199.72C47.38,199.72,47.38,199.72,47.38,199.72C47.38,199.72,47.38,199.72,47.38,199.72z
		 M47.85,188.43C47.85,188.43,47.85,188.42,47.85,188.43C47.84,188.42,47.85,188.42,47.85,188.43
		C47.85,188.42,47.85,188.42,47.85,188.43C47.85,188.42,47.85,188.43,47.85,188.43z M52.44,188.36
		C52.44,188.36,52.44,188.36,52.44,188.36C52.44,188.35,52.44,188.35,52.44,188.36C52.45,188.35,52.45,188.35,52.44,188.36
		C52.45,188.35,52.44,188.35,52.44,188.36z M65.57,200.15c0-0.05,0-0.09,0-0.14c0,0,0.01,0,0.01,0
		C65.57,200.06,65.57,200.1,65.57,200.15z M66.93,206.36c-0.01,0.08-0.03,0.15-0.04,0.23c-0.02-0.02-0.04-0.05-0.06-0.07
		C66.87,206.46,66.9,206.41,66.93,206.36C66.93,206.36,66.93,206.35,66.93,206.36c0-0.01,0-0.01,0-0.01
		C66.93,206.35,66.93,206.36,66.93,206.36z M70.07,220.83C70.07,220.83,70.07,220.82,70.07,220.83
		C70.07,220.82,70.07,220.83,70.07,220.83C70.07,220.83,70.07,220.83,70.07,220.83C70.07,220.82,70.07,220.82,70.07,220.83
		C70.07,220.82,70.07,220.82,70.07,220.83C70.07,220.82,70.08,220.82,70.07,220.83C70.08,220.82,70.07,220.83,70.07,220.83z
		 M71.16,224.71c0,0,0.01-0.01,0.02-0.01c0,0.01,0,0.01,0.01,0.02C71.18,224.71,71.17,224.71,71.16,224.71z M77.91,217.72
		c0,0-0.05-0.04-0.05-0.04c0,0,0,0,0,0c0,0,0,0,0,0c0,0,0,0,0,0C77.88,217.69,77.89,217.7,77.91,217.72
		C77.91,217.71,77.91,217.71,77.91,217.72z M82.19,184.43L82.19,184.43C82.19,184.43,82.19,184.43,82.19,184.43
		c0-0.01,0-0.03,0-0.04c0.02-0.01,0.03-0.01,0.05-0.02C82.22,184.39,82.2,184.41,82.19,184.43z M83.77,218.88c0-0.01,0-0.01,0-0.02
		c0,0,0,0,0,0C83.77,218.87,83.77,218.88,83.77,218.88z M97.8,221.29C97.79,221.29,97.79,221.29,97.8,221.29
		c-0.01,0.01-0.01,0.01-0.01,0.01C97.79,221.29,97.79,221.29,97.8,221.29z M95.72,208.5c-0.07-0.06-0.14-0.12-0.21-0.18
		c0.07,0,0.15,0,0.23,0C95.73,208.38,95.73,208.44,95.72,208.5z M103.48,204.01c-2.24-0.04-4.49-0.01-6.73-0.01
		c-0.1-0.08-0.19-0.18-0.26-0.29c-0.35-0.71-0.37-1.48-0.41-2.26c-0.19-3.33,0.51-6.54,1.24-9.75c0.42-1.11,0.85-2.22,1.25-3.34
		c0.37-1.04,0.65-1.73,0.97-2.15c0.05-0.06,0.1-0.13,0.16-0.18c0.46-0.45,1.01-0.35,2,0.16c0.13,0.17,0.25,0.36,0.38,0.59
		c0.14,0.33,0.32,0.64,0.55,0.92c0.29,0.26,0.51,0.58,0.75,0.88c0.11,0.34,0.23,0.68,0.34,1.02c-0.14,0.3-0.14,0.65-0.14,1
		c0.02,0.34,0.14,0.64,0.37,0.9c0.07,0.05,0.14,0.09,0.21,0.12c-0.03,0.64,0.09,1.26,0.15,1.89c0.17,1.68,0.46,3.35,0.69,5.02
		c0.09,1.25,0.19,2.5,0.3,3.75C105.27,203.5,104.76,204.04,103.48,204.01z M108.81,207.92
		C108.81,207.92,108.81,207.92,108.81,207.92C108.81,207.92,108.81,207.92,108.81,207.92C108.81,207.92,108.81,207.92,108.81,207.92
		z"/>
	<path class="st0" d="M332.39,221.15c-2.41-1.23-2.46-3.27-2.46-5.44c-0.01-8.73-0.02-17.46-0.02-26.18c0-0.52-0.02-1.04,0.02-1.56
		c0.22-3.4-0.72-7.18,3.1-9.39c0.08-2.83-0.69-3.61-3.85-3.93c0,0,0,0,0,0c-1.43-0.84-3.05-0.38-4.57-0.57
		c-3.81-0.48-7.64-0.23-11.43,0.42c-0.31-0.05-0.62-0.06-0.9,0.16c-0.39,0.03-0.82-0.03-1.16,0.11c-1.11,0.47-2.48,0.73-2.7,2.22
		c-0.21,1.45,0.36,2.49,1.83,3.02c0.66,0.24,0.81,0.93,0.95,1.6c0.68,3.39-0.03,6.87,0.69,10.26c0.16,0.78-0.36,1.05-1.12,1.25
		c-2.95,0.79-5.85,0.83-8.82,0.03c-1.06-0.29-1.43-0.64-1.37-1.65c0.14-2.52,0.35-5.04,0.35-7.56c0.01-1.6,0.13-3.08,1.2-4.35
		l0.18,0.03c1.13-0.17,1.64-0.88,1.8-1.95c0.17-1.2-0.59-1.76-1.47-2.25c-2.51-1.4-5.24-1.19-7.96-1.11c-0.26,0-0.51,0-0.77,0
		c-1.01-0.7-2.12-0.38-3.2-0.31c0,0,0,0,0,0c0,0,0,0,0,0c-0.07,0.03-0.14,0.03-0.22,0.01c0,0,0,0,0,0
		c-3.07-0.29-6.08-0.02-9.01,0.98c-1.15,0.39-2.19,0.94-2.4,2.28c-0.22,1.33,0.71,1.99,1.68,2.59c1.03,0.64,1.45,1.53,1.43,2.77
		c-0.15,7.53,0.65,15.04,0.38,22.57c0,0.26-0.01,0.52-0.01,0.77c-0.54,0.61-0.36,1.35-0.37,2.04c-0.02,3.11-0.01,6.21-0.01,9.32
		c-0.01,0.94,0.05,1.89-0.37,2.77c0,0,0,0,0,0c0,0,0,0,0,0c-0.01,0.11-0.03,0.22-0.08,0.33c0,0,0,0,0,0c0,0,0,0,0,0
		c-1.36,0.18-2.56,0.53-2.58,2.25c-0.02,1.56,0.88,2.1,2.26,2.63c1.89,0.73,3.83,0.65,5.72,0.83c3.98,0.38,7.98,0.5,11.92-0.4
		c0.26-0.01,0.51-0.06,0.76-0.19c0.63-0.15,1.27-0.26,1.87-0.47c1.03-0.37,2.13-0.75,2.4-2.01c0.28-1.31-0.68-1.87-1.59-2.38
		c-0.91-0.51-1.5-1.13-1.53-2.27c-0.09-3.96-0.21-7.92-0.41-11.87c-0.07-1.34,0.53-1.97,1.75-2.04c2.6-0.16,5.2-0.21,7.79,0.03
		c1.44,0.13,1.91,0.83,1.89,2.31c-0.07,4.28-0.74,8.55-0.44,12.84c0,0,0,0,0,0c-0.28,0.7-0.83,1.05-1.54,1.2c0,0,0,0,0,0
		c-1.11,0.09-1.61,0.77-1.58,1.8c0.03,1.13,0.58,2.01,1.71,2.31c1.86,0.5,3.71,1.09,5.68,0.97c0.72,0.58,1.58,0.3,2.38,0.37
		c3.44,0.06,6.88,0.19,10.25-0.73c1.42-0.34,2.94-0.4,4.21-1.25c0,0,0,0,0,0C333.57,223.18,333.69,221.81,332.39,221.15z
		 M287.27,175.09c0,0,0-0.01-0.01-0.01c0,0,0.01,0,0.01-0.01c0,0,0.01,0.01,0.01,0.01C287.28,175.08,287.27,175.08,287.27,175.09z
		 M287.33,174.8c0-0.03-0.01-0.05-0.01-0.08c0.01,0.01,0.02,0.03,0.03,0.04C287.34,174.78,287.34,174.79,287.33,174.8z
		 M297.75,225.48L297.75,225.48L297.75,225.48c0.02-0.01,0.05-0.01,0.07-0.02c0,0.01,0.01,0.02,0.01,0.02
		C297.81,225.48,297.78,225.48,297.75,225.48z M299.79,218.87C299.79,218.87,299.79,218.87,299.79,218.87
		C299.79,218.87,299.79,218.87,299.79,218.87c-0.02-0.02-0.03-0.05-0.05-0.07c0.02,0,0.04,0.01,0.05,0.01
		C299.79,218.83,299.79,218.85,299.79,218.87z M313.46,174.76c0-0.02-0.01-0.03-0.01-0.05c0.04,0,0.09,0,0.13,0.01
		C313.54,174.73,313.5,174.74,313.46,174.76z M315.83,221.61c0-0.01,0.01-0.01,0.01-0.02c0.01,0.01,0.02,0.01,0.03,0.02
		C315.86,221.61,315.85,221.61,315.83,221.61z M317.79,197.37C317.79,197.37,317.78,197.37,317.79,197.37c0-0.01,0-0.01,0.01-0.01
		C317.79,197.36,317.79,197.37,317.79,197.37z M322.48,194.66c0-0.01,0-0.01-0.01-0.02c0,0,0.01,0,0.01-0.01c0,0,0,0,0,0
		C322.49,194.64,322.48,194.65,322.48,194.66z"/>
	<path class="st0" d="M224.22,175.44c-0.79-0.29-1.59-0.6-2.41-0.76c-4.51-0.84-9.07-0.33-13.6-0.4c-1.62,0.06-3.18,0.47-4.71,0.97
		c-1.15,0.38-2.26,0.87-2.32,2.25c-0.07,1.53,0.9,2.32,2.29,2.69c0,0,0,0,0,0c1.35,1.78,0.63,3.87,0.83,5.81
		c0,2.78-0.05,5.57,0.01,8.35c0.03,1.26-0.38,2.59,0.36,3.79c0,0,0,0,0,0c0,3.09,0.1,6.19-0.03,9.28c-0.11,2.51-0.4,5.05-2.69,6.73
		c-2.09,0.55-4.17,0.52-6.26,0.02c0,0,0,0,0,0c0,0,0,0,0,0c-0.14-0.12-0.28-0.25-0.42-0.37c-0.38-0.66-0.76-1.32-1.14-1.99
		c0,0,0,0,0,0c-0.44-1.85-0.37-3.74-0.42-5.62c-0.21-7.61,0.47-15.21,0.38-22.82c-0.02-1.68,0.23-2.9,1.86-3.87
		c1.86-1.11,1.61-2.94-0.36-3.91c-1.46-0.72-2.98-1.23-4.65-1.36c-4.28-0.33-8.56-0.41-12.83,0.04c-1.96,0.21-4.06,0.23-5.49,1.98
		c0,0,0,0,0,0c-0.39,0.58-0.52,1.22-0.41,1.91c0,0,0,0,0,0c0.07,1.01,0.85,1.4,1.6,1.79c0.6,0.31,1.08,0.68,1.13,1.45
		c0.1,1.55,0.4,3.1,0.36,4.65c-0.15,6.25,0.49,12.48,0.43,18.72c0,0,0,0,0,0c0,0,0,0,0,0c0.03,0.81-0.2,1.66,0.35,2.4c0,0,0,0,0,0
		c0,0.43-0.01,0.86,0.41,1.13v0l0,0c-0.52,0.77-0.57,1.46,0.35,1.97c0,0,0,0,0,0c-0.1,0.24-0.2,0.48-0.3,0.71c0,0,0,0,0,0
		c0,0,0,0,0,0c0.35,1.46,0.58,2.97,1.39,4.27c0.02,0.05,0.04,0.1,0.09,0.15c0.73,1.64,0.18,2.98-0.98,4.19
		c-0.31,0.33-0.65,0.67-0.84,1.07c-0.39,0.83-1.29,1.62-0.48,2.65c0.73,0.92,1.76,0.73,2.7,0.54c0.55-0.11,1.05-0.46,1.58-0.69
		c3.13-1.53,5.88-0.18,8.62,1.16c0,0,0,0,0,0c0.27,0.4,0.69,0.59,1.13,0.71c2.63,0.74,5.34,1.02,8.05,1.22
		c2.45,0.19,4.89-0.14,7.29-0.72c2.47-0.37,4.82-1.12,6.99-2.38c0.27-0.13,0.53-0.25,0.8-0.38c0,0,0,0,0,0c0,0,0,0,0,0
		c2.42-0.33,4.62,0.52,6.83,1.31c0.78,0.28,1.36,0.12,1.93-0.45c0.59-0.6,0.62-1.2,0.34-1.95c-0.57-1.52-1.56-2.68-2.81-3.66
		c0.02-0.47,0.05-0.95,0.07-1.42c0,0,0,0,0,0c1.96-2.72,2.45-5.86,2.62-9.09c0,0,0,0,0,0c0-0.91,0-1.82,0-2.73c0,0,0,0,0,0
		c0,0,0,0,0,0c0.01-0.25,0.03-0.49,0.04-0.74c0,0,0,0,0,0c0.73-3.12,0.27-6.28,0.37-9.42c0.02-0.5,0.03-0.99,0.05-1.49c0,0,0,0,0,0
		c0.41-0.65,0.28-1.38,0.29-2.08c0.03-2.85,0.05-5.7,0.08-8.55c0.39-1.09,0.85-2.13,1.9-2.76c0.31-0.35,0.8-0.54,0.91-1.07
		c0,0,0,0,0,0C226.27,177.11,225.81,176.03,224.22,175.44z M203.53,179.73c0-0.01,0-0.01,0-0.02c0,0,0.01,0,0.01,0
		C203.54,179.72,203.54,179.72,203.53,179.73z M185.11,215.37C185.11,215.37,185.11,215.37,185.11,215.37
		C185.11,215.37,185.11,215.37,185.11,215.37C185.11,215.36,185.11,215.36,185.11,215.37C185.11,215.37,185.11,215.37,185.11,215.37
		C185.11,215.37,185.11,215.37,185.11,215.37z M192.53,224.38c0.04,0,0.07,0,0.11,0c0,0.01,0,0.02,0.01,0.03
		C192.61,224.39,192.57,224.39,192.53,224.38z M192.96,211.05C192.96,211.05,192.96,211.05,192.96,211.05
		c-0.06-0.07-0.12-0.14-0.17-0.22c0.05,0.01,0.1,0.02,0.15,0.02C192.95,210.92,192.95,210.98,192.96,211.05
		C192.96,211.05,192.96,211.05,192.96,211.05z M194.49,213.83c-0.01-0.01-0.01-0.01-0.02-0.02c0.01,0,0.02,0,0.03,0
		C194.5,213.82,194.5,213.83,194.49,213.83z M205.11,224.38c-0.05,0.02-0.11,0.03-0.16,0.04c0-0.02,0-0.04,0.01-0.05
		C205,224.37,205.05,224.37,205.11,224.38C205.11,224.38,205.11,224.38,205.11,224.38C205.11,224.38,205.11,224.38,205.11,224.38z
		 M222.34,181.74c0-0.02,0-0.03,0-0.05c0.01,0.01,0.01,0.03,0.02,0.04C222.36,181.74,222.35,181.74,222.34,181.74z"/>
	<path class="st0" d="M386.04,220.8c-0.43-0.27-0.88-0.51-1.32-0.76c0,0,0,0,0,0c-0.13-0.89-0.36-1.78-0.39-2.68
		c-0.16-5.63-0.28-11.25-0.41-16.88c-0.09-0.92,0.27-1.91-0.37-2.76c0,0,0,0,0,0c0-0.25-0.01-0.5-0.01-0.75
		c-0.07-0.8,0.21-1.66-0.37-2.38c0,0,0,0,0,0c0-0.43-0.01-0.85-0.36-1.17c-0.2-0.92-0.23-1.9-0.82-2.71c0,0,0,0,0,0l0,0
		c-0.17-1.56,0.08-3.28-1.53-4.33c0,0,0,0,0,0c-0.03-0.24-0.06-0.48-0.09-0.72c0,0,0,0,0,0c0,0,0,0,0,0
		c-0.21-1.72-1.03-3.14-2.22-4.36c0,0,0,0,0,0c-0.48-0.93-0.32-1.69,0.56-2.31c0.56-0.4,1.22-0.73,1.4-1.51c0,0,0,0,0,0
		c0.68-1.38,0.54-2.34-1.26-2.43c0,0,0,0,0,0c-2.51-0.07-5,0.85-7.52,0.27c-4.88-1.11-9.78-1.64-14.77-1.02c0,0,0,0,0,0
		c-1.04-0.05-2.05-0.01-3.08,0.26c-3.16,0.82-6.35,1.13-9.56,0.28c-1.08-0.29-2.2-0.22-2.77,0.79c-0.67,1.18,0.12,2.26,1.04,2.81
		c1.79,1.05,1.91,2.17,0.63,3.65c0,0,0,0,0,0c-1.4,1.89-2.41,3.94-2.69,6.31c-0.14,0.38-0.29,0.76-0.43,1.14c0,0,0,0,0,0
		c-0.53,0.57-0.34,1.28-0.39,1.95c0,0,0,0,0,0c-0.13,0.4-0.25,0.79-0.38,1.19v0c-0.69,0.81-0.27,1.8-0.44,2.69c0,0,0,0,0,0
		c-0.69,1.25-0.2,2.62-0.39,3.92l0.08,0.06c0,0,0,0,0,0c0,0,0,0,0,0c-0.03-0.02-0.05-0.04-0.08-0.06c-0.35,0.44-0.32,0.97-0.35,1.49
		c-0.32,5.44-0.5,10.89-0.38,16.34c0.03,1.21-0.17,2.32-0.78,3.36c0,0,0,0,0,0c0,0-0.01-0.01-0.01-0.01
		c-0.67-0.04-1.25,0.1-1.57,0.78c0,0,0,0,0,0c0,0,0,0,0,0c-0.13,0.13-0.26,0.26-0.39,0.39c-0.81,1.49-0.58,2.59,1.16,3.13
		c0,0,0,0,0,0c5.72,1.56,11.48,2.22,17.34,0.85c0,0,0,0,0,0c1.35-0.01,2.69-0.09,3.92-0.7c0.1-0.02,0.2-0.06,0.29-0.14
		c2.23-1.35,2.27-2.62,0.07-3.94c-0.51-0.31-0.99-0.61-1.25-1.16c0.16-4.83,0.37-5.05,4.76-5.04c4.63,0.02,5.6,1.35,4.2,5.76
		c-0.34,0.33-0.93,0.33-1.13,0.86c0,0,0,0,0,0s0,0,0,0c-0.15,0.11-0.29,0.23-0.44,0.34c-1.42,1.18-1.22,2.51,0.79,3.12
		c4.73,1.43,9.58,2.09,14.53,1.25c0,0,0,0,0,0c0.94-0.04,1.91,0.12,2.79-0.37c0,0,0,0,0,0c0.82,0.16,1.54-0.2,2.29-0.43
		c0.87,0.03,1.7-0.1,2.37-0.73c0,0,0,0,0,0C387.84,222.95,387.77,221.9,386.04,220.8z M334.69,223.25
		c-0.02-0.03-0.04-0.05-0.06-0.08c0,0,0,0,0,0c0,0,0,0,0,0c0.03,0,0.06,0,0.09,0C334.71,223.2,334.7,223.23,334.69,223.25z
		 M338.96,194.65c0-0.02,0-0.04,0-0.06c0.01,0,0.02,0,0.03,0C338.98,194.61,338.97,194.63,338.96,194.65z M349.09,219.26
		c-0.02-0.02-0.04-0.05-0.06-0.07c0.02-0.01,0.04-0.01,0.06-0.01C349.09,219.21,349.09,219.23,349.09,219.26z M362.53,203.24
		c-1.68,0.09-3.43-0.4-5.02,0.5c-0.03-0.01-0.06-0.02-0.08-0.03c-0.04-0.01-0.08-0.02-0.11-0.03c0.02-4.1-0.31-8.23,1.03-12.23
		c0.28-0.85,0.64-1.73,0.26-2.66c-0.01-0.01-0.03-0.02-0.04-0.03c0.06-0.25,0.14-0.5,0.22-0.74c0.19-0.45,0.36-0.83,0.53-1.14
		c0.11-0.18,0.22-0.35,0.35-0.51c0.26-0.33,0.53-0.58,0.8-0.7c0.28-0.06,0.6,0.01,1,0.18c0.15,0.15,0.3,0.35,0.45,0.63
		c0.18,0.31,0.37,0.62,0.59,0.91c0.03,0.03,0.05,0.06,0.08,0.08c-0.21,0.41-0.13,0.86,0.03,1.27c1.52,3.87,1.64,7.96,2.01,12.02
		C364.8,202.88,364.61,203.12,362.53,203.24z M374.12,177.79c0-0.01,0.01-0.02,0.01-0.02c0.01,0.01,0.01,0.01,0.02,0.02
		C374.14,177.79,374.13,177.8,374.12,177.79z M379.65,185.2C379.65,185.2,379.65,185.19,379.65,185.2
		C379.65,185.19,379.65,185.19,379.65,185.2C379.65,185.19,379.65,185.19,379.65,185.2C379.65,185.19,379.65,185.19,379.65,185.2
		C379.65,185.2,379.65,185.2,379.65,185.2z M382.37,200.61c0-0.05,0-0.1,0-0.15c0,0,0,0,0,0c0,0,0,0,0,0
		c0.03,0.03,0.05,0.07,0.08,0.1C382.42,200.58,382.4,200.6,382.37,200.61z"/>
	<path class="st0" d="M277.09,175.39c-0.61-1-1.72-1.02-2.72-0.31c-0.53,0.25-1.05,0.5-1.58,0.76c0,0,0,0,0,0
		c-1.6,0.26-3.24,0.73-4.82,0.23c-6.49-2.05-13.12-2.25-19.82-1.77c0,0,0,0,0,0c-2.66-0.19-5.12,0.77-7.66,1.28
		c-2.19,0.44-4.39,0.49-6.56-0.03c-1.43-0.34-3-1.86-4.22-0.09c-1.19,1.73,0.43,3.08,1.44,4.23c0.9,1.03,0.94,1.8,0.33,2.93
		c-1.18,2.17-1.99,4.5-2.5,6.92c-1.63,5.36-1.42,10.88-1.07,16.34c0.17,2.72,0.77,5.51,2.15,8c0,0,0,0,0,0
		c-0.01,0.25-0.13,0.55-0.02,0.73c1.7,2.91,2.54,5.78-0.34,8.5c0,0,0,0,0,0c-0.46,1.81,0.33,2.72,2.08,2.32
		c1.3-0.3,2.57-0.71,3.85-1.07c1.04,0,2.09,0,3.13-0.01l0,0c0.57,0.57,1.29,0.35,1.96,0.39c0,0,0,0,0,0c0,0,0,0,0,0c0,0,0,0,0,0
		c0,0,0,0,0,0c2.94,0.69,5.89,1.34,8.94,1.21c0.6,0.5,1.33,0.32,2.02,0.36c0,0,0,0,0,0c3-0.01,6.02,0.25,9-0.42c0,0,0,0,0,0
		c0,0,0,0,0,0c0.68-0.02,1.4,0.16,1.99-0.36c0,0,0,0,0,0c2.26-0.31,4.43-0.86,6.22-2.39c0,0,0,0,0,0c0,0,0,0,0,0
		c0.99-0.95,2.42-1.37,3.19-2.59c1.71-1.06,2.47-2.84,3.42-4.48c0,0,0,0,0,0c1.82-2.23,1.22-4.9,1.2-7.41
		c-0.02-2.34-2.05-3.37-4.1-2.15c-1.16,0.69-2.33,1.07-3.66,0.98c-0.25-0.11-0.5-0.16-0.76-0.18c-1.75-0.4-3.53-0.62-5.33-0.57
		c-1.97,0.05-3.13,1.12-3.33,3.07c-0.14,1.35-0.29,2.69-0.82,3.95c-2.95,2.05-7.35,1.21-9.5-1.72c-0.55-0.75-0.67-1.89-1.79-2.18v0
		l0,0c-0.33-1.06,0.06-2.39-1.16-3.13c0,0,0,0,0,0c-0.03-0.12-0.06-0.24-0.07-0.35c-0.09-4.45-0.44-8.91,0.42-13.33l0,0c0,0,0,0,0,0
		c0,0,0,0,0,0c0.27-0.52,0.53-1.03,0.8-1.55v0c0,0,0,0,0,0c0.34-0.54,0.71-1.07,1.01-1.64c1.53-2.81,3.86-4.21,7.08-4.26
		c1.25-0.02,2.43,0.3,3.65,0.41c1.51,0.25,0.9,1.28,0.76,2.1c-0.64,3.77,0.4,5.86,3.88,7.76c0.67,0.61,1.48,0.8,2.36,0.74
		c1.72,0.59,3.44,0.6,5.15-0.01c0,0,0,0,0,0c1.35-0.33,2.69-0.68,3.58-1.88c0,0,0,0,0,0c0.5-0.55,0.99-1.1,1.49-1.65
		c0.58-1.05,0.56-2.1,0-3.15c0,0,0,0,0,0c-0.48-1.26-0.83-2.54-0.8-3.9c0-0.92,0-1.83,0-2.75c0,0,0,0,0,0c0,0,0,0,0,0
		c-0.18-1.53,0.69-2.84,0.9-4.28c0,0,0,0,0,0C277.67,177.98,277.85,176.64,277.09,175.39z M266.89,207.56c0,0,0,0.01,0,0.01
		c-0.01,0-0.02-0.01-0.03-0.01C266.87,207.56,266.88,207.56,266.89,207.56z M263.8,224.7c0,0.01,0,0.01,0,0.02
		c-0.01,0-0.02,0-0.03,0C263.78,224.71,263.79,224.7,263.8,224.7z M249.32,213.37c0,0,0,0.01,0.01,0.01c0,0,0,0,0,0c0,0,0,0,0,0
		C249.33,213.38,249.32,213.38,249.32,213.37C249.32,213.37,249.32,213.37,249.32,213.37z M260.65,187.97
		C260.65,187.96,260.65,187.96,260.65,187.97C260.65,187.96,260.65,187.97,260.65,187.97C260.65,187.97,260.65,187.97,260.65,187.97
		C260.65,187.97,260.65,187.97,260.65,187.97C260.65,187.97,260.65,187.97,260.65,187.97c0-0.02,0-0.05,0-0.07
		c0.02,0.03,0.04,0.05,0.07,0.07C260.7,187.96,260.67,187.97,260.65,187.97z M265.78,195.24c0.01-0.04,0.02-0.08,0.04-0.11
		c0.01,0.04,0.02,0.09,0.03,0.13C265.83,195.26,265.81,195.25,265.78,195.24z M270.36,195.4c0-0.02,0-0.04,0-0.07
		c0.03,0.02,0.06,0.04,0.08,0.07C270.41,195.4,270.38,195.4,270.36,195.4z"/>
</g>
</svg>
