<?xml version="1.0" encoding="utf-8"?>
<!-- Generator: Adobe Illustrator 28.3.0, SVG Export Plug-In . SVG Version: 6.00 Build 0)  -->
<svg version="1.1" id="Capa_1" xmlns="http://www.w3.org/2000/svg" xmlns:xlink="http://www.w3.org/1999/xlink" x="0px" y="0px"
	 viewBox="0 0 400 400" style="enable-background:new 0 0 400 400;" xml:space="preserve">
<style type="text/css">
	.st0{fill:#B3B3B3;}
</style>
<g>
	<path class="st0" d="M105.4,211.96c3.45-5.82,7.09-11.52,10.25-17.48c1.74-3.28,4.35-2.25,6.82-2.26c1.34-0.01,0.93,1.27,0.94,2.06
		c0.07,9.44,0.03,18.89,0.18,28.33c0.06,3.51-2.41,2.02-3.93,2.19c-1.65,0.18-3.48,0.62-3.35-2.38c0.24-5.28,0.07-10.57,0.07-17.08
		c-3.09,5.12-5.61,9.31-8.14,13.49c-2.23,3.69-4.2,3.67-6.49-0.05c-2.46-4-4.92-8-8.04-11.81c0,4.97-0.22,9.95,0.08,14.9
		c0.19,3.1-1.3,3.11-3.54,3.01c-2.04-0.08-3.78,0.37-3.68-2.9c0.25-8.81,0.04-17.63,0.14-26.44c0.01-1.13-1.05-3.24,1.12-3.3
		c2.02-0.05,4.49-1.29,6.07,1.47c2.94,5.12,6.04,10.15,9.13,15.18C103.66,209.93,104.01,211.23,105.4,211.96z"/>
	<path class="st0" d="M278.11,191.56c10.19,0.05,17.88,7.38,17.81,16.99c-0.07,9.58-7.85,16.92-17.96,16.92
		c-10.32,0-18.13-7.49-17.97-17.25C260.14,198.56,267.81,191.51,278.11,191.56z M288.13,208.3c-0.07-6.01-4.28-10.28-10.15-10.3
		c-5.96-0.01-10.41,4.58-10.3,10.61c0.11,6.1,4.54,10.37,10.62,10.24C284.12,218.74,288.2,214.36,288.13,208.3z"/>
	<path class="st0" d="M340.22,224.41c-5.21,1.44-8.92,0.36-11.34-4.5c-0.8-1.61-1.47-3.8-3.9-4.15c-5.36-0.78-5.8-0.37-5.9,5.14
		c-0.02,1.27,0.83,3.31-0.64,3.71c-1.98,0.55-4.25,0.31-6.34,0.03c-1-0.13-0.59-1.5-0.59-2.32c-0.03-9.19,0.03-18.37-0.05-27.56
		c-0.02-1.86,0.34-2.74,2.45-2.66c4.65,0.17,9.32-0.03,13.96,0.2c5.94,0.29,10.13,3.26,11.52,8.07c1.56,5.42,0.23,9.98-4.65,13.11
		c-1.42,0.91-1.05,1.52-0.28,2.59C336.43,218.77,338.27,221.56,340.22,224.41z M324.89,198.33c-1.86,0-2.87,0.07-3.86-0.01
		c-2.28-0.19-2.17,1.49-1.84,2.73c0.76,2.85-2.2,6.79,1.64,8.47c2.04,0.89,4.92,0.49,7.39-0.23c2.81-0.81,4.16-2.72,4.08-5.55
		c-0.08-2.89-1.78-4.61-4.52-5.21C326.57,198.26,325.28,198.35,324.89,198.33z"/>
	<path class="st0" d="M184.57,152.31c0-4.53,0.16-9.06-0.05-13.58c-0.17-3.68,2.4-2.36,4.08-2.47c1.71-0.1,3.97-0.81,3.64,2.49
		c-0.24,2.37,0.06,4.78-0.08,7.16c-0.14,2.29,0.39,3.49,3.06,3.28c3-0.23,6.05-0.23,9.05,0c2.46,0.19,2.98-0.78,2.83-2.98
		c-0.18-2.5,0.11-5.04-0.08-7.54c-0.28-3.73,2.44-2.26,4.08-2.4c1.72-0.15,3.7-0.77,3.63,2.49c-0.21,9.3-0.17,18.62-0.02,27.92
		c0.06,3.52-2.36,2.16-3.85,2.18c-1.51,0.01-4.05,1.29-3.83-2.21c0.18-3.01-0.03-6.04,0.06-9.05c0.05-1.59-0.42-2.24-2.11-2.18
		c-3.52,0.11-7.04,0.09-10.56,0.01c-1.59-0.04-2.3,0.48-2.23,2.14c0.09,2.13,0.02,4.28,0.02,6.41c0,5.1,0,4.98-4.91,5.02
		c-2.12,0.01-2.84-0.54-2.76-2.72C184.68,161.62,184.57,156.97,184.57,152.31z"/>
	<path class="st0" d="M356.08,208.42c0-4.53,0.05-9.06-0.03-13.59c-0.03-1.74,0.12-2.79,2.36-2.75c6.79,0.14,13.59,0.15,20.39,0
		c2.55-0.05,2.09,1.52,2.05,2.95c-0.03,1.5,0.65,3.37-2.17,3.25c-4.15-0.17-8.32,0.16-12.45-0.11c-3.24-0.21-2.56,1.84-2.6,3.62
		c-0.04,1.85-0.53,3.81,2.66,3.5c3.24-0.31,6.55,0.11,9.81-0.12c2.5-0.18,2.89,0.86,2.88,3.03c-0.01,2.12-0.3,3.24-2.85,3.06
		c-3.38-0.24-6.8,0.09-10.19-0.1c-3.47-0.2-2.24,2.29-2.24,3.82c0,1.53-1.23,3.98,2.24,3.82c4.27-0.19,8.57,0.19,12.83-0.12
		c3.02-0.22,2.65,1.41,2.83,3.38c0.23,2.48-0.76,2.88-2.97,2.83c-6.54-0.14-13.09-0.14-19.63,0c-2.26,0.05-3.09-0.48-2.98-2.9
		C356.23,217.49,356.08,212.95,356.08,208.42z"/>
	<path class="st0" d="M232.64,152.41c0-4.53,0.06-9.05-0.03-13.58c-0.03-1.77,0.15-2.72,2.38-2.67c6.66,0.16,13.33,0.16,19.99,0
		c2.44-0.06,2.54,1.12,2.52,2.97c-0.02,1.92,0.08,3.41-2.67,3.26c-4.14-0.23-8.3,0.08-12.44-0.1c-3.21-0.14-2.12,2.1-2.13,3.56
		c-0.01,1.46-1.08,3.72,2.14,3.53c3.26-0.2,6.54,0.07,9.8-0.08c2.24-0.1,3.37,0.23,3.27,2.95c-0.08,2.37-0.54,3.33-3.1,3.13
		c-3-0.24-6.04,0.07-9.05-0.1c-2.29-0.13-3.15,0.35-3.25,2.97c-0.14,3.59,0.56,5.2,4.59,4.72c3.6-0.43,7.29,0.08,10.92-0.14
		c2.6-0.16,2.48,1.3,2.4,3.03c-0.07,1.56,0.5,3.23-2.26,3.16c-6.91-0.18-13.83-0.16-20.74,0c-2.21,0.05-2.41-0.88-2.37-2.64
		C232.7,161.71,232.64,157.06,232.64,152.41z"/>
	<path class="st0" d="M141.32,208.55c0-4.65,0.11-9.31-0.05-13.95c-0.07-2.07,0.67-2.52,2.57-2.5c6.66,0.09,13.33,0.16,19.99-0.03
		c2.61-0.07,2.44,1.34,2.37,3.04c-0.06,1.57,0.49,3.31-2.27,3.18c-4.27-0.19-8.55,0.09-12.82-0.09c-3.16-0.13-2.18,2.05-2.18,3.55
		c0,1.49-1.01,3.71,2.17,3.53c3.51-0.19,7.05,0.12,10.55-0.1c2.55-0.16,2.54,1.21,2.43,2.98c-0.1,1.55,0.52,3.32-2.3,3.11
		c-3.5-0.25-7.05,0.12-10.55-0.11c-3.05-0.2-2.53,1.83-2.29,3.4c0.24,1.56-1.62,4.35,2.19,4.24c4.4-0.12,8.81,0.16,13.2-0.09
		c2.95-0.17,2.39,1.6,2.52,3.32c0.15,1.96-0.22,2.93-2.57,2.88c-6.79-0.16-13.58-0.15-20.36,0c-2.23,0.05-2.71-0.74-2.65-2.78
		C141.42,217.6,141.32,213.07,141.32,208.55z"/>
	<path class="st0" d="M195.05,191.38c2.57,0.08,5,0.71,7.44,1.36c3.03,0.8,4.06,2.11,2.38,5.22c-0.94,1.75-1.53,2.08-3.3,1.19
		c-2.99-1.5-6.26-1.96-9.55-1.26c-1.62,0.34-3.14,1.12-3.31,3.13c-0.18,2.12,1.34,2.86,2.94,3.34c3.01,0.9,6.09,1.54,9.07,2.5
		c4.49,1.44,6.74,4.14,6.93,7.96c0.19,4-2.19,7.64-6.47,9.25c-6.49,2.45-12.82,1.58-19-1.32c-3.08-1.45-0.58-3.04-0.23-4.58
		c0.5-2.23,1.61-1.8,3.24-0.98c3.66,1.84,7.54,2.73,11.69,1.75c1.6-0.38,2.92-1.15,3.12-2.83c0.22-1.82-1.2-2.74-2.66-3.22
		c-2.62-0.87-5.32-1.48-7.97-2.26c-6.1-1.79-8.38-4.33-8.27-9.14c0.11-4.78,3.06-8.01,8.74-9.37
		C191.54,191.7,193.31,191.62,195.05,191.38z"/>
	<path class="st0" d="M28.9,211.28c0-3.02-0.29-6.07,0.08-9.05c0.44-3.56-1.04-4.39-4.16-3.93c-0.98,0.15-2.03-0.09-3.01,0.05
		c-2.57,0.36-3.43-0.53-3.45-3.24c-0.02-2.68,0.99-3.06,3.29-3.02c7.42,0.12,14.84,0.14,22.26-0.01c2.38-0.05,3.33,0.46,3.17,3.05
		c-0.13,2.14-0.16,3.34-2.97,3.29c-7.58-0.12-7.58,0.04-7.58,7.5c0,5.53-0.16,11.07,0.06,16.6c0.13,3.11-1.88,2.5-3.42,2.27
		c-1.57-0.23-4.39,1.62-4.28-2.19C28.98,218.82,28.9,215.05,28.9,211.28z"/>
	<path class="st0" d="M233.45,192.13c3.9,0,7.81,0.19,11.69-0.07c2.61-0.17,2.87,0.99,2.74,3.07c-0.11,1.77,0.32,3.45-2.57,3.27
		c-2.56-0.15-6.1-1.28-7.5,0.56c-1.29,1.69-0.47,5.04-0.48,7.65c-0.04,5.28-0.17,10.57,0.04,15.84c0.15,3.8-2.5,2.18-4.1,2.34
		c-1.7,0.16-3.73,0.81-3.62-2.47c0.24-7.16,0.01-14.33,0.11-21.5c0.03-1.91-0.43-2.76-2.48-2.53c-1.49,0.16-3.04-0.16-4.52,0.07
		c-3.17,0.49-3.72-0.99-3.65-3.78c0.06-2.09,0.77-2.53,2.63-2.48C225.65,192.2,229.55,192.13,233.45,192.13z"/>
	<path class="st0" d="M156.22,136.22c4.02,0,8.06,0.15,12.07-0.05c2.61-0.13,2.45,1.37,2.38,3.08c-0.06,1.56,0.5,3.52-2.25,3.16
		c-0.25-0.03-0.5-0.01-0.75,0c-7.53,0.15-7.53,0.15-7.53,7.59c0,5.41-0.22,10.83,0.08,16.22c0.2,3.5-1.95,2.76-3.81,2.69
		c-1.73-0.07-4.05,1.05-3.93-2.55c0.25-7.03-0.04-14.08,0.13-21.12c0.06-2.41-0.71-3.13-2.97-2.85c-1.24,0.15-2.55-0.17-3.76,0.06
		c-3.65,0.71-4.14-1.17-3.93-4.18c0.12-1.66,0.59-2.12,2.19-2.08C148.17,136.28,152.19,136.22,156.22,136.22z"/>
	<path class="st0" d="M290.45,254.88c19.25,0,38.5,0,57.74,0c0.88,0,1.76,0,2.64,0.01c0.49,0.01,1.06,0,1.16,0.63
		c0.14,0.91-0.54,0.96-1.18,0.98c-0.75,0.02-1.51,0.01-2.26,0.01c-38.75,0-77.5,0-116.24,0c-0.75,0-1.51,0.02-2.26-0.01
		c-0.48-0.02-1.07,0.04-1.17-0.64c-0.13-0.93,0.56-0.96,1.19-0.98c0.88-0.02,1.76-0.01,2.64-0.01
		C251.96,254.88,271.2,254.88,290.45,254.88z"/>
	<path class="st0" d="M171.94,255.65c-0.86,1.51-2.28,0.83-3.4,0.83c-38.51,0.04-77.02,0.03-115.53,0.03
		c-0.63,0-1.26,0.01-1.89-0.01c-0.63-0.02-1.33-0.04-1.21-0.96c0.09-0.63,0.65-0.64,1.15-0.65c0.88-0.01,1.76-0.01,2.64-0.01
		c38.13,0,76.27-0.01,114.4,0.03C169.36,254.91,170.86,254.25,171.94,255.65z"/>
	<path class="st0" d="M61.12,208.22c0-4.53,0.19-9.08-0.06-13.6c-0.19-3.31,1.97-2.55,3.65-2.45c1.66,0.11,4.14-1.26,4.06,2.45
		c-0.19,9.31-0.16,18.64-0.01,27.95c0.06,3.51-2.35,2.19-3.85,2.19c-1.5,0-3.98,1.33-3.83-2.2
		C61.27,217.8,61.12,213.01,61.12,208.22z"/>
	<path class="st0" d="M201.18,247.6c0.16,0.07,0.28,0.09,0.36,0.16c8.56,8.26,8.56,8.26-1.03,16.15c-1.09-1.21-2.18-2.42-3.27-3.63
		c-4.54-5.04-4.54-5.04,0.59-9.69C198.94,249.57,200.08,248.58,201.18,247.6z M205,255.7c-1.5-1.33-2.28-3.77-4.08-3.56
		c-1.39,0.17-3.57,2.12-3.59,3.31c-0.02,1.56,1.88,3.74,3.49,3.8C202.42,259.32,203.69,257.24,205,255.7z"/>
</g>
</svg>
