<?xml version="1.0" encoding="utf-8"?>
<!-- Generator: Adobe Illustrator 28.3.0, SVG Export Plug-In . SVG Version: 6.00 Build 0)  -->
<svg version="1.1" id="Capa_1" xmlns="http://www.w3.org/2000/svg" xmlns:xlink="http://www.w3.org/1999/xlink" x="0px" y="0px"
	 viewBox="0 0 400 400" style="enable-background:new 0 0 400 400;" xml:space="preserve">
<style type="text/css">
	.st0{fill:#B3B3B3;}
</style>
<g>
	<path class="st0" d="M367.06,232.11c-0.93,5.4-2.27,10.71-3.81,15.96c-2.23,7.63-5.02,15.07-8.3,22.32
		c-2.86,6.3-6.12,12.39-9.72,18.29c-4.88,7.98-10.39,15.5-16.49,22.58c-2.1,2.44-4.32,4.79-6.55,7.12
		c-5.08,5.3-10.53,10.2-16.26,14.77c-7.91,6.31-16.32,11.86-25.23,16.66c-8.12,4.38-16.53,8.05-25.25,11.07
		c-8.4,2.91-16.98,5.11-25.72,6.67c-4.81,0.86-9.66,1.51-14.54,1.89c-2.71,0.21-5.42,0.37-8.14,0.52
		c-4.28,0.23-8.56,0.23-12.83,0.09c-11.39-0.39-22.65-1.88-33.75-4.52c-10.61-2.53-20.89-6.04-30.82-10.55
		c-10.71-4.86-20.8-10.79-30.28-17.77c-4.96-3.65-9.74-7.53-14.27-11.69c-7.51-6.89-14.37-14.4-20.54-22.52
		c-5.89-7.75-11.09-15.94-15.59-24.57c-3.86-7.4-7.12-15.05-9.86-22.93c-2.69-7.75-4.78-15.67-6.3-23.73
		c-0.95-5-1.59-10.04-2.14-15.11c-0.81-7.52-0.84-15.06-0.69-22.59c0.12-6.34,0.8-12.65,1.7-18.94c1.24-8.62,3.15-17.08,5.71-25.4
		c2.19-7.13,4.87-14.07,7.98-20.85c4.24-9.23,9.3-18,15.11-26.33c3.78-5.42,7.89-10.6,12.29-15.54c2.37-2.66,4.78-5.28,7.32-7.78
		c5.29-5.2,10.86-10.08,16.76-14.59c6.44-4.91,13.19-9.35,20.25-13.31c8.67-4.85,17.71-8.89,27.11-12.15
		c8.64-3,17.46-5.27,26.46-6.85c4.12-0.72,8.26-1.24,12.42-1.68c7.56-0.82,15.14-0.88,22.72-0.72c6.44,0.14,12.84,0.78,19.22,1.73
		c7.58,1.12,15.06,2.73,22.42,4.86c7.48,2.16,14.77,4.85,21.89,8.01c10.76,4.78,20.87,10.66,30.41,17.55
		c5.03,3.63,9.84,7.53,14.42,11.71c2.26,2.06,4.51,4.13,6.66,6.31c6.85,6.97,13.13,14.41,18.71,22.44c4.24,6.09,8.08,12.42,11.51,19
		c3.83,7.36,7.08,14.97,9.81,22.8c2.76,7.91,4.86,15.99,6.42,24.21c0.69,3.64,1.24,7.32,1.66,11c0.5,4.4,0.83,8.81,1.04,13.23
		c0.2,4.28,0.22,8.56,0.09,12.83c-0.22,7.59-0.99,15.15-2.25,22.65c-0.02,0.11-0.13,0.2-0.2,0.29c-0.53-0.17-1.08-0.08-1.63-0.08
		c-92.87,0-185.75,0-278.62,0c-1.92,0-1.92,0-1.92,1.92c0,1.7,0,1.7,1.75,1.7c92.66,0,185.33,0,277.99,0
		C365.8,232.1,366.43,232.11,367.06,232.11z M246.4,185.22c-0.13-0.71-0.7-1.12-1.14-1.59c-0.37-0.4-0.35-0.67,0.01-1.06
		c0.45-0.49,0.94-0.97,1.25-1.63c-0.58,0.48-1.13,0.91-1.66,1.38c-0.31,0.27-0.56,0.32-0.86,0.01c-0.15-0.15-0.32-0.28-0.46-0.43
		c-0.87-0.89-2.12-1.32-2.86-2.36c-1.28-0.11-2.26-1.01-3.46-1.32c-0.56-0.14-1.1-0.33-1.51-0.76c-0.98,0.38-1.86-0.28-2.8-0.24
		c-0.73,0.03-0.93-0.38-0.99-0.98c-0.03-0.25-0.05-0.5-0.09-0.75c-0.37-2.34-0.73-4.67-1.1-7.01c-0.26,0.24-0.35,0.51-0.39,0.78
		c-0.28,1.98-0.45,3.97-0.92,5.92c-0.14,0.6,0.08,1.36-0.4,1.8c-0.46,0.42-1.19,0.27-1.8,0.4c-0.63,0.13-1.27,0.33-1.93,0.17
		c-1.12,0.92-2.65,0.96-3.81,1.79c-0.32,0.23-0.79-0.01-1,0.24c-1.06,1.24-2.6,1.86-3.64,3.06c-0.92-0.54-1.49-1.33-2.27-1.71
		c0.41,0.51,0.87,1.1,1.35,1.67c0.27,0.32,0.41,0.56,0.05,0.95c-0.82,0.89-1.6,1.84-2.19,2.91c-0.16,0.3-0.54,0.23-0.64,0.67
		c-0.32,1.47-1.25,2.73-1.58,4.21c-0.05,0.23-0.45,0.2-0.38,0.57c0.19,0.96-0.27,1.88-0.27,2.83c0,0.59-0.32,0.77-0.86,0.84
		c-1.33,0.18-2.65,0.43-3.98,0.63c-1,0.16-2,0.28-2.99,0.45c-0.5,0.08-0.71-0.08-0.7-0.58c0.01-0.34,0-0.67,0-1.01
		c0-5.71,0-11.42-0.01-17.13c0-0.75,0.32-1.71-0.14-2.19c-0.52-0.54-1.51-0.18-2.29-0.19c-1.79-0.02-1.57-0.19-1.57,1.5
		c-0.01,11.3,0,22.59-0.01,33.89c0,0.38,0.11,0.8-0.19,1.27c-0.28-0.41-0.49-0.71-0.69-1.01c-7.11-11.04-14.22-22.09-21.34-33.14
		c-0.52-0.81-0.91-1.84-1.65-2.34c-0.8-0.55-1.96-0.16-2.95-0.18c-1.74-0.03-1.44-0.11-1.44,1.5c-0.01,12.68-0.01,25.36,0,38.05
		c0,0.83-0.36,1.9,0.15,2.43c0.57,0.59,1.67,0.2,2.53,0.21c1.52,0.02,1.32,0.18,1.32-1.35c0.01-11.34,0-22.68,0-34.02
		c0-0.4,0-0.81,0-1.39c0.53,0.39,0.71,0.82,0.94,1.19c4.99,7.82,9.98,15.64,14.97,23.46c2.39,3.75,4.8,7.49,7.16,11.26
		c0.41,0.65,0.86,0.92,1.61,0.87c0.92-0.06,1.85-0.04,2.77-0.01c0.57,0.02,0.89-0.12,0.81-0.76c-0.03-0.29-0.01-0.59-0.01-0.88
		c0-5.84,0-11.67,0-17.51c0-0.34,0-0.67,0.01-1.01c0.01-0.28,0.13-0.53,0.45-0.44c0.94,0.27,1.82-0.16,2.74-0.16
		c7.89,0.02,15.79,0.01,23.68,0.02c0.26,0,0.6-0.16,0.87,0.48c-0.85,0.78-1.81,1.6-2.7,2.48c-0.48,0.48-0.96,0.81-1.65,0.57
		c-0.59-0.2-0.88,0.11-1.23,0.53c-0.79,0.96-1.52,1.98-2.55,2.86c-0.94-1.25-1.78-2.45-2.02-3.99c-0.09-0.55-0.46-0.4-0.82-0.31
		c0.41,1.64,1.08,3.07,2.07,4.35c0.25,0.32,0.31,0.5-0.01,0.93c-0.63,0.84-1.33,1.61-1.99,2.42c-0.56,0.68-0.66,0.67-1.22-0.03
		c-1.92-2.39-3.18-5.07-3.58-8.12c-0.04-0.31-0.17-0.45-0.45-0.49c-1.01-0.14-2.03-0.27-3.07-0.42c-0.14,1.35,0.48,2.53,0.3,3.78
		c0.77,1.55,1.19,3.3,2.04,4.75c0.81,1.38,1.86,2.73,3.08,3.9c-0.57,0.71-1.09,1.34-1.61,1.98c0.58-0.33,1.09-0.73,1.58-1.17
		c0.35-0.32,0.62-0.29,0.96,0.03c0.85,0.81,1.78,1.54,2.81,2.11c0.33,0.19,0.26,0.7,0.55,0.72c1.49,0.1,2.63,1.17,4.05,1.43
		c0.36,0.06,0.65,0.55,0.73,0.52c1-0.36,1.88,0.28,2.82,0.26c0.78-0.02,0.97,0.4,1.07,1.07c0.32,2.24,0.67,4.48,1.03,6.71
		c0.05,0.34-0.02,0.75,0.39,1c0.55-1.89-0.18-3.74-0.04-5.61c0.13-1.84,0.03-3.69,0.03-5.54c0-1.89,0-3.78,0-5.67
		c0-1.85,0-3.7,0-5.54c0-1.86,0-3.72,0-5.82c1.26,1.23,2.29,2.26,3.33,3.27c0.35,0.34,0.35,0.68,0.15,1.13
		c-0.24,0.54-0.04,0.91,0.5,1.29c1.05,0.74,2.04,1.58,2.95,2.58c-1.18,1.02-2.46,1.74-3.91,2.05c-0.67,0.14-0.4,0.44-0.36,0.79
		c1.86-0.39,3.4-1.31,4.86-2.41c0.6,0.49,1.19,0.95,1.76,1.44c0.56,0.48,1.11,0.98,1.66,1.47c-2.16,2.32-6.37,4.25-8.81,4.08
		c-0.32-0.84,0.32-1.62,0.14-2.73c-0.4,2.56-0.76,4.84-1.12,7.13c0.12-0.37,0.25-0.63,0.7-0.62c1.07,0.02,2.07-0.67,3.17-0.28
		c0.13,0.05,0.24-0.04,0.29-0.16c0.22-0.45,0.69-0.4,1.06-0.56c0.54-0.22,1.08-0.46,1.63-0.65c0.59-0.19,1.06-0.62,1.72-0.69
		c0.53-0.06,0.76-0.7,1.24-0.98c0.75-0.45,1.44-1.01,2.09-1.6c0.48-0.44,0.84-0.57,1.35-0.04c0.4,0.42,0.91,0.74,1.37,1.1
		c0.03,0.02,0.04,0.06,0.06,0.1c0.01-0.03,0.01-0.06,0.02-0.11c-0.39-0.47-0.75-0.99-1.19-1.43c-0.47-0.47-0.42-0.8,0.04-1.24
		c0.45-0.44,0.81-0.96,1.19-1.46c0.36-0.47,0.59-1.13,1.05-1.38c0.68-0.37,0.36-1.04,0.71-1.51c0.78-1.06,0.76-2.55,1.7-3.57
		c0.04-0.04,0.02-0.15,0-0.22c-0.32-1.07,0.36-2.03,0.32-3.06c-0.02-0.5,0.36-0.57,0.77-0.63c1.66-0.24,3.32-0.52,4.98-0.76
		c0.61-0.09,1.21-0.32,1.81-0.2c0.21,0.36,0.13,0.71,0.13,1.03c0.01,5.96,0,11.93,0,17.89c0,0.29,0.02,0.59,0,0.88
		c-0.02,0.42,0.15,0.62,0.58,0.61c0.97-0.01,1.93-0.01,2.9,0c0.35,0,0.55-0.13,0.54-0.51c-0.01-0.29,0-0.59,0-0.88
		c0-5.54,0-11.09,0-16.63c0-1.09,0.01-1.1,1.1-1.1c4.12,0,8.23,0,12.35,0c1.1,0,2.17,0.2,3.21,0.55c1.67,0.57,2.76,1.69,3.26,3.39
		c0.46,1.54,0.65,3.12,0.74,4.71c0.15,2.81,0.25,5.62,0.75,8.4c0.38,2.07,0.38,2.07,2.46,2.07c0.85,0,1.7-0.03,2.79-0.05
		c-1.36-1.66-1.51-3.43-1.67-5.17c-0.15-1.63-0.2-3.27-0.24-4.9c-0.04-1.85-0.15-3.68-0.63-5.49c-0.63-2.37-1.88-4.19-4.27-5.08
		c-0.06-0.02-0.11-0.09-0.17-0.13c0.21-0.27,0.5-0.35,0.76-0.48c3.24-1.62,5.15-4.2,5.64-7.82c0.13-0.96,0.11-1.93,0.07-2.89
		c-0.2-4.72-2.71-7.97-7.22-9.37c-1.78-0.55-3.61-0.8-5.46-0.8c-5.5-0.02-11-0.01-16.5-0.01c-0.97,0-0.97,0.02-0.99,0.96
		c-0.01,0.25,0,0.5,0,0.76c0,5.96,0,11.93-0.01,17.89c0,0.45,0.1,0.92-0.1,1.36c-1.76,0.3-25.09,0.44-26.9,0.13
		c0.91-0.91,1.79-1.73,2.59-2.61c0.55-0.6,1.11-1.01,1.96-0.72c0.49,0.17,0.71-0.11,1-0.47c0.8-1,1.58-2.03,2.58-2.95
		c0.99,1.12,1.63,2.34,1.99,3.67c0.15,0.57,0.37,0.67,0.9,0.74c1.78,0.24,3.54,0.63,5.33,0.83c0.98,0.11,1.94,0.5,2.93,0.35
		c0.23-1.29-0.66-2.45-0.27-3.71c0.02-0.05-0.05-0.14-0.1-0.2c-0.89-1.23-1.23-2.72-1.81-4.08c-0.3-0.7-0.74-1.09-1.23-1.53
		C246.98,185.56,246.75,185.35,246.4,185.22z M43.1,196.55c0,6.59,0,13.18,0,19.77c0,0.29,0.01,0.59,0,0.88
		c-0.01,0.36,0.14,0.55,0.51,0.54c0.29,0,0.59,0,0.88,0c4.24,0,8.48-0.01,12.72,0.01c2.02,0.01,4.02-0.21,6.01-0.55
		c3.52-0.61,6.5-2.19,8.79-4.96c1.65-2,2.88-4.24,3.56-6.74c1.81-6.62,1.68-13.23-0.59-19.7c-1.82-5.17-5.42-8.61-10.91-9.77
		c-1.93-0.41-3.91-0.47-5.89-0.48c-4.66-0.01-9.32-0.01-13.98-0.01c-1.09,0-1.09,0.01-1.11,1.1c0,0.21,0,0.42,0,0.63
		C43.1,183.71,43.1,190.13,43.1,196.55z M110.61,197.5c0.19-0.9,0.05-1.82,0.09-2.74c0.01-0.36-0.15-0.54-0.52-0.53
		c-0.29,0.01-0.59,0-0.88,0c-6.21,0-12.42,0-18.64,0c-1.15,0-1.16-0.01-1.16-1.17c0-3.15,0-6.3,0-9.44c0-1.3,0.02-2.6-0.01-3.9
		c-0.02-0.61,0.21-0.85,0.8-0.78c0.25,0.03,0.5,0,0.76,0c6.63,0,13.26,0.01,19.9-0.01c0.65,0,1.47,0.31,1.91-0.19
		c0.39-0.43,0.12-1.21,0.13-1.83c0.01-1.5,0.09-1.34-1.37-1.34c-8.23,0-16.45,0-24.68,0c-1.57,0-1.44-0.13-1.44,1.4
		c0,11.04,0,22.08,0,33.12c0,2.27,0.02,4.53-0.01,6.8c-0.01,0.62,0.13,0.97,0.83,0.88c0.25-0.03,0.5,0,0.75,0
		c8.14,0,16.29,0,24.43,0c2.07,0,2.07,0,2.06-2.02c-0.01-1.42,0.16-1.35-1.36-1.35c-0.21,0-0.42,0-0.63,0c-6.97,0-13.94,0-20.9,0
		c-1.14,0-1.16-0.01-1.16-0.92c-0.01-4.99-0.01-9.99,0-14.98c0-0.86,0.03-0.86,0.94-0.88c0.25-0.01,0.5,0,0.76,0c6,0,12,0,18.01,0
		C109.65,197.59,110.12,197.66,110.61,197.5z M328.79,196.63c0,6.63,0,13.27,0,19.9c0,1.31-0.15,1.2,1.22,1.21c0.04,0,0.08,0,0.13,0
		c8.44,0,16.88,0,25.32,0c0.25,0,0.5-0.02,0.76,0c0.42,0.03,0.61-0.13,0.6-0.58c-0.02-0.71-0.03-1.43,0-2.14
		c0.02-0.49-0.17-0.69-0.66-0.65c-0.29,0.02-0.59,0-0.88,0c-7.14,0-14.28,0-21.41,0c-1.03,0-1.05-0.01-1.05-1.02
		c-0.01-3.95,0-7.89,0-11.84c0-1.05,0.03-2.1-0.01-3.15c-0.02-0.61,0.21-0.84,0.8-0.78c0.25,0.03,0.5,0,0.76,0
		c5.88,0,11.76,0,17.63,0c2.01,0,2.02,0,2-1.94c-0.01-1.55,0.21-1.42-1.4-1.42c-6.17,0-12.34,0-18.52,0c-1.37,0-1.27,0.12-1.27-1.31
		c0-2.98,0-5.96,0-8.94c0-1.39-0.01-2.77,0-4.16c0.01-0.87,0.02-0.87,0.92-0.89c0.25-0.01,0.5,0,0.76,0c6.63,0,13.27,0,19.9,0
		c1.88,0,1.89,0,1.88-1.94c-0.01-1.53,0.22-1.43-1.39-1.43c-8.23,0-16.46,0-24.69,0c-0.25,0-0.5,0.02-0.76,0
		c-0.5-0.03-0.67,0.21-0.64,0.68c0.02,0.29,0,0.59,0,0.88C328.79,183.62,328.79,190.13,328.79,196.63z M309.47,198.31
		c0-6.09,0-12.17,0-18.26c0-1.11,0.01-1.12,1.08-1.12c3.36-0.01,6.72,0,10.07,0c1.88,0,1.89,0,1.88-1.94
		c-0.01-1.57,0.26-1.44-1.5-1.44c-8.73,0-17.46-0.01-26.19,0.01c-0.74,0-1.71-0.33-2.18,0.18c-0.46,0.5-0.14,1.45-0.14,2.2
		c-0.01,0.99,0.01,1,1.05,1c3.57,0,7.13,0,10.7,0c1.23,0,1.23-0.16,1.22,1.23c0,0.21,0,0.42,0,0.63c0,11.79,0,23.59,0,35.38
		c0,0.34,0.01,0.67,0,1.01c0,0.34,0.1,0.57,0.49,0.57c1.01,0,2.01,0,3.02,0c0.39,0,0.51-0.2,0.49-0.55c-0.01-0.29,0-0.59,0-0.88
		C309.47,210.31,309.47,204.31,309.47,198.31z M121.19,196.6c0,6.72,0,13.43,0,20.15c0,0.98,0.01,0.98,0.93,1
		c0.25,0.01,0.5,0,0.76,0c7.51,0,15.03,0,22.54,0c1.87,0,1.88,0,1.87-1.84c-0.01-1.71,0.2-1.52-1.56-1.53
		c-6.46-0.01-12.93,0-19.39,0c-1.11,0-1.11-0.01-1.12-1.08c0-0.25,0-0.5,0-0.76c0-11.84,0-23.67,0-35.51c0-0.34-0.01-0.67,0-1.01
		c0-0.31-0.15-0.46-0.45-0.47c-1.01,0-2.01,0-3.02,0c-0.35,0-0.55,0.14-0.54,0.52c0.01,0.29,0,0.59,0,0.88
		C121.19,183.51,121.19,190.05,121.19,196.6z"/>
	<path class="st0" d="M262.04,187.04c0-2.39-0.01-4.79,0-7.18c0-0.91,0.02-0.93,0.88-0.93c4.11-0.01,8.23-0.02,12.34,0.02
		c1.52,0.01,3,0.32,4.43,0.83c2.71,0.95,4.12,2.91,4.46,5.7c0.11,0.88,0.1,1.76,0,2.64c-0.34,2.99-1.94,5.03-4.7,6.16
		c-1.57,0.65-3.22,0.96-4.91,0.97c-3.82,0.03-7.64,0.01-11.46,0.01c-1.02,0-1.03-0.01-1.03-1.03
		C262.04,191.83,262.04,189.44,262.04,187.04z"/>
	<path class="st0" d="M230.19,196.4c-1.03-1.03-2.05-2.06-3.08-3.09c-0.29-0.29-0.19-0.62-0.15-0.95c0.09-0.66,0.01-1.14-0.65-1.58
		c-0.97-0.65-1.8-1.49-2.76-2.3c0.85-1.01,2.01-1.47,3.15-1.96c0.27-0.12,0.56-0.17,0.84-0.25c0.24-0.07,0.36-0.25,0.32-0.46
		c-0.06-0.29-0.31-0.19-0.5-0.15c-1.28,0.31-2.43,0.91-3.51,1.65c-0.84,0.58-0.86,0.61-1.63,0c-0.89-0.7-1.73-1.46-2.59-2.19
		c1.29-2.09,6.44-4.46,9.04-4.17c0.44-2.8,0.88-5.61,1.32-8.41c0.63,0.09,0.5,0.44,0.5,0.69c0.01,1.34,0.01,2.69,0.01,4.03
		c0,5.88,0,11.76,0,17.64c0,0.46,0,0.92,0,1.37C230.39,196.32,230.29,196.36,230.19,196.4z"/>
	<path class="st0" d="M219.47,208.86c1.15-0.96,2.21-1.82,3.24-2.72c0.28-0.24,0.46-0.12,0.65,0.03c1.16,0.93,2.46,1.59,3.88,2.01
		c0.31,0.09,0.41,0.26,0.51,0.59c0.42,1.35,0.5,2.75,0.74,4.31C225,212.66,222.1,211.24,219.47,208.86z"/>
	<path class="st0" d="M241.71,184.99c-1.25,1.05-2.37,1.99-3.51,2.94c-1.37-1.01-2.8-1.87-4.45-2.31c-0.2-0.05-0.39-0.17-0.41-0.42
		c-0.13-1.24-0.42-2.45-0.61-3.68c-0.08-0.51-0.01-0.78,0.64-0.67C236.52,181.39,239.22,182.77,241.71,184.99z"/>
	<path class="st0" d="M246.76,198.98c-0.48,3.59-1.89,6.49-4.21,9.05c-0.37-0.41-0.68-0.74-0.97-1.09
		c-0.63-0.72-1.57-1.36-1.81-2.19c-0.25-0.88,0.94-1.54,1.26-2.43c0.15-0.43,0.45-0.82,0.54-1.26c0.2-0.96,0.68-1.45,1.7-1.53
		C244.37,199.43,245.47,199.19,246.76,198.98z M240.83,203.81c0.41-0.18,0.47-0.56,0.56-0.93c-0.18,0.32-0.36,0.64-0.54,0.96
		c-0.13,0.29-0.51,0.42-0.52,0.81C240.6,204.41,240.75,204.13,240.83,203.81z"/>
	<path class="st0" d="M220.14,191.41c-0.18,0.47-0.46,0.92-0.53,1.4c-0.15,1.13-0.93,1.4-1.87,1.54c-1.07,0.16-2.12,0.41-3.34,0.45
		c0.48-3.44,1.84-6.35,4.23-8.98c0.84,0.99,1.76,1.84,2.35,2.94c0.14,0.27,0.66,0.24,0.5,0.66c-0.12,0.32-0.35,0.57-0.62,0.78
		c-0.1-0.1-0.19-0.2-0.29-0.3c-0.08-0.04,0.15-0.25-0.1-0.2c-0.03,0.01-0.06,0.06-0.08,0.09c-0.3,0.48-0.6,0.95-0.88,1.44
		c-0.01,0.03,0.11,0.05,0.16-0.05c0.02-0.03,0.07-0.04,0.11-0.05C219.91,191.23,220.03,191.32,220.14,191.41z"/>
	<path class="st0" d="M241.6,191.28c0.21,0.54,0.43,1.08,0.65,1.61c0.16,0.38,0.3,0.77,0.08,1.17c-0.44-0.03-0.44-0.38-0.53-0.64
		c-0.42-1.33-1.07-2.55-1.91-3.66c-0.21-0.27-0.41-0.49-0.07-0.85c0.91-0.98,1.77-2,2.72-3.08c2.34,2.57,3.75,5.47,4.2,8.96
		c-1.29,0.05-2.45-0.27-3.62-0.47c-0.37-0.07-0.42-0.45-0.55-0.77c-0.31-0.75-0.36-1.62-0.98-2.24c-0.16-0.48-0.31-0.96-0.74-1.28
		c-0.12-0.31-0.23-0.63-0.73-0.91c0.34,0.4,0.54,0.64,0.75,0.88C241.11,190.43,241.36,190.86,241.6,191.28z"/>
	<path class="st0" d="M227.7,207.63c-1.65-0.42-2.94-1.13-4.22-2.18c1.13-0.96,2.19-1.86,3.39-2.88
		C227.16,204.35,227.42,205.93,227.7,207.63z"/>
	<path class="st0" d="M239.08,204c-0.96-1.13-1.86-2.19-2.86-3.37c1.75-0.28,3.3-0.52,5.04-0.8
		C240.85,201.46,240.22,202.78,239.08,204z"/>
	<path class="st0" d="M237.65,188.38c-1.08,1.03-2.12,1.91-3.29,2.83c-0.5-1.64-0.48-3.25-0.88-4.94
		C235.11,186.62,236.38,187.34,237.65,188.38z"/>
	<path class="st0" d="M222.08,189.83c1.01,1.19,1.86,2.2,2.86,3.38c-1.74,0.28-3.27,0.53-5.01,0.81
		C220.27,192.37,221.03,191.11,222.08,189.83z"/>
	<path class="st0" d="M215.93,189.02c-0.22,0.46-0.45,0.9-0.64,1.36c-0.2,0.46-0.42,0.92-0.54,1.4c-0.14,0.54-0.41,0.62-0.91,0.51
		c-1.06-0.24-1.07-0.25-0.78-1.3c0.25-0.89,0.66-1.71,1.05-2.54c0.23-0.49,0.54-0.6,0.97-0.25
		C215.38,188.44,215.91,188.46,215.93,189.02z"/>
	<path class="st0" d="M225.4,214.85c-1.23-0.68-2.67-0.92-3.8-1.81c0.05-0.16,0.06-0.29,0.12-0.39c0.85-1.41,0.5-1.22,1.83-0.63
		c0.61,0.27,1.23,0.54,1.87,0.73c0.58,0.17,0.76,0.48,0.49,1.01C225.73,214.08,225.81,214.51,225.4,214.85z"/>
	<path class="st0" d="M225.96,180.28c0.13,0.54-0.08,0.65-0.33,0.74c-0.94,0.32-1.88,0.67-2.75,1.15c-0.58,0.32-0.7-0.16-0.9-0.51
		c-0.5-0.85-0.5-0.86,0.33-1.29c0.81-0.42,1.68-0.73,2.53-1.06c0.66-0.25,0.93-0.08,1.01,0.58
		C225.86,180.1,225.96,180.29,225.96,180.28z"/>
	<path class="st0" d="M235.22,180.37c0.06-0.26,0.1-0.51,0.17-0.75c0.11-0.4,0.34-0.51,0.76-0.37c1.03,0.35,2.04,0.76,3.01,1.25
		c0.35,0.17,0.49,0.36,0.29,0.78c-0.48,1.02-0.64,1.09-1.68,0.63c-0.69-0.3-1.39-0.57-2.1-0.85
		C235.34,180.94,235.03,180.81,235.22,180.37z"/>
	<path class="st0" d="M212.83,201.96c1.63-0.59,1.63-0.59,2.21,0.88c0.23,0.58,0.51,1.14,0.75,1.71c0.25,0.59,0.15,0.67-0.71,1.16
		c-0.52,0.3-0.75,0.12-0.97-0.32C213.57,204.31,213.06,203.22,212.83,201.96z"/>
	<path class="st0" d="M235.19,213.42c-0.11-0.46,0.22-0.54,0.49-0.63c0.87-0.3,1.73-0.62,2.54-1.06c0.36-0.19,0.59-0.12,0.84,0.22
		c0.7,0.96,0.68,1.15-0.37,1.64c-0.72,0.33-1.46,0.63-2.21,0.89c-0.97,0.34-0.98,0.31-1.2-0.74
		C235.25,213.62,235.21,213.5,235.19,213.42z"/>
	<path class="st0" d="M248.43,201.95c-0.38,1.24-0.83,2.36-1.36,3.45c-0.24,0.49-0.47,0.66-0.94,0.32c-0.2-0.14-0.44-0.25-0.65-0.38
		c-0.25-0.15-0.32-0.32-0.17-0.61c0.45-0.9,0.91-1.79,1.15-2.78c0.1-0.42,0.39-0.5,0.77-0.37C247.6,201.71,248,201.82,248.43,201.95
		z"/>
	<path class="st0" d="M248.41,191.88c-0.15,0.07-0.26,0.14-0.37,0.18c-1.33,0.46-1.31,0.45-1.82-0.88c-0.24-0.62-0.53-1.22-0.8-1.83
		c-0.28-0.64-0.2-0.7,0.74-1.22c0.57-0.32,0.71-0.03,0.92,0.38C247.64,189.59,248.08,190.71,248.41,191.88z"/>
	<path class="st0" d="M221.98,211.53c-0.2,0.32-0.41,0.8-0.76,1.13c-0.31,0.29-0.61-0.13-0.86-0.3c-0.72-0.5-1.4-1.07-2.1-1.59
		c-0.42-0.31-0.4-0.58,0.01-0.88c0.2-0.15,0.38-0.33,0.57-0.49c0.21-0.18,0.4-0.28,0.65-0.04c0.68,0.63,1.43,1.16,2.2,1.67
		C221.83,211.11,221.98,211.2,221.98,211.53z"/>
	<path class="st0" d="M243.31,210.3c-0.79,0.94-1.81,1.59-2.81,2.28c-0.36,0.25-0.59,0.13-0.82-0.21c-0.61-0.87-0.6-1.05,0.26-1.67
		c0.27-0.19,0.55-0.39,0.81-0.59C242.08,209.09,242.08,209.09,243.31,210.3z"/>
	<path class="st0" d="M217.18,209.67c-0.87-0.86-1.53-1.77-2.16-2.7c-0.31-0.45-0.27-0.69,0.2-0.98c0.95-0.58,0.93-0.61,1.62,0.35
		c0.19,0.27,0.39,0.54,0.59,0.81C218.42,208.44,218.42,208.44,217.18,209.67z"/>
	<path class="st0" d="M218.34,185.53c-0.62,0.84-1.22,1.63-1.78,2.45c-0.24,0.35-0.46,0.44-0.81,0.21c-0.24-0.16-0.5-0.29-0.74-0.46
		c-0.28-0.19-0.37-0.41-0.13-0.72c0.62-0.78,1.22-1.57,1.83-2.36c0.33-0.43,0.64-0.47,0.97,0
		C217.89,184.95,218.12,185.24,218.34,185.53z"/>
	<path class="st0" d="M221.98,182.41c-0.02,0.31-0.24,0.38-0.4,0.5c-0.57,0.43-1.16,0.82-1.7,1.28c-0.66,0.55-0.56,0.71-1.42-0.06
		c-0.67-0.6-0.68-0.61,0-1.19c0.67-0.57,1.36-1.1,2.1-1.59c0.46-0.31,0.74-0.28,0.97,0.23
		C221.67,181.89,221.85,182.17,221.98,182.41z"/>
	<path class="st0" d="M243.27,183.53c-0.03,0.07-0.03,0.11-0.06,0.14c-1.13,1.13-1.13,1.13-2.35,0.18c-0.3-0.23-0.6-0.44-0.9-0.67
		c-0.26-0.2-0.6-0.31-0.75-0.64c0.02-0.08,0.03-0.16,0.07-0.24c0.65-1.39,0.72-1.42,1.94-0.53
		C241.95,182.29,242.72,182.8,243.27,183.53z"/>
	<path class="st0" d="M244.04,184.22c0.81,0.83,1.45,1.71,2.08,2.6c0.33,0.46,0.39,0.76-0.19,1.09c-0.94,0.54-0.94,0.56-1.57-0.33
		c-0.36-0.51-0.72-1.04-1.16-1.48c-0.44-0.45-0.38-0.78,0.05-1.15C243.5,184.73,243.63,184.39,244.04,184.22z"/>
	<path class="st0" d="M244.01,209.62c-1.3-1.16-1.3-1.15-0.33-2.41c0.31-0.39,0.57-0.82,0.88-1.22c0.42-0.56,0.56-0.51,1.45,0.04
		c0.55,0.34,0.38,0.64,0.11,1.01C245.47,207.94,244.86,208.88,244.01,209.62z"/>
	<path class="st0" d="M226.06,214.82c0-0.12-0.01-0.2,0-0.28c0.3-1.49,0.29-1.44,1.75-1.19c0.62,0.11,0.89,0.36,0.91,0.95
		c0.01,0.32,0.24,0.64-0.04,1.02C227.81,215.25,226.91,215.18,226.06,214.82z"/>
	<path class="st0" d="M232.39,178.49c0.67,0.1,1.25,0.16,1.82,0.29c0.3,0.07,0.76-0.01,0.86,0.37c0.14,0.51-0.14,0.97-0.35,1.42
		c-0.04,0.08-0.21,0.11-0.32,0.13c-0.08,0.02-0.16-0.02-0.25-0.03C232.54,180.49,232.45,180.39,232.39,178.49z"/>
	<path class="st0" d="M212.21,195.06c-0.11-0.5,0.11-1.02,0.18-1.54c0.17-1.26,0.33-1.33,1.53-0.87c0.38,0.15,0.55,0.33,0.42,0.74
		c-0.06,0.2-0.13,0.4-0.14,0.61c-0.03,0.79-0.46,1.11-1.21,1.1C212.75,195.09,212.52,195.28,212.21,195.06z"/>
	<path class="st0" d="M212.97,198.73c1.01,0.05,1.01,0.05,1.22,1.01c0.04,0.2,0.05,0.42,0.13,0.61c0.24,0.61-0.08,0.83-0.6,0.95
		c-0.12,0.03-0.25,0.03-0.36,0.08c-0.61,0.26-0.82-0.06-0.89-0.6c-0.06-0.41-0.12-0.82-0.18-1.23
		C212.16,198.7,212.16,198.7,212.97,198.73z"/>
	<path class="st0" d="M228.2,178.55c0.53-0.11,0.67,0.12,0.64,0.61c-0.06,1.01-1.22,1.85-2.22,1.52c-0.61-0.2-0.36-0.87-0.54-1.31
		c-0.16-0.41,0.22-0.46,0.51-0.51C227.14,178.75,227.67,178.65,228.2,178.55z"/>
	<path class="st0" d="M248.91,198.75c0.14,0.62-0.01,1.22-0.17,1.81c-0.23,0.87-0.99,1.12-1.72,0.56c-0.09-0.07-0.21-0.14-0.18-0.29
		c0.01-0.08,0.01-0.17,0.03-0.25C247.16,198.85,246.71,198.83,248.91,198.75z"/>
	<path class="st0" d="M248.89,195.13c-0.16,0.02-0.25,0.04-0.33,0.03c-1.43-0.08-1.84-0.55-1.72-2.02c0.06-0.64,0.65-0.5,1.04-0.65
		c0.36-0.14,0.65-0.08,0.75,0.36C248.8,193.57,249.06,194.28,248.89,195.13z"/>
	<path class="st0" d="M235.07,214.85c-0.76,0.27-1.46,0.36-2.16,0.44c-0.34,0.04-0.61-0.08-0.58-0.45c0.03-0.45-0.03-1.07,0.35-1.26
		c0.57-0.29,1.25-0.44,1.92-0.37c0.17,0.02,0.2,0.24,0.26,0.39C234.99,213.99,235.17,214.37,235.07,214.85z"/>
	<path class="st0" d="M221.13,180.08c1.26-0.95,2.68-1.51,4.23-1.76C223.95,178.92,222.54,179.51,221.13,180.08z"/>
	<path class="st0" d="M221.17,213.79c1.37,0.62,2.79,1.11,4.15,1.74C223.79,215.3,222.4,214.72,221.17,213.79z"/>
	<path class="st0" d="M240.5,213.53c1.08-0.9,2.23-1.73,3.38-2.56C242.94,212.07,241.85,212.96,240.5,213.53z"/>
	<path class="st0" d="M212.01,191.69c0.11-1.55,0.86-2.84,1.62-4.13C213.21,188.98,212.51,190.29,212.01,191.69z"/>
	<path class="st0" d="M246.42,185.2c-0.08,0.42,0.12,0.65,0.5,0.76c-0.16,0.39,0.4,0.63,0.18,1.12c-0.89-1.17-1.64-2.39-2.6-3.45
		C245.4,183.83,245.58,184.93,246.42,185.2z"/>
	<path class="st0" d="M212.04,202.16c0.54,1.37,1.08,2.75,1.81,4.15C213.02,205.76,212.03,203.5,212.04,202.16z"/>
	<path class="st0" d="M216.65,210.21c-1.19-0.9-2.1-2-2.59-3.42C214.92,207.93,215.79,209.07,216.65,210.21z"/>
	<path class="st0" d="M244.54,210.27c0.82-1.14,1.72-2.22,2.58-3.6C246.85,207.89,245.94,209.16,244.54,210.27z"/>
	<path class="st0" d="M240.01,213.8c-1.21,0.95-2.61,1.46-4.11,1.72C237.26,214.93,238.63,214.35,240.01,213.8z"/>
	<path class="st0" d="M217.31,182.93c0.84-1.16,2.14-2.13,3.34-2.54C219.57,181.27,218.41,182.05,217.31,182.93z"/>
	<path class="st0" d="M235.92,178.35c1.5,0.27,2.88,0.79,4.09,1.7C238.63,179.53,237.27,178.92,235.92,178.35z"/>
	<path class="st0" d="M213.98,187.06c0.54-1.4,1.48-2.51,2.61-3.47C215.74,184.77,214.89,185.94,213.98,187.06z"/>
	<path class="st0" d="M249.21,202.27c-0.26,1.62-0.88,2.86-1.67,4.05c0.04-0.71,0.45-1.29,0.71-1.93
		C248.53,203.7,248.7,202.98,249.21,202.27z"/>
	<path class="st0" d="M244.03,182.81c-0.19,0.04-0.3,0.1-0.33,0.07c-1.06-0.86-2.13-1.69-3.2-2.54
		C241.86,180.87,242.92,181.81,244.03,182.81z"/>
	<path class="st0" d="M217.33,210.96c1.14,0.78,2.18,1.69,3.57,2.51C219.77,213.31,218.2,212.19,217.33,210.96z"/>
	<path class="st0" d="M248.94,191c-0.52-1.13-1.04-2.26-1.56-3.4c0.08-0.03,0.16-0.07,0.24-0.1c0.54,1.13,1.39,2.13,1.29,3.52
		C248.91,191.02,248.94,191,248.94,191z"/>
	<path class="st0" d="M211.14,195.21c0.12-1,0.25-1.99,0.77-2.91c-0.15,0.99-0.29,1.97-0.44,2.96
		C211.36,195.24,211.25,195.22,211.14,195.21z"/>
	<path class="st0" d="M228.84,216.06c-1.07,0.32-2.03,0-3-0.23c0.01-0.09,0.03-0.18,0.04-0.27
		C226.87,215.72,227.86,215.89,228.84,216.06z"/>
	<path class="st0" d="M232.38,216.04c0.94-0.15,1.88-0.31,2.82-0.46c-0.85,0.64-1.82,0.64-2.78,0.72
		C232.4,216.21,232.39,216.12,232.38,216.04z"/>
	<path class="st0" d="M211.78,201.62c-0.37-0.96-0.53-1.96-0.64-3.11C211.64,199.19,211.8,199.98,211.78,201.62z"/>
	<path class="st0" d="M249.81,198.73c0.1,1.01-0.01,2.02-0.45,2.97C249.23,200.68,249.62,199.73,249.81,198.73z"/>
	<path class="st0" d="M232.35,177.81c1.02-0.26,1.97-0.07,2.9,0.24c-0.01,0.08-0.03,0.16-0.04,0.24
		C234.25,178.13,233.3,177.97,232.35,177.81z"/>
	<path class="st0" d="M249.7,194.01c-0.48-0.51-0.31-1.18-0.42-1.79c0.54,0.51,0.5,1.15,0.4,1.8L249.7,194.01z"/>
	<path class="st0" d="M220.88,190.21c-0.18,0.44-0.4,0.85-0.73,1.2c-0.12-0.09-0.23-0.18-0.35-0.27c0.11-0.51,0.35-0.94,0.79-1.24
		C220.68,190,220.78,190.1,220.88,190.21z"/>
	<path class="st0" d="M249.68,194.03c0.4,0.36,0.25,0.77,0.13,1.34c-0.18-0.55-0.21-0.95-0.11-1.35
		C249.7,194.01,249.68,194.03,249.68,194.03z"/>
	<path class="st0" d="M248.91,191.02c0.25-0.12,0.24,0.1,0.28,0.23c0.04,0.13,0.16,0.32-0.08,0.37c-0.15,0.03-0.16-0.15-0.17-0.27
		c-0.02-0.12,0-0.24-0.01-0.36C248.94,191,248.91,191.02,248.91,191.02z"/>
	<path class="st0" d="M47.11,196.62c0-5.41,0-10.83,0-16.24c0-0.29,0.02-0.59,0-0.88c-0.02-0.45,0.21-0.6,0.61-0.57
		c0.08,0.01,0.17,0,0.25,0c4.24,0.07,8.47-0.06,12.71,0.18c5.6,0.31,9.83,4.73,10.93,8.83c1.58,5.86,1.62,11.7-0.19,17.49
		c-1.47,4.71-4.78,7.46-9.56,8.48c-1.52,0.32-3.07,0.46-4.63,0.47c-2.98,0.01-5.96,0-8.94,0c-1.19,0-1.19-0.01-1.19-1.26
		C47.11,207.62,47.11,202.12,47.11,196.62z"/>
</g>
</svg>
